<svg width="20" height="20" viewBox="0 0 20 20" fill="none" xmlns="http://www.w3.org/2000/svg">
<path d="M10 20C15.5228 20 20 15.5228 20 10C20 4.47715 15.5228 0 10 0C4.47715 0 0 4.47715 0 10C0 15.5228 4.47715 20 10 20Z" fill="white"/>
<path d="M4.57556 9.78357L14.2172 6.06607C14.6647 5.9044 15.0556 6.17523 14.9106 6.8519L14.9114 6.85107L13.2697 14.5852C13.1481 15.1336 12.8222 15.2669 12.3664 15.0086L9.8664 13.1661L8.66056 14.3277C8.52723 14.4611 8.41473 14.5736 8.1564 14.5736L8.3339 12.0294L12.9672 7.84357C13.1689 7.66607 12.9222 7.56607 12.6564 7.74273L6.93056 11.3477L4.46223 10.5777C3.9264 10.4077 3.91473 10.0419 4.57556 9.78357V9.78357Z" fill="#2B2534"/>
</svg>
