<svg width="300" height="274" viewBox="0 0 300 274" fill="none" xmlns="http://www.w3.org/2000/svg">
<g clip-path="url(#clip0)">
<path d="M182.513 174.047C197.651 170.629 205.953 151.096 194.721 132.539C205.953 122.773 203.023 92.9844 180.071 89.566C182.513 69.0561 157.608 57.3362 143.935 68.5678C129.773 56.8478 106.333 69.0561 108.775 89.566C85.8231 92.9844 82.8931 122.773 94.1247 132.539C82.8931 151.096 91.1947 170.629 106.333 174.047C111.216 197.487 127.331 202.859 143.935 196.511C161.515 201.882 177.629 197.487 182.513 174.047Z" fill="url(#paint0_linear)"/>
<path d="M189.349 182.35C204.487 178.932 212.789 159.398 201.557 140.842C212.789 131.075 209.859 101.287 186.908 97.8685C189.349 77.3586 164.444 65.6386 150.771 76.8703C136.609 65.1503 113.169 77.3586 115.611 97.8685C92.6595 101.287 89.7295 131.075 100.961 140.842C89.7295 159.398 98.0312 178.932 113.169 182.35C118.053 205.79 134.168 211.161 150.771 204.813C168.351 210.185 184.466 205.79 189.349 182.35Z" stroke="#262626" stroke-width="5.19672" stroke-miterlimit="10"/>
<path d="M150.771 76.8701V204.813" stroke="#262626" stroke-width="5.19672" stroke-miterlimit="10"/>
<path d="M187.318 98.1118C174.705 107.146 180.565 121.796 192.773 122.284" stroke="#262626" stroke-width="5.19672" stroke-miterlimit="10"/>
<path d="M150.771 114.462C141.005 128.15 127.332 119.36 127.82 108.128" stroke="#262626" stroke-width="5.19672" stroke-miterlimit="10"/>
<path d="M150.771 149.714C155.166 132.54 171.281 140.353 171.281 150.608" stroke="#262626" stroke-width="5.19672" stroke-miterlimit="10"/>
<path d="M113.17 182.349C131.726 181.372 124.89 159.885 112.681 159.885" stroke="#262626" stroke-width="5.19672" stroke-miterlimit="10"/>
<path d="M189.349 182.351C182.024 173.561 171.769 178.932 171.769 186.746" stroke="#262626" stroke-width="5.19672" stroke-miterlimit="10"/>
</g>
<defs>
<linearGradient id="paint0_linear" x1="60.3252" y1="-6.85" x2="248.041" y2="192.546" gradientUnits="userSpaceOnUse">
<stop stop-color="#F79D1E"/>
<stop offset="1" stop-color="#F9F486"/>
</linearGradient>
<clipPath id="clip0">
<rect width="217.074" height="146.809" fill="white" transform="translate(41 64)"/>
</clipPath>
</defs>
</svg>
