<svg width="300" height="274" viewBox="0 0 300 274" fill="none" xmlns="http://www.w3.org/2000/svg">
<path d="M83.3048 142.044C86.5106 133.068 91.5832 123.618 98.6657 119.475C97.4582 114.805 90.1144 99.7173 90.1144 99.7173C90.1144 99.7173 104.669 101.508 115.217 108.263C122.427 103.99 141.741 102.505 149.665 102.922C175.035 104.257 204.944 117.609 205.745 157.933C205.745 176.626 193.327 192.248 193.327 192.248L197.333 222.691H176.503L175.519 202.259C160.565 210.538 118.639 204.129 118.639 204.129L115.884 222.691H95.0548L101.154 195.256C76.3744 174.901 67.5244 161.138 67.5244 161.138L67.3909 146.584L83.3048 142.044Z" fill="url(#paint0_linear)"/>
<path d="M91.2696 135.849C94.4754 126.873 99.548 117.423 106.631 113.28C105.423 108.61 98.0793 93.5222 98.0793 93.5222C98.0793 93.5222 112.634 95.3131 123.181 102.068C130.392 97.7949 149.706 96.3097 157.63 96.7268C183 98.062 212.909 111.414 213.71 151.738C213.71 170.431 201.292 186.053 201.292 186.053L205.298 216.496H184.468L183.484 196.064C168.529 204.343 126.603 197.933 126.603 197.933L123.849 216.496H103.02L109.119 189.061C84.3392 168.706 75.4892 154.943 75.4892 154.943L75.3557 140.389L91.2696 135.849Z" stroke="#262626" stroke-width="2.62871" stroke-linecap="round" stroke-linejoin="round"/>
<path d="M209.829 128.451C212.142 128.043 214.238 126.832 215.747 125.033C217.332 123.207 218.455 121.028 219.02 118.678C219.292 117.56 219.367 116.403 219.241 115.26C219.266 114.821 219.169 114.383 218.961 113.996C218.753 113.608 218.441 113.286 218.061 113.065C217.681 112.844 217.247 112.733 216.807 112.743C216.367 112.754 215.939 112.886 215.57 113.125C215.2 113.394 214.896 113.744 214.681 114.148C214.466 114.553 214.347 115.001 214.331 115.458C214.162 117.809 214.786 120.148 216.103 122.103C216.698 123.06 217.512 123.862 218.478 124.443C218.924 124.7 219.417 124.864 219.928 124.926C220.438 124.989 220.956 124.949 221.451 124.807C221.713 124.721 221.971 124.619 222.222 124.504L223.028 124.088C223.297 123.954 223.554 123.797 223.796 123.618C224.039 123.445 224.308 123.298 224.536 123.105C225.473 122.348 226.258 121.42 226.849 120.369C228.017 118.141 228.49 115.613 228.208 113.113L228.204 113.072C228.192 112.955 228.226 112.837 228.298 112.744C228.37 112.65 228.475 112.587 228.591 112.568C228.707 112.549 228.827 112.574 228.925 112.639C229.023 112.705 229.093 112.805 229.12 112.92C229.436 114.274 229.538 115.67 229.423 117.056C229.239 119.942 227.954 122.648 225.835 124.616C225.574 124.868 225.274 125.07 224.993 125.299C224.717 125.533 224.419 125.738 224.102 125.911L223.165 126.445C222.823 126.62 222.47 126.775 222.108 126.907C221.336 127.158 220.522 127.257 219.711 127.201C218.901 127.136 218.112 126.913 217.389 126.543C216.034 125.83 214.877 124.792 214.021 123.523C213.196 122.316 212.565 120.987 212.151 119.584C211.707 118.151 211.548 116.644 211.681 115.149C211.753 114.328 211.978 113.528 212.343 112.79C212.75 111.969 213.373 111.275 214.145 110.782C214.917 110.329 215.786 110.07 216.68 110.027C217.589 109.965 218.498 110.143 219.317 110.543C220.16 110.971 220.849 111.651 221.288 112.49C221.677 113.226 221.935 114.026 222.048 114.851C222.228 116.342 222.141 117.853 221.79 119.313C221.135 122.139 219.776 124.753 217.839 126.913C215.875 129.179 213.158 130.66 210.189 131.082L210.18 131.083C209.834 131.122 209.487 131.025 209.213 130.811C208.939 130.597 208.759 130.284 208.713 129.939C208.667 129.594 208.759 129.245 208.967 128.967C209.176 128.689 209.486 128.504 209.829 128.451V128.451Z" fill="#262626"/>
<path d="M115.704 135.983C117.326 135.983 118.642 134.668 118.642 133.045C118.642 131.423 117.326 130.108 115.704 130.108C114.082 130.108 112.767 131.423 112.767 133.045C112.767 134.668 114.082 135.983 115.704 135.983Z" fill="black" stroke="black" stroke-width="2.655" stroke-linecap="round" stroke-linejoin="round"/>
<path d="M144.734 108.274C146.656 107.521 148.649 106.963 150.683 106.609C152.713 106.254 154.769 106.065 156.83 106.045C158.893 106.035 160.953 106.2 162.989 106.536C165.049 106.869 167.06 107.459 168.974 108.292C169.221 108.404 169.416 108.606 169.519 108.857C169.622 109.108 169.626 109.389 169.528 109.642C169.431 109.896 169.24 110.102 168.996 110.219C168.751 110.337 168.47 110.356 168.212 110.273L168.185 110.264C166.366 109.692 164.499 109.284 162.607 109.046C160.697 108.791 158.771 108.674 156.845 108.695C154.916 108.698 152.99 108.834 151.08 109.102C149.17 109.368 147.281 109.762 145.424 110.283L145.413 110.286C145.151 110.359 144.871 110.329 144.63 110.201C144.39 110.074 144.207 109.86 144.12 109.602C144.033 109.344 144.048 109.062 144.162 108.815C144.277 108.568 144.481 108.375 144.734 108.274Z" fill="#262626"/>
<path d="M151.386 87.4489C159.129 87.4489 165.405 81.172 165.405 73.429C165.405 65.6861 159.129 59.4092 151.386 59.4092C143.643 59.4092 137.366 65.6861 137.366 73.429C137.366 81.172 143.643 87.4489 151.386 87.4489Z" fill="#F9F486"/>
<path d="M156.695 83.9089C164.438 83.9089 170.715 77.632 170.715 69.889C170.715 62.146 164.438 55.8691 156.695 55.8691C148.952 55.8691 142.676 62.146 142.676 69.889C142.676 77.632 148.952 83.9089 156.695 83.9089Z" stroke="#262626" stroke-width="2.62871" stroke-linecap="round" stroke-linejoin="round"/>
<path d="M165.822 81.1549C165.109 81.8933 164.233 82.4544 163.263 82.793C162.336 83.1316 161.362 83.3229 160.376 83.36C158.445 83.4536 156.516 83.1471 154.71 82.4599C152.011 81.4077 149.683 79.5812 148.018 77.21C146.354 74.8387 145.427 72.0284 145.355 69.1322C145.307 67.2286 145.576 65.3304 146.151 63.515C146.459 62.6019 146.86 61.7229 147.347 60.8918C147.852 60.0664 148.449 59.3017 149.129 58.6129C150.5 57.272 152.13 56.226 153.921 55.5395C154.108 55.4651 154.316 55.4675 154.501 55.5461C154.686 55.6247 154.833 55.7732 154.909 55.9592C154.985 56.1453 154.985 56.3539 154.908 56.5397C154.831 56.7254 154.684 56.8733 154.498 56.9511L154.486 56.956C152.906 57.5847 151.471 58.5296 150.27 59.7327C149.69 60.3375 149.181 61.0063 148.754 61.7263C148.339 62.4582 148 63.2302 147.742 64.0306C147.252 65.6692 147.034 67.3769 147.095 69.0861C147.162 71.6349 147.979 74.1073 149.445 76.1933C150.912 78.2793 152.961 79.886 155.337 80.8118C156.913 81.4101 158.596 81.6749 160.28 81.5894C161.099 81.5444 161.908 81.3948 162.688 81.1443C163.438 80.9105 164.153 80.5738 164.811 80.1437L164.911 80.0774C165.056 79.9808 165.231 79.941 165.404 79.9654C165.577 79.9898 165.734 80.0769 165.847 80.2099C165.959 80.343 166.019 80.5128 166.014 80.6871C166.01 80.8613 165.942 81.0278 165.822 81.1549L165.822 81.1549Z" fill="#262626"/>
<defs>
<linearGradient id="paint0_linear" x1="84.4157" y1="197.344" x2="202.563" y2="125.35" gradientUnits="userSpaceOnUse">
<stop stop-color="#59228A"/>
<stop offset="0.13482" stop-color="#672D92"/>
<stop offset="0.38966" stop-color="#8D4AA7"/>
<stop offset="0.58342" stop-color="#AD63BA"/>
<stop offset="1" stop-color="#C97BC4"/>
</linearGradient>
</defs>
</svg>
