<svg width="300" height="274" viewBox="0 0 300 274" fill="none" xmlns="http://www.w3.org/2000/svg">
<g clip-path="url(#clip0)">
<path d="M175.984 77.5068H114.141C110.583 77.5068 107.703 80.3871 107.703 83.9457V191.09C107.703 194.648 110.583 197.528 114.141 197.528H196.193C199.751 197.528 202.631 194.648 202.631 191.09V104.149C202.631 103.69 202.449 103.247 202.125 102.923L177.215 78.013C176.886 77.6895 176.443 77.5068 175.984 77.5068Z" fill="url(#paint0_linear)"/>
<path d="M109.982 46.0935C106.199 47.4136 102.484 49.1094 98.9306 51.207C95.3772 53.2994 92.0013 55.7935 88.8758 58.6373C87.3156 60.0617 85.839 61.5749 84.4093 63.1455C83.6892 63.9282 83.0317 64.7578 82.343 65.5718C81.6803 66.4015 81.0385 67.2468 80.3863 68.0973C79.7706 68.9634 79.1444 69.8244 78.5444 70.7062C77.9756 71.5985 77.386 72.4907 76.8329 73.3986C76.3007 74.3118 75.7372 75.2197 75.2258 76.1537L74.464 77.5521C74.2083 78.0165 73.9526 78.4861 73.7283 78.9609C71.829 82.7439 70.1645 86.6312 68.7817 90.5811C68.0825 92.5535 67.4407 94.5363 66.8407 96.5295C66.2511 98.5227 65.7188 100.521 65.2231 102.525C64.8579 104.001 64.5187 105.473 64.1952 106.95L48.312 101.763L72.1473 156.128L99.7498 106.783L84.9206 107.931C84.9676 107.231 85.0093 106.532 85.0615 105.838C85.2024 104.038 85.3746 102.248 85.5833 100.469C85.7763 98.6897 86.0112 96.9156 86.2929 95.1624C86.8617 91.656 87.54 88.1861 88.4792 84.7997C89.3819 81.4029 90.5246 78.0947 91.8969 74.8701C94.6676 68.4521 98.5132 62.4254 103.559 57.098C106.074 54.4369 108.865 51.9479 111.881 49.6416C114.903 47.3458 118.127 45.2065 121.503 43.208C117.631 43.8289 113.765 44.7629 109.982 46.0935Z" fill="url(#paint1_linear)"/>
<path d="M204.53 236.04C208.313 234.719 212.028 233.024 215.581 230.926C219.135 228.834 222.511 226.34 225.636 223.496C227.196 222.071 228.673 220.558 230.103 218.988C230.823 218.205 231.48 217.375 232.169 216.561C232.832 215.732 233.474 214.886 234.126 214.036C234.741 213.17 235.368 212.309 235.968 211.427C236.536 210.535 237.126 209.642 237.679 208.734C238.211 207.821 238.775 206.913 239.286 205.979L240.048 204.581C240.304 204.117 240.559 203.647 240.784 203.172C242.683 199.389 244.348 195.502 245.73 191.552C246.429 189.58 247.071 187.597 247.671 185.604C248.261 183.61 248.793 181.612 249.289 179.608C249.654 178.132 249.993 176.66 250.317 175.183L266.2 180.37L242.36 126.01L214.757 175.356L229.586 174.208C229.539 174.907 229.497 175.606 229.445 176.3C229.304 178.1 229.132 179.89 228.924 181.669C228.73 183.449 228.496 185.223 228.214 186.976C227.645 190.482 226.967 193.952 226.028 197.339C225.125 200.735 223.982 204.044 222.61 207.268C219.839 213.686 215.994 219.713 210.948 225.04C208.433 227.701 205.641 230.19 202.625 232.497C199.604 234.792 196.38 236.932 193.004 238.93C196.886 238.309 200.747 237.37 204.53 236.04Z" fill="url(#paint2_linear)"/>
<path d="M164.274 72.9014H102.431C98.8727 72.9014 95.9924 75.7816 95.9924 79.3402V186.484C95.9924 190.043 98.8727 192.923 102.431 192.923H184.482C188.041 192.923 190.921 190.043 190.921 186.484V99.5491C190.921 99.0899 190.739 98.6464 190.415 98.3229L165.505 73.4127C165.176 73.084 164.733 72.9014 164.274 72.9014Z" stroke="black" stroke-width="5.7978" stroke-miterlimit="10" stroke-linecap="round" stroke-linejoin="round"/>
<path d="M98.275 41.4932C94.492 42.8134 90.7769 44.5092 87.2235 46.6068C83.6701 48.6991 80.2942 51.1933 77.1687 54.037C75.6085 55.4615 74.1318 56.9747 72.7021 58.5453C71.9821 59.3279 71.3246 60.1576 70.6359 60.9716C69.9732 61.8012 69.3314 62.6465 68.6792 63.497C68.0635 64.3632 67.4373 65.2241 66.8373 66.106C66.2685 66.9982 65.6789 67.8905 65.1258 68.7984C64.5936 69.7115 64.03 70.6194 63.5187 71.5534L62.7569 72.9518C62.5012 73.4162 62.2455 73.8858 62.0212 74.3606C60.1219 78.1436 58.4574 82.0309 57.0746 85.9808C56.3754 87.9532 55.7336 89.936 55.1336 91.9292C54.5439 93.9225 54.0117 95.9209 53.516 97.9246C53.1508 99.4012 52.8116 100.873 52.4881 102.349L36.6101 97.1575L60.4454 151.523L88.0479 102.177L73.2187 103.325C73.2657 102.626 73.3074 101.927 73.3596 101.233C73.5005 99.4325 73.6727 97.6428 73.8814 95.8635C74.0745 94.0842 74.3093 92.3101 74.591 90.5569C75.1598 87.0505 75.8381 83.5806 76.7773 80.1942C77.68 76.7974 78.8227 73.4893 80.195 70.2646C82.9657 63.8466 86.8113 57.82 91.857 52.4925C94.372 49.8314 97.1636 47.3425 100.179 45.0362C103.201 42.7403 106.425 40.601 109.801 38.6025C105.919 39.2287 102.058 40.1627 98.275 41.4932Z" stroke="black" stroke-width="5.7978" stroke-miterlimit="10" stroke-linecap="round" stroke-linejoin="round"/>
<path d="M192.823 231.447C196.606 230.127 200.321 228.431 203.875 226.334C207.428 224.241 210.804 221.747 213.929 218.903C215.49 217.479 216.966 215.966 218.396 214.395C219.116 213.612 219.773 212.783 220.462 211.969C221.125 211.139 221.767 210.294 222.419 209.443C223.035 208.577 223.661 207.716 224.261 206.834C224.83 205.942 225.419 205.05 225.972 204.142C226.504 203.229 227.068 202.321 227.579 201.387L228.341 199.989C228.597 199.524 228.853 199.055 229.077 198.58C230.976 194.797 232.641 190.909 234.023 186.96C234.723 184.987 235.364 183.004 235.965 181.011C236.554 179.018 237.086 177.02 237.582 175.016C237.947 173.539 238.286 172.068 238.61 170.591L254.493 175.778L230.658 121.413L203.055 170.758L217.885 169.61C217.838 170.309 217.796 171.009 217.744 171.702C217.603 173.503 217.431 175.292 217.222 177.072C217.029 178.851 216.794 180.625 216.512 182.378C215.944 185.885 215.265 189.355 214.326 192.741C213.423 196.138 212.281 199.446 210.908 202.671C208.138 209.089 204.292 215.115 199.246 220.443C196.731 223.104 193.94 225.593 190.924 227.899C187.903 230.195 184.678 232.334 181.302 234.333C185.174 233.712 189.04 232.778 192.823 231.447Z" stroke="black" stroke-width="5.7978" stroke-miterlimit="10" stroke-linecap="round" stroke-linejoin="round"/>
<path d="M164.369 73.1155V99.878H191.131" stroke="black" stroke-width="5.7978" stroke-miterlimit="10" stroke-linejoin="round"/>
</g>
<defs>
<linearGradient id="paint0_linear" x1="119.491" y1="77.3768" x2="220.654" y2="174.419" gradientUnits="userSpaceOnUse">
<stop stop-color="#9D5BD7"/>
<stop offset="1" stop-color="#D491CB"/>
</linearGradient>
<linearGradient id="paint1_linear" x1="57.4007" y1="43.0857" x2="149.967" y2="115.853" gradientUnits="userSpaceOnUse">
<stop stop-color="#9D5BD7"/>
<stop offset="1" stop-color="#D491CB"/>
</linearGradient>
<linearGradient id="paint2_linear" x1="202.093" y1="125.888" x2="294.661" y2="198.662" gradientUnits="userSpaceOnUse">
<stop stop-color="#9D5BD7"/>
<stop offset="1" stop-color="#D491CB"/>
</linearGradient>
<clipPath id="clip0">
<rect width="232.195" height="202.923" fill="white" transform="translate(34 36)"/>
</clipPath>
</defs>
</svg>
