<svg width="300" height="274" viewBox="0 0 300 274" fill="none" xmlns="http://www.w3.org/2000/svg">
<g clip-path="url(#clip0)">
<path d="M147.758 173.372C143.356 173.372 139.053 172.067 135.392 169.621C131.732 167.175 128.879 163.699 127.195 159.632C125.51 155.565 125.069 151.09 125.928 146.772C126.787 142.455 128.907 138.489 132.02 135.376C135.132 132.263 139.098 130.143 143.416 129.285C147.733 128.426 152.209 128.867 156.276 130.551C160.343 132.236 163.819 135.089 166.265 138.749C168.71 142.409 170.016 146.712 170.016 151.114C170.009 157.016 167.662 162.673 163.489 166.846C159.317 171.019 153.659 173.366 147.758 173.372ZM147.758 141.264C145.81 141.264 143.905 141.842 142.285 142.924C140.665 144.006 139.403 145.545 138.657 147.345C137.911 149.145 137.716 151.126 138.097 153.037C138.477 154.948 139.415 156.703 140.793 158.08C142.17 159.458 143.926 160.396 145.837 160.776C147.747 161.156 149.728 160.961 151.528 160.216C153.328 159.47 154.867 158.207 155.949 156.587C157.031 154.967 157.609 153.063 157.609 151.114C157.606 148.503 156.567 145.999 154.721 144.152C152.874 142.305 150.37 141.267 147.758 141.264V141.264Z" fill="url(#paint0_linear)"/>
<path d="M147.758 221.535C133.83 221.535 120.215 217.404 108.634 209.667C97.0538 201.929 88.0278 190.931 82.6979 178.063C77.3679 165.195 75.9734 151.036 78.6905 137.376C81.4077 123.716 88.1146 111.168 97.9631 101.319C107.812 91.4708 120.359 84.7639 134.02 82.0467C147.68 79.3296 161.839 80.7241 174.707 86.0541C187.574 91.384 198.572 100.41 206.31 111.991C214.048 123.571 218.178 137.186 218.178 151.114C218.157 169.784 210.731 187.684 197.529 200.886C184.328 214.087 166.428 221.513 147.758 221.535V221.535ZM147.758 93.1004C136.284 93.1004 125.068 96.5028 115.527 102.877C105.987 109.252 98.5511 118.313 94.1602 128.913C89.7693 139.514 88.6204 151.178 90.8589 162.432C93.0974 173.686 98.6226 184.023 106.736 192.136C114.849 200.249 125.186 205.775 136.44 208.013C147.694 210.252 159.358 209.103 169.959 204.712C180.559 200.321 189.62 192.885 195.995 183.345C202.369 173.805 205.772 162.588 205.772 151.114C205.754 135.733 199.636 120.987 188.761 110.111C177.885 99.2356 163.139 93.1178 147.758 93.1004Z" fill="url(#paint1_linear)"/>
<path d="M147.758 197.453C138.593 197.453 129.634 194.735 122.013 189.643C114.393 184.551 108.454 177.314 104.946 168.847C101.439 160.38 100.521 151.062 102.309 142.074C104.097 133.085 108.511 124.828 114.991 118.347C121.472 111.867 129.729 107.453 138.718 105.665C147.706 103.877 157.024 104.795 165.491 108.302C173.958 111.809 181.195 117.749 186.287 125.369C191.379 132.99 194.097 141.949 194.097 151.114C194.083 163.399 189.196 175.178 180.509 183.865C171.822 192.552 160.043 197.439 147.758 197.453V197.453ZM147.758 117.182C141.047 117.182 134.486 119.172 128.906 122.9C123.326 126.629 118.977 131.928 116.409 138.129C113.84 144.329 113.168 151.152 114.478 157.734C115.787 164.316 119.019 170.362 123.764 175.108C128.51 179.853 134.556 183.085 141.138 184.394C147.72 185.703 154.543 185.031 160.743 182.463C166.944 179.895 172.243 175.546 175.972 169.965C179.7 164.385 181.69 157.825 181.69 151.114C181.68 142.117 178.102 133.493 171.74 127.131C165.379 120.77 156.754 117.192 147.758 117.182V117.182Z" fill="url(#paint2_linear)"/>
<path d="M148.644 192.137C139.479 192.137 130.52 189.419 122.9 184.327C115.279 179.235 109.34 171.998 105.833 163.531C102.325 155.063 101.408 145.746 103.196 136.757C104.984 127.769 109.397 119.512 115.878 113.031C122.358 106.551 130.615 102.137 139.604 100.349C148.593 98.5612 157.91 99.4788 166.377 102.986C174.845 106.493 182.082 112.433 187.174 120.053C192.266 127.673 194.983 136.633 194.983 145.798C194.969 158.083 190.083 169.862 181.396 178.549C172.708 187.236 160.93 192.123 148.644 192.137V192.137ZM148.644 111.866C141.933 111.866 135.373 113.856 129.793 117.584C124.212 121.313 119.863 126.612 117.295 132.813C114.727 139.013 114.055 145.836 115.364 152.418C116.674 159 119.905 165.046 124.651 169.792C129.396 174.537 135.443 177.769 142.025 179.078C148.607 180.387 155.43 179.715 161.63 177.147C167.83 174.579 173.13 170.229 176.858 164.649C180.587 159.069 182.577 152.509 182.577 145.798C182.566 136.801 178.988 128.176 172.627 121.815C166.265 115.454 157.64 111.876 148.644 111.866V111.866Z" stroke="#262626" stroke-width="2.62871" stroke-miterlimit="10"/>
<path d="M148.644 216.217C134.716 216.217 121.101 212.087 109.52 204.349C97.9398 196.612 88.9138 185.613 83.5839 172.746C78.2539 159.878 76.8593 145.719 79.5765 132.059C82.2937 118.398 89.0006 105.851 98.8491 96.0022C108.698 86.1537 121.245 79.4468 134.906 76.7296C148.566 74.0124 162.725 75.407 175.593 80.7369C188.46 86.0669 199.458 95.0929 207.196 106.673C214.934 118.254 219.064 131.869 219.064 145.797C219.043 164.467 211.617 182.367 198.415 195.568C185.214 208.77 167.314 216.196 148.644 216.217V216.217ZM148.644 87.7832C137.17 87.7832 125.953 91.1857 116.413 97.5603C106.873 103.935 99.4371 112.995 95.0462 123.596C90.6553 134.197 89.5064 145.861 91.7449 157.115C93.9833 168.368 99.5086 178.706 107.622 186.819C115.735 194.932 126.072 200.458 137.326 202.696C148.58 204.934 160.244 203.786 170.845 199.395C181.445 195.004 190.506 187.568 196.881 178.028C203.255 168.487 206.658 157.271 206.658 145.797C206.64 130.416 200.522 115.67 189.647 104.794C178.771 93.9184 164.025 87.8007 148.644 87.7832V87.7832Z" stroke="#262626" stroke-width="2.62871" stroke-miterlimit="10"/>
<path d="M148.644 168.055C144.242 168.055 139.939 166.75 136.278 164.304C132.618 161.858 129.765 158.382 128.081 154.315C126.396 150.248 125.955 145.773 126.814 141.455C127.673 137.138 129.793 133.172 132.906 130.059C136.018 126.946 139.984 124.827 144.302 123.968C148.619 123.109 153.095 123.55 157.162 125.234C161.229 126.919 164.705 129.772 167.151 133.432C169.596 137.092 170.902 141.395 170.902 145.798C170.895 151.699 168.548 157.356 164.375 161.529C160.203 165.702 154.545 168.049 148.644 168.055V168.055ZM148.644 135.947C146.696 135.947 144.791 136.525 143.171 137.607C141.551 138.69 140.289 140.228 139.543 142.028C138.797 143.828 138.602 145.809 138.983 147.72C139.363 149.631 140.301 151.386 141.679 152.764C143.056 154.141 144.812 155.079 146.723 155.459C148.633 155.84 150.614 155.644 152.414 154.899C154.214 154.153 155.753 152.89 156.835 151.27C157.917 149.65 158.495 147.746 158.495 145.798C158.492 143.186 157.453 140.682 155.607 138.835C153.76 136.988 151.256 135.95 148.644 135.947V135.947Z" stroke="#262626" stroke-width="2.62871" stroke-miterlimit="10"/>
<path d="M229.076 87.8414L205.958 88.1624V66.0076L180.431 91.5338L180.54 107.658L147.036 140.594C146.124 141.489 145.606 142.709 145.594 143.987C145.582 145.264 146.078 146.494 146.973 147.405C147.868 148.317 149.088 148.835 150.365 148.847C151.642 148.859 152.872 148.363 153.784 147.468L186.698 115.111L203.389 114.17L229.076 87.8414Z" fill="white" stroke="black" stroke-width="2.62871" stroke-miterlimit="10"/>
<path d="M229.076 92.2723L205.958 92.5933V70.4385L180.431 95.9647L180.54 112.089L147.036 145.025C146.124 145.92 145.606 147.14 145.594 148.417C145.582 149.695 146.078 150.924 146.973 151.836C147.868 152.748 149.088 153.266 150.365 153.278C151.642 153.29 152.872 152.794 153.784 151.899L186.698 119.542L203.389 118.601L229.076 92.2723Z" fill="#F9F486"/>
<path d="M229.076 87.8414L205.958 88.1624V66.0076L180.431 91.5338L180.54 107.658L147.036 140.594C146.124 141.489 145.606 142.709 145.594 143.987C145.582 145.264 146.078 146.494 146.973 147.405C147.868 148.317 149.088 148.835 150.365 148.847C151.642 148.859 152.872 148.363 153.784 147.468L186.698 115.111L203.389 114.17L229.076 87.8414Z" stroke="#262626" stroke-width="2.62871" stroke-miterlimit="10"/>
</g>
<defs>
<linearGradient id="paint0_linear" x1="109.29" y1="151.115" x2="160.522" y2="151.115" gradientUnits="userSpaceOnUse">
<stop stop-color="#59228A"/>
<stop offset="0.05025" stop-color="#5F278E"/>
<stop offset="0.51545" stop-color="#9752AE"/>
<stop offset="0.7402" stop-color="#AD63BA"/>
<stop offset="1" stop-color="#C97BC4"/>
</linearGradient>
<linearGradient id="paint1_linear" x1="80.3171" y1="147.094" x2="220.779" y2="147.094" gradientUnits="userSpaceOnUse">
<stop stop-color="#59228A"/>
<stop offset="0.176417" stop-color="#59228A"/>
<stop offset="0.378389" stop-color="#8E4BA9"/>
<stop offset="0.625539" stop-color="#C97BC4"/>
<stop offset="0.870032" stop-color="#C97BC4"/>
<stop offset="1" stop-color="#C97BC4"/>
</linearGradient>
<linearGradient id="paint2_linear" x1="109.289" y1="151.114" x2="160.522" y2="151.114" gradientUnits="userSpaceOnUse">
<stop stop-color="#59228A"/>
<stop offset="0.05025" stop-color="#5F278E"/>
<stop offset="0.51545" stop-color="#6E52AE"/>
<stop offset="0.7402" stop-color="#AD63BA"/>
<stop offset="1" stop-color="#C97BC4"/>
</linearGradient>
<clipPath id="clip0">
<rect width="155.97" height="161.228" fill="white" transform="translate(76.7722 62.0198)"/>
</clipPath>
</defs>
</svg>
