<svg width="300" height="274" viewBox="0 0 300 274" fill="none" xmlns="http://www.w3.org/2000/svg">
<g clip-path="url(#clip0)">
<path d="M212.646 143.231C208.464 126.507 195.921 135.466 195.921 135.466C193.532 121.131 181.586 119.339 175.015 125.312C174.43 124.727 173.845 124.207 173.259 123.741C180.785 116.418 185.468 106.18 185.468 94.8494C185.468 72.5819 167.418 54.5312 145.15 54.5312C122.882 54.5312 104.832 72.5819 104.832 94.8494C104.832 114.089 118.313 130.168 136.334 134.188C136.632 148.058 136.788 161.145 136.19 162.345C134.996 164.734 109.909 142.037 101.547 150.996C93.1842 159.956 150.526 228.049 150.526 228.049H189.948C189.948 228.049 206.075 214.908 210.256 201.17C214.437 187.432 214.437 156.372 212.646 143.231Z" fill="url(#paint0_linear)"/>
<path d="M122.98 124.125C104.953 120.105 91.4719 104.013 91.4719 84.7743C91.4719 62.5067 109.523 44.4561 131.79 44.4561C154.058 44.4561 172.108 62.5067 172.108 84.7743C172.108 95.9558 167.557 106.074 160.204 113.379" stroke="black" stroke-width="5.36259" stroke-miterlimit="10" stroke-linecap="round"/>
<path d="M122.533 105.708C114.511 102.154 108.908 94.1202 108.908 84.7783C108.908 72.1393 119.152 61.8955 131.791 61.8955C144.43 61.8955 154.68 72.1393 154.68 84.7783C154.68 93.5528 149.74 101.168 142.495 105.009" stroke="black" stroke-width="5.36259" stroke-miterlimit="10" stroke-linecap="round"/>
<path d="M137.166 217.973H176.588C176.588 217.973 192.716 204.833 196.897 191.095C201.078 177.357 201.078 146.297 199.286 133.156C195.105 116.431 182.561 125.391 182.561 125.391C180.172 111.056 168.226 109.264 161.656 115.237C153.293 106.874 144.931 111.056 142.542 114.042C142.542 114.042 141.945 97.3175 141.945 90.7471C141.945 81.1902 138.361 74.6199 131.79 74.6199C125.22 74.6199 122.233 82.3849 122.233 91.3445C122.233 100.304 124.025 149.88 122.831 152.27C121.636 154.659 96.5492 131.961 88.1869 140.921C79.8246 149.88 137.166 217.973 137.166 217.973Z" stroke="black" stroke-width="5.36259" stroke-miterlimit="10"/>
<path d="M142.494 111.347V138.531" stroke="black" stroke-width="5.36259" stroke-miterlimit="10" stroke-linecap="round"/>
<path d="M161.656 115.239V138.533" stroke="black" stroke-width="5.36259" stroke-miterlimit="10" stroke-linecap="round"/>
<path d="M182.939 124.793V138.531" stroke="black" stroke-width="5.36259" stroke-miterlimit="10" stroke-linecap="round"/>
</g>
<defs>
<linearGradient id="paint0_linear" x1="114.754" y1="54.3432" x2="257.173" y2="166.899" gradientUnits="userSpaceOnUse">
<stop stop-color="#9D5BD7"/>
<stop offset="1" stop-color="#D491CB"/>
</linearGradient>
<clipPath id="clip0">
<rect width="130.341" height="187.691" fill="white" transform="translate(84.5608 41.6602)"/>
</clipPath>
</defs>
</svg>
