<svg width="300" height="274" viewBox="0 0 300 274" fill="none" xmlns="http://www.w3.org/2000/svg">
<g clip-path="url(#clip0)">
<path d="M150.35 157.41C153.145 157.832 156.009 158.049 158.927 158.049C190.631 158.049 216.336 132.343 216.336 100.639C216.336 68.9352 190.631 43.2297 158.927 43.2297C127.223 43.2297 101.517 68.9352 101.517 100.639C101.517 127.78 120.357 150.515 145.676 156.497L142.43 172.729L142.366 173.18L128.464 170.351C128.464 170.351 119.677 210.772 119.091 222.488C118.506 234.204 127.293 237.719 130.222 238.305C133.151 238.891 146.625 239.477 150.139 223.66C153.654 207.843 160.098 176.795 160.098 176.795L147.035 174.135L147.058 173.901L150.35 157.41Z" fill="url(#paint0_linear)"/>
<path d="M142.333 150.242C174.039 150.242 199.743 124.538 199.743 92.8319C199.743 61.1255 174.039 35.4224 142.333 35.4224C110.626 35.4224 84.9233 61.1255 84.9233 92.8319C84.9233 124.538 110.626 150.242 142.333 150.242Z" stroke="black" stroke-width="5.8857" stroke-miterlimit="10"/>
<path d="M131.185 149.159L127.688 166.645" stroke="black" stroke-width="5.8857" stroke-miterlimit="10"/>
<path d="M111.871 162.544L143.505 168.988C143.505 168.988 137.061 200.036 133.546 215.853C130.032 231.67 116.558 231.084 113.629 230.498C110.7 229.912 101.913 226.397 102.498 214.681C103.084 202.965 111.871 162.544 111.871 162.544Z" stroke="black" stroke-width="5.8857" stroke-miterlimit="10"/>
<path d="M100.74 105.721L114.8 82.2884L148.191 119.78L173.967 71.158" stroke="black" stroke-width="5.8857" stroke-miterlimit="10"/>
<path d="M101.893 110.514C104.737 110.514 107.043 108.208 107.043 105.364C107.043 102.52 104.737 100.214 101.893 100.214C99.0485 100.214 96.7428 102.52 96.7428 105.364C96.7428 108.208 99.0485 110.514 101.893 110.514Z" fill="black"/>
<path d="M115.136 86.9714C117.98 86.9714 120.286 84.6656 120.286 81.8214C120.286 78.9771 117.98 76.6714 115.136 76.6714C112.291 76.6714 109.986 78.9771 109.986 81.8214C109.986 84.6656 112.291 86.9714 115.136 86.9714Z" fill="black"/>
<path d="M147.507 125.228C150.351 125.228 152.657 122.923 152.657 120.078C152.657 117.234 150.351 114.928 147.507 114.928C144.663 114.928 142.357 117.234 142.357 120.078C142.357 122.923 144.663 125.228 147.507 125.228Z" fill="black"/>
<path d="M168.402 69.1063L178.865 74.3786L177.775 63.834L168.402 69.1063Z" fill="black"/>
</g>
<defs>
<linearGradient id="paint0_linear" x1="115.775" y1="43.0181" x2="271.535" y2="154.082" gradientUnits="userSpaceOnUse">
<stop stop-color="#9D5BD7"/>
<stop offset="1" stop-color="#D491CB"/>
</linearGradient>
<clipPath id="clip0">
<rect width="134.472" height="206" fill="white" transform="translate(82.0284 32.5286)"/>
</clipPath>
</defs>
</svg>
