<svg width="300" height="274" viewBox="0 0 300 274" fill="none" xmlns="http://www.w3.org/2000/svg">
<path d="M142.953 197.595C180.053 197.595 210.128 167.52 210.128 130.421C210.128 93.3214 180.053 63.2463 142.953 63.2463C105.854 63.2463 75.7786 93.3214 75.7786 130.421C75.7786 167.52 105.854 197.595 142.953 197.595Z" fill="url(#paint0_linear)"/>
<path d="M153.509 206.606C190.608 206.606 220.683 176.531 220.683 139.431C220.683 102.332 190.608 72.2568 153.509 72.2568C116.41 72.2568 86.3345 102.332 86.3345 139.431C86.3345 176.531 116.41 206.606 153.509 206.606Z" stroke="#262626" stroke-width="5.19672" stroke-miterlimit="10"/>
<path d="M199.519 90.49C187.499 101.794 171.315 108.723 153.509 108.723C135.703 108.723 119.519 101.794 107.494 90.49" stroke="#262626" stroke-width="5.19672" stroke-miterlimit="10"/>
<path d="M199.519 188.373C187.499 177.068 171.31 170.14 153.509 170.14C135.703 170.14 119.519 177.068 107.494 188.373" stroke="#262626" stroke-width="5.19672" stroke-miterlimit="10"/>
<path d="M153.509 206.606C171.264 206.606 185.657 176.531 185.657 139.431C185.657 102.332 171.264 72.2568 153.509 72.2568C135.755 72.2568 121.362 102.332 121.362 139.431C121.362 176.531 135.755 206.606 153.509 206.606Z" stroke="#262626" stroke-width="5.19672" stroke-miterlimit="10"/>
<path d="M86.3345 139.431H220.683" stroke="#262626" stroke-width="5.19672" stroke-miterlimit="10"/>
<path d="M153.509 72.2568V206.606" stroke="#262626" stroke-width="5.19672" stroke-miterlimit="10"/>
<defs>
<linearGradient id="paint0_linear" x1="47.1966" y1="25.9736" x2="226.028" y2="222.767" gradientUnits="userSpaceOnUse">
<stop stop-color="#F79D1E"/>
<stop offset="1" stop-color="#F9F486"/>
</linearGradient>
</defs>
</svg>
