<svg width="300" height="274" viewBox="0 0 300 274" fill="none" xmlns="http://www.w3.org/2000/svg">
<g clip-path="url(#clip0)">
<path d="M173.987 148.608C216.342 109.66 213.971 64.4331 213.971 64.4331C213.971 64.4331 170.547 60.6911 130.191 104.617C130.18 104.612 130.175 104.601 130.164 104.595C117.453 95.2 92.48 98.8016 79.9529 130.486L107.539 135.616L107.566 135.621C107.523 135.692 107.485 135.756 107.442 135.827C107.442 136.08 111.389 140.114 116.638 145.362L94.0782 156.826L101.335 161.788L91.0275 187.371L116.611 177.063L121.573 184.321L134.214 162.754C139.035 167.501 142.572 170.956 142.572 170.956L147.632 198.165C178.787 185.849 182.788 161.507 173.987 148.608Z" fill="url(#paint0_linear)"/>
<path d="M216.689 73.0814C216.689 73.0814 154.836 67.7358 110.166 144.48C110.166 145.242 145.29 179.605 145.29 179.605C220.123 138.368 216.689 73.0814 216.689 73.0814Z" stroke="#262626" stroke-width="5.19672" stroke-miterlimit="10"/>
<path d="M133.082 113.395C120.436 103.811 95.2684 107.277 82.6711 139.135L110.204 144.259" stroke="#262626" stroke-width="5.19672" stroke-miterlimit="10"/>
<path d="M176.71 157.262C185.506 170.161 181.5 194.497 150.349 206.814L145.247 179.389" stroke="#262626" stroke-width="5.19672" stroke-miterlimit="10"/>
<path d="M136.931 171.404L124.291 192.97L119.323 185.713L93.7451 196.026L104.053 170.442L96.8013 165.48L119.355 154.017" stroke="#262626" stroke-width="5.19672" stroke-miterlimit="10"/>
<path d="M119.583 129.8L160.015 170.227" stroke="#262626" stroke-width="5.19672" stroke-miterlimit="10"/>
<path d="M176.98 127.37C185.032 127.37 191.559 120.843 191.559 112.791C191.559 104.739 185.032 98.2122 176.98 98.2122C168.928 98.2122 162.401 104.739 162.401 112.791C162.401 120.843 168.928 127.37 176.98 127.37Z" stroke="#262626" stroke-width="5.19672" stroke-miterlimit="10"/>
</g>
<defs>
<linearGradient id="paint0_linear" x1="79.9754" y1="35.4191" x2="229.593" y2="223.328" gradientUnits="userSpaceOnUse">
<stop stop-color="#F79D1E"/>
<stop offset="1" stop-color="#F9F486"/>
</linearGradient>
<clipPath id="clip0">
<rect width="217.074" height="146.809" fill="white" transform="translate(41 64)"/>
</clipPath>
</defs>
</svg>
