<svg width="300" height="274" viewBox="0 0 300 274" fill="none" xmlns="http://www.w3.org/2000/svg">
<path d="M139.613 220.888C184.941 199.228 198.042 173.659 197.936 89.4504C182.51 89.2391 149.439 84.4846 139.613 67.2625C129.365 83.2167 96.7172 89.2391 81.2912 89.4505C81.1856 173.659 89.8495 195.636 139.613 220.888Z" fill="url(#paint0_linear)"/>
<path d="M153.269 208.94C198.597 187.28 211.698 161.711 211.592 77.5027C196.166 77.2914 163.095 72.5368 153.269 55.3147C143.021 71.2689 110.373 77.2914 94.9472 77.5027C94.8416 161.711 103.505 183.688 153.269 208.94Z" stroke="#262626" stroke-width="2.56042" stroke-linecap="round" stroke-linejoin="round"/>
<path d="M101.678 83.0127C101.617 132.054 106.012 158.465 119.67 177.12" stroke="#262626" stroke-width="2.56042" stroke-linecap="round" stroke-linejoin="round"/>
<path d="M154.22 199.746C191.581 179.142 203.717 158.128 203.624 84.1123C190.066 83.9266 165.209 78.6625 154.22 66.8289" stroke="#262626" stroke-width="2.56042" stroke-linecap="round" stroke-linejoin="round"/>
<path d="M147.748 152.423C147.692 152.423 147.635 152.421 147.578 152.419C146.972 152.395 146.377 152.243 145.833 151.974C145.289 151.704 144.808 151.323 144.421 150.855L129.307 132.559C129.057 132.257 128.869 131.908 128.754 131.533C128.639 131.158 128.599 130.764 128.636 130.373C128.674 129.983 128.787 129.604 128.971 129.257C129.155 128.91 129.405 128.604 129.708 128.354C130.01 128.104 130.359 127.916 130.734 127.801C131.109 127.686 131.503 127.646 131.893 127.683C132.284 127.72 132.663 127.834 133.01 128.018C133.356 128.202 133.663 128.452 133.913 128.754L147.847 145.622L178.913 113.574C179.186 113.292 179.512 113.066 179.872 112.91C180.232 112.754 180.619 112.671 181.012 112.664C181.404 112.658 181.794 112.729 182.159 112.873C182.524 113.018 182.857 113.233 183.139 113.506C183.421 113.779 183.646 114.106 183.802 114.466C183.957 114.826 184.041 115.214 184.046 115.606C184.052 115.999 183.981 116.389 183.836 116.753C183.691 117.118 183.475 117.451 183.202 117.732L150.847 151.11C150.445 151.525 149.963 151.855 149.431 152.081C148.899 152.306 148.327 152.422 147.748 152.423V152.423Z" stroke="#262626" stroke-width="2.56042" stroke-miterlimit="10"/>
<defs>
<linearGradient id="paint0_linear" x1="77.0434" y1="189.632" x2="192.949" y2="83.8684" gradientUnits="userSpaceOnUse">
<stop stop-color="#59228A"/>
<stop offset="0.13761" stop-color="#672D92"/>
<stop offset="0.39772" stop-color="#8D4AA7"/>
<stop offset="0.59548" stop-color="#AD63BA"/>
<stop offset="1" stop-color="#C97BC4"/>
</linearGradient>
</defs>
</svg>
