<svg width="300" height="274" viewBox="0 0 300 274" fill="none" xmlns="http://www.w3.org/2000/svg">
<g clip-path="url(#clip0)">
<path d="M12.3072 237.661C17.1746 222.497 70.3182 232.996 93.1739 232.151C116.03 231.302 152.943 226.217 165.248 225.793C177.553 225.368 235.563 233.425 252.705 231.302C269.847 229.179 296.215 235.543 286.545 244.869C276.876 254.194 229.85 259.709 202.605 258.01C175.356 256.312 122.177 263.1 102.4 263.944C82.6227 264.789 6.59326 255.468 12.3072 237.661Z" fill="#DFDAE8"/>
<path d="M74.1731 54.1562C70.8828 54.1562 68.2274 51.2347 67.8394 49.228C67.7286 48.6518 67.7588 47.9037 68.5247 47.5954C70.1018 46.9636 71.3363 45.6393 71.7495 44.1381C72.0216 43.1373 71.9057 42.1517 71.4119 41.3177C72.5254 41.1812 75.6142 40.8274 78.1084 40.8274C80.789 40.8274 81.3483 41.2368 81.4642 41.4087C81.4994 41.4592 81.5246 41.53 81.4642 41.6664C80.3808 44.2291 81.7715 47.0141 84.9308 48.5962C85.5203 48.8894 85.4448 49.2027 85.4196 49.3241C85.0316 50.987 78.2394 54.1562 74.1731 54.1562Z" fill="#F9CCB9"/>
<path d="M78.1082 41.0903C80.6427 41.0903 81.1466 41.4542 81.2322 41.5401C81.2322 41.5452 81.2272 41.5553 81.2222 41.5654C80.0985 44.2241 81.5749 47.2113 84.8148 48.8389C85.2179 49.0411 85.1826 49.1876 85.1624 49.2635C84.7946 50.8152 78.0528 53.8934 74.173 53.8934C71.0691 53.8934 68.459 51.0578 68.1013 49.1775C67.9703 48.4851 68.1416 48.0352 68.6253 47.8431C70.278 47.181 71.573 45.7859 72.0063 44.2089C72.2633 43.2739 72.1978 42.3539 71.8249 41.5351C73.1501 41.3784 75.871 41.0903 78.1082 41.0903ZM78.1082 40.5596C74.9691 40.5596 70.9532 41.1105 70.9532 41.1105C72.5807 43.2385 71.0792 46.2863 68.4238 47.3529C65.7684 48.4194 69.3912 54.4292 74.173 54.4292C78.9547 54.4292 88.2411 49.961 85.0516 48.3638C81.8621 46.7665 80.7536 44.0371 81.7109 41.7727C82.109 40.8325 80.3303 40.5596 78.1082 40.5596Z" fill="#E5A38C"/>
<path d="M67.6777 28.8938C67.6777 28.8938 66.811 27.6909 65.8839 28.1306C64.9568 28.5704 65.5765 31.9316 66.1459 32.6797C66.7203 33.4278 69.1742 35.7478 69.1742 35.7478L67.8742 30.668L67.6777 28.8938Z" fill="#F9CCB9" stroke="#E5A38C" stroke-width="0.897699" stroke-miterlimit="10"/>
<path d="M84.8951 29.0049C84.8951 29.0049 85.5804 27.898 86.2959 28.2771C87.0114 28.6562 86.4974 31.7091 86.044 32.3965C85.5905 33.0839 83.6606 35.2321 83.6606 35.2321L84.7188 30.6123L84.8951 29.0049Z" fill="#F9CCB9" stroke="#E5A38C" stroke-width="0.897699" stroke-miterlimit="10"/>
<path d="M76.8283 43.5063C67.7888 43.5063 67.5368 30.0562 67.5368 29.9197C67.5368 29.7731 67.5318 29.5861 67.5267 29.3637C67.4764 27.3621 67.3403 22.0448 70.2477 19.0525C71.6635 17.5917 73.6488 16.8538 76.1379 16.8538C76.3597 16.8538 76.5814 16.8588 76.8131 16.8689C79.7457 17.0155 81.9879 17.9304 83.4693 19.5883C85.9584 22.3682 85.7166 26.4978 85.6158 28.2568C85.6007 28.5145 85.5906 28.7167 85.5906 28.8583C85.5906 28.9998 85.4898 43.5063 76.8283 43.5063Z" fill="#F9CCB9"/>
<path d="M76.1381 16.5859V17.1167C76.3547 17.1167 76.5764 17.1217 76.7982 17.1318C79.6602 17.2734 81.8369 18.1579 83.2679 19.7602C85.6814 22.4593 85.4497 26.508 85.3489 28.2366C85.3338 28.4944 85.3237 28.7016 85.3237 28.8533C85.3237 28.9948 85.2279 43.2385 76.8284 43.2385C73.4675 43.2385 70.9532 41.2874 69.3509 37.4409C68.0761 34.3728 67.799 30.9711 67.799 29.9198C67.799 29.7732 67.7939 29.5811 67.7889 29.3537C67.7385 27.3824 67.6025 22.151 70.4342 19.2345C71.7997 17.8294 73.7195 17.1167 76.1381 17.1167V16.5859ZM76.1381 16.5859C66.2521 16.5859 67.2699 27.8373 67.2699 29.9198C67.2699 32.0528 68.3331 43.7692 76.8284 43.7692C85.3237 43.7692 85.8578 30.4505 85.8578 28.8533C85.8578 27.256 87.44 17.1318 76.8284 16.6011C76.5916 16.591 76.3598 16.5859 76.1381 16.5859Z" fill="#E5A38C"/>
<path d="M67.2899 29.7431C66.4586 27.3371 64.3272 20.4579 66.3931 18.3856L66.4686 18.3097V18.1985C66.4686 14.3672 74.7473 10.2629 80.572 10.2629C81.998 10.2629 83.1972 10.5056 84.1445 10.9756C85.4999 11.658 86.3616 12.6133 86.6941 13.8264C87.3844 16.3183 85.6511 19.0932 85.6309 19.1185L85.2581 19.7098L85.9282 19.5178C85.9282 19.5178 85.9786 19.5077 86.0592 19.5077C86.2406 19.5077 86.5127 19.5734 86.7445 19.8868C87.2584 20.5792 87.7926 22.7426 85.8829 29.4499C85.4798 26.8418 84.3864 21.1554 82.7538 20.6096C81.5042 20.19 79.9372 19.9828 78.098 19.9828C75.8104 19.9828 73.6639 20.3164 72.5151 20.6045C69.6582 21.3222 67.8744 27.4231 67.2899 29.7431Z" fill="#593E0F"/>
<path d="M80.5719 10.5307C81.9576 10.5307 83.1165 10.7632 84.0235 11.2181C85.3083 11.8651 86.1196 12.7648 86.432 13.897C87.092 16.2676 85.4192 18.9516 85.4041 18.9819L84.6382 20.1697L85.9835 19.7856C85.9835 19.7856 86.0137 19.7805 86.0541 19.7805C86.2304 19.7805 86.3917 19.8715 86.5227 20.0535C86.8905 20.5488 87.4851 22.2977 85.9533 28.1559C85.8021 27.3471 85.6258 26.4929 85.4595 25.8004C84.4064 21.3626 83.4541 20.5741 82.8293 20.3618C81.5545 19.9372 79.9572 19.7199 78.0878 19.7199C75.7801 19.7199 73.6033 20.0585 72.4444 20.3517C69.7336 21.029 68.0103 26.0481 67.2495 28.8231C66.1914 25.5629 64.9317 20.2304 66.5743 18.5775L66.7305 18.4208V18.1984C66.7356 14.8321 74.4952 10.5307 80.5719 10.5307ZM80.5719 10C74.5204 10 66.2065 14.3014 66.2065 18.1984C63.5511 20.8622 67.3452 30.6781 67.3452 30.6781C67.3452 30.6781 69.2398 21.7012 72.5805 20.8622C73.8049 20.5538 75.9161 20.2455 78.0979 20.2455C79.6952 20.2455 81.3227 20.4123 82.6731 20.8622C84.5324 21.4839 85.8575 30.4506 85.8021 30.6781C89.0269 20.0181 86.7847 19.2447 86.0641 19.2447C85.9432 19.2447 85.8626 19.2649 85.8626 19.2649C85.8626 19.2649 89.5812 13.4068 84.2703 10.743C83.2374 10.2275 81.9676 10 80.5719 10Z" fill="#4C350D"/>
<path d="M70.666 45.8972C73.7144 49.6224 79.8617 49.7589 82.3306 46.4077C92.8112 48.7985 96.3887 53.1606 97.9003 55.1824C99.412 57.2042 92.3577 117.353 92.3577 117.353L59.606 114.32C59.606 114.32 57.9482 103.261 57.5905 96.124C57.0866 86.015 57.5905 73.8841 57.5905 73.8841C51.544 88.0368 42.9781 96.124 43.482 97.6404C43.9859 99.1568 70.6912 112.804 71.6989 113.815C72.7067 114.826 68.6757 121.397 68.1718 121.902C67.6679 122.408 27.8619 110.277 26.8542 103.2C25.8464 96.124 49.0246 57.2042 51.544 54.6769C54.0633 52.1497 70.666 45.8972 70.666 45.8972Z" fill="#172072" stroke="#0B0B3F" stroke-width="0.869863" stroke-miterlimit="10"/>
<path d="M99.4118 235.538C99.4118 243.817 98.9533 249.084 110.139 251.642C118.186 253.482 118.186 248.882 111.031 244.282C108.144 242.427 107.01 234.623 107.01 234.623L99.4118 235.538Z" fill="#221A30" stroke="black" stroke-width="0.781659" stroke-miterlimit="10"/>
<path d="M66.1563 234.618C66.1563 234.618 66.6602 245.233 65.6524 246.749C64.6447 248.265 56.0788 254.331 54.0633 254.331C52.0479 254.331 50.0324 251.803 56.0788 245.233C58.5982 242.705 57.0866 234.618 57.0866 234.618H66.1563Z" fill="#221A30" stroke="black" stroke-width="0.869863" stroke-miterlimit="10"/>
<path d="M57.5901 127.462C57.5901 127.462 54.5669 238.156 56.0785 239.673C57.5901 241.189 66.6599 240.178 67.1637 239.167C67.6676 238.156 87.3187 134.033 87.3187 134.033L57.5901 127.462Z" fill="#331268" stroke="#2F1D5B" stroke-width="0.869863" stroke-miterlimit="10"/>
<path d="M80.7686 149.702C80.7686 149.702 96.3886 239.167 98.908 239.673C101.427 240.178 108.482 239.167 109.489 237.651C110.497 236.134 108.985 140.604 108.985 140.604L80.7686 149.702Z" fill="#331268" stroke="#2F1D5B" stroke-width="0.869863" stroke-miterlimit="10"/>
<path d="M216.814 28.8989C211.272 23.3389 200.69 36.4807 206.233 61.7533C211.776 87.026 219.334 67.8188 219.334 67.8188L216.814 28.8989Z" fill="#F3A50C" stroke="#D3742D" stroke-width="0.869863" stroke-miterlimit="10"/>
<path d="M222.186 69.0317C222.04 69.0317 221.899 69.0216 221.773 68.9964C219.082 68.4555 213.544 65.443 213.544 64.2704C213.544 63.8458 214.053 63.5173 214.638 63.1382C215.706 62.4508 217.172 61.5056 216.502 59.1805C216.386 58.7761 216.447 58.4172 216.694 58.0887C217.994 56.3297 223.632 55.9911 225.219 55.9304C223.99 58.6649 224.529 62.9714 227.048 64.4827C227.487 64.7455 227.638 65.0993 227.512 65.5593C227.104 67.0504 224.065 69.0317 222.186 69.0317Z" fill="#F9CCB9"/>
<path d="M224.841 56.1933C223.778 59.0289 224.408 63.1888 226.917 64.695C227.265 64.9023 227.366 65.1348 227.27 65.4886C226.887 66.8685 223.939 68.774 222.186 68.774C222.055 68.774 221.934 68.7639 221.823 68.7387C219.122 68.1978 213.796 65.2258 213.796 64.2603C213.796 63.9722 214.27 63.669 214.774 63.3404C215.847 62.648 217.465 61.6067 216.744 59.0997C216.648 58.7711 216.699 58.4931 216.895 58.2303C217.958 56.8049 222.433 56.3096 224.841 56.1933ZM225.637 55.6626C225.637 55.6626 215.278 55.8092 216.265 59.2463C217.253 62.6884 213.292 62.7693 213.292 64.2654C213.292 65.7565 219.243 68.7437 221.722 69.239C221.868 69.2694 222.02 69.2795 222.181 69.2795C224.806 69.2795 229.507 65.6655 227.174 64.2603C224.7 62.7743 224.206 58.296 225.637 55.6626Z" fill="#E5A38C"/>
<path d="M217.066 58.6397C216.331 58.6397 215.691 58.5033 215.162 58.2404C212.556 56.9313 209.473 53.5145 209.574 44.6539V44.3658C209.574 44.1889 209.538 43.9159 209.493 43.5368C209.266 41.7374 208.742 37.5169 211.141 34.7874C212.667 33.0487 215.156 32.1692 218.543 32.1692C218.769 32.1692 219.001 32.1742 219.238 32.1793C223.692 32.3259 226.866 33.9383 228.66 36.9659C231.573 41.8739 230.036 49.5012 228.937 51.71C227.668 54.2625 221.324 58.6397 217.066 58.6397Z" fill="#F9CCB9"/>
<path d="M218.543 32.4268C218.764 32.4268 218.996 32.4319 219.228 32.4369C223.591 32.5835 226.695 34.1504 228.444 37.1023C231.497 42.2528 229.517 49.9863 228.711 51.6037C227.496 54.0349 221.163 58.3869 217.066 58.3869C216.371 58.3869 215.766 58.2605 215.277 58.0128C212.738 56.7391 209.73 53.388 209.831 44.6537C209.831 44.5375 209.831 44.4414 209.831 44.3656C209.831 44.1736 209.795 43.8956 209.745 43.5064C209.523 41.7373 209.004 37.5976 211.332 34.9592C212.813 33.276 215.237 32.4268 218.543 32.4268ZM218.543 31.9214C206.465 31.9214 209.327 42.9049 209.327 44.3707C209.327 45.8618 208.888 55.3794 215.051 58.4728C215.64 58.766 216.32 58.8974 217.066 58.8974C221.435 58.8974 227.889 54.3837 229.164 51.8312C230.651 48.849 234.122 32.4319 219.248 31.9366C219.006 31.9264 218.774 31.9214 218.543 31.9214Z" fill="#E5A38C"/>
<path d="M241.126 131.622C226.328 116.767 188.935 77.5993 191.696 72.8531C194.946 67.2679 205.205 62.7239 214.577 62.7239C214.718 62.7239 214.859 62.7239 215 62.7289C215.293 63.4214 216.603 66.0144 219.747 66.0144C222.906 66.0144 225.143 63.4517 225.678 62.7744C226.937 63.2748 234.767 66.4794 242.421 71.4429C250.382 76.6087 261.498 119.81 262.375 123.267L241.126 131.622Z" fill="#472A7D"/>
<path d="M214.572 62.9715C214.658 62.9715 214.743 62.9715 214.834 62.9715C215.252 63.8712 216.653 66.262 219.742 66.262C222.81 66.262 225.033 63.9369 225.753 63.0726C227.426 63.7499 234.939 66.8837 242.28 71.6501C250.025 76.6743 260.868 118.384 262.072 123.105L241.192 131.319C239.363 129.474 227.098 117.08 215.343 104.206C192.412 79.0904 191.318 73.9954 191.918 72.9694C195.118 67.4599 205.286 62.9715 214.572 62.9715ZM225.587 62.4661C225.587 62.4661 223.209 65.7566 219.742 65.7566C216.27 65.7566 215.172 62.4711 215.172 62.4711C214.975 62.4661 214.774 62.4661 214.577 62.4661C205.402 62.4661 194.881 66.8787 191.48 72.7217C188.008 78.6911 241.066 131.915 241.066 131.915L262.667 123.419C262.667 123.419 250.982 76.6996 242.552 71.2306C234.122 65.7566 225.587 62.4661 225.587 62.4661Z" fill="#2F1D5B"/>
<path d="M213.791 29.9099C217.535 21.1453 232.938 28.3935 236.969 35.4698C241 42.5462 247.047 61.7534 246.039 82.9824C245.031 104.211 223.365 106.233 219.334 99.1569C215.303 92.0805 224.373 67.3133 224.876 60.237C225.38 53.1607 226.892 36.9862 220.342 36.4807C213.791 35.9753 212.28 33.448 213.791 29.9099Z" fill="#F3A50C" stroke="#D3742D" stroke-width="0.869863" stroke-miterlimit="10"/>
<path d="M249.501 238.156C249.501 238.692 251.098 244.035 250.569 245.642C250.035 247.244 243.641 252.056 242.043 252.056C240.446 252.056 242.577 248.316 243.641 246.178C244.704 244.04 243.641 240.299 243.641 240.299L249.501 238.156Z" fill="#221A30" stroke="black" stroke-width="0.781659" stroke-miterlimit="10"/>
<path d="M214.471 238.005C214.471 238.005 215.02 243.191 213.922 244.919C212.828 246.648 206.802 249.529 204.61 249.529C202.418 249.529 205.16 246.648 207.351 243.767C209.543 240.886 207.901 237.428 207.901 237.428L214.471 238.005Z" fill="#221A30" stroke="black" stroke-width="0.781659" stroke-miterlimit="10"/>
<path d="M247.047 154.251C247.047 154.251 243.565 184.507 243.565 189.481C243.565 194.455 251.002 238.727 250.508 240.218C250.015 241.71 244.064 242.705 243.071 242.705C242.079 242.705 224.226 198.933 224.226 195.946C224.226 192.964 223.365 163.349 223.365 163.349L247.047 154.251Z" fill="#172072" stroke="#0B0B3F" stroke-width="0.869863" stroke-miterlimit="10"/>
<path d="M219.082 182.556C219.082 182.556 215.504 239.041 214.99 239.041C214.476 239.041 207.321 239.576 206.807 239.041C206.298 238.505 201.693 193.853 201.693 193.853L219.082 182.556Z" fill="#172072" stroke="#0B0B3F" stroke-width="0.869863" stroke-miterlimit="10"/>
<path d="M78.2137 30.6226C78.3145 31.0724 78.4102 31.5223 78.4757 31.9721C78.5462 32.427 78.6218 32.8769 78.6672 33.3368C78.6924 33.5643 78.7125 33.7968 78.7226 34.0293C78.7276 34.1456 78.7327 34.2618 78.7276 34.3882C78.7176 34.464 78.7176 34.5348 78.6621 34.6257C78.6168 34.7016 78.5563 34.7521 78.5009 34.7925C78.0474 35.0756 77.5838 35.111 77.1152 35.0908C77.5335 34.9037 77.997 34.7622 78.3044 34.5398C78.38 34.4691 78.39 34.464 78.3951 34.368C78.4001 34.2669 78.4001 34.1557 78.3951 34.0445L78.3598 33.3672L78.2741 32.0024C78.2389 31.5425 78.2238 31.0825 78.2137 30.6226Z" fill="#E0937E"/>
<path d="M79.7559 37.3602C79.4435 37.7443 78.9749 37.9869 78.5013 38.1335C78.0226 38.2801 77.5087 38.3003 77.0149 38.2649C76.516 38.2295 76.0373 38.0931 75.5788 37.9263C75.3521 37.8353 75.1304 37.7291 74.9137 37.623C74.7021 37.4966 74.4955 37.3753 74.2939 37.2439C74.5308 37.3096 74.7525 37.3955 74.9792 37.4713C75.211 37.5269 75.4377 37.6078 75.6645 37.6584C76.123 37.7645 76.5815 37.8555 77.0451 37.8707C77.9672 37.906 78.8742 37.7696 79.7559 37.3602Z" fill="#E0937E"/>
<path d="M78.5315 39.4275C78.3703 39.6246 78.1486 39.7661 77.9168 39.8672C77.68 39.9683 77.423 40.029 77.166 40.029C76.9091 40.0239 76.647 40.0138 76.4102 39.9178C76.1684 39.842 75.9416 39.7207 75.7451 39.569C75.987 39.6347 76.2188 39.7055 76.4556 39.7459C76.6924 39.7864 76.9242 39.8066 77.161 39.7914C77.6246 39.7611 78.0831 39.6448 78.5315 39.4275Z" fill="#E2A47A"/>
<path d="M75.0142 26.4575C74.6968 27.2056 71.4317 26.2654 70.8623 26.2958C70.293 26.3261 69.4414 26.4929 69.4414 26.4929C69.4414 26.4929 70.1116 25.578 71.1092 25.5275C72.1069 25.4769 75.3921 25.5578 75.0142 26.4575Z" fill="#4C350D"/>
<path d="M79.5594 26.3311C79.7912 26.973 83.0311 26.4372 83.5753 26.5181C84.1195 26.5989 84.9206 26.8416 84.9206 26.8416C84.9206 26.8416 84.3664 25.8458 83.409 25.7043C82.4617 25.5729 79.2168 25.3909 79.5594 26.3311Z" fill="#4C350D"/>
<path d="M72.9024 32.2358C73.4527 32.2074 73.8589 31.4091 73.8098 30.4528C73.7606 29.4966 73.2747 28.7445 72.7244 28.7729C72.1741 28.8014 71.7679 29.5997 71.817 30.5559C71.8662 31.5122 72.3521 32.2643 72.9024 32.2358Z" fill="#191716"/>
<path d="M81.5338 31.7917C82.084 31.7633 82.4903 30.965 82.4411 30.0087C82.392 29.0525 81.906 28.3004 81.3558 28.3288C80.8055 28.3573 80.3992 29.1556 80.4484 30.1118C80.4975 31.0681 80.9835 31.8202 81.5338 31.7917Z" fill="#191716"/>
<path d="M73.3818 30.5315C73.6767 30.5315 73.9159 30.2916 73.9159 29.9957C73.9159 29.6998 73.6767 29.46 73.3818 29.46C73.0868 29.46 72.8477 29.6998 72.8477 29.9957C72.8477 30.2916 73.0868 30.5315 73.3818 30.5315Z" fill="white"/>
<path d="M82.0131 30.0816C82.3081 30.0816 82.5472 29.8417 82.5472 29.5458C82.5472 29.2499 82.3081 29.01 82.0131 29.01C81.7181 29.01 81.479 29.2499 81.479 29.5458C81.479 29.8417 81.7181 30.0816 82.0131 30.0816Z" fill="white"/>
<path d="M212.28 46.6351C212.836 46.6351 213.287 45.92 213.287 45.0379C213.287 44.1558 212.836 43.4407 212.28 43.4407C211.723 43.4407 211.272 44.1558 211.272 45.0379C211.272 45.92 211.723 46.6351 212.28 46.6351Z" fill="#191716"/>
<path d="M216.356 44.6335C216.446 45.0783 216.446 45.5484 216.396 46.0033C216.346 46.4582 216.24 46.9081 216.119 47.3428C216.058 47.5601 215.988 47.7775 215.927 47.9898C215.867 48.197 215.796 48.4295 215.771 48.5811C215.756 48.6822 215.842 48.849 215.988 49.0007C216.129 49.1573 216.295 49.2989 216.471 49.4606C216.235 49.4455 216.008 49.3747 215.791 49.2534C215.685 49.1877 215.58 49.1169 215.494 49.0007C215.408 48.8945 215.328 48.7328 215.333 48.566C215.353 48.2677 215.439 48.0757 215.504 47.8533L215.721 47.2164C216.008 46.3774 216.285 45.5383 216.356 44.6335Z" fill="#E0937E"/>
<path d="M220.85 51.4472C220.85 51.4472 216.356 51.1995 213.816 52.1902C215.202 55.2886 218.084 54.4193 220.85 51.4472Z" fill="#FCF4ED" stroke="#E5A38C" stroke-width="0.388568" stroke-miterlimit="10"/>
<path d="M214.411 40.307C214.542 41.2927 211.609 40.7417 210.909 40.8479C210.209 40.9591 209.508 41.3988 209.508 41.3988C209.508 41.3988 210.234 40.2919 210.909 40.0796C211.609 39.8622 214.295 39.4326 214.411 40.307Z" fill="#DD8A26"/>
<path d="M218.568 40.307C218.422 41.2927 221.743 40.7417 222.534 40.8479C223.325 40.9591 224.121 41.3988 224.121 41.3988C224.121 41.3988 223.3 40.2919 222.534 40.0796C221.743 39.8622 218.699 39.4326 218.568 40.307Z" fill="#DD8A26"/>
<path d="M211.539 44.9926C211.831 44.9926 212.068 44.755 212.068 44.4619C212.068 44.1688 211.831 43.9312 211.539 43.9312C211.247 43.9312 211.01 44.1688 211.01 44.4619C211.01 44.755 211.247 44.9926 211.539 44.9926Z" fill="white"/>
<path d="M220.609 46.6351C221.165 46.6351 221.617 45.92 221.617 45.0379C221.617 44.1558 221.165 43.4407 220.609 43.4407C220.052 43.4407 219.601 44.1558 219.601 45.0379C219.601 45.92 220.052 46.6351 220.609 46.6351Z" fill="#191716"/>
<path d="M219.868 44.9926C220.16 44.9926 220.397 44.755 220.397 44.4619C220.397 44.1688 220.16 43.9312 219.868 43.9312C219.576 43.9312 219.339 44.1688 219.339 44.4619C219.339 44.755 219.576 44.9926 219.868 44.9926Z" fill="white"/>
<path d="M224.337 48.8073C225.488 48.3479 226.281 47.6244 226.11 47.1913C225.938 46.7581 224.866 46.7794 223.715 47.2388C222.565 47.6982 221.771 48.4217 221.943 48.8548C222.115 49.288 223.187 49.2667 224.337 48.8073Z" fill="#EF9381"/>
<path d="M212.191 48.6537C212.365 48.2128 211.558 47.4762 210.387 47.0086C209.215 46.5409 208.124 46.5193 207.949 46.9602C207.774 47.4011 208.582 48.1376 209.753 48.6053C210.924 49.0729 212.016 49.0946 212.191 48.6537Z" fill="#EF9381"/>
<path d="M84.2304 34.9244C85.443 34.4402 86.2792 33.6777 86.0981 33.2212C85.917 32.7647 84.7871 32.7872 83.5745 33.2713C82.3619 33.7555 81.5257 34.518 81.7069 34.9745C81.888 35.431 83.0178 35.4085 84.2304 34.9244Z" fill="#EF9381"/>
<path d="M71.4198 34.7541C71.604 34.2898 70.7536 33.5143 69.5203 33.0219C68.287 32.5295 67.1379 32.5067 66.9537 32.9709C66.7694 33.4352 67.6199 34.2107 68.8532 34.7031C70.0865 35.1955 71.2356 35.2184 71.4198 34.7541Z" fill="#EF9381"/>
<path d="M69.7187 161.767C41.0987 128.145 40.4991 66.636 86.5985 54.1059C137.701 40.216 156.929 89.6796 156.929 89.6796C156.929 89.6796 186.421 45.3919 233.488 69.7092C275.949 91.6458 262.521 151.663 227.517 178.528C192.513 205.393 142.135 229.821 142.135 229.821C142.135 229.821 98.3388 195.395 69.7187 161.767Z" fill="#FAE3FF" stroke="#BE62CC" stroke-width="1.73973" stroke-miterlimit="10"/>
<path d="M189.293 69.532C186.567 69.532 183.615 67.4496 182.914 66.3173C182.768 66.0798 182.748 65.9281 182.778 65.8725C184.496 62.4203 187.001 61.6975 188.794 61.6975C190.805 61.6975 192.442 62.6023 192.674 62.9713C192.967 63.4464 193.143 65.7967 192.311 67.5759C191.787 68.698 190.996 69.34 189.958 69.4865C189.742 69.5169 189.52 69.532 189.293 69.532Z" fill="#F9CCB9"/>
<path d="M188.794 61.9503C190.699 61.9503 192.261 62.8045 192.457 63.1027C192.699 63.497 192.886 65.7513 192.079 67.4698C191.596 68.506 190.87 69.1024 189.918 69.2389C189.716 69.2692 189.505 69.2844 189.288 69.2844C186.34 69.2844 183.09 66.6763 183.015 65.9535C184.683 62.6427 187.076 61.9503 188.794 61.9503ZM188.794 61.4448C186.688 61.4448 184.229 62.4001 182.551 65.7614C182.088 66.6914 185.952 69.7899 189.288 69.7899C189.525 69.7899 189.757 69.7747 189.988 69.7393C193.46 69.244 193.46 63.7699 192.886 62.8348C192.598 62.3698 190.87 61.4448 188.794 61.4448Z" fill="#E5A38C"/>
<path d="M256.963 131.182C254.272 131.182 252.378 130.242 251.576 129.438C251.531 129.393 251.521 129.363 251.521 129.358C251.556 129.069 253.154 128.655 253.839 128.478C255.164 128.134 255.623 127.998 255.623 127.629C255.623 127.204 255.099 127.058 254.59 126.911C254.459 126.876 254.262 126.82 254.141 126.77C254.408 126.628 255.088 126.436 255.698 126.259C256.877 125.92 258.338 125.501 259.507 124.915C260.429 124.455 261.467 123.929 261.916 123.929C262.747 123.929 263.14 124.859 263.236 125.728C263.417 127.376 262.636 130.227 259.774 130.864C258.812 131.071 257.87 131.182 256.963 131.182Z" fill="#F9CCB9"/>
<path d="M261.911 124.177C262.576 124.177 262.899 124.99 262.984 125.749C263.155 127.31 262.42 130.004 259.719 130.611C258.777 130.818 257.85 130.929 256.963 130.929C254.343 130.929 252.604 130.01 251.879 129.368C252.282 129.14 253.31 128.872 253.899 128.716C255.255 128.367 255.869 128.205 255.869 127.619C255.869 127.103 255.396 126.886 254.922 126.739C255.189 126.658 255.492 126.572 255.764 126.492C256.953 126.153 258.429 125.728 259.618 125.132C260.47 124.707 261.528 124.177 261.911 124.177ZM261.911 123.671C261.407 123.671 260.399 124.177 259.392 124.682C257.346 125.708 254.252 126.249 253.874 126.628C253.38 127.123 255.361 127.123 255.361 127.624C255.361 128.124 250.402 128.62 251.395 129.615C252.156 130.378 254.086 131.435 256.963 131.435C257.835 131.435 258.792 131.339 259.825 131.106C264.289 130.111 264.33 123.671 261.911 123.671Z" fill="#E5A38C"/>
<path d="M80.6931 126.618C76.9795 126.618 73.1602 124.187 68.7412 121.371C68.1063 120.967 67.4613 120.558 66.8013 120.143L68.1265 114.169C73.6439 115.816 79.4435 117.843 79.7559 118.44C79.6652 118.652 78.4105 118.728 77.8059 118.763C76.6268 118.834 76.007 118.885 75.8357 119.249C75.7954 119.334 75.7501 119.511 75.9113 119.729C76.0877 119.966 76.6822 120.376 77.8109 121.134C79.7407 122.433 83.3384 124.854 83.0663 125.936C82.9806 126.264 82.4163 126.497 81.4741 126.583C81.2171 126.608 80.9551 126.618 80.6931 126.618Z" fill="#F9CCB9"/>
<path d="M68.313 114.487C73.0141 115.897 77.9471 117.596 79.2571 118.364C78.854 118.445 78.199 118.485 77.7959 118.505C76.6269 118.576 75.8509 118.622 75.6141 119.137C75.5637 119.249 75.468 119.542 75.7199 119.875C75.9215 120.148 76.5009 120.542 77.68 121.336C78.8036 122.094 80.1994 123.034 81.2777 123.939C82.9153 125.314 82.8447 125.814 82.8296 125.865C82.7994 125.991 82.4718 126.229 81.454 126.325C81.2071 126.35 80.9501 126.36 80.6982 126.36C77.0602 126.36 73.2661 123.949 68.8773 121.154C68.2928 120.78 67.6932 120.401 67.0835 120.017L68.313 114.487ZM67.9401 113.845L66.5142 120.259C71.9358 123.646 76.3347 126.871 80.6932 126.871C80.9602 126.871 81.2273 126.861 81.4943 126.835C87.5358 126.274 76.7881 120.487 76.118 119.577C75.4478 118.672 80.1742 119.37 79.9978 118.374C79.8215 117.378 67.9401 113.845 67.9401 113.845Z" fill="#E5A38C"/>
<path d="M104.4 56.9362C103.382 56.9362 99.946 56.7845 98.4999 54.8183C97.8146 53.8883 97.6937 52.6752 98.1422 51.2144C98.5604 49.8447 101.956 48.8186 104.708 48.8186C106.33 48.8186 107.469 49.1623 107.751 49.7385C108.27 50.7798 108.608 52.2759 108.608 53.5446C108.608 54.4089 108.446 55.9354 107.363 56.4762C106.804 56.7542 105.64 56.9362 104.4 56.9362Z" fill="#F9CCB9"/>
<path d="M104.707 48.5659V49.0714C106.501 49.0714 107.348 49.4909 107.529 49.8498C108.512 51.821 108.834 55.4552 107.252 56.2488C106.819 56.4661 105.771 56.6835 104.4 56.6835C103.413 56.6835 100.077 56.5369 98.7013 54.6718C98.0664 53.8075 97.9556 52.6702 98.3788 51.2903C98.7265 50.148 101.8 49.0714 104.702 49.0714L104.707 48.5659ZM104.707 48.5659C101.936 48.5659 98.3839 49.5718 97.9001 51.1437C96.454 55.8647 100.984 57.194 104.4 57.194C105.74 57.194 106.909 56.9918 107.474 56.7037C109.489 55.6928 108.985 51.6492 107.978 49.6274C107.615 48.8894 106.285 48.5659 104.707 48.5659Z" fill="#E5A38C"/>
<path d="M43.4818 97.6404C43.9857 99.1567 70.691 112.804 71.6988 113.815C72.7065 114.826 68.6755 121.397 68.1716 121.902C67.6678 122.408 27.8618 110.277 26.854 103.2" fill="#172072"/>
<path d="M43.4818 97.6404C43.9857 99.1567 70.691 112.804 71.6988 113.815C72.7065 114.826 68.6755 121.397 68.1716 121.902C67.6678 122.408 27.8618 110.277 26.854 103.2" stroke="#0B0B3F" stroke-width="0.869863" stroke-miterlimit="10"/>
</g>
<defs>
<clipPath id="clip0">
<rect width="276.616" height="254" fill="white" transform="translate(12 10)"/>
</clipPath>
</defs>
</svg>
