<svg width="300" height="274" viewBox="0 0 300 274" fill="none" xmlns="http://www.w3.org/2000/svg">
<g clip-path="url(#clip0)">
<path d="M98.3481 210.575C152.664 210.575 196.696 166.347 196.696 111.788C196.696 57.2288 152.664 13 98.3481 13C44.032 13 0 57.2288 0 111.788C0 166.347 44.032 210.575 98.3481 210.575Z" fill="url(#paint0_radial)"/>
<path d="M201.652 261.246C255.968 261.246 300 217.017 300 162.458C300 107.899 255.968 63.6702 201.652 63.6702C147.336 63.6702 103.304 107.899 103.304 162.458C103.304 217.017 147.336 261.246 201.652 261.246Z" fill="url(#paint1_radial)"/>
<path d="M22.3828 152.107C21.4553 152.107 20.6929 151.347 20.6929 150.409V61.1111C20.6929 60.1794 21.4489 59.4136 22.3828 59.4136H174.187C175.115 59.4136 175.877 60.173 175.877 61.1111V150.416C175.877 151.347 175.121 152.113 174.187 152.113H22.3828V152.107Z" fill="white"/>
<path d="M174.187 60.358C174.6 60.358 174.937 60.6963 174.937 61.1111V150.416C174.937 150.83 174.6 151.169 174.187 151.169H22.3827C21.9697 151.169 21.633 150.83 21.633 150.416V61.1111C21.633 60.6963 21.9697 60.358 22.3827 60.358H174.187ZM174.187 58.4755H22.3827C20.9341 58.4755 19.7588 59.6561 19.7588 61.1111V150.416C19.7588 151.871 20.9341 153.051 22.3827 153.051H174.187C175.636 153.051 176.811 151.871 176.811 150.416V61.1111C176.811 59.6561 175.636 58.4755 174.187 58.4755Z" fill="#461F77"/>
<path d="M86.7024 108.291C86.893 110.211 87.0328 112.017 86.8486 113.996C86.3149 115.412 82.3949 117.965 81.9566 119.956C80.9909 124.315 94.0468 127.812 99.5995 127.569C105.146 127.327 115.985 121.513 115.502 119.573C115.019 117.633 109.244 117.64 109.002 114.972C108.78 112.547 109.002 108.916 109.002 108.916L86.7024 108.291Z" fill="#F9CCB9"/>
<path d="M86.8678 110.199C86.8678 110.199 97.4332 124.768 108.926 113.645C108.698 113.555 108.983 109.21 108.983 109.21L86.7153 108.463L86.8678 110.199Z" fill="#E5AF9C"/>
<path d="M86.7024 108.291C86.893 110.211 87.0328 112.017 86.8486 113.996C86.3149 115.412 82.3949 117.965 81.9566 119.956C80.9909 124.315 94.0468 127.812 99.5995 127.569C105.146 127.327 115.985 121.513 115.502 119.573C115.019 117.633 109.244 117.64 109.002 114.972C108.78 112.547 109.002 108.916 109.002 108.916L86.7024 108.291Z" stroke="#E5A38C" stroke-width="0.438596" stroke-miterlimit="10"/>
<path d="M112.383 117.64C113.062 117.991 131.677 124.908 134.333 125.636C136.989 126.363 140.362 152.286 140.362 152.286H55.9341C55.9341 152.286 58.1069 128.055 61.7219 125.636C65.3432 123.211 77.1603 121.035 83.1895 117.882C83.8629 117.659 86.1501 123.402 97.9671 123.402C109.784 123.402 111.69 117.276 112.383 117.64Z" fill="#F9B71E"/>
<path d="M112.383 117.64C113.062 117.991 131.677 124.908 134.333 125.636C136.989 126.363 140.362 152.286 140.362 152.286H55.9341C55.9341 152.286 58.1069 128.055 61.7219 125.636C65.3432 123.211 77.1603 121.035 83.1895 117.882C83.8629 117.659 86.1501 123.402 97.9671 123.402C109.784 123.402 111.69 117.276 112.383 117.64Z" stroke="#E29734" stroke-width="0.438596" stroke-miterlimit="10"/>
<path d="M174.187 60.358C174.6 60.358 174.937 60.6963 174.937 61.1111V150.416C174.937 150.83 174.6 151.169 174.187 151.169H22.3827C21.9697 151.169 21.633 150.83 21.633 150.416V61.1111C21.633 60.6963 21.9697 60.358 22.3827 60.358H174.187ZM174.187 58.4755H22.3827C20.9341 58.4755 19.7588 59.6561 19.7588 61.1111V150.416C19.7588 151.871 20.9341 153.051 22.3827 153.051H174.187C175.636 153.051 176.811 151.871 176.811 150.416V61.1111C176.811 59.6561 175.636 58.4755 174.187 58.4755Z" fill="#461F77"/>
<path d="M94.8666 54.3274C98.5515 54.3274 103.132 56.4844 105.051 61.3089L105.191 61.6663L105.515 61.4621C107.503 60.1985 109.466 59.5603 111.353 59.5603C113.787 59.5603 115.928 60.6643 117.23 62.5852C118.571 64.5571 118.812 67.0268 117.903 69.3561L117.745 69.7582L118.17 69.7901C120.546 69.9751 122.516 71.5067 123.424 73.8871C124.689 77.1928 123.621 81.1047 120.559 84.3402L120.413 84.4998L120.502 84.6976C121.436 86.7142 122.008 89.3115 118.17 91.5387L117.935 91.6727L118.037 91.928C118.443 92.9746 118.227 94.2317 117.446 95.3804C116.442 96.861 114.778 97.8118 113.202 97.8118C113.158 97.8118 108.729 97.7736 103.316 97.7736C95.4892 97.7736 85.6226 97.8438 83.0432 98.1947C82.8399 98.2203 82.6366 98.233 82.4333 98.233C80.089 98.233 78.3482 96.4653 77.5731 94.9529C76.8488 93.5489 76.7916 92.1322 77.4079 91.2515L77.5921 90.9963L77.338 90.8112C71.2961 86.3568 72.8209 79.8922 73.4308 78.016C74.3647 75.1443 76.2325 72.9809 77.7764 72.9809C77.9098 72.9809 78.0432 73 78.1639 73.032L79.1932 73.3L78.4752 72.5087C76.6264 70.4602 76.1182 68.1883 77.0394 66.0951C77.9987 63.919 80.4066 62.3363 82.7573 62.3363C83.704 62.3363 84.5616 62.5852 85.3177 63.0702L85.7433 63.351L85.8005 62.8405C86.5629 56.5546 91.1563 54.3274 94.8666 54.3274ZM94.8666 54.0083C90.4193 54.0083 86.2135 56.8098 85.5083 62.815C84.6696 62.2725 83.7294 62.03 82.7764 62.03C78.2783 62.03 73.5134 67.4799 78.2592 72.732C78.1068 72.6937 77.9479 72.6746 77.7891 72.6746C73.8374 72.6746 68.4816 84.6784 77.1665 91.0792C75.4765 93.4659 78.4054 98.5649 82.4524 98.5649C82.6684 98.5649 82.8844 98.5521 83.1067 98.5202C85.6735 98.1756 95.5782 98.099 103.335 98.099C108.812 98.099 113.221 98.1373 113.221 98.1373C116.366 98.1373 119.447 94.6274 118.355 91.8195C122.186 89.5987 121.912 86.9375 120.82 84.57C127.116 77.9139 123.964 69.9241 118.221 69.4774C120.172 64.4869 116.811 59.2412 111.372 59.2412C109.562 59.2412 107.516 59.822 105.362 61.194C103.488 56.5099 99.0724 54.0083 94.8666 54.0083Z" fill="#461F77"/>
<path d="M84.1615 93.166C84.1615 93.166 83.4372 91.226 82.4715 91.711C81.5058 92.196 81.7473 97.2822 82.2301 98.4947C82.713 99.7072 84.8858 103.581 84.8858 103.581L84.1615 95.8272V93.166V93.166Z" fill="#F9CCB9"/>
<path d="M112.141 92.681C112.141 92.681 112.866 90.741 113.831 91.226C114.797 91.711 114.556 96.7972 114.073 98.0097C113.59 99.2222 111.417 103.096 111.417 103.096L112.141 95.3422V92.681V92.681Z" fill="#F9CCB9"/>
<path d="M82.7828 91.9536C83.2085 91.9536 83.6659 92.7768 83.8438 93.2235V95.8592L84.4283 102.094C83.7549 100.862 82.821 99.1074 82.5287 98.3735C81.9887 97.027 81.9506 92.3301 82.6177 91.9919C82.6748 91.9664 82.7257 91.9536 82.7828 91.9536ZM82.7828 91.6345C82.6812 91.6345 82.5795 91.66 82.4715 91.7111C81.5058 92.1961 81.7473 97.2823 82.2301 98.4948C82.713 99.7073 84.8858 103.581 84.8858 103.581L84.1615 95.8273V93.1597C84.1615 93.1661 83.5897 91.6345 82.7828 91.6345Z" fill="#E5A38C"/>
<path d="M113.52 91.4686C113.577 91.4686 113.628 91.4814 113.691 91.5133C114.359 91.8451 114.314 96.542 113.78 97.8949C113.488 98.6288 112.554 100.377 111.881 101.615L112.465 95.3486V92.7449C112.637 92.2918 113.094 91.4686 113.52 91.4686ZM113.52 91.1495C112.713 91.1495 112.141 92.6811 112.141 92.6811V95.3486L111.417 103.102C111.417 103.102 113.59 99.2287 114.073 98.0162C114.556 96.8037 114.797 91.7175 113.831 91.2325C113.723 91.1751 113.615 91.1495 113.52 91.1495Z" fill="#E5A38C"/>
<path d="M109.003 78.1438C109.003 78.1438 111.417 79.752 111.417 80.722C111.417 81.692 112.382 93.8043 112.382 93.8043C112.103 99.2223 111.379 105.036 110.654 106.734C109.93 108.431 102.732 115.942 98.1512 115.942C93.5705 115.942 86.3342 108.431 85.6099 106.734C84.8856 105.036 84.1614 99.2223 83.8818 93.8043C83.8818 93.8043 84.8475 81.692 84.8475 80.722C84.8475 79.752 87.0585 78.1438 87.0585 78.1438C88.7484 79.1138 92.5286 79.6626 97.8717 79.5095C103.215 79.3563 106.353 78.8713 109.003 78.1438Z" fill="#F9CCB9"/>
<path d="M118.209 69.4711C120.807 62.815 113.965 55.7123 105.35 61.1877C101.519 51.5706 86.8807 51.1303 85.5084 62.815C80.7181 59.7072 72.5097 66.3632 78.2594 72.7257C74.2886 71.6919 68.1323 84.4105 77.1666 91.0729C75.5021 93.4214 78.3102 98.3927 82.2556 98.5522C82.2492 98.5331 82.2365 98.5139 82.2302 98.4948C81.7473 97.2823 81.5059 92.1961 82.4716 91.7111C83.1387 91.3792 83.6851 92.1961 83.9646 92.7322C84.1997 89.7519 84.8477 81.5132 84.8477 80.7155C84.8477 79.7455 87.0586 78.1373 87.0586 78.1373C88.7486 79.1074 92.5288 79.6562 97.8718 79.503C103.215 79.3499 106.353 78.8649 109.009 78.1373C109.009 78.1373 111.423 79.7455 111.423 80.7155C111.423 81.4813 112.02 89.1521 112.275 92.3812C112.522 91.8579 113.113 90.8623 113.831 91.2261C114.797 91.7111 114.555 96.7973 114.073 98.0098C114.066 98.0161 114.066 98.0289 114.06 98.0417C116.881 97.4992 119.346 94.3722 118.348 91.8132C122.179 89.5924 121.906 86.9312 120.813 84.5637C127.103 77.9076 123.952 69.9178 118.209 69.4711Z" fill="url(#paint2_linear)"/>
<path d="M109.003 78.1438C109.003 78.1438 111.417 79.752 111.417 80.722C111.417 81.692 112.382 93.8043 112.382 93.8043C112.103 99.2223 111.379 105.036 110.654 106.734C109.93 108.431 102.732 115.942 98.1512 115.942C93.5705 115.942 86.3342 108.431 85.6099 106.734C84.8856 105.036 84.1614 99.2223 83.8818 93.8043C83.8818 93.8043 84.8475 81.692 84.8475 80.722C84.8475 79.752 87.0585 78.1438 87.0585 78.1438C88.7484 79.1138 92.5286 79.6626 97.8717 79.5095C103.215 79.3563 106.353 78.8713 109.003 78.1438Z" stroke="#E5A38C" stroke-width="0.438596" stroke-miterlimit="10"/>
<path d="M124.924 212.605C123.996 212.605 123.24 211.845 123.24 210.914V121.609C123.24 120.677 123.996 119.911 124.924 119.911H276.728C277.656 119.911 278.412 120.671 278.412 121.609V210.914C278.412 211.845 277.656 212.605 276.728 212.605H124.924Z" fill="white"/>
<path d="M276.728 120.856C277.141 120.856 277.478 121.194 277.478 121.609V210.914C277.478 211.328 277.141 211.667 276.728 211.667H124.924C124.511 211.667 124.174 211.328 124.174 210.914V121.609C124.174 121.194 124.511 120.856 124.924 120.856H276.728ZM276.728 118.973H124.924C123.475 118.973 122.3 120.154 122.3 121.609V210.914C122.3 212.369 123.475 213.549 124.924 213.549H276.728C278.177 213.549 279.352 212.369 279.352 210.914V121.609C279.352 120.154 278.177 118.973 276.728 118.973Z" fill="#461F77"/>
<path d="M226.747 176.147C225.197 162.535 227.821 130.052 212.408 131.131C206.627 121.845 176.919 124.647 176.201 149.497C175.483 174.347 171.538 198.833 171.538 198.833H231.766C231.766 198.833 228.183 188.75 226.747 176.147Z" fill="#D34FBA"/>
<path d="M226.747 176.147C225.197 162.535 227.821 130.052 212.408 131.131C206.627 121.845 176.919 124.647 176.201 149.497C175.483 174.347 171.538 198.833 171.538 198.833H231.766C231.766 198.833 228.183 188.75 226.747 176.147Z" stroke="#A53595" stroke-width="0.438596" stroke-miterlimit="10"/>
<path d="M186.461 153.594C186.461 153.594 185.477 151.775 184.587 152.388C183.698 153 184.638 158.01 185.286 159.139C185.934 160.269 188.615 163.811 188.615 163.811L186.823 156.236L186.461 153.594Z" fill="#F9CCB9"/>
<path d="M214.632 153.128C214.632 153.128 215.496 151.252 216.423 151.807C217.351 152.362 216.728 157.416 216.156 158.591C215.585 159.765 213.132 163.466 213.132 163.466L214.428 155.789L214.632 153.128Z" fill="#F9CCB9"/>
<path d="M186.461 153.594C186.461 153.594 185.477 151.775 184.587 152.388C183.698 153 184.638 158.01 185.286 159.139C185.934 160.269 188.615 163.811 188.615 163.811L186.823 156.236L186.461 153.594Z" stroke="#E5A38C" stroke-width="0.438596" stroke-miterlimit="10"/>
<path d="M214.632 153.128C214.632 153.128 215.496 151.252 216.423 151.807C217.351 152.362 216.728 157.416 216.156 158.591C215.585 159.765 213.132 163.466 213.132 163.466L214.428 155.789L214.632 153.128Z" stroke="#E5A38C" stroke-width="0.438596" stroke-miterlimit="10"/>
<path d="M94.8666 54.3274C98.5515 54.3274 103.132 56.4844 105.051 61.3089L105.191 61.6663L105.515 61.4621C107.503 60.1985 109.466 59.5603 111.353 59.5603C113.787 59.5603 115.928 60.6643 117.23 62.5852C118.571 64.5571 118.818 67.0268 117.903 69.3625L117.745 69.7646L118.17 69.7965C120.546 69.9815 122.516 71.5131 123.424 73.8935C124.689 77.1992 123.621 81.1111 120.559 84.3466L120.413 84.5061L120.502 84.704C121.436 86.7206 122.008 89.3179 118.17 91.5451L117.935 91.6791L118.037 91.9344C118.393 92.8469 118.278 93.9254 117.706 94.9529C117.027 96.1909 115.807 97.1865 114.504 97.6013C114.886 95.8272 115.083 91.5132 113.958 90.9452C113.812 90.8686 113.659 90.8367 113.507 90.8367C113.107 90.8367 112.776 91.0792 112.503 91.4047C112.224 87.8118 111.728 81.411 111.728 80.7282C111.728 79.6433 109.6 78.1692 109.174 77.8884L109.053 77.8054L108.914 77.8437C105.953 78.6542 102.643 79.0626 97.8526 79.1966C97.2681 79.2158 96.6836 79.2221 96.1309 79.2221C91.9505 79.2221 88.6976 78.7308 87.2046 77.8756L87.0267 77.7735L86.8615 77.8948C86.4676 78.1819 84.5172 79.6497 84.5172 80.7282C84.5172 81.443 83.9644 88.5266 83.7103 91.8131C83.4498 91.5323 83.1385 91.3281 82.7764 91.3281C82.6239 91.3281 82.4714 91.3664 82.3253 91.4366C81.1754 92.0109 81.4041 96.5036 81.8043 98.2011C79.7205 97.9076 78.2084 96.2547 77.5223 94.8572C76.8488 93.4723 76.8043 92.1322 77.4142 91.2707L77.5985 91.0154L77.3444 90.8303C71.3024 86.376 72.8272 79.9114 73.4371 78.0352C74.371 75.1634 76.2389 73 77.7827 73C77.9162 73 78.0496 73.0192 78.1703 73.0511L79.1995 73.3191L78.4816 72.5278C76.6328 70.4793 76.1245 68.2074 77.0458 66.1143C78.0051 63.9381 80.413 62.3555 82.7637 62.3555C83.7103 62.3555 84.568 62.6044 85.324 63.0894L85.7497 63.3702L85.8069 62.8596C86.5629 56.5546 91.1563 54.3274 94.8666 54.3274ZM94.8666 54.0083C90.4193 54.0083 86.2135 56.8098 85.5083 62.815C84.6696 62.2725 83.7294 62.03 82.7764 62.03C78.2783 62.03 73.5134 67.4799 78.2592 72.732C78.1068 72.6937 77.9479 72.6746 77.7891 72.6746C73.8374 72.6746 68.4816 84.6784 77.1665 91.0792C75.5019 93.4277 78.3101 98.399 82.2554 98.5585C82.2491 98.5394 82.2364 98.5202 82.23 98.5011C81.7472 97.2886 81.5057 92.2024 82.4714 91.7174C82.5794 91.6663 82.6811 91.6408 82.7827 91.6408C83.3037 91.6408 83.7294 92.2854 83.9644 92.7384C84.1995 89.7582 84.8475 81.5195 84.8475 80.7218C84.8475 79.7518 87.0585 78.1436 87.0585 78.1436C88.5578 79.0052 91.709 79.5348 96.1436 79.5348C96.7027 79.5348 97.2808 79.5285 97.878 79.5093C103.221 79.3562 106.36 78.8712 109.015 78.1436C109.015 78.1436 111.429 79.7518 111.429 80.7218C111.429 81.4876 112.027 89.1584 112.281 92.3875C112.49 91.9407 112.948 91.1558 113.526 91.1558C113.628 91.1558 113.729 91.1813 113.837 91.2324C114.803 91.7174 114.562 96.8036 114.079 98.0161C114.072 98.0224 114.072 98.0352 114.066 98.048C116.887 97.5055 119.352 94.3785 118.355 91.8195C122.186 89.5987 121.912 86.9375 120.82 84.57C127.116 77.9139 123.964 69.9241 118.221 69.4774C120.172 64.4869 116.811 59.2412 111.372 59.2412C109.562 59.2412 107.516 59.822 105.362 61.194C103.488 56.5099 99.0724 54.0083 94.8666 54.0083Z" fill="#461F77"/>
<path d="M211.493 174.743C212.992 176.925 214.199 177.895 214.924 178.138C215.648 178.38 234.218 185.406 236.874 186.134C239.53 186.861 242.903 212.783 242.903 212.783H158.475C158.475 212.783 160.648 188.552 164.263 186.134C167.884 183.709 179.701 181.533 185.73 178.38C187.42 177.653 189.282 175.368 189.282 175.368L211.493 174.743Z" fill="#59338C"/>
<path d="M211.334 175.068C212.611 176.9 213.882 178.125 214.822 178.438C214.994 178.495 216.29 178.98 218.081 179.65C223.913 181.833 234.778 185.891 236.791 186.44C237.135 186.536 238.424 187.774 240.572 199.784C241.575 205.4 242.344 211.009 242.541 212.464H158.825C159.466 205.521 161.626 188.284 164.441 186.395C166.207 185.215 170.076 184.06 174.168 182.834C178.431 181.565 182.833 180.25 185.858 178.667C187.395 178.004 189.028 176.159 189.434 175.681L211.334 175.068ZM211.493 174.743L189.282 175.368C189.282 175.368 187.42 177.653 185.73 178.38C179.701 181.533 167.878 183.709 164.263 186.134C160.648 188.559 158.475 212.783 158.475 212.783H242.903C242.903 212.783 239.523 186.855 236.874 186.134C234.225 185.413 215.648 178.38 214.924 178.138C214.199 177.895 212.992 176.925 211.493 174.743Z" fill="#461F77"/>
<path d="M190.978 167.818C191.169 169.739 190.788 172.732 190.597 174.711C190.063 176.127 188.348 176.625 187.903 178.616C186.938 182.975 196.588 188.31 202.135 188.067C207.681 187.825 213.475 182.254 212.992 180.314C212.509 178.374 211.042 177.755 210.8 175.094C210.578 172.669 210.419 167.818 210.419 167.818H190.978Z" fill="#F9CCB9"/>
<path d="M210.292 174.455C210.927 173.817 210.292 171.903 210.292 171.903L210.279 169.924L191.232 169.35V171.264C191.232 171.264 197.713 184.028 210.292 174.455Z" fill="#E5AF9C"/>
<path d="M210.114 168.138C210.153 169.248 210.299 173.071 210.483 175.125C210.629 176.753 211.233 177.684 211.76 178.501C212.135 179.082 212.491 179.631 212.681 180.397C212.783 180.792 212.484 181.501 211.9 182.292C210.292 184.449 206.201 187.576 202.122 187.748C202.001 187.755 201.887 187.755 201.766 187.755C197.688 187.755 191.735 184.953 189.276 181.877C188.361 180.729 188.005 179.656 188.215 178.686C188.444 177.646 189.066 177.04 189.663 176.453C190.14 175.987 190.635 175.502 190.89 174.826L190.902 174.787L190.909 174.743C190.94 174.423 190.972 174.072 191.01 173.709C191.195 171.935 191.417 169.752 191.315 168.138H210.114V168.138ZM210.419 167.818H190.979C191.169 169.739 190.788 172.732 190.597 174.711C190.064 176.127 188.348 176.625 187.904 178.616C186.957 182.879 196.169 188.074 201.766 188.074C201.893 188.074 202.014 188.074 202.141 188.067C207.688 187.825 213.475 182.254 212.999 180.314C212.516 178.374 211.048 177.755 210.807 175.094C210.578 172.669 210.419 167.818 210.419 167.818Z" fill="#E5A38C"/>
<path d="M201.054 185.164C205.032 185.164 208.532 184.194 203.227 192.19C202.744 193.16 207.046 212.783 207.046 212.783H194.708C194.708 212.783 199.009 193.16 198.526 192.19C193.215 184.194 197.071 185.164 201.054 185.164Z" fill="#D34FBA"/>
<path d="M201.054 185.164C205.032 185.164 208.532 184.194 203.227 192.19C202.744 193.16 207.046 212.783 207.046 212.783H194.708C194.708 212.783 199.009 193.16 198.526 192.19C193.215 184.194 197.071 185.164 201.054 185.164Z" stroke="#A53595" stroke-width="0.438596" stroke-miterlimit="10"/>
<path d="M189.168 177.672C189.193 177.302 189.212 176.912 189.238 176.517C189.238 176.517 190.527 175.444 190.591 174.864C190.686 174.328 190.635 174.328 190.642 174.251C188.056 175.036 186.125 177.302 186.125 179.931C186.125 182.598 189.022 195.923 189.746 195.923C190.47 195.923 198.189 185.259 198.431 184.774C198.659 184.296 189.079 178.801 189.168 177.672Z" fill="#E6E6E6"/>
<path d="M210.699 173.849C210.711 174.411 210.737 174.966 210.781 175.47L211.347 177.499C211.334 177.736 211.201 178.042 211.163 178.138C210.654 179.337 202.725 184.194 202.967 184.679C203.208 185.164 210.927 195.827 211.652 195.827C212.376 195.827 214.549 182.988 214.549 180.32C214.549 177.767 213.088 174.768 210.699 173.849Z" fill="#E6E6E6"/>
<path d="M190.292 174.704C190.286 174.742 190.28 174.781 190.273 174.825C190.241 175.113 189.93 175.406 189.568 175.738C189.39 175.904 189.193 176.089 189.003 176.293L188.926 176.376L188.92 176.491C188.92 176.504 188.882 177.27 188.85 177.64C188.799 178.348 190.343 179.516 194.733 182.432C196.112 183.351 197.662 184.379 198.05 184.762C197.205 186.057 191.029 194.494 189.79 195.521C188.945 194.009 186.429 182.452 186.429 179.924C186.436 177.678 187.999 175.585 190.292 174.704ZM190.635 174.251C188.05 175.036 186.118 177.302 186.118 179.931C186.118 182.598 189.015 195.923 189.739 195.923C190.464 195.923 198.183 185.259 198.424 184.774C198.666 184.289 189.085 178.795 189.174 177.665C189.199 177.295 189.244 176.51 189.244 176.51C189.841 175.853 190.534 175.444 190.591 174.857C190.68 174.328 190.629 174.328 190.635 174.251Z" fill="#CCCCCC"/>
<path d="M211.029 174.353C213.037 175.419 214.225 178.131 214.225 180.32C214.225 183.064 212.3 193.932 211.582 195.425C210.318 194.36 204.123 185.904 203.323 184.66C203.685 184.258 205.286 183.128 206.595 182.203C209.345 180.256 211.169 178.935 211.461 178.246C211.55 178.035 211.652 177.767 211.664 177.512V177.461L211.652 177.41L211.093 175.413C211.067 175.1 211.048 174.743 211.029 174.353ZM210.699 173.849C210.711 174.411 210.737 174.966 210.781 175.47L211.347 177.499C211.334 177.736 211.201 178.042 211.163 178.138C210.654 179.337 202.725 184.194 202.967 184.679C203.208 185.164 210.927 195.827 211.652 195.827C212.376 195.827 214.549 182.988 214.549 180.32C214.549 177.767 213.088 174.768 210.699 173.849Z" fill="#CCCCCC"/>
<path d="M204.568 139.835C202.395 143.351 198.043 147.174 186.785 149.656C186.589 152.19 186.423 154.302 186.423 154.302C186.703 159.72 188.355 165.355 189.079 167.053C189.803 168.75 196.112 176.44 200.699 176.44C205.28 176.44 211.608 168.75 212.332 167.053C213.056 165.355 214.651 159.72 214.93 154.302C214.93 154.302 214.511 149.025 214.225 145.157C211.563 144.462 206.919 141.883 204.568 139.835Z" fill="#F9CCB9"/>
<path d="M186.779 149.707C186.582 152.215 186.417 154.302 186.417 154.302C186.697 159.72 188.348 165.355 189.073 167.053C189.797 168.75 196.106 176.44 200.693 176.44C205.273 176.44 211.601 168.75 212.326 167.053C213.05 165.355 214.644 159.72 214.924 154.302C214.924 154.302 214.511 149.146 214.225 145.291" stroke="#E5A38C" stroke-width="0.438596" stroke-miterlimit="10"/>
<path d="M215.057 145.419C214.054 145.317 213.101 144.959 212.179 144.583C211.252 144.2 210.35 143.76 209.467 143.287C207.707 142.33 205.998 141.271 204.46 139.956L204.702 139.918C203.717 141.488 202.389 142.79 200.928 143.894C199.467 144.991 197.859 145.885 196.214 146.657C194.562 147.416 192.847 148.042 191.118 148.591L189.816 148.986L188.501 149.337C187.624 149.58 186.735 149.752 185.833 149.886C187.561 149.324 189.34 148.973 191.055 148.38C192.777 147.818 194.473 147.18 196.106 146.408C197.739 145.63 199.314 144.736 200.744 143.638C202.173 142.554 203.482 141.277 204.435 139.752L204.53 139.599L204.67 139.72C205.42 140.365 206.226 140.945 207.052 141.494C207.878 142.049 208.723 142.573 209.594 143.058C210.464 143.543 211.347 143.989 212.262 144.391C213.177 144.781 214.104 145.113 215.057 145.419Z" fill="#A53595"/>
<path d="M281.144 97.11H231.036C229.123 97.11 227.573 98.9734 227.573 101.271V131.239C227.573 133.536 229.123 135.4 231.036 135.4H237.827L231.716 148.418L250.604 135.4H281.144C283.056 135.4 284.606 133.536 284.606 131.239V101.271C284.606 98.9734 283.056 97.11 281.144 97.11Z" fill="#59338C"/>
<path d="M5.8193 39.2924H53.5067C55.3301 39.2924 56.8041 41.1558 56.8041 43.4532V73.4213C56.8041 75.7187 55.3301 77.5822 53.5067 77.5822H47.0391L52.8523 90.6007L34.879 77.5822H5.8193C3.99592 77.5822 2.52197 75.7187 2.52197 73.4213V43.4532C2.52197 41.1558 3.99592 39.2924 5.8193 39.2924Z" fill="#59338C"/>
<path d="M276.728 120.856C277.141 120.856 277.478 121.194 277.478 121.609V210.914C277.478 211.328 277.141 211.667 276.728 211.667H124.924C124.511 211.667 124.174 211.328 124.174 210.914V121.609C124.174 121.194 124.511 120.856 124.924 120.856H276.728ZM276.728 118.973H124.924C123.475 118.973 122.3 120.154 122.3 121.609V210.914C122.3 212.369 123.475 213.549 124.924 213.549H276.728C278.177 213.549 279.352 212.369 279.352 210.914V121.609C279.352 120.154 278.177 118.973 276.728 118.973Z" fill="#461F77"/>
<path d="M22.7635 52.9554C21.0481 47.129 30.1078 44.7614 31.6326 50.6389C32.6173 54.4423 27.9032 56.3951 28.5386 58.852C29.1739 61.309 29.7647 63.5681 29.7647 63.5681" stroke="white" stroke-width="4.38596" stroke-miterlimit="10" stroke-linecap="round"/>
<path d="M31.366 70.7346C32.4889 70.7346 33.3991 69.8203 33.3991 68.6925C33.3991 67.5647 32.4889 66.6504 31.366 66.6504C30.2432 66.6504 29.333 67.5647 29.333 68.6925C29.333 69.8203 30.2432 70.7346 31.366 70.7346Z" fill="white"/>
<path d="M260.692 104.136L256.747 116.536" stroke="white" stroke-width="4.38596" stroke-miterlimit="10" stroke-linecap="round"/>
<path d="M254.447 126.114C255.921 126.114 257.116 124.914 257.116 123.434C257.116 121.954 255.921 120.754 254.447 120.754C252.973 120.754 251.779 121.954 251.779 123.434C251.779 124.914 252.973 126.114 254.447 126.114Z" fill="white"/>
<path d="M118.552 173.945C127.604 173.945 134.943 166.573 134.943 157.48C134.943 148.387 127.604 141.016 118.552 141.016C109.499 141.016 102.16 148.387 102.16 157.48C102.16 166.573 109.499 173.945 118.552 173.945Z" fill="white" stroke="#B246A3" stroke-width="2.63158" stroke-miterlimit="10"/>
<path d="M118.247 147.812V157.48L126.538 164.583" stroke="#B246A3" stroke-width="2.63158" stroke-miterlimit="10" stroke-linecap="round"/>
<path d="M190.572 107.321C191.849 107.321 192.91 106.038 192.91 104.972C192.91 103.906 192.91 83.8554 192.91 83.0002C192.91 82.1451 192.275 80.8688 190.788 80.8688C189.301 80.8688 163.393 80.8688 161.906 80.8688C160.42 80.8688 159.784 82.1515 159.784 83.0002C159.784 83.8554 159.784 103.906 159.784 104.972C159.784 106.038 160.845 107.321 162.122 107.321C163.393 107.321 189.301 107.321 190.572 107.321Z" fill="#B246A3"/>
<path d="M184.136 91.3218H186.182C186.379 91.3218 186.538 91.4813 186.538 91.6791V95.8719C186.538 96.0697 186.379 96.2293 186.182 96.2293H184.136C183.939 96.2293 183.78 96.0697 183.78 95.8719V91.6791C183.78 91.4813 183.939 91.3218 184.136 91.3218Z" fill="white"/>
<path d="M166.506 90.8943H168.551C168.748 90.8943 168.907 91.0538 168.907 91.2517V95.4444C168.907 95.6422 168.748 95.8018 168.551 95.8018H166.506C166.309 95.8018 166.15 95.6422 166.15 95.4444V91.2517C166.15 91.0538 166.309 90.8943 166.506 90.8943Z" fill="white"/>
<path d="M159.778 91.2452C159.778 91.7813 159.778 92.3301 159.778 92.8789C160.547 93.6703 161.62 94.1106 162.541 94.1106H166.15V93.2172H162.541C161.519 93.2235 160.197 92.4322 159.778 91.2452Z" fill="white"/>
<path d="M183.78 93.6703C180.152 93.6703 176.347 93.6703 176.347 93.6703C176.347 93.6703 172.541 93.6703 168.914 93.6703" stroke="white" stroke-width="1.75439" stroke-miterlimit="10"/>
<path d="M192.909 92.8789C192.909 92.3301 192.909 91.7813 192.909 91.2452C192.496 92.4322 191.169 93.2235 190.146 93.2235H186.537V94.117H190.146C191.067 94.117 192.141 93.6703 192.909 92.8789Z" fill="white"/>
<path d="M181.315 79.4711C181.315 75.5719 179.689 75.7442 178.405 75.7442C177.122 75.7442 174.555 75.7442 173.272 75.7442C171.989 75.7442 170.362 75.5719 170.362 79.4711" stroke="#B246A3" stroke-width="2.63158" stroke-miterlimit="10" stroke-linecap="round"/>
<path d="M99.3712 93.9064C99.5428 94.736 99.6826 95.5656 99.7906 96.4016C99.8986 97.2376 99.9875 98.08 100.032 98.9223C100.057 99.3499 100.07 99.7647 100.038 100.224C100.038 100.326 100.013 100.473 99.9621 100.62C99.9303 100.696 99.8731 100.779 99.816 100.85C99.7588 100.907 99.708 100.945 99.6444 100.996C99.4221 101.15 99.1997 101.232 98.99 101.29C98.1324 101.532 97.281 101.564 96.4233 101.424C97.2302 101.124 98.0498 100.952 98.7931 100.69C98.9773 100.633 99.1489 100.543 99.2759 100.467L99.3458 100.409C99.3458 100.39 99.3585 100.396 99.3712 100.377C99.3776 100.326 99.403 100.262 99.403 100.154C99.4411 99.7711 99.4348 99.3499 99.4348 98.9351C99.4094 97.2823 99.3522 95.5975 99.3712 93.9064Z" fill="#E0937E"/>
<path d="M94.0151 105.54C94.7902 105.834 95.578 106.057 96.3595 106.236C97.1473 106.408 97.9351 106.516 98.7229 106.529C99.5107 106.548 100.286 106.427 101.042 106.217L101.607 106.038L102.154 105.795C102.541 105.661 102.852 105.393 103.24 105.215C102.7 105.834 102.046 106.44 101.232 106.746C100.438 107.078 99.5679 107.25 98.7102 107.218C97.8525 107.193 97.0075 107.027 96.2134 106.74C95.4256 106.453 94.6695 106.057 94.0151 105.54Z" fill="#E0937E"/>
<path d="M96.2896 108.961C97.0774 109.286 97.8652 109.458 98.6657 109.458C99.0659 109.446 99.4662 109.414 99.8601 109.318C100.26 109.235 100.648 109.095 101.054 108.961C100.724 109.229 100.356 109.465 99.949 109.618C99.5488 109.79 99.104 109.854 98.6657 109.873C98.2273 109.892 97.7826 109.809 97.3696 109.663C96.963 109.51 96.5818 109.273 96.2896 108.961Z" fill="#E2A47A"/>
<path d="M101.061 87.2503C101.665 88.5777 107.141 86.5674 108.113 86.5674C109.085 86.5674 110.546 86.7972 110.546 86.7972C110.546 86.7972 109.333 85.2018 107.63 85.2018C105.928 85.2018 100.33 85.6485 101.061 87.2503Z" fill="#402172"/>
<path d="M94.301 87.2503C93.7165 88.5777 88.4243 86.5674 87.484 86.5674C86.5437 86.5674 85.1333 86.7972 85.1333 86.7972C85.1333 86.7972 86.3087 85.2018 87.9541 85.2018C89.5996 85.2018 95.0126 85.6485 94.301 87.2503Z" fill="#402172"/>
<path d="M105.254 96.8292C106.194 96.8292 106.957 95.5006 106.957 93.8618C106.957 92.2229 106.194 90.8943 105.254 90.8943C104.314 90.8943 103.551 92.2229 103.551 93.8618C103.551 95.5006 104.314 96.8292 105.254 96.8292Z" fill="#191716"/>
<path d="M90.4956 96.8292C91.436 96.8292 92.1983 95.5006 92.1983 93.8618C92.1983 92.2229 91.436 90.8943 90.4956 90.8943C89.5553 90.8943 88.793 92.2229 88.793 93.8618C88.793 95.5006 89.5553 96.8292 90.4956 96.8292Z" fill="#191716"/>
<path d="M106.048 93.8618C106.55 93.8618 106.957 93.4532 106.957 92.9492C106.957 92.4452 106.55 92.0366 106.048 92.0366C105.546 92.0366 105.14 92.4452 105.14 92.9492C105.14 93.4532 105.546 93.8618 106.048 93.8618Z" fill="white"/>
<path d="M91.2962 93.8618C91.798 93.8618 92.2047 93.4532 92.2047 92.9492C92.2047 92.4452 91.798 92.0366 91.2962 92.0366C90.7944 92.0366 90.3877 92.4452 90.3877 92.9492C90.3877 93.4532 90.7944 93.8618 91.2962 93.8618Z" fill="white"/>
<path d="M197.008 166.963C197.675 167.187 198.31 167.378 198.977 167.455C199.638 167.531 200.299 167.531 200.966 167.48C201.633 167.41 202.287 167.282 202.948 167.116C203.602 166.938 204.263 166.753 204.892 166.472C204.359 166.925 203.723 167.238 203.069 167.499C202.414 167.755 201.722 167.933 201.017 168.016C200.311 168.093 199.587 168.055 198.888 167.901C198.196 167.742 197.548 167.41 197.008 166.963Z" fill="#E0937E"/>
<path d="M200.146 155.208C200.292 155.961 200.318 156.734 200.292 157.499C200.26 158.265 200.19 159.031 200.076 159.79L199.708 162.049C199.695 162.139 199.682 162.235 199.676 162.318C199.67 162.369 199.676 162.407 199.67 162.394C199.657 162.407 199.65 162.381 199.682 162.413C199.79 162.496 199.974 162.573 200.14 162.649C200.483 162.796 200.832 162.949 201.175 163.128C200.788 163.122 200.406 163.058 200.032 162.949C199.841 162.892 199.663 162.841 199.46 162.7C199.422 162.675 199.32 162.592 199.314 162.496C199.295 162.388 199.307 162.337 199.307 162.286C199.314 162.177 199.333 162.088 199.345 161.986L199.752 159.733C200.013 158.246 200.241 156.74 200.146 155.208Z" fill="#E0937E"/>
<path d="M199.371 169.478C200.102 169.529 200.775 169.529 201.468 169.433C202.154 169.337 202.815 169.152 203.475 168.84C202.98 169.388 202.255 169.708 201.525 169.835C200.801 169.963 199.994 169.893 199.371 169.478Z" fill="#E2A47A"/>
<path d="M203.882 148.227C203.711 149.963 209.524 148.399 210.178 148.323C210.833 148.24 213.082 148.859 213.082 148.859C213.082 148.859 211.328 147.257 210.185 147.091C209.035 146.919 204.009 146.95 203.882 148.227Z" fill="#BC48AC"/>
<path d="M197.503 148.08C197.427 147.518 196.404 147.231 195.178 147.104C194.079 147.563 192.859 148.003 191.506 148.418C192.859 148.654 197.713 149.656 197.503 148.08Z" fill="#BC48AC"/>
<path d="M213.302 160.616C215.111 159.893 216.359 158.755 216.089 158.073C215.819 157.392 214.134 157.427 212.324 158.15C210.515 158.873 209.267 160.012 209.537 160.693C209.807 161.374 211.492 161.34 213.302 160.616Z" fill="#EF9381"/>
<path d="M191.117 160.724C191.392 160.03 190.122 158.87 188.28 158.134C186.438 157.398 184.722 157.363 184.447 158.058C184.172 158.752 185.442 159.912 187.284 160.648C189.126 161.384 190.842 161.419 191.117 160.724Z" fill="#EF9381"/>
<path d="M208.011 158.201C208.997 158.201 209.797 156.916 209.797 155.33C209.797 153.743 208.997 152.458 208.011 152.458C207.025 152.458 206.226 153.743 206.226 155.33C206.226 156.916 207.025 158.201 208.011 158.201Z" fill="#191716"/>
<path d="M192.554 158.201C193.54 158.201 194.339 156.916 194.339 155.33C194.339 153.743 193.54 152.458 192.554 152.458C191.568 152.458 190.769 153.743 190.769 155.33C190.769 156.916 191.568 158.201 192.554 158.201Z" fill="#191716"/>
<path d="M207.579 155.33C208.106 155.33 208.532 154.935 208.532 154.449C208.532 153.963 208.106 153.568 207.579 153.568C207.053 153.568 206.626 153.963 206.626 154.449C206.626 154.935 207.053 155.33 207.579 155.33Z" fill="white"/>
<path d="M192.116 155.33C192.642 155.33 193.069 154.935 193.069 154.449C193.069 153.963 192.642 153.568 192.116 153.568C191.589 153.568 191.163 153.963 191.163 154.449C191.163 154.935 191.589 155.33 192.116 155.33Z" fill="white"/>
</g>
<defs>
<radialGradient id="paint0_radial" cx="0" cy="0" r="1" gradientUnits="userSpaceOnUse" gradientTransform="translate(96.9239 112.128) scale(100.084 100.531)">
<stop offset="0.0482" stop-color="#B69EDB"/>
<stop offset="0.215" stop-color="#BAA4DD" stop-opacity="0.8248"/>
<stop offset="0.4272" stop-color="#C6B3E3" stop-opacity="0.6019"/>
<stop offset="0.664" stop-color="#DACDED" stop-opacity="0.353"/>
<stop offset="0.9169" stop-color="#F5F1FA" stop-opacity="0.0873"/>
<stop offset="1" stop-color="white" stop-opacity="0"/>
</radialGradient>
<radialGradient id="paint1_radial" cx="0" cy="0" r="1" gradientUnits="userSpaceOnUse" gradientTransform="translate(200.228 162.798) scale(100.084 100.531)">
<stop offset="0.0482" stop-color="#B69EDB"/>
<stop offset="0.215" stop-color="#BAA4DD" stop-opacity="0.8248"/>
<stop offset="0.4272" stop-color="#C6B3E3" stop-opacity="0.6019"/>
<stop offset="0.664" stop-color="#DACDED" stop-opacity="0.353"/>
<stop offset="0.9169" stop-color="#F5F1FA" stop-opacity="0.0873"/>
<stop offset="1" stop-color="white" stop-opacity="0"/>
</radialGradient>
<linearGradient id="paint2_linear" x1="111.383" y1="99.082" x2="82.9396" y2="58.1904" gradientUnits="userSpaceOnUse">
<stop stop-color="#472A7D"/>
<stop offset="1" stop-color="#542D7F"/>
</linearGradient>
<clipPath id="clip0">
<rect width="300" height="248.246" fill="white" transform="translate(0 13)"/>
</clipPath>
</defs>
</svg>
