<svg width="300" height="274" viewBox="0 0 300 274" fill="none" xmlns="http://www.w3.org/2000/svg">
<g clip-path="url(#clip0)">
<path d="M256.175 259.29H32L69.4405 182.783H214.054L256.175 259.29Z" fill="url(#paint0_linear)"/>
<path d="M147.13 10.2333C127.005 10.1773 123.729 30.7034 114.837 54.4951C107.859 73.1692 100.797 82.9517 103.605 95.0808C110.892 126.565 184.57 126.336 194.398 96.9468C198.142 85.7461 194.239 79.7608 188.782 61.0261C180.358 32.1029 169.594 10.1773 147.13 10.2333Z" fill="url(#paint1_linear)"/>
<path d="M192.676 100.767C193.373 99.5546 193.949 98.281 194.398 96.9468C198.142 85.7461 194.239 79.7608 188.782 61.0261C180.358 32.1029 169.594 10.1773 147.13 10.2333C127.005 10.1773 123.729 30.7034 114.837 54.4951C107.859 73.1692 100.797 82.9517 103.605 95.0808C104.04 96.9561 104.71 98.7149 105.585 100.366" stroke="#D3742D" stroke-width="0.854545" stroke-miterlimit="10" stroke-linecap="round"/>
<path d="M177.082 82.9518C174.742 81.5523 161.17 79.6863 160.234 78.2867C159.565 77.2838 158.362 71.7557 157.814 68.6628C157.894 58.2271 139.642 56.3611 140.503 67.8231C140.016 74.8859 139.127 77.8436 138.238 78.2867C137.302 78.7533 123.261 81.0858 121.389 82.0188C119.517 82.9518 132.154 104.877 151.342 103.478C170.53 102.078 179.422 84.3513 177.082 82.9518Z" fill="#F9CCB9"/>
<path d="M177.082 82.9518C174.742 81.5523 161.17 79.6863 160.234 78.2867C159.565 77.2838 158.362 71.7557 157.814 68.6628C157.894 58.2271 139.642 56.3611 140.503 67.8231C140.016 74.8859 139.127 77.8436 138.238 78.2867C137.302 78.7533 123.261 81.0858 121.389 82.0188C119.517 82.9518 132.154 104.877 151.342 103.478C170.53 102.078 179.422 84.3513 177.082 82.9518Z" stroke="#E5A38C" stroke-width="0.854545" stroke-miterlimit="10"/>
<path d="M112.965 183.716C81.1409 175.786 61.0166 175.786 61.0166 175.786L151.342 228.967C151.342 228.967 248.687 182.783 239.327 177.652C229.967 172.52 201.886 177.652 183.634 184.183C165.382 190.714 112.965 183.716 112.965 183.716Z" fill="#13124C"/>
<path d="M83.9489 147.329C81.1409 157.126 91.437 186.515 106.881 191.647C122.325 196.778 119.049 183.25 112.497 175.786C105.945 168.322 98.4571 152.461 98.4571 147.329C98.9251 147.329 83.9489 147.329 83.9489 147.329Z" fill="#F9CCB9"/>
<path d="M214.377 147.329C217.185 157.126 206.889 186.515 191.445 191.647C176.001 196.778 179.277 183.25 185.829 175.786C192.381 168.322 199.869 152.461 199.869 147.329C199.401 147.329 214.377 147.329 214.377 147.329Z" fill="#F9CCB9"/>
<path d="M83.9489 147.329C81.1409 157.126 91.437 186.515 106.881 191.647C122.325 196.778 119.049 183.25 112.497 175.786C105.945 168.322 98.4571 152.461 98.4571 147.329C98.9251 147.329 83.9489 147.329 83.9489 147.329Z" stroke="#E5A38C" stroke-width="0.854545" stroke-miterlimit="10"/>
<path d="M214.377 147.329C217.185 157.126 206.889 186.515 191.445 191.647C176.001 196.778 179.277 183.25 185.829 175.786C192.381 168.322 199.869 152.461 199.869 147.329C199.401 147.329 214.377 147.329 214.377 147.329Z" stroke="#E5A38C" stroke-width="0.854545" stroke-miterlimit="10"/>
<path d="M120.921 81.7668C113.433 84.8131 80.6727 137.528 81.1407 149.191C81.1407 153.389 98.9249 153.856 100.797 152.923C102.669 151.99 118.113 126.798 118.113 126.798L120.921 81.7668Z" fill="#D356C6"/>
<path d="M178.013 83.1663C185.501 86.2125 218.262 138.927 217.794 150.59C217.794 154.788 200.009 155.255 198.137 154.322C196.265 153.389 180.821 128.198 180.821 128.198L178.013 83.1663Z" fill="#D356C6"/>
<path d="M126.402 80.7358C126.402 80.7358 120.453 81.0857 119.049 82.9517C117.645 84.8177 111.561 112.341 113.433 121.205C115.305 130.069 123.729 145.93 123.729 145.93L176.146 144.53C176.146 144.53 183.166 127.269 183.634 118.406C184.102 109.542 179.89 83.8847 178.486 83.4182C177.082 82.4852 176.01 81.9487 173.272 81.7528C173.338 82.0187 167.722 102.078 149.47 102.078C131.217 102.078 126.402 80.7358 126.402 80.7358Z" fill="#D356C6"/>
<path d="M120.921 81.7668C113.433 84.8131 80.6727 137.528 81.1407 149.19C81.1407 152.027 89.2653 153.16 95.1107 153.31C97.9141 153.38 100.189 153.226 100.797 152.923" stroke="#B246AD" stroke-width="0.854545" stroke-miterlimit="10"/>
<path d="M178.013 83.1663C185.501 86.2125 218.262 138.927 217.794 150.59C217.794 154.788 200.009 155.255 198.137 154.322C197.248 153.879 193.317 147.991 189.423 141.918" stroke="#B246AD" stroke-width="0.854545" stroke-miterlimit="10"/>
<path d="M126.401 80.7358C126.401 80.7358 120.453 81.0857 119.049 82.9517C118.59 83.5582 117.64 86.8843 116.625 91.4001C114.528 100.758 112.169 115.224 113.433 121.205C115.305 130.069 123.729 145.93 123.729 145.93L176.146 144.53C176.146 144.53 183.166 127.269 183.634 118.406C183.812 114.996 183.302 109.099 182.525 103.109C181.28 93.5273 179.352 83.7028 178.486 83.4182C177.082 82.4852 176.01 81.9487 173.272 81.7528C173.338 82.0187 167.722 102.078 149.469 102.078C131.217 102.078 126.401 80.7358 126.401 80.7358Z" stroke="#B246AD" stroke-width="0.854545" stroke-miterlimit="10"/>
<path d="M190.715 201.91H105.884C103.549 201.91 101.611 200.105 101.452 197.781L97.3711 137.598C97.198 135.041 99.2338 132.872 101.803 132.872H194.791C197.361 132.872 199.396 135.041 199.223 137.598L195.142 197.781C194.988 200.105 193.05 201.91 190.715 201.91Z" fill="#DDDDDD"/>
<path d="M190.715 201.91H105.884C103.549 201.91 101.611 200.105 101.452 197.781L97.3711 137.598C97.198 135.041 99.2338 132.872 101.803 132.872H194.791C197.361 132.872 199.396 135.041 199.223 137.598L195.142 197.781C194.988 200.105 193.05 201.91 190.715 201.91Z" stroke="#BFBFBF" stroke-width="0.854545" stroke-miterlimit="10"/>
<path d="M193.593 205.175H103.006C102.29 205.175 101.696 204.62 101.649 203.911L97.1514 137.584C97.0999 136.8 97.7224 136.133 98.5086 136.133H198.086C198.877 136.133 199.5 136.8 199.444 137.584L194.946 203.911C194.904 204.62 194.31 205.175 193.593 205.175Z" fill="white"/>
<path d="M193.593 205.175H103.006C102.29 205.175 101.696 204.62 101.649 203.911L97.1514 137.584C97.0999 136.8 97.7224 136.133 98.5086 136.133H198.086C198.877 136.133 199.5 136.8 199.444 137.584L194.946 203.911C194.904 204.62 194.31 205.175 193.593 205.175Z" stroke="#BFBFBF" stroke-width="0.854545" stroke-miterlimit="10"/>
<path d="M194.866 205.175H101.733V209.374H194.866V205.175Z" fill="#DDDDDD"/>
<path d="M194.866 205.175H101.733V209.374H194.866V205.175Z" stroke="#BFBFBF" stroke-width="0.854545" stroke-miterlimit="10"/>
<path d="M132.78 217.948L156.49 231.766C156.49 231.766 170.53 228.501 172.402 229.434C174.274 230.367 176.614 238.764 163.042 239.697C149.47 240.63 123.261 227.568 123.261 227.568L132.78 217.948Z" fill="#F9CCB9"/>
<path d="M132.78 217.948L156.49 231.766C156.49 231.766 170.53 228.501 172.402 229.434C174.274 230.367 176.614 238.764 163.042 239.697C149.47 240.63 123.261 227.568 123.261 227.568L132.78 217.948Z" stroke="#E5A38C" stroke-width="0.854545" stroke-miterlimit="10"/>
<path d="M60.0287 175.884C48.703 178.048 38.6502 191.647 59.2425 206.575C79.8347 221.503 126.635 232.699 127.571 232.233C128.507 231.766 134.123 217.771 133.187 216.838C132.251 215.905 76.5587 181.85 71.4106 179.051C66.2626 176.252 62.9865 175.319 60.0287 175.884Z" fill="#1B1464"/>
<path d="M60.0287 175.884C48.703 178.048 38.6502 191.647 59.2425 206.575C79.8347 221.503 126.635 232.699 127.571 232.233C128.507 231.766 134.123 217.771 133.187 216.838C132.251 215.905 76.5587 181.85 71.4106 179.051C66.2626 176.252 62.9865 175.319 60.0287 175.884Z" stroke="#0D0C3D" stroke-width="0.854545" stroke-miterlimit="10"/>
<path d="M163.042 217.771C157.425 221.037 152.745 224.302 149.001 224.769C145.257 225.235 127.941 223.836 124.197 222.903C120.453 221.97 116.241 241.563 134.493 239.697C152.745 237.831 172.87 230.833 172.87 230.833L163.042 217.771Z" fill="#F9CCB9"/>
<path d="M163.042 217.771C157.425 221.037 152.745 224.302 149.001 224.769C145.257 225.235 127.941 223.836 124.197 222.903C120.453 221.97 116.241 241.563 134.493 239.697C152.745 237.831 172.87 230.833 172.87 230.833L163.042 217.771Z" stroke="#E5A38C" stroke-width="0.854545" stroke-miterlimit="10"/>
<path d="M160.683 239.725C177.747 243.284 192.058 241.096 192.526 229.9C192.994 218.704 165.382 216.838 170.998 223.835C176.614 230.833 173.787 238.792 160.683 239.725Z" fill="url(#paint2_linear)"/>
<path d="M235.733 176.35C247.059 178.515 257.111 192.113 236.519 207.041C215.927 221.97 169.126 233.166 168.19 232.699C167.254 232.233 161.638 218.237 162.574 217.304C163.51 216.371 219.203 182.317 224.351 179.518C229.499 176.719 232.775 175.786 235.733 176.35Z" fill="#1B1464"/>
<path d="M235.733 176.35C247.059 178.515 257.111 192.113 236.519 207.041C215.927 221.97 169.126 233.166 168.19 232.699C167.254 232.233 161.638 218.237 162.574 217.304C163.51 216.371 219.203 182.317 224.351 179.518C229.499 176.719 232.775 175.786 235.733 176.35Z" stroke="#0D0C3D" stroke-width="0.854545" stroke-miterlimit="10"/>
<path d="M159.274 75.4457C158.722 73.3278 158.146 70.5427 157.814 68.6627C157.819 68.2989 157.795 67.9443 157.753 67.5991C157.468 66.6988 157.271 66.0876 157.271 66.0876L140.306 70.1929C140.273 70.5381 140.241 70.8693 140.203 71.1912C143.994 76.458 151.192 78.8325 159.274 75.4457Z" fill="#E5AF9C"/>
<path d="M148.758 24.1723C129.78 24.6295 132.682 42.226 132.35 45.9813C132.018 49.732 131.447 59.104 135.883 65.8963C140.32 72.6886 145.07 75.2637 149.17 75.0631C153.27 74.8672 159.284 71.7742 163.093 65.5184C166.903 59.2626 166.028 51.8312 166.313 47.1476C166.594 42.4639 168.255 23.7011 148.758 24.1723Z" fill="#F9CCB9"/>
<path d="M148.758 24.1723C129.78 24.6295 132.682 42.226 132.35 45.9813C132.018 49.732 131.447 59.104 135.883 65.8963C140.32 72.6886 145.07 75.2637 149.17 75.0631C153.27 74.8672 159.284 71.7742 163.093 65.5184C166.903 59.2626 166.028 51.8312 166.313 47.1476C166.594 42.4639 168.255 23.7011 148.758 24.1723Z" stroke="#E5A38C" stroke-width="0.854545" stroke-miterlimit="10"/>
<path d="M127.337 223.229C119.049 218.237 103.137 221.969 104.073 229.434C105.009 236.898 110.096 245.08 134.231 239.823C121.183 235.839 122.657 225.562 127.337 223.229Z" fill="url(#paint3_linear)"/>
<path d="M127.337 223.229C119.049 218.237 103.137 221.969 104.073 229.434C105.009 236.898 110.096 245.08 134.231 239.823C121.183 235.839 122.657 225.562 127.337 223.229Z" stroke="#341242" stroke-width="0.854545" stroke-miterlimit="10"/>
<path d="M148.065 175.319C150.65 175.319 152.745 173.231 152.745 170.654C152.745 168.078 150.65 165.989 148.065 165.989C145.481 165.989 143.385 168.078 143.385 170.654C143.385 173.231 145.481 175.319 148.065 175.319Z" fill="#DDDDDD"/>
<path d="M139.379 54.8589C140.524 54.8589 141.453 53.3154 141.453 51.4114C141.453 49.5075 140.524 47.964 139.379 47.964C138.234 47.964 137.306 49.5075 137.306 51.4114C137.306 53.3154 138.234 54.8589 139.379 54.8589Z" fill="#191716"/>
<path d="M139.815 53.3302C140.048 52.8416 139.836 52.2553 139.342 52.0206C138.847 51.7859 138.257 51.9917 138.023 52.4802C137.79 52.9688 138.002 53.5551 138.497 53.7898C138.992 54.0245 139.582 53.8187 139.815 53.3302Z" fill="white"/>
<path d="M144.036 43.131C143.952 43.5555 143.709 43.8914 142.81 43.8027C141.34 43.6581 138.883 43.089 137.161 43.089C134.709 43.089 132.767 45.2209 132.767 45.2209C132.767 45.2209 134.728 42.2913 136.688 41.8014C137.966 41.4842 141.036 41.5869 142.815 41.8388C144.064 42.0114 144.205 42.2819 144.036 43.131Z" fill="#DD8A26"/>
<path d="M156.925 54.8589C158.07 54.8589 158.998 53.3154 158.998 51.4114C158.998 49.5075 158.07 47.964 156.925 47.964C155.78 47.964 154.852 49.5075 154.852 51.4114C154.852 53.3154 155.78 54.8589 156.925 54.8589Z" fill="#191716"/>
<path d="M156.812 53.6489C157.335 53.4009 157.561 52.7849 157.316 52.2731C157.072 51.7613 156.45 51.5474 155.927 51.7954C155.404 52.0434 155.179 52.6593 155.423 53.1711C155.667 53.683 156.289 53.8969 156.812 53.6489Z" fill="white"/>
<path d="M153.654 43.5975C153.738 44.022 153.981 44.3579 154.88 44.2693C156.349 44.1247 158.806 43.5555 160.529 43.5555C162.981 43.5555 164.923 45.6875 164.923 45.6875C164.923 45.6875 162.962 42.7578 161.001 42.268C159.724 41.9508 156.654 42.0534 154.875 42.3053C153.626 42.4779 153.485 42.7485 153.654 43.5975Z" fill="#DD8A26"/>
<path d="M148.637 50.2358C148.674 51.7053 148.599 53.1748 148.459 54.6396C148.318 56.1044 148.122 57.5599 147.855 59.0201L147.687 58.7215L149.151 59.4773L147.523 59.2067L147.303 59.1694L147.354 58.9081C147.701 57.4946 147.977 56.0531 148.201 54.607C148.426 53.1608 148.585 51.7007 148.637 50.2358Z" fill="#E0937E"/>
<path d="M144.256 65.3786C145.173 65.5932 146.062 65.6959 146.952 65.7145C147.836 65.7192 148.721 65.6679 149.591 65.4859C150.017 65.3646 150.462 65.2853 150.878 65.1221C151.309 64.9914 151.721 64.8095 152.132 64.6276C152.554 64.4643 152.937 64.217 153.359 64.0258C153.752 63.7972 154.145 63.5546 154.557 63.3307C154.224 63.6526 153.892 63.9838 153.532 64.2824C153.157 64.5576 152.788 64.8562 152.38 65.0941C151.575 65.5886 150.686 65.9571 149.76 66.209C148.828 66.4236 147.855 66.5402 146.895 66.4096C145.95 66.279 145 65.9758 144.256 65.3786Z" fill="#E0937E"/>
<path d="M147.345 67.4685C147.743 67.5524 148.089 67.6317 148.44 67.669C148.786 67.711 149.123 67.7344 149.46 67.697C149.792 67.6504 150.134 67.5897 150.462 67.4451C150.635 67.3938 150.785 67.2912 150.962 67.2259C151.126 67.1419 151.285 67.0439 151.468 66.96C151.365 67.1232 151.253 67.2912 151.122 67.4358C150.981 67.5711 150.845 67.725 150.672 67.8323C150.349 68.0796 149.947 68.2289 149.54 68.2942C149.128 68.3688 148.697 68.3315 148.309 68.1869C147.93 68.0376 147.574 67.809 147.345 67.4685Z" fill="#E2A47A"/>
<path d="M139.734 58.9401C140.081 58.0712 138.476 56.6184 136.149 55.6951C133.822 54.7719 131.654 54.7279 131.307 55.5968C130.96 56.4658 132.565 57.9186 134.892 58.8418C137.219 59.765 139.387 59.8091 139.734 58.9401Z" fill="#EF9381"/>
<path d="M163.948 58.811C166.234 57.904 167.811 56.4759 167.47 55.6213C167.128 54.7668 164.998 54.8093 162.712 55.7163C160.426 56.6234 158.849 58.0514 159.191 58.906C159.532 59.7606 161.662 59.718 163.948 58.811Z" fill="#EF9381"/>
<path d="M142.192 21.2194C146.193 32.1029 170.53 49.3635 170.53 49.3635C170.53 49.3635 175.191 16.4517 157.425 14.8423C147.129 13.9093 142.192 21.2194 142.192 21.2194Z" fill="url(#paint4_linear)"/>
<path d="M147.598 24.1724C141.982 33.969 127.941 40.0335 127.941 40.0335C127.941 40.0335 129.345 21.3734 135.898 18.5744C142.45 15.7754 147.598 24.1724 147.598 24.1724Z" fill="url(#paint5_linear)"/>
<path d="M145.833 26.8967C147.527 29.0986 149.413 31.1559 151.365 33.1432C153.321 35.1305 155.38 37.0152 157.468 38.8719C159.56 40.7239 161.708 42.5059 163.884 44.2553C166.065 46 168.274 47.7121 170.53 49.3589C168.25 47.7448 166.018 46.0607 163.809 44.344C161.609 42.6226 159.433 40.8685 157.313 39.0445C155.198 37.2158 153.11 35.3544 151.117 33.3905C149.128 31.4218 147.204 29.3785 145.463 27.1813C145.384 27.0787 145.402 26.9341 145.501 26.8548C145.604 26.7755 145.749 26.7941 145.828 26.8921C145.828 26.8921 145.828 26.8921 145.833 26.8967Z" fill="#D3742D"/>
<path d="M145.833 27.1813C144.64 28.6088 143.362 29.957 141.967 31.1839C140.568 32.4015 139.117 33.5538 137.591 34.5987C136.07 35.6484 134.498 36.6327 132.888 37.5377C131.278 38.4427 129.631 39.2871 127.937 40.0288C129.612 39.2544 131.236 38.3727 132.827 37.4351C134.414 36.4974 135.958 35.4851 137.451 34.4075C138.949 33.3345 140.367 32.1543 141.729 30.9227C143.081 29.6771 144.321 28.3196 145.463 26.8921L145.468 26.8874C145.548 26.7848 145.697 26.7708 145.796 26.8501C145.899 26.9294 145.917 27.0787 145.833 27.1813C145.833 27.1813 145.838 27.1767 145.833 27.1813Z" fill="#D3742D"/>
<path d="M231.371 219.959C240.183 219.353 243.829 221.475 251.125 221.172C258.421 220.869 264.496 215.718 266.321 218.144C268.549 221.102 262.067 226.019 254.771 227.232C247.475 228.445 238.966 226.322 235.929 224.806C232.892 223.29 231.371 219.959 231.371 219.959Z" fill="url(#paint6_linear)"/>
<path d="M231.371 219.959C240.183 219.353 243.829 221.475 251.125 221.172C258.421 220.869 264.496 215.718 266.321 218.144C268.549 221.102 262.067 226.019 254.771 227.232C247.475 228.445 238.966 226.322 235.929 224.806C232.892 223.29 231.371 219.959 231.371 219.959Z" stroke="#A35911" stroke-width="0.854545" stroke-miterlimit="10" stroke-linecap="round"/>
<path d="M147.186 236.319C147.392 234.486 143.54 230.259 143.844 229.35C144.148 228.44 149.619 229.653 150.228 229.35C150.836 229.046 154.496 225.146 160.257 222.683C162.387 221.774 163.599 215.714 164.511 215.714C165.424 215.714 169.07 219.651 170.287 219.651C171.503 219.651 200.679 210.564 218.304 213.288C235.929 216.012 243.225 230.255 246.871 234.192C250.517 238.129 258.422 245.402 255.988 247.217C253.554 249.036 250.517 248.126 247.48 246.307C249.913 250.244 248.411 251.527 247.48 251.76C245.046 252.367 241.704 248.43 240.792 248.43C239.879 248.43 228.633 254.793 218.908 255.702C211.92 256.355 202.495 256.006 197.328 254.489C197.632 258.73 193.378 261.156 188.515 253.58L186.994 254.186C186.994 254.186 191.553 262.667 188.515 264.183C185.478 265.699 181.523 259.336 179.095 257.517C176.661 255.698 171.798 250.244 169.369 250.244C166.936 250.244 157.819 255.091 152.652 250.244C147.785 245.682 146.882 239.044 147.186 236.319Z" fill="url(#paint7_linear)"/>
<path d="M147.186 236.319C147.392 234.486 143.54 230.259 143.844 229.35C144.148 228.44 149.619 229.653 150.228 229.35C150.836 229.046 154.496 225.146 160.257 222.683C162.387 221.774 163.599 215.714 164.511 215.714C165.424 215.714 169.07 219.651 170.287 219.651C171.503 219.651 200.679 210.564 218.304 213.288C235.929 216.012 243.225 230.255 246.871 234.192C250.517 238.129 258.422 245.402 255.988 247.217C253.554 249.036 250.517 248.126 247.48 246.307C249.913 250.244 248.411 251.527 247.48 251.76C245.046 252.367 241.704 248.43 240.792 248.43C239.879 248.43 228.633 254.793 218.908 255.702C211.92 256.355 202.495 256.006 197.328 254.489C197.632 258.73 193.378 261.156 188.515 253.58L186.994 254.186C186.994 254.186 191.553 262.667 188.515 264.183C185.478 265.699 181.523 259.336 179.095 257.517C176.661 255.698 171.798 250.244 169.369 250.244C166.936 250.244 157.819 255.091 152.652 250.244C147.785 245.682 146.882 239.044 147.186 236.319Z" stroke="#A35911" stroke-width="0.854545" stroke-miterlimit="10" stroke-linecap="round"/>
<path d="M247.316 246.47C246.38 245.509 245.336 244.618 244.259 243.792C243.178 242.967 242.036 242.22 240.852 241.544C239.673 240.858 238.428 240.289 237.15 239.809C235.877 239.305 234.539 238.997 233.196 238.74C234.544 238.959 235.896 239.235 237.188 239.701C238.484 240.149 239.753 240.69 240.96 241.343C242.172 241.987 243.342 242.715 244.461 243.517C245.579 244.324 246.646 245.187 247.643 246.158C247.732 246.246 247.737 246.391 247.648 246.48C247.559 246.568 247.414 246.573 247.325 246.484L247.32 246.48L247.316 246.47Z" fill="#A35911"/>
<path d="M197.108 254.536C196.855 253.328 196.429 252.124 195.947 250.963C195.46 249.796 194.894 248.668 194.262 247.567C193.612 246.48 192.938 245.407 192.166 244.399C191.801 243.881 191.384 243.401 190.991 242.902C190.584 242.412 190.153 241.945 189.732 241.469C190.162 241.936 190.612 242.388 191.033 242.864C191.44 243.354 191.875 243.821 192.259 244.329C193.064 245.318 193.776 246.377 194.463 247.45C195.133 248.537 195.736 249.661 196.265 250.827C196.789 251.998 197.253 253.183 197.557 254.452C197.585 254.573 197.51 254.695 197.389 254.727C197.267 254.755 197.145 254.681 197.112 254.559V254.555L197.108 254.536Z" fill="#A35911"/>
<path d="M188.333 253.715L184.57 247.833L188.707 253.459C188.782 253.561 188.758 253.701 188.66 253.776C188.562 253.85 188.417 253.827 188.342 253.729C188.337 253.724 188.333 253.72 188.333 253.715Z" fill="#A35911"/>
<path d="M186.812 254.321C186.222 253.44 185.553 252.595 184.837 251.798C184.116 251.005 183.335 250.258 182.441 249.647C183.372 250.193 184.219 250.888 185.001 251.639C185.782 252.395 186.513 253.197 187.186 254.06C187.266 254.158 187.247 254.303 187.144 254.377C187.046 254.457 186.901 254.438 186.826 254.335C186.821 254.331 186.821 254.326 186.817 254.321H186.812Z" fill="#A35911"/>
<path d="M188.628 264.001L187.912 262.373L189.021 263.768L188.628 264.001Z" fill="#A35911"/>
<path d="M187.35 264.533L186.695 262.975L187.743 264.305L187.35 264.533Z" fill="#A35911"/>
<path d="M196.397 257.685L195.208 256.313L196.701 257.349L196.397 257.685Z" fill="#A35911"/>
<path d="M195.044 258.595L193.991 257.223L195.367 258.273L195.044 258.595Z" fill="#A35911"/>
<path d="M245.654 250.557L247.606 251.579L247.353 251.956L245.654 250.557Z" fill="#A35911"/>
<path d="M248.266 251.047L246.567 249.647L248.518 250.669L248.266 251.047Z" fill="#A35911"/>
<path d="M254.102 248.243L252.342 246.62L254.378 247.884L254.102 248.243Z" fill="#A35911"/>
<path d="M255.852 247.408L253.559 245.407L256.124 247.044L255.852 247.408Z" fill="#A35911"/>
<path d="M162.606 240.774C163.107 240.406 163.294 239.879 163.51 239.911C163.725 239.944 163.533 241.241 163.163 241.521C162.789 241.796 161.235 241.791 161.394 241.483C161.549 241.175 162.232 241.054 162.606 240.774Z" fill="#874600"/>
<path d="M162.887 241.147L164.09 242.762C164.09 242.762 165.709 242.855 166.233 242.524C166.94 242.071 166.94 241.161 166.94 241.161" stroke="#A35911" stroke-width="0.832413" stroke-miterlimit="10" stroke-linecap="round"/>
<path d="M164.09 242.766C164.057 242.981 164.207 243.895 163.369 244.651C162.897 245.08 162.036 245.029 161.46 244.935" stroke="#A35911" stroke-width="0.832413" stroke-miterlimit="10" stroke-linecap="round"/>
<path d="M164.511 237.532C164.511 234.201 166.336 232.685 167.549 232.079" stroke="#A35911" stroke-width="0.832413" stroke-miterlimit="10" stroke-linecap="round"/>
<path d="M158.736 241.166C156.303 239.044 152.961 240.56 152.048 241.469" stroke="#A35911" stroke-width="0.832413" stroke-miterlimit="10" stroke-linecap="round"/>
<path d="M169.58 237.355C173.778 232.783 180.386 230.88 180.386 230.88" stroke="#A35911" stroke-width="0.832413" stroke-miterlimit="10" stroke-linecap="round"/>
<path d="M171.063 238.404C173.006 235.755 181.06 232.671 181.06 232.671" stroke="#A35911" stroke-width="0.832413" stroke-miterlimit="10" stroke-linecap="round"/>
<path d="M171.924 238.563C174.138 236.856 180.194 235.521 180.194 235.521" stroke="#A35911" stroke-width="0.832413" stroke-miterlimit="10" stroke-linecap="round"/>
<path d="M157.506 245.089C153.911 246.088 149.755 249.447 149.755 249.447" stroke="#A35911" stroke-width="0.832413" stroke-miterlimit="10" stroke-linecap="round"/>
<path d="M155.932 244.502C150.836 245.215 147.588 248.36 147.588 248.36" stroke="#A35911" stroke-width="0.832413" stroke-miterlimit="10" stroke-linecap="round"/>
<path d="M155.722 243.597C151.917 243.69 146.301 246.274 146.301 246.274" stroke="#A35911" stroke-width="0.832413" stroke-miterlimit="10" stroke-linecap="round"/>
</g>
<defs>
<linearGradient id="paint0_linear" x1="32" y1="221.035" x2="256.175" y2="221.035" gradientUnits="userSpaceOnUse">
<stop offset="0.00402021" stop-color="#59228A"/>
<stop offset="0.9693" stop-color="#6A429E"/>
</linearGradient>
<linearGradient id="paint1_linear" x1="150.043" y1="8.03935" x2="148.854" y2="165.267" gradientUnits="userSpaceOnUse">
<stop stop-color="#F79D1E"/>
<stop offset="0.0424" stop-color="#F79D1E"/>
<stop offset="0.5151" stop-color="#FFCC33"/>
<stop offset="1" stop-color="#FFE869"/>
</linearGradient>
<linearGradient id="paint2_linear" x1="152.596" y1="237.704" x2="194.245" y2="225.217" gradientUnits="userSpaceOnUse">
<stop stop-color="#3E156B"/>
<stop offset="1" stop-color="#461F77"/>
</linearGradient>
<linearGradient id="paint3_linear" x1="100.422" y1="237.527" x2="132.77" y2="227.829" gradientUnits="userSpaceOnUse">
<stop stop-color="#3E156B"/>
<stop offset="1" stop-color="#461F77"/>
</linearGradient>
<linearGradient id="paint4_linear" x1="156.396" y1="13.274" x2="157.561" y2="96.7491" gradientUnits="userSpaceOnUse">
<stop stop-color="#F79D1E"/>
<stop offset="1" stop-color="#FFCC33"/>
</linearGradient>
<linearGradient id="paint5_linear" x1="137.734" y1="20.9411" x2="137.932" y2="83.0385" gradientUnits="userSpaceOnUse">
<stop stop-color="#F79D1E"/>
<stop offset="0.9372" stop-color="#FFCC33"/>
</linearGradient>
<linearGradient id="paint6_linear" x1="217.129" y1="225.191" x2="273.71" y2="221.498" gradientUnits="userSpaceOnUse">
<stop stop-color="#F79422"/>
<stop offset="1" stop-color="#F9B913"/>
</linearGradient>
<linearGradient id="paint7_linear" x1="186.155" y1="202.93" x2="220.844" y2="292.833" gradientUnits="userSpaceOnUse">
<stop stop-color="#F79422"/>
<stop offset="1" stop-color="#F9B913"/>
</linearGradient>
<clipPath id="clip0">
<rect width="235" height="254.655" fill="white" transform="translate(32 10)"/>
</clipPath>
</defs>
</svg>
