<svg width="300" height="274" viewBox="0 0 300 274" fill="none" xmlns="http://www.w3.org/2000/svg">
<g clip-path="url(#clip0)">
<path d="M76.5536 12.3175L82.6145 0L88.6755 12.3175L102.229 14.2906L92.423 23.8779L94.7364 37.4164L82.6145 31.0232L70.4927 37.4164L72.8085 23.8779L63 14.2906L76.5536 12.3175Z" fill="url(#paint0_linear)"/>
<path d="M148.301 30.8767C135.125 30.8767 131.18 42.7766 127.768 59.2357C124.544 74.7937 127.469 79.9536 129.317 87.9854C134.114 108.83 170.112 107.057 176.579 87.5971C179.044 80.1807 176.297 76.3053 172.705 63.8999C167.161 44.7497 159.921 30.8767 148.301 30.8767Z" fill="url(#paint1_linear)"/>
<path d="M137.84 63.8999C139.001 68.1734 138.227 72.4469 135.127 73.6117C132.202 74.7106 137.452 79.4384 140.55 79.8266C143.647 80.2149 153.38 75.5995 152.56 74.7766C151.398 73.6117 148.685 72.0562 148.298 69.7265C147.979 67.8095 148.298 65.0647 148.298 65.0647L137.84 63.8999Z" fill="#F9CCB9"/>
<path d="M137.84 63.8999C139.001 68.1734 138.227 72.4469 135.127 73.6117C132.202 74.7106 137.452 79.4384 140.55 79.8266C143.647 80.2149 153.38 75.5995 152.56 74.7766C151.398 73.6117 148.685 72.0562 148.298 69.7265C147.979 67.8095 148.298 65.0647 148.298 65.0647L137.84 63.8999Z" stroke="#E5A38C" stroke-width="0.883871" stroke-miterlimit="10"/>
<path d="M140.024 38.2588C134.333 46.8058 130.951 64.3443 140.94 67.3968C151.113 70.5054 159.147 56.9084 156.286 47.5824C154.07 40.3638 140.024 38.2588 140.024 38.2588Z" fill="#F9CCB9"/>
<path d="M140.024 38.2588C134.333 46.8058 130.951 64.3443 140.94 67.3968C151.113 70.5054 159.147 56.9084 156.286 47.5824C154.07 40.3638 140.024 38.2588 140.024 38.2588Z" stroke="#E5A38C" stroke-width="0.883871" stroke-miterlimit="10"/>
<path d="M126.217 261.255C124.668 265.917 120.02 272.523 120.407 273.687C120.794 274.852 125.83 272.523 128.156 270.579C130.481 268.637 134.353 265.917 134.353 264.752C134.353 263.587 133.191 258.926 133.191 258.926L126.217 261.255Z" fill="#2D2D2D"/>
<path d="M226.939 215.411C231.588 216.965 232.506 217.934 234.688 219.685C236.624 221.238 237.013 234.059 234.3 233.67C233.088 233.497 231.201 226.288 229.652 225.123C228.103 223.959 223.842 222.015 223.842 222.015L226.939 215.411Z" fill="#2D2D2D"/>
<path d="M127.381 139.656C127.381 139.656 125.832 183.944 125.445 192.879C125.058 201.814 122.345 261.643 123.509 262.42C124.673 263.197 133.194 263.973 134.355 262.42C135.517 260.867 144.039 204.146 144.814 200.65C145.588 197.153 157.014 138.103 157.014 138.103L127.381 139.656Z" fill="#13124C"/>
<path d="M136.678 139.267C143.652 157.526 166.121 190.549 169.608 194.044C173.095 197.541 225.006 223.958 226.167 224.347C227.329 224.735 230.816 216.188 230.429 215.411C230.042 214.635 193.24 188.606 192.076 185.885C190.912 183.165 165.137 132.344 165.137 132.344L136.678 139.267Z" fill="#1B1464"/>
<path d="M136.678 139.267C143.652 157.526 166.121 190.549 169.608 194.044C173.095 197.541 225.006 223.958 226.167 224.347C227.329 224.735 230.816 216.188 230.429 215.411C230.042 214.635 193.24 188.606 192.076 185.885C190.912 183.165 165.137 132.344 165.137 132.344L136.678 139.267Z" stroke="#0D0D42" stroke-width="0.354874" stroke-miterlimit="10"/>
<path d="M99.7648 42.4932C100.003 39.6117 98.3402 33.3455 95.3524 30.1123C90.436 24.7961 90.8938 30.42 92.0504 35.7802C91.052 34.9621 90.2412 34.4468 89.9173 34.442C89.1308 34.4273 92.0261 39.4554 93.7672 42.3687C93.8573 42.6642 93.9084 42.8327 93.9084 42.8327L94.0399 42.8254C94.6048 43.7631 94.992 44.3907 94.992 44.3907L98.4157 44.2832C98.3329 43.7558 98.1333 43.1892 97.8532 42.6056L99.7648 42.4932Z" fill="#F9CCB9"/>
<path d="M99.7648 42.4932C100.003 39.6117 98.3402 33.3455 95.3524 30.1123C90.436 24.7961 90.8938 30.42 92.0504 35.7802C91.052 34.9621 90.2412 34.4468 89.9173 34.442C89.1308 34.4273 92.0261 39.4554 93.7672 42.3687C93.8573 42.6642 93.9084 42.8327 93.9084 42.8327L94.0399 42.8254C94.6048 43.7631 94.992 44.3907 94.992 44.3907L98.4157 44.2832C98.3329 43.7558 98.1333 43.1892 97.8532 42.6056L99.7648 42.4932Z" stroke="#E5A38C" stroke-width="0.883871" stroke-miterlimit="10"/>
<path d="M197.986 102.479C202.598 103.219 208.138 103.324 210.11 104.203C212.083 105.079 219.247 106.747 221.743 104.816C224.239 102.884 220.978 97.9782 213.663 97.3701C206.346 96.7596 197.886 95.4019 197.886 95.4019L197.986 102.479Z" fill="#F9CCB9"/>
<path d="M197.986 102.479C202.598 103.219 208.138 103.324 210.11 104.203C212.083 105.079 219.247 106.747 221.743 104.816C224.239 102.884 220.978 97.9782 213.663 97.3701C206.346 96.7596 197.886 95.4019 197.886 95.4019L197.986 102.479Z" stroke="#E5A38C" stroke-width="0.883871" stroke-miterlimit="10"/>
<path d="M105.3 62.735C103.364 58.4615 101.426 42.1441 99.8769 41.7558C98.3282 41.3675 93.2925 41.7558 93.2925 42.1441C93.2925 42.5324 95.2284 67.0085 97.941 69.7265C100.654 72.4469 125.932 88.7277 125.832 90.7057C125.058 106.247 129.319 109.353 128.932 116.735C128.706 121.072 126.996 139.656 126.996 140.044C126.996 140.432 133.583 143.153 143.268 142.764C152.952 142.376 166.51 134.994 166.51 134.217C166.51 133.441 161.862 122.562 161.862 118.676C161.862 114.791 159.926 98.0855 161.087 96.9206C162.249 95.7558 173.097 101.582 178.52 102.359C183.943 103.136 206.412 105.079 206.799 103.912C207.186 102.745 207.573 96.9182 206.799 96.1416C206.024 95.3651 187.041 92.6447 184.33 91.4798C181.62 90.315 151.671 74.0659 151.671 74.0659C142.493 80.6007 136.294 78.2711 135.132 73.6093C135.13 73.6117 107.236 67.0085 105.3 62.735Z" fill="#CC33CC"/>
<path d="M105.3 62.735C103.364 58.4615 101.426 42.1441 99.8769 41.7558C98.3282 41.3675 93.2925 41.7558 93.2925 42.1441C93.2925 42.5324 95.2284 67.0085 97.941 69.7265C100.654 72.4469 125.932 88.7277 125.832 90.7057C125.058 106.247 129.319 109.353 128.932 116.735C128.706 121.072 126.996 139.656 126.996 140.044C126.996 140.432 133.583 143.153 143.268 142.764C152.952 142.376 166.51 134.994 166.51 134.217C166.51 133.441 161.862 122.562 161.862 118.676C161.862 114.791 159.926 98.0855 161.087 96.9206C162.249 95.7558 173.097 101.582 178.52 102.359C183.943 103.136 206.412 105.079 206.799 103.912C207.186 102.745 207.573 96.9182 206.799 96.1416C206.024 95.3651 187.041 92.6447 184.33 91.4798C181.62 90.315 151.671 74.0659 151.671 74.0659C142.493 80.6007 136.294 78.2711 135.132 73.6093C135.13 73.6117 107.236 67.0085 105.3 62.735Z" stroke="#A52CA8" stroke-width="0.883871" stroke-miterlimit="10"/>
<path d="M145.048 38.7692C142.493 43.2552 136.104 46.0317 136.104 46.0317C136.104 46.0317 136.742 37.4896 139.724 36.2076C142.705 34.9255 145.048 38.7692 145.048 38.7692Z" fill="url(#paint2_linear)"/>
<path d="M142.875 38.7302C144.923 44.1075 157.389 52.6326 157.389 52.6326C157.389 52.6326 159.777 36.3737 150.677 35.5801C145.403 35.1185 142.875 38.7302 142.875 38.7302Z" fill="url(#paint3_linear)"/>
<path d="M143.297 52.7961C143.275 53.3138 143.163 53.8267 143.019 54.3248C142.873 54.823 142.702 55.3138 142.51 55.7949C142.32 56.276 142.106 56.7522 141.933 57.2284C141.914 57.2845 141.894 57.3505 141.889 57.392C141.889 57.3944 141.892 57.392 141.889 57.392C141.889 57.4042 141.884 57.3651 141.86 57.3529C141.85 57.3505 141.882 57.3651 141.892 57.37L141.979 57.4164C142.094 57.4799 142.206 57.5483 142.313 57.6215C142.527 57.7705 142.729 57.939 142.902 58.1368L142.225 57.7632L141.889 57.58L141.804 57.5361C141.784 57.5263 141.787 57.5287 141.753 57.5068C141.719 57.4824 141.702 57.4311 141.704 57.4262C141.702 57.4115 141.702 57.392 141.702 57.3773C141.711 57.2894 141.736 57.2333 141.758 57.1673C141.945 56.674 142.164 56.2125 142.359 55.7339C142.556 55.2577 142.756 54.7815 142.919 54.2931C143.082 53.8047 143.228 53.309 143.297 52.7961Z" fill="#E0937E"/>
<path d="M139.301 60.3345C139.729 60.564 140.148 60.7985 140.611 60.9254C140.832 61.0134 141.071 61.0475 141.3 61.1061C141.536 61.1428 141.77 61.1843 142.006 61.1965C142.481 61.2331 142.958 61.2136 143.436 61.155C143.91 61.0891 144.38 60.9865 144.841 60.8326C144.407 61.05 143.935 61.1941 143.457 61.2869C142.978 61.3845 142.483 61.4114 141.994 61.3797C141.748 61.3723 141.507 61.3259 141.263 61.282C141.144 61.2551 141.025 61.2185 140.908 61.1867C140.789 61.1574 140.672 61.1159 140.56 61.0671C140.097 60.9059 139.681 60.6348 139.301 60.3345Z" fill="#E0937E"/>
<path d="M140.562 61.8877C140.961 62.1929 141.429 62.3688 141.913 62.3908C142.398 62.4152 142.888 62.2931 143.331 62.0586C142.939 62.3761 142.422 62.5446 141.909 62.5275C141.65 62.5202 141.395 62.4616 141.161 62.3541C140.927 62.2491 140.718 62.0855 140.562 61.8877Z" fill="#E2A47A"/>
<path d="M146.44 48.6814C146.009 49.7778 150.37 49.6924 150.845 49.7436C151.32 49.7949 152.786 50.5544 152.786 50.5544C152.786 50.5544 151.841 49.2357 151.069 48.9451C150.297 48.6545 146.759 47.8755 146.44 48.6814Z" fill="#DD8A26"/>
<path d="M142.091 47.3603C141.994 48.4811 138.699 47.0623 138.32 46.9622C137.937 46.8621 136.522 47.0965 136.522 47.0965C136.522 47.0965 137.755 46.1979 138.458 46.1759C139.162 46.1515 142.165 46.5373 142.091 47.3603Z" fill="#DD8A26"/>
<path d="M150.95 58.621C152.348 58.4001 153.413 57.7923 153.33 57.2634C153.247 56.7345 152.047 56.4848 150.649 56.7057C149.252 56.9266 148.186 57.5345 148.269 58.0634C148.352 58.5923 149.553 58.8419 150.95 58.621Z" fill="#EF9381"/>
<path d="M137.41 55.5318C137.69 55.1214 137.032 54.1795 135.94 53.4282C134.847 52.6768 133.734 52.4004 133.454 52.8108C133.173 53.2212 133.831 54.1631 134.923 54.9144C136.016 55.6658 137.129 55.9422 137.41 55.5318Z" fill="#EF9381"/>
<path d="M150.115 54.3249C150.348 53.2922 150.016 52.3369 149.373 52.1911C148.73 52.0453 148.02 52.7643 147.787 53.7969C147.555 54.8296 147.887 55.7849 148.53 55.9307C149.172 56.0765 149.882 55.3575 150.115 54.3249Z" fill="#191716"/>
<path d="M140.037 52.0409C140.27 51.0083 139.938 50.0529 139.295 49.9071C138.652 49.7614 137.942 50.4803 137.709 51.513C137.476 52.5457 137.809 53.501 138.451 53.6468C139.094 53.7926 139.804 53.0736 140.037 52.0409Z" fill="#191716"/>
<path d="M149.366 53.5656C149.437 53.2485 149.218 52.9286 148.875 52.8509C148.533 52.7733 148.198 52.9673 148.126 53.2844C148.055 53.6014 148.274 53.9213 148.617 53.999C148.959 54.0767 149.294 53.8826 149.366 53.5656Z" fill="white"/>
<path d="M139.232 51.3026C139.303 50.9856 139.084 50.6656 138.741 50.588C138.399 50.5103 138.063 50.7044 137.992 51.0214C137.92 51.3384 138.14 51.6584 138.482 51.7361C138.825 51.8137 139.16 51.6197 139.232 51.3026Z" fill="white"/>
</g>
<defs>
<linearGradient id="paint0_linear" x1="71.5007" y1="5.93264" x2="125.539" y2="77.952" gradientUnits="userSpaceOnUse">
<stop stop-color="#F79D1E"/>
<stop offset="1" stop-color="#FFCC33"/>
</linearGradient>
<linearGradient id="paint1_linear" x1="152.282" y1="29.4393" x2="151.489" y2="133.702" gradientUnits="userSpaceOnUse">
<stop stop-color="#F79D1E"/>
<stop offset="0.0424" stop-color="#F79D1E"/>
<stop offset="0.5151" stop-color="#FFCC33"/>
<stop offset="1" stop-color="#FFE869"/>
</linearGradient>
<linearGradient id="paint2_linear" x1="140.559" y1="37.2908" x2="140.65" y2="65.7202" gradientUnits="userSpaceOnUse">
<stop stop-color="#F79D1E"/>
<stop offset="0.9372" stop-color="#FFCC33"/>
</linearGradient>
<linearGradient id="paint3_linear" x1="150.155" y1="34.8059" x2="150.734" y2="76.0523" gradientUnits="userSpaceOnUse">
<stop stop-color="#F79D1E"/>
<stop offset="1" stop-color="#FFCC33"/>
</linearGradient>
<clipPath id="clip0">
<rect width="173.239" height="274" fill="white" transform="translate(63)"/>
</clipPath>
</defs>
</svg>
