<svg width="300" height="274" viewBox="0 0 300 274" fill="none" xmlns="http://www.w3.org/2000/svg">
<g clip-path="url(#clip0)">
<path d="M233.067 75.7147C264.502 107.599 296.846 163.073 282.055 201.706C263.283 250.73 165.767 226.448 77.4038 248.437C-29.2037 274.977 18.7739 87.6109 87.9326 42.2739C152.363 0.0331119 192.462 34.5248 233.067 75.7147Z" fill="url(#paint0_linear)"/>
<path d="M141.317 55.2215V23.7811" stroke="white" stroke-width="2.43087" stroke-miterlimit="10" stroke-linecap="round"/>
<path d="M128.514 70.0565L105.52 227.382C105.52 227.382 118.631 229.899 140.34 229.899C162.049 229.899 175.801 227.573 175.801 227.573L154.306 70.0565H128.514Z" fill="#FFF5CA"/>
<path d="M136.202 70.0341H146.281C146.281 70.0341 145.136 73.6529 141.312 73.6529C137.488 73.6529 136.202 70.0341 136.202 70.0341Z" fill="#FFE36E"/>
<path d="M138.448 59.0089H144.181C144.181 59.0089 144.754 54.873 141.317 54.873C137.881 54.873 138.448 59.0089 138.448 59.0089Z" fill="#C9C0C0"/>
<path d="M138.448 59.0089H144.181C144.181 59.0089 144.754 54.873 141.317 54.873C137.881 54.873 138.448 59.0089 138.448 59.0089Z" stroke="white" stroke-width="0.575166" stroke-miterlimit="10"/>
<path d="M128.515 70.034H154.306C154.306 70.034 153.542 58.4974 141.509 58.4974C129.475 58.4974 128.515 70.034 128.515 70.034Z" fill="#C9C0C0"/>
<path d="M128.515 70.034H138.269C138.269 70.034 137.499 68.1234 137.875 65.7296C138.448 62.1107 141.503 58.4974 141.503 58.4974C129.469 58.4918 128.515 70.034 128.515 70.034Z" fill="#E2E0E0"/>
<path d="M128.515 70.034H154.306C154.306 70.034 153.542 58.4974 141.509 58.4974C129.475 58.4974 128.515 70.034 128.515 70.034Z" stroke="white" stroke-width="0.575166" stroke-miterlimit="10"/>
<path d="M159.921 224.668C158.837 216.52 121.394 220.015 121.394 224.668C121.394 229.321 160.308 227.573 159.921 224.668Z" fill="#C6C2B0"/>
<path d="M137.802 100.294C137.802 100.294 137.521 99.5469 137.151 99.7323C136.775 99.9178 136.87 101.885 137.055 102.351C137.241 102.817 138.274 104.312 138.274 104.312L137.802 101.323V100.294Z" fill="#F9CCB9"/>
<path d="M148.634 100.103C148.634 100.103 148.915 99.3558 149.286 99.5413C149.662 99.7267 149.566 101.694 149.381 102.16C149.196 102.626 148.354 104.121 148.354 104.121L148.634 101.132V100.103V100.103Z" fill="#F9CCB9"/>
<path d="M139.139 106.436C139.212 107.178 138.976 107.717 138.751 108.465C138.611 108.937 138.111 109.954 136.629 110.589C135.045 111.269 141.609 114.736 143.76 114.641C145.911 114.545 148.713 111.887 147.972 111.145C147.427 110.6 146.944 109.881 146.849 108.853C146.764 107.92 146.753 106.537 146.753 106.537L139.139 106.436Z" fill="#F9CCB9"/>
<path d="M139.111 107.184C139.111 107.184 141.84 110.005 143.48 110.005C145.119 110.005 146.866 108.959 146.866 108.959L146.759 106.532L139.139 106.436L139.111 107.184Z" fill="#E5AF9C"/>
<path d="M139.139 106.436C139.212 107.178 138.976 107.717 138.751 108.465C138.611 108.937 138.111 109.954 136.629 110.589C135.045 111.269 141.609 114.736 143.76 114.641C145.911 114.545 148.713 111.887 147.972 111.145C147.427 110.6 146.944 109.881 146.849 108.853C146.764 107.92 146.753 106.537 146.753 106.537L139.139 106.436Z" stroke="#E5A38C" stroke-width="0.335944" stroke-miterlimit="10"/>
<path d="M137.269 99.9123C137.347 99.9123 137.499 100.115 137.589 100.334V101.323V101.34V101.356L137.909 103.396C137.622 102.958 137.33 102.486 137.246 102.272C137.066 101.823 137.033 100.12 137.235 99.9235C137.257 99.9123 137.263 99.9123 137.269 99.9123ZM137.269 99.7043C137.229 99.7043 137.19 99.7156 137.145 99.7324C136.769 99.9179 136.864 101.885 137.05 102.351C137.235 102.817 138.268 104.312 138.268 104.312L137.796 101.323V100.294C137.802 100.294 137.577 99.7043 137.269 99.7043Z" fill="#E5A38C"/>
<path d="M149.168 99.5132L149.185 99.7267C149.404 99.929 149.364 101.632 149.185 102.081C149.1 102.289 148.876 102.722 148.662 103.126L148.848 101.132V100.143C148.938 99.9234 149.089 99.7211 149.168 99.7211V99.5132ZM149.168 99.5132C148.859 99.5132 148.634 100.103 148.634 100.103V101.132L148.354 104.121C148.354 104.121 149.196 102.626 149.381 102.16C149.566 101.693 149.662 99.7323 149.286 99.5413C149.246 99.5244 149.207 99.5132 149.168 99.5132Z" fill="#E5A38C"/>
<path d="M147.421 94.4951C147.421 94.4951 148.353 95.1132 148.353 95.4897C148.353 95.8662 148.729 100.536 148.729 100.536C148.623 102.626 148.247 104.868 147.966 105.526C147.685 106.178 144.995 109.077 143.221 109.077C141.446 109.077 138.931 106.279 138.656 105.621C138.375 104.97 137.808 102.626 137.695 100.536C137.695 100.536 138.072 95.8606 138.072 95.4897C138.072 95.1132 138.925 94.4951 138.925 94.4951C139.576 94.8716 141.042 95.0795 143.114 95.0233C145.181 94.9671 146.394 94.7761 147.421 94.4951Z" fill="#F9CCB9"/>
<path d="M147.421 94.4951C147.421 94.4951 148.353 95.1132 148.353 95.4897C148.353 95.8662 148.729 100.536 148.729 100.536C148.623 102.626 148.247 104.868 147.966 105.526C147.685 106.178 144.995 109.077 143.221 109.077C141.446 109.077 138.931 106.279 138.656 105.621C138.375 104.97 137.808 102.626 137.695 100.536C137.695 100.536 138.072 95.8606 138.072 95.4897C138.072 95.1132 138.925 94.4951 138.925 94.4951C139.576 94.8716 141.042 95.0795 143.114 95.0233C145.181 94.9671 146.394 94.7761 147.421 94.4951Z" stroke="#E5A38C" stroke-width="0.335944" stroke-miterlimit="10"/>
<path d="M148.606 100.228C148.606 100.228 148.915 99.3683 149.286 99.5481C150.325 94.4739 147.652 92.479 146.719 92.1081C146.534 91.7316 145.973 91.2652 145.13 90.9842C145.13 90.9842 145.411 91.2652 145.411 91.5462C144.861 90.9955 143.951 90.7145 142.418 90.5291C142.587 90.5628 142.957 90.6976 143.171 91.2652C143.171 91.2652 142.525 90.5291 141.054 90.7033C141.188 90.692 141.722 90.6976 142.047 91.2652C142.047 91.2652 140.924 90.8887 140.088 91.2652C140.088 91.2652 140.739 91.1697 140.739 91.5462C139.807 91.7316 137.87 93.1702 137.493 94.5694C136.561 95.3168 137.005 99.5931 137.005 99.5931L137.112 99.7561C137.123 99.7448 137.134 99.7392 137.145 99.7336C137.477 99.5706 137.735 100.133 137.785 100.267C137.881 99.0874 138.122 95.9686 138.122 95.6708C138.122 95.2943 138.869 94.738 138.869 94.738C139.521 95.1145 141.486 95.2044 143.165 95.2044C144.939 95.2044 147.275 94.738 147.275 94.738L148.118 95.7663C148.123 97.4409 148.606 100.228 148.606 100.228Z" fill="#472A7D"/>
<path d="M141.054 90.6965C141.031 90.6965 141.02 90.7024 141.02 90.7024C141.031 90.6965 141.043 90.6965 141.054 90.6965Z" fill="#472A7D"/>
<path d="M142.419 90.5225C142.362 90.5111 142.328 90.5111 142.328 90.5111C142.356 90.5168 142.385 90.5225 142.419 90.5225Z" fill="#472A7D"/>
<path d="M143.12 90.7863C143.973 90.9605 144.984 91.4101 145.259 91.6854L145.619 92.0451V91.5337C145.619 91.4888 145.613 91.4438 145.607 91.3989C146.096 91.6461 146.41 91.9496 146.528 92.1856L146.562 92.2586L146.635 92.2867C147.225 92.5227 150.072 93.9557 149.111 99.2997C148.954 99.3222 148.819 99.4345 148.713 99.5638C148.572 98.6534 148.331 96.9171 148.331 95.7426V95.6696L148.286 95.6134L147.444 94.585L147.365 94.4895L147.241 94.512C147.219 94.5176 144.905 94.9728 143.17 94.9728C140.963 94.9728 139.475 94.8154 138.976 94.5345L138.858 94.467L138.745 94.5513C138.605 94.6581 137.914 95.1975 137.914 95.6527C137.914 95.8381 137.808 97.3104 137.622 99.6256C137.521 99.5357 137.403 99.4739 137.263 99.4739C137.241 99.4739 137.224 99.4739 137.207 99.4795C137.044 97.8611 137.022 95.2032 137.628 94.7143L137.684 94.6693L137.701 94.6019C138.06 93.2476 139.964 91.8934 140.784 91.7304L140.952 91.6967V91.5225C140.952 91.4719 140.947 91.382 140.89 91.2865C140.919 91.2865 140.941 91.2865 140.969 91.2865C141.508 91.2865 141.98 91.4382 141.98 91.4438L142.654 91.6686L142.21 91.1123C142.176 91.0729 142.143 91.0336 142.109 90.9999C142.626 91.1628 143.052 91.4213 143.058 91.4269L143.58 91.7416L143.367 91.1741C143.322 91.0729 143.255 90.9324 143.12 90.7863ZM142.496 90.5054C142.435 90.5054 142.373 90.511 142.322 90.5166C142.996 90.8088 143.125 91.1404 143.17 91.264C143.17 91.264 142.193 90.674 141.357 90.674C141.255 90.674 141.154 90.6852 141.059 90.7021C141.458 90.8088 141.845 90.9999 142.053 91.264C142.053 91.264 141.553 91.0954 140.975 91.0954C140.683 91.0954 140.374 91.1347 140.093 91.264C140.093 91.264 140.166 91.2527 140.262 91.2527C140.453 91.2527 140.744 91.2921 140.744 91.545C139.812 91.7304 137.875 93.169 137.499 94.5682C136.567 95.3155 137.01 99.5919 137.01 99.5919L137.117 99.7548C137.128 99.7436 137.139 99.738 137.151 99.7324C137.19 99.7099 137.235 99.7043 137.274 99.7043C137.544 99.7043 137.746 100.154 137.796 100.266C137.892 99.0861 138.133 95.9674 138.133 95.6696C138.133 95.2931 138.88 94.7368 138.88 94.7368C139.532 95.1133 141.497 95.2032 143.176 95.2032C144.95 95.2032 147.286 94.7368 147.286 94.7368L148.129 95.7651C148.129 97.4453 148.612 100.232 148.612 100.232C148.612 100.232 148.864 99.5244 149.184 99.5244C149.218 99.5244 149.252 99.5301 149.285 99.5469C150.324 94.1861 147.651 92.4778 146.719 92.1069C146.534 91.7304 145.972 91.264 145.13 90.983C145.13 90.983 145.411 91.264 145.411 91.545C145.012 91.1404 143.412 90.5054 142.496 90.5054Z" fill="#402172"/>
<path d="M140.593 102.014C140.947 102.014 141.233 101.594 141.233 101.075C141.233 100.557 140.947 100.137 140.593 100.137C140.24 100.137 139.953 100.557 139.953 101.075C139.953 101.594 140.24 102.014 140.593 102.014Z" fill="#191716"/>
<path d="M141.963 97.8331C141.935 97.9961 141.857 98.1197 141.57 98.086C141.099 98.0298 140.313 97.8163 139.757 97.8163C138.97 97.8163 138.347 98.6142 138.347 98.6142C138.347 98.6142 138.976 97.5128 139.605 97.3274C140.015 97.2094 141.003 97.2487 141.57 97.3443C141.975 97.4117 142.02 97.5128 141.963 97.8331Z" fill="#402172"/>
<path d="M145.782 102.014C146.135 102.014 146.422 101.594 146.422 101.075C146.422 100.557 146.135 100.137 145.782 100.137C145.428 100.137 145.142 100.557 145.142 101.075C145.142 101.594 145.428 102.014 145.782 102.014Z" fill="#191716"/>
<path d="M146.045 101.174C146.212 101.165 146.34 101.014 146.331 100.838C146.321 100.661 146.178 100.525 146.011 100.534C145.844 100.543 145.716 100.693 145.725 100.87C145.734 101.046 145.878 101.182 146.045 101.174Z" fill="white"/>
<path d="M140.873 101.174C141.04 101.165 141.168 101.015 141.159 100.838C141.149 100.661 141.006 100.525 140.839 100.534C140.672 100.543 140.544 100.693 140.553 100.87C140.562 101.047 140.706 101.183 140.873 101.174Z" fill="white"/>
<path d="M144.625 98.0072C144.653 98.1702 144.731 98.2938 145.018 98.2601C145.489 98.2039 146.276 97.9904 146.832 97.9904C147.618 97.9904 148.241 98.7883 148.241 98.7883C148.241 98.7883 147.612 97.6869 146.983 97.5015C146.573 97.3835 145.585 97.4228 145.018 97.5183C144.619 97.5914 144.574 97.6925 144.625 98.0072Z" fill="#402172"/>
<path d="M143.625 100.176C143.878 101.205 144.08 102.244 144.254 103.295V103.441L144.148 103.452L143.075 103.57L144.075 103.171L143.968 103.329C143.889 102.272 143.783 101.221 143.625 100.176Z" fill="#E0937E"/>
<path d="M141.884 105.155C142.44 105.206 142.968 105.273 143.496 105.279C144.029 105.29 144.54 105.245 145.051 105.026C144.86 105.234 144.602 105.369 144.327 105.458C144.052 105.548 143.765 105.565 143.485 105.565C143.204 105.56 142.923 105.52 142.654 105.453C142.39 105.38 142.126 105.29 141.884 105.155Z" fill="#E0937E"/>
<path d="M142.833 105.953C143.069 105.987 143.26 106.049 143.457 106.065C143.659 106.082 143.85 106.043 144.063 105.953C143.94 106.144 143.687 106.262 143.446 106.251C143.21 106.245 142.974 106.144 142.833 105.953Z" fill="#E2A47A"/>
<path d="M136.533 218.188C136.533 218.188 136.533 222.628 136.533 222.723C136.533 222.819 134.989 223.594 134.989 223.594V223.302C134.989 223.302 130.07 227.163 130.07 225.617C130.07 224.746 132.383 222.431 133.254 221.178C133.709 220.526 133.349 217.896 133.349 217.896L136.533 218.188Z" fill="#031F47"/>
<path d="M147.343 217.188C147.343 217.188 147.685 221.521 147.697 221.611C147.702 221.706 149.258 222.341 149.258 222.341L149.235 222.06C149.235 222.06 154.289 225.449 154.171 223.943C154.104 223.094 151.683 221.015 150.751 219.858C150.263 219.256 150.403 216.666 150.403 216.666L147.343 217.188Z" fill="#031F47"/>
<path d="M132.288 162.602C130.744 158.837 130.744 153.914 131.519 152.953C132.288 151.987 135.859 153.437 134.798 156.623C133.737 159.809 132.288 162.602 132.288 162.602Z" fill="#172072"/>
<path d="M132.001 150.155L131.519 219.734H137.594L142.8 167.62L146.753 219.251L152.06 218.38L154.087 150.925L132.001 150.155Z" fill="#172072"/>
<path d="M132.001 150.155L131.519 219.734H137.594L142.8 167.62L146.753 219.251L152.06 218.38L154.087 150.925L132.001 150.155Z" stroke="#012367" stroke-width="0.30593" stroke-miterlimit="10"/>
<path d="M134.708 111.376C135.304 111.19 135.309 111.213 137.016 110.005L143.957 116.085L147.624 110.583C147.624 110.583 149.359 111.932 150.134 112.129C150.903 112.32 148.303 124.48 148.303 124.48L143.772 128.824L133.164 118.495C133.158 118.501 134.04 111.584 134.708 111.376Z" fill="#EBE9F4"/>
<path d="M157.843 154.111C157.939 156.331 158.613 160.287 156.204 162.411C155.075 163.4 156.013 158.842 155.625 157.876C155.417 157.353 155.159 158.056 155.047 158.842C154.951 159.517 154.278 160.095 154.373 159.135C154.468 158.157 154.76 153.729 154.76 153.729L157.843 154.111Z" fill="#F9CCB9"/>
<path d="M157.843 154.111C157.939 156.331 158.613 160.287 156.204 162.411C155.075 163.4 156.013 158.842 155.625 157.876C155.417 157.353 155.159 158.056 155.047 158.842C154.951 159.517 154.278 160.095 154.373 159.135C154.468 158.157 154.76 153.729 154.76 153.729L157.843 154.111Z" stroke="#E5A38C" stroke-width="0.30593" stroke-miterlimit="10"/>
<path d="M158.377 152.791L158.332 154.207C158.332 154.207 155.423 153.628 153.991 154.111C154.002 154.111 154.031 152.33 154.031 152.33C154.031 152.33 156.788 151.987 157.366 152.082C157.944 152.178 158.377 152.791 158.377 152.791Z" fill="white"/>
<path d="M158.377 152.791L158.332 154.207C158.332 154.207 155.423 153.628 153.991 154.111C154.002 154.111 154.031 152.33 154.031 152.33C154.031 152.33 156.788 151.987 157.366 152.082C157.944 152.178 158.377 152.791 158.377 152.791Z" stroke="#EBE9F4" stroke-width="0.30593" stroke-miterlimit="10"/>
<path d="M133.939 152.875C138.987 153.684 150.291 155.151 154.087 154.111V152.661C154.087 152.661 157.175 152.178 158.523 152.852C159.006 142.046 158.618 118.591 157.849 117.147C157.417 116.338 150.038 112.033 150.038 112.033C150.038 112.033 147.337 120.041 143.479 126.604C135.573 116.085 135.09 111.162 135.09 111.162C135.09 111.162 126.891 114.731 126.122 116.276C125.735 117.046 121.203 139.995 121.203 140.979C121.203 143.681 128.627 154.201 128.627 154.201L132.001 151.211L132.726 152.734L133.939 152.875ZM128.531 140.405C128.436 139.534 129.783 132.106 129.783 132.106C129.783 132.106 131.384 141.406 131.614 148.126C130.592 145.519 128.599 141.046 128.531 140.405Z" fill="#1C2382"/>
<path d="M153.991 136.708C153.991 136.708 155.221 143.85 155.036 152.549C155.058 152.571 154.081 152.633 154.081 152.633L153.991 136.708Z" fill="#172072"/>
<path d="M129.199 128.133C129.199 128.133 127.941 137.124 128.52 140.113C128.531 140.113 129.171 135.101 129.379 134.376C129.587 133.651 129.778 132.106 129.778 132.106L129.199 128.133Z" fill="#172072"/>
<path d="M133.939 152.875C138.987 153.684 150.291 155.151 154.087 154.111V152.661C154.087 152.661 157.175 152.178 158.523 152.852C159.006 142.046 158.753 118.417 157.849 117.147C156.883 115.798 150.038 112.033 150.038 112.033C150.038 112.033 147.337 120.041 143.479 126.604C135.573 116.085 135.09 111.258 135.09 111.258C135.09 111.258 126.891 114.635 126.122 116.276C125.499 117.608 121.203 139.995 121.203 140.978C121.203 143.681 128.627 154.201 128.627 154.201L132.58 150.728L133.641 152.56L133.939 152.875ZM128.531 140.405C128.436 139.534 129.783 132.106 129.783 132.106C129.783 132.106 131.384 141.406 131.614 148.126C130.592 145.519 128.599 141.046 128.531 140.405Z" stroke="#012367" stroke-width="0.30593" stroke-miterlimit="10"/>
<path d="M130.384 155.718C130.384 155.718 132.002 158.932 132.484 159.123C132.967 159.315 134.41 153.813 134.22 153.336C134.029 152.858 133.344 152.217 133.344 152.217L130.384 155.718Z" fill="#F9CCB9"/>
<path d="M130.384 155.718C130.384 155.718 132.002 158.932 132.484 159.123C132.967 159.315 134.41 153.813 134.22 153.336C134.029 152.858 133.344 152.217 133.344 152.217L130.384 155.718Z" stroke="#E5A38C" stroke-width="0.30593" stroke-miterlimit="10"/>
<path d="M128.913 154.01L130.07 156.038L133.641 152.47L132.58 150.829L128.913 154.01Z" stroke="#EBE9F4" stroke-width="0.30593" stroke-miterlimit="10"/>
<path d="M128.913 154.01L130.07 156.038L133.641 152.47L132.58 150.829L128.913 154.01Z" fill="white"/>
<path d="M142.889 115.989C142.889 116.147 141.682 122.075 141.21 124.413C141.901 125.115 142.637 125.846 143.429 126.604C144.086 125.795 144.698 124.958 145.259 124.104C144.956 121.418 144.361 116.135 144.361 115.989C144.361 115.798 145.164 115.315 145.298 114.927C145.433 114.54 144.232 113.77 144.232 113.77H142.895C142.895 113.77 141.721 114.551 141.828 114.927C141.957 115.411 142.889 115.798 142.889 115.989Z" fill="#B07DE2"/>
<path d="M142.889 116.068C142.889 116.22 141.682 122.109 141.21 124.43C141.901 125.126 142.637 125.851 143.429 126.604C144.086 125.801 144.698 124.969 145.259 124.12C144.956 121.451 144.361 116.208 144.361 116.068C144.361 115.877 145.164 115.399 145.298 115.017C145.433 114.635 144.232 113.865 144.232 113.865H142.895C142.895 113.865 141.721 114.641 141.828 115.017C141.957 115.495 142.889 115.877 142.889 116.068Z" stroke="#9E47C6" stroke-width="0.304772" stroke-miterlimit="10"/>
<path d="M147.87 110.819L144.922 115.989L143.957 113.769L147.236 110.201L147.87 110.819Z" fill="white"/>
<path d="M143.187 113.77L142.221 115.894L136.786 110.297L137.881 109.426L143.187 113.77Z" fill="white"/>
<path d="M147.236 110.201L147.87 110.819L144.922 115.995L143.957 113.775L147.236 110.201ZM147.23 109.92L147.096 110.066L143.816 113.635L143.732 113.725L143.782 113.837L144.748 116.057L144.9 116.411L145.091 116.073L148.039 110.898L148.112 110.769L148.005 110.662L147.371 110.044L147.23 109.92Z" fill="#E0DFE8"/>
<path d="M137.881 109.426L143.187 113.769L142.222 115.894L136.786 110.297L137.881 109.426ZM137.887 109.178L137.763 109.274L136.668 110.145L136.5 110.28L136.651 110.432L142.087 116.028L142.283 116.231L142.401 115.972L143.367 113.848L143.429 113.713L143.317 113.618L138.01 109.274L137.887 109.178Z" fill="#E0DFE8"/>
<path d="M134.708 111.376L132.872 112.224L135.669 121.389L137.595 121.294L136.342 123.03C136.342 123.03 143.092 134.707 143.67 137.118C144.153 134.707 149.263 122.738 149.263 122.738L148.202 121.288L149.842 121.384L151.481 112.797L149.746 111.831C149.746 111.831 145.406 123.317 143.479 126.306C140.588 123.412 134.995 112.022 135.09 111.156L134.708 111.376Z" fill="#012367"/>
<path d="M134.708 111.376L132.872 112.224L135.669 121.389L137.595 121.294L136.342 123.03C136.342 123.03 143.092 134.707 143.67 137.118C144.153 134.707 149.263 122.738 149.263 122.738L148.202 121.288L149.842 121.384L151.481 112.797L149.746 111.831C149.746 111.831 145.406 123.317 143.479 126.306C140.588 123.412 134.995 112.022 135.09 111.156L134.708 111.376Z" stroke="#0F0F49" stroke-width="0.30593" stroke-miterlimit="10"/>
<path d="M143.67 136.258L143.76 154.117" stroke="#012367" stroke-width="0.30593" stroke-miterlimit="10"/>
<path d="M129.828 132.999L128.913 126.222L130.019 132.971L129.828 132.999Z" fill="#012367"/>
<path d="M153.985 152.717V135.775L154.182 152.717H153.985Z" fill="#012367"/>
<path opacity="0.67" d="M214.396 217.666C213.374 209.995 178.115 213.288 178.115 217.666C178.12 222.043 214.761 220.402 214.396 217.666Z" fill="#AC9BBF"/>
<path d="M209.595 136.725C209.314 130.324 207.612 123.986 207.354 122.699C206.602 118.979 205.675 116.439 204.529 115.697C205.821 114.652 206.253 113.14 205.608 110.921C202.879 101.57 199.487 95.4392 193.394 95.4336C187.784 95.5685 185.69 101.716 184.325 110.921C183.921 113.657 184.393 115.382 185.387 116.45C184.949 116.568 184.601 116.669 184.438 116.72C183.129 117.141 182.096 119.805 181.265 123.89C180.681 126.756 179.67 153.661 179.934 153.926C179.968 153.959 180.069 153.976 180.215 153.976C180.058 156.201 179.76 159.477 181.872 161.326C182.978 162.293 182.062 157.837 182.439 156.893C182.646 156.381 182.899 157.067 183.006 157.837C183.028 157.988 183.079 158.14 183.146 158.264C182.826 177.707 185.645 212.535 185.645 212.535C185.645 212.535 186.257 212.541 186.319 212.547C186.454 213.12 186.375 214.463 185.954 214.918C183.764 217.289 182.5 219.605 185.409 218.385C186.976 217.728 189.138 216.581 189.368 215.975C189.52 215.57 189.598 213.727 189.632 212.547C189.93 212.468 190.149 212.35 190.244 212.187C190.631 211.518 192.76 184.338 194.467 166.878C196.146 184.382 198.167 210.557 198.544 211.215C198.622 211.355 198.791 211.445 199.01 211.502C199.043 212.676 199.122 214.637 199.279 215.053C199.509 215.66 202.098 217.334 203.726 217.806C206.371 218.571 204.546 216.199 202.542 213.643C202.137 213.126 202.362 211.271 202.362 211.271L203.069 211.08C203.069 211.08 205.344 179.055 205.883 158.848C205.945 158.893 206.062 158.854 206.259 158.68C208.359 156.842 208.449 154.74 208.376 152.779C208.533 152.779 208.634 152.762 208.674 152.729C208.831 152.594 209.937 144.564 209.595 136.725ZM202.761 139.208C202.643 138.394 202.862 135.309 203.21 131.656C203.485 132.825 203.884 134.825 204.007 137.124C204.131 139.473 204.176 142.142 204.181 144.564C203.507 142.22 202.895 140.164 202.761 139.208ZM185.533 134.696C185.74 136.449 185.791 137.933 185.684 139.304C185.617 140.158 185.398 141.209 185.117 142.428C185.274 139.568 185.426 136.725 185.533 134.696ZM205.911 158.101C205.933 157.23 205.95 156.376 205.967 155.555C206.04 155.505 206.107 155.544 206.175 155.712C206.383 156.224 206.068 157.336 205.911 158.101Z" fill="#CCB1DD"/>
<path d="M196.303 63.6505V43.3365" stroke="#CCB1DD" stroke-width="1.95047" stroke-miterlimit="10" stroke-linecap="round"/>
<path d="M191.188 78.4631H201.267C201.267 78.4631 200.122 82.082 196.297 82.082C192.473 82.082 191.188 78.4631 191.188 78.4631Z" fill="#CCB1DD"/>
<path d="M193.434 67.438H199.167C199.167 67.438 199.74 63.3021 196.303 63.3021C192.867 63.3021 193.434 67.438 193.434 67.438Z" fill="#CCB1DD"/>
<path d="M193.434 67.438H199.167C199.167 67.438 199.74 63.3021 196.303 63.3021C192.867 63.3021 193.434 67.438 193.434 67.438Z" fill="#CCB1DD"/>
<path d="M183.5 78.4631H209.291C209.291 78.4631 208.528 66.9265 196.494 66.9265C184.455 66.9209 183.5 78.4631 183.5 78.4631Z" fill="#CCB1DD"/>
<path d="M183.5 78.4631H193.254C193.254 78.4631 192.485 76.5525 192.861 74.1586C193.434 70.5398 196.488 66.9265 196.488 66.9265C184.455 66.9209 183.5 78.4631 183.5 78.4631Z" fill="#CCB1DD"/>
<path d="M183.5 78.4631H209.291C209.291 78.4631 208.528 66.9265 196.494 66.9265C184.455 66.9209 183.5 78.4631 183.5 78.4631Z" fill="#CCB1DD"/>
<path opacity="0.67" d="M104.935 217.672C103.913 210.007 68.6938 213.3 68.6938 217.672C68.6938 222.043 105.3 220.403 104.935 217.672Z" fill="#AC9BBF"/>
<path d="M103.711 120.709C103.419 120.164 99.7526 117.917 97.7086 116.697L97.7199 116.624L96.0858 115.714C96.0858 115.714 96.0689 115.753 96.0409 115.826C95.3333 115.478 94.3563 114.742 94.1373 114.573L93.7666 114.213C93.5701 113.865 93.4241 113.455 93.3736 112.977L93.2893 111.134C93.879 110.555 94.3057 110.01 94.4068 109.774C94.5359 109.471 94.6876 108.808 94.8223 107.982L94.7774 108.459C94.7774 108.459 95.5692 107.054 95.7432 106.61C95.9173 106.172 96.0072 104.323 95.6534 104.149C95.6534 104.149 95.6534 104.149 95.6478 104.149C96.1026 102.357 95.9566 100.89 95.44 99.738C95.4513 99.738 95.4569 99.738 95.4569 99.738C95.4569 99.738 94.0025 93.7253 87.4438 95.9112C84.7147 96.8216 84.7147 95.7314 84.7147 95.7314C84.7147 95.7314 83.5748 97.9173 84.8214 98.9063C84.7203 99.0862 84.6361 99.2716 84.5631 99.4683C83.6871 100.171 84.1026 104.194 84.1026 104.194L84.2037 104.346C84.2149 104.34 84.2262 104.329 84.2318 104.323C84.2542 104.312 84.2711 104.307 84.2935 104.301C84.2711 104.307 84.2542 104.312 84.2318 104.323C83.878 104.498 83.9678 106.346 84.1419 106.785C84.3048 107.189 85.1415 108.414 85.2706 108.605C85.411 109.184 85.5458 109.634 85.6412 109.864C85.7086 110.016 85.9051 110.297 86.1859 110.628H86.0961L86.068 111.331C86.0006 111.718 85.8658 112.089 85.7311 112.539C85.6581 112.786 85.4784 113.185 85.1021 113.601L84.9168 113.449L84.1588 114.045L84.097 113.989C82.9178 114.82 82.5977 115.028 82.2945 115.152C82.2889 115.101 82.2832 115.079 82.2832 115.079C82.2832 115.079 74.5734 118.439 73.849 119.889C73.484 120.614 73.9557 142.912 73.9557 143.839C73.9557 146.379 74.6857 156.78 74.6857 156.78L75.6908 156.634C75.5729 158.674 75.6122 161.203 77.3417 162.731C78.403 163.664 77.5214 159.371 77.8864 158.466C78.083 157.977 78.3244 158.635 78.4311 159.376C78.521 160.011 79.1555 160.556 79.0656 159.646C79.0095 159.107 78.8972 157.466 78.813 156.19L79.352 156.111L78.9309 213.716H80.7783C80.7839 214.249 80.7334 214.772 80.5649 215.002C79.7507 216.121 77.572 218.183 77.572 218.958C77.572 220.335 82.199 216.896 82.199 216.896V217.155C82.199 217.155 83.6478 216.469 83.6478 216.379C83.6478 216.329 83.6478 214.868 83.6478 213.716H84.6473L89.5439 167.305L93.2613 213.288L93.9576 213.182C94.0474 214.221 94.1373 215.351 94.1429 215.396C94.1485 215.48 95.6085 216.042 95.6085 216.042L95.586 215.789C95.586 215.789 100.342 218.807 100.23 217.464C100.168 216.711 97.8939 214.856 97.0123 213.828C96.8495 213.637 96.7596 213.215 96.7147 212.755L98.2477 212.519L100.056 155.499C100.09 155.493 100.123 155.482 100.151 155.476V155.448C100.337 155.392 100.55 155.353 100.775 155.33C100.718 156.196 100.505 159.399 100.426 160.197C100.337 161.107 100.971 160.562 101.061 159.927C101.168 159.185 101.409 158.528 101.606 159.017C101.971 159.927 101.089 164.215 102.15 163.282C104.413 161.287 103.784 157.578 103.695 155.488C103.975 155.533 104.149 155.566 104.149 155.566L104.194 154.235C104.239 154.251 104.29 154.274 104.329 154.296C104.801 144.125 104.441 122.069 103.711 120.709ZM84.6361 104.464C84.6248 104.447 84.608 104.436 84.5968 104.419C84.6136 104.436 84.6248 104.453 84.6361 104.464ZM84.7877 104.694C84.7821 104.683 84.7765 104.672 84.7652 104.655C84.7708 104.666 84.7765 104.677 84.7877 104.694ZM84.754 104.638C84.7428 104.621 84.7372 104.61 84.7259 104.593C84.7372 104.61 84.7484 104.621 84.754 104.638ZM84.7259 104.582C84.7035 104.543 84.6754 104.503 84.6473 104.47C84.6698 104.509 84.6978 104.543 84.7259 104.582ZM84.5855 104.408C84.5743 104.396 84.5631 104.385 84.5518 104.374C84.5631 104.391 84.5743 104.396 84.5855 104.408ZM84.535 104.368C84.5238 104.363 84.5125 104.352 84.5013 104.346C84.5125 104.352 84.5238 104.357 84.535 104.368ZM84.4788 104.335C84.4676 104.329 84.4564 104.323 84.4452 104.318C84.4564 104.323 84.4676 104.329 84.4788 104.335ZM84.4227 104.312C84.4115 104.307 84.4002 104.307 84.389 104.307C84.4002 104.307 84.4115 104.307 84.4227 104.312ZM84.3665 104.301C84.3553 104.301 84.3385 104.301 84.3272 104.307C84.3385 104.301 84.3553 104.301 84.3665 104.301Z" fill="#CCB1DD"/>
<path d="M89.252 64.7743V42.2125" stroke="#CCB1DD" stroke-width="1.8957" stroke-miterlimit="10" stroke-linecap="round"/>
<path d="M84.1421 79.5869H94.2217C94.2217 79.5869 93.0761 83.2058 89.2521 83.2058C85.428 83.2058 84.1421 79.5869 84.1421 79.5869Z" fill="#CCB1DD"/>
<path d="M86.3882 68.5618H92.1215C92.1215 68.5618 92.6943 64.4259 89.2577 64.4259C85.8155 64.4315 86.3882 68.5618 86.3882 68.5618Z" fill="#362D3A"/>
<path d="M86.3882 68.5618H92.1215C92.1215 68.5618 92.6943 64.4259 89.2577 64.4259C85.8155 64.4315 86.3882 68.5618 86.3882 68.5618Z" fill="#CCB1DD"/>
<path d="M76.4546 79.587H102.246C102.246 79.587 101.482 68.0504 89.4485 68.0504C77.4148 68.0504 76.4546 79.587 76.4546 79.587Z" fill="#CCB1DD"/>
<path d="M76.4546 79.587H86.2085C86.2085 79.587 85.4392 77.6764 85.8154 75.2825C86.3882 71.6637 89.4429 68.0504 89.4429 68.0504C77.4092 68.0448 76.4546 79.587 76.4546 79.587Z" fill="#CCB1DD"/>
<path d="M76.4546 79.587H102.246C102.246 79.587 101.482 68.0504 89.4485 68.0504C77.4148 68.0504 76.4546 79.587 76.4546 79.587Z" fill="#CCB1DD"/>
</g>
<defs>
<linearGradient id="paint0_linear" x1="225.868" y1="287.116" x2="-63.6356" y2="-164.769" gradientUnits="userSpaceOnUse">
<stop stop-color="#4F1E7B"/>
<stop offset="0.171" stop-color="#58227F"/>
<stop offset="0.4553" stop-color="#722C89"/>
<stop offset="0.8157" stop-color="#9B3D9A"/>
<stop offset="0.9944" stop-color="#B246A3"/>
</linearGradient>
<clipPath id="clip0">
<rect width="270.75" height="228" fill="white" transform="translate(15 23)"/>
</clipPath>
</defs>
</svg>
