<svg width="300" height="274" viewBox="0 0 300 274" fill="none" xmlns="http://www.w3.org/2000/svg">
<g clip-path="url(#clip0)">
<path d="M150.56 242.66C208.871 242.66 256.141 195.278 256.141 136.83C256.141 78.3816 208.871 31 150.56 31C92.2485 31 44.978 78.3816 44.978 136.83C44.978 195.278 92.2485 242.66 150.56 242.66Z" fill="url(#paint0_radial)"/>
<path d="M269.892 210.61H31.2366C28.9545 210.61 27.1108 208.762 27.1108 206.474V66.3716C27.1108 64.084 28.9545 62.2361 31.2366 62.2361H269.883C272.166 62.2361 274.009 64.084 274.009 66.3716V206.466C274.009 208.753 272.166 210.61 269.892 210.61Z" fill="white"/>
<path d="M175.339 76.0592L116.952 84.7372L58.5737 68.4883V185.577L116.952 201.826L175.339 193.14L233.717 201.826V84.7372L175.339 76.0592Z" fill="url(#paint1_linear)" stroke="#421A66" stroke-width="0.874627" stroke-miterlimit="10"/>
<path d="M175.291 76.0591V193.188" stroke="#421A66" stroke-width="0.874627" stroke-miterlimit="10"/>
<path d="M69.3027 102.891C69.3027 93.0651 76.7259 89.6134 86.5288 89.8739C96.3316 90.1345 82.5573 151.231 94.2119 151.231" stroke="white" stroke-width="1.42678" stroke-miterlimit="10" stroke-dasharray="4.28 4.28"/>
<path d="M94.2119 152.289C102.163 152.558 107.994 184.429 111.966 185.487C115.937 186.554 117.269 186.489 117.269 186.489C117.269 186.489 124.424 175.661 123.888 161.317C123.361 146.973 126.008 130.773 130.516 130.505" stroke="white" stroke-width="1.42678" stroke-miterlimit="10" stroke-dasharray="4.28 4.28"/>
<path d="M130.508 129.975C137.395 129.707 135.543 111.121 144.818 110.055C154.093 108.989 144.29 171.672 158.86 172.739" stroke="white" stroke-width="1.42678" stroke-miterlimit="10" stroke-dasharray="4.28 4.28"/>
<path d="M159.656 172.739C168.135 173.007 175.331 165.884 175.331 165.884C175.331 165.884 181.91 145.117 182.178 124.936C182.446 104.755 188.805 102.891 188.805 102.891C199.404 102.891 193.572 123.609 199.672 127.33C205.763 131.05 215.038 136.895 215.038 136.895" stroke="white" stroke-width="1.42678" stroke-miterlimit="10" stroke-dasharray="4.28 4.28"/>
<path d="M117.001 84.8267V201.956" stroke="#421A66" stroke-width="0.874627" stroke-miterlimit="10"/>
<path d="M69.1725 106.212C70.9308 106.212 72.3561 104.784 72.3561 103.021C72.3561 101.259 70.9308 99.8301 69.1725 99.8301C67.4142 99.8301 65.9888 101.259 65.9888 103.021C65.9888 104.784 67.4142 106.212 69.1725 106.212Z" fill="#F9F486"/>
<path d="M94.0738 154.552C95.8321 154.552 97.2575 153.124 97.2575 151.361C97.2575 149.599 95.8321 148.17 94.0738 148.17C92.3155 148.17 90.8901 149.599 90.8901 151.361C90.8901 153.124 92.3155 154.552 94.0738 154.552Z" fill="#F9F486"/>
<path d="M130.378 133.834C132.136 133.834 133.561 132.405 133.561 130.643C133.561 128.88 132.136 127.452 130.378 127.452C128.619 127.452 127.194 128.88 127.194 130.643C127.194 132.405 128.619 133.834 130.378 133.834Z" fill="#F9F486"/>
<path d="M158.998 176.06C160.756 176.06 162.182 174.631 162.182 172.869C162.182 171.106 160.756 169.678 158.998 169.678C157.24 169.678 155.814 171.106 155.814 172.869C155.814 174.631 157.24 176.06 158.998 176.06Z" fill="#F9F486"/>
<path d="M188.675 106.212C190.433 106.212 191.859 104.784 191.859 103.021C191.859 101.259 190.433 99.8301 188.675 99.8301C186.917 99.8301 185.491 101.259 185.491 103.021C185.491 104.784 186.917 106.212 188.675 106.212Z" fill="#F9F486"/>
<path d="M214.908 140.208C216.666 140.208 218.092 138.78 218.092 137.017C218.092 135.255 216.666 133.826 214.908 133.826C213.15 133.826 211.724 135.255 211.724 137.017C211.724 138.78 213.15 140.208 214.908 140.208Z" fill="#F9F486"/>
<path d="M215.021 130.382C215.021 130.382 226.148 117.805 224.873 108.557C224.093 102.907 221.99 98.7717 215.021 98.7717C208.053 98.7717 205.576 103.827 205.17 108.606C204.382 117.903 215.021 130.382 215.021 130.382Z" fill="url(#paint2_linear)"/>
<path d="M215.021 115.306C218.412 115.306 221.161 112.55 221.161 109.151C221.161 105.752 218.412 102.997 215.021 102.997C211.63 102.997 208.881 105.752 208.881 109.151C208.881 112.55 211.63 115.306 215.021 115.306Z" fill="white"/>
<path d="M269.892 63.4572C271.492 63.4572 272.799 64.7679 272.799 66.3716V206.466C272.799 208.07 271.492 209.38 269.892 209.38H31.2366C29.6367 209.38 28.3291 208.07 28.3291 206.466V66.3716C28.3291 64.7679 29.6367 63.4572 31.2366 63.4572H269.892V63.4572ZM269.892 62.2361H31.2366C28.9545 62.2361 27.1108 64.084 27.1108 66.3716V206.466C27.1108 208.753 28.9545 210.601 31.2366 210.601H269.883C272.166 210.601 274.009 208.753 274.009 206.466V66.3716C274.009 64.0922 272.166 62.2361 269.892 62.2361Z" fill="#461F77"/>
<path d="M294.119 146.2L283.707 135.649L283.755 147.413L294.119 146.2Z" fill="white"/>
<path d="M292.088 188.898H254.81C253.575 188.898 252.576 187.897 252.576 186.659V137.221C252.576 135.983 253.575 134.982 254.81 134.982H281.968C283.203 134.982 284.202 135.983 284.202 137.212L284.218 144.995C284.218 145.052 284.267 145.101 284.324 145.101L292.096 145.133C293.323 145.142 294.321 146.143 294.321 147.372V186.659C294.313 187.897 293.314 188.898 292.088 188.898Z" fill="white" stroke="#B246A3" stroke-width="1.74925" stroke-miterlimit="10"/>
<path d="M259.447 145.776H275.373" stroke="#B246A3" stroke-width="1.81485" stroke-miterlimit="10" stroke-linecap="round"/>
<path d="M259.447 150.653H287.442" stroke="#B246A3" stroke-width="1.91071" stroke-miterlimit="10" stroke-linecap="round"/>
<path d="M259.447 155.537H287.442" stroke="#B246A3" stroke-width="1.91071" stroke-miterlimit="10" stroke-linecap="round"/>
<path d="M259.447 160.414H287.442" stroke="#B246A3" stroke-width="1.91071" stroke-miterlimit="10" stroke-linecap="round"/>
<path d="M259.447 165.298H275.373" stroke="#B246A3" stroke-width="1.91071" stroke-miterlimit="10" stroke-linecap="round"/>
<path d="M259.447 170.182H275.373" stroke="#B246A3" stroke-width="1.91071" stroke-miterlimit="10" stroke-linecap="round"/>
<path d="M259.447 175.075H275.373" stroke="#B246A3" stroke-width="1.91071" stroke-miterlimit="10" stroke-linecap="round"/>
<path d="M259.447 179.968H275.373" stroke="#B246A3" stroke-width="1.91071" stroke-miterlimit="10" stroke-linecap="round"/>
<path d="M283.707 135.649L294.119 146.2" stroke="#B246A3" stroke-width="1.74925" stroke-miterlimit="10" stroke-linecap="round"/>
<path d="M286.232 174.326L287.962 181.433L284.656 179.382L281.343 181.433L283.081 174.326L284.656 174.961L286.232 174.326Z" fill="white" stroke="#B246A3" stroke-width="1.43299" stroke-miterlimit="10" stroke-linecap="round"/>
<path d="M284.575 175.116C287.576 175.116 290.009 172.678 290.009 169.67C290.009 166.662 287.576 164.224 284.575 164.224C281.575 164.224 279.142 166.662 279.142 169.67C279.142 172.678 281.575 175.116 284.575 175.116Z" fill="white" stroke="#B246A3" stroke-width="1.43299" stroke-miterlimit="10" stroke-linecap="round"/>
<path d="M19.3545 121.859C19.5088 121.908 20.2073 120.801 20.3535 120.353C20.4997 119.905 18.9971 110.25 19.1027 110.055C19.2002 109.851 30.5786 98.9509 30.936 99.0974C31.2852 99.2521 34.542 103.925 35.0943 104.674C35.6465 105.431 42.2657 120.605 42.3144 120.654C42.3632 120.703 43.6707 119.596 43.7195 119.042C43.7682 118.489 39.9591 98.7962 40.5114 98.7392C41.0637 98.6904 43.7195 96.126 43.7682 95.776C43.8169 95.4259 42.818 94.4165 42.3144 94.4165C41.8109 94.4165 39.9591 96.4761 39.7074 96.2237C39.4556 95.9714 38.5541 90.9485 38.6028 90.8997C46.6758 83.516 50.233 78.6397 50.7366 74.9194L50.696 74.8787C46.9844 75.3834 42.1276 78.949 34.7532 87.0409C34.7044 87.0898 29.6934 86.1862 29.4416 85.9338C29.1898 85.6814 31.2446 83.8254 31.2446 83.3206C31.2446 82.8159 30.2456 81.8146 29.8883 81.8634C29.5391 81.9123 26.9807 84.5743 26.932 85.1279C26.8833 85.6814 7.22886 81.8634 6.67659 81.9123C6.12432 81.9611 5.01977 83.2718 5.0685 83.3206C5.11723 83.3695 20.256 90.0042 21.0113 90.5578C21.7666 91.1113 26.4285 94.3758 26.5747 94.7258C26.729 95.0759 15.8459 106.481 15.6429 106.587C15.4399 106.685 5.8157 105.179 5.369 105.333C4.92231 105.488 3.82589 106.196 3.87462 106.351C3.92335 106.506 12.8491 112.733 12.8491 112.733C12.8491 112.733 19.2002 121.81 19.3545 121.859Z" fill="url(#paint3_linear)"/>
</g>
<defs>
<radialGradient id="paint0_radial" cx="0" cy="0" r="1" gradientUnits="userSpaceOnUse" gradientTransform="translate(149.033 137.194) scale(107.444 107.697)">
<stop offset="0.3176" stop-color="#B69EDB"/>
<stop offset="0.4371" stop-color="#BAA4DD" stop-opacity="0.8248"/>
<stop offset="0.5893" stop-color="#C6B3E3" stop-opacity="0.6019"/>
<stop offset="0.7591" stop-color="#DACDED" stop-opacity="0.353"/>
<stop offset="0.9404" stop-color="#F5F1FA" stop-opacity="0.0873"/>
<stop offset="1" stop-color="white" stop-opacity="0"/>
</radialGradient>
<linearGradient id="paint1_linear" x1="52.9192" y1="135.158" x2="255.764" y2="135.158" gradientUnits="userSpaceOnUse">
<stop stop-color="#461F77"/>
<stop offset="0.8246" stop-color="#613282"/>
</linearGradient>
<linearGradient id="paint2_linear" x1="215.052" y1="86.3876" x2="215.052" y2="151.049" gradientUnits="userSpaceOnUse">
<stop stop-color="#F3A50C"/>
<stop offset="0.5151" stop-color="#FFCC33"/>
<stop offset="1" stop-color="#FFE869"/>
</linearGradient>
<linearGradient id="paint3_linear" x1="10.7189" y1="67.2453" x2="63.6158" y2="141.498" gradientUnits="userSpaceOnUse">
<stop stop-color="#B242AC"/>
<stop offset="0.6598" stop-color="#CC5BBA"/>
</linearGradient>
<clipPath id="clip0">
<rect width="293" height="211.66" fill="white" transform="translate(3 31)"/>
</clipPath>
</defs>
</svg>
