<svg width="300" height="274" viewBox="0 0 300 274" fill="none" xmlns="http://www.w3.org/2000/svg">
<g clip-path="url(#clip0)">
<path d="M187.093 35.2186L181.782 34.6165L125.072 48.7607L113.374 65.2857L124.779 73.4082L130.336 71.7277L187.093 39.2743V35.2186Z" fill="#928AB7" stroke="black" stroke-width="0.934545" stroke-miterlimit="10"/>
<path d="M187.216 55.2251L187.093 35.2186L126.455 50.9706L116.676 65.0812L127.081 72.6687L187.216 55.2251Z" fill="#DBCCFF" stroke="black" stroke-width="0.934545" stroke-miterlimit="10"/>
<path d="M187.058 110.897L180.265 110.239L109.225 130.638L94.2197 148.426L108.912 157.013L116.726 154.56L187.058 115.34V110.897Z" fill="#928AB7" stroke="black" stroke-width="0.934545" stroke-miterlimit="10"/>
<path d="M187.216 132.806L187.058 110.897L110.731 132.442L98.2202 147.897L111.535 156.204L187.216 132.806Z" fill="#DBCCFF" stroke="black" stroke-width="0.934545" stroke-miterlimit="10"/>
<path d="M168.207 13.0415L154.608 8.14844L140.279 13.0415L154.243 20.9623L168.207 13.0415Z" fill="white" stroke="black" stroke-width="0.934545" stroke-miterlimit="10"/>
<path d="M154.228 264.84L140.276 259.163V13.0415L154.243 18.4415V264.832C154.237 264.838 154.234 264.838 154.228 264.84Z" fill="white" stroke="black" stroke-width="0.934545" stroke-miterlimit="10"/>
<path d="M154.255 264.84L168.207 259.163V13.0415L154.243 18.4415V264.832C154.249 264.838 154.249 264.838 154.255 264.84Z" fill="white" stroke="black" stroke-width="0.934545" stroke-miterlimit="10"/>
<path d="M106.648 87.6729V85.4519L109.865 83.7714L192.626 110.099L205.786 126.344L189.667 133.472L185.672 132.509L106.648 87.6729Z" fill="#A080B7" stroke="black" stroke-width="0.934545" stroke-miterlimit="10"/>
<path d="M106.648 85.4518C106.648 86.3621 106.648 107.018 106.648 107.018L189.515 133.554L202.938 126.383L191.065 112.303L106.648 85.4518Z" fill="#F2DCFF" stroke="black" stroke-width="0.934545" stroke-miterlimit="10"/>
<path d="M116.884 159.321V157.212L119.431 155.613L184.982 180.647L195.404 196.091L182.639 202.869L179.472 201.953L116.884 159.321Z" fill="#E2C8A6" stroke="black" stroke-width="0.934545" stroke-miterlimit="10"/>
<path d="M116.884 157.212C116.884 158.078 116.884 177.717 116.884 177.717L182.516 202.947L193.147 196.13L183.742 182.742L116.884 157.212Z" fill="#FFEDD2" stroke="black" stroke-width="0.934545" stroke-miterlimit="10"/>
<path d="M176.311 45.6041L120.712 27.0821L122.899 25.6537L178.735 44.6546L178.609 62.7369L176.311 64.1653V45.6041Z" fill="#BF8CB3" stroke="black" stroke-width="0.934545" stroke-miterlimit="10"/>
<path d="M176.311 45.6042V64.1654L120.954 42.7866L112.936 32.0789L121.44 26.6061L176.311 45.6042Z" fill="#FFD9F4" stroke="black" stroke-width="0.934545" stroke-miterlimit="10"/>
<path d="M137.94 153.512L187.362 136.427L185.315 135.027L134.723 152.112L135.015 174.519L137.94 175.359V153.512Z" fill="#BF8CB3" stroke="black" stroke-width="0.934545" stroke-miterlimit="10"/>
<path d="M137.939 153.512V175.359L191.456 153.792L195.257 141.749L187.052 136.147L137.939 153.512Z" fill="#FFD9F4" stroke="black" stroke-width="0.934545" stroke-miterlimit="10"/>
<path d="M128.546 79.6569L195.281 61.9247L192.24 59.9641L125.51 78.4413L125.656 101.417L128.546 103.355V79.6569Z" fill="#E2C8A6" stroke="black" stroke-width="0.934545" stroke-miterlimit="10"/>
<path d="M128.546 79.6568V103.355L194.849 81.9787L205.932 68.3666L194.296 61.3197L128.546 79.6568Z" fill="#FFEDD2" stroke="black" stroke-width="0.934545" stroke-miterlimit="10"/>
</g>
<defs>
<clipPath id="clip0">
<rect width="112.145" height="257" fill="white" transform="translate(94 8)"/>
</clipPath>
</defs>
</svg>
