<svg width="300" height="274" viewBox="0 0 300 274" fill="none" xmlns="http://www.w3.org/2000/svg">
<path d="M201.838 255.092L250.319 212.833C251.741 211.592 252.568 209.801 252.594 207.911L254.689 38.9257C254.729 35.5291 252.204 32.6482 248.838 32.2577L117.644 16.951C116.46 16.8147 115.262 16.9989 114.174 17.4852L47.8418 47.3177L200 68.6845L201.838 255.092Z" fill="url(#paint0_linear)" stroke="black" stroke-width="0.798826" stroke-miterlimit="10"/>
<path d="M196.729 256.564L50.4073 238.608C47.0555 238.2 44.5342 235.345 44.5342 231.959V53.0451C44.5342 49.0222 48.0478 45.9056 52.0318 46.3919L198.354 64.3474C201.706 64.76 204.227 67.6113 204.227 71.0006V249.914C204.227 253.937 200.713 257.054 196.729 256.564Z" fill="url(#paint1_linear)" stroke="black" stroke-width="0.798826" stroke-miterlimit="10"/>
<path d="M186.071 241.084L61.3049 225.777C58.4455 225.427 56.2954 222.992 56.2954 220.104V67.5451C56.2954 64.1154 59.2908 61.4556 62.6905 61.8719L187.46 77.1823C190.32 77.5323 192.47 79.9673 192.47 82.8555V235.415C192.466 238.844 189.471 241.504 186.071 241.084Z" fill="url(#paint2_linear)" stroke="black" stroke-width="0.798826" stroke-miterlimit="10"/>
<path d="M120.613 127.995C134.822 127.995 146.341 115.79 146.341 100.734C146.341 85.6784 134.822 73.4731 120.613 73.4731C106.405 73.4731 94.8862 85.6784 94.8862 100.734C94.8862 115.79 106.405 127.995 120.613 127.995Z" fill="url(#paint3_linear)" stroke="black" stroke-width="0.798826" stroke-miterlimit="10"/>
<path d="M120.298 117.128C128.841 117.128 135.767 109.788 135.767 100.735C135.767 91.6807 128.841 84.3411 120.298 84.3411C111.754 84.3411 104.828 91.6807 104.828 100.735C104.828 109.788 111.754 117.128 120.298 117.128Z" fill="url(#paint4_linear)" stroke="black" stroke-width="0.798826" stroke-miterlimit="10"/>
<path d="M120.614 75.501V82.1316" stroke="black" stroke-width="0.798826" stroke-miterlimit="10"/>
<path d="M127.13 76.3577L125.888 81.0102" stroke="black" stroke-width="0.798826" stroke-miterlimit="10"/>
<path d="M133.201 78.8768L130.798 83.0468" stroke="black" stroke-width="0.798826" stroke-miterlimit="10"/>
<path d="M141.68 88.4803L137.52 90.8895" stroke="black" stroke-width="0.798826" stroke-miterlimit="10"/>
<path d="M143.827 94.567L139.189 95.8121" stroke="black" stroke-width="0.798826" stroke-miterlimit="10"/>
<path d="M143.83 106.888L139.192 105.643" stroke="black" stroke-width="0.798826" stroke-miterlimit="10"/>
<path d="M141.684 112.976L137.524 110.57" stroke="black" stroke-width="0.798826" stroke-miterlimit="10"/>
<path d="M133.212 122.583L130.809 118.413" stroke="black" stroke-width="0.798826" stroke-miterlimit="10"/>
<path d="M127.141 125.106L125.895 120.454" stroke="black" stroke-width="0.798826" stroke-miterlimit="10"/>
<path d="M114.112 125.109L115.354 120.46" stroke="black" stroke-width="0.798826" stroke-miterlimit="10"/>
<path d="M108.04 122.594L110.44 118.424" stroke="black" stroke-width="0.798826" stroke-miterlimit="10"/>
<path d="M99.5537 112.997L103.714 110.588" stroke="black" stroke-width="0.798826" stroke-miterlimit="10"/>
<path d="M97.4038 106.911L102.042 105.663" stroke="black" stroke-width="0.798826" stroke-miterlimit="10"/>
<path d="M97.3931 94.5867L102.035 95.8318" stroke="black" stroke-width="0.798826" stroke-miterlimit="10"/>
<path d="M99.5356 88.5L103.7 90.9055" stroke="black" stroke-width="0.798826" stroke-miterlimit="10"/>
<path d="M108.011 78.8884L110.415 83.0547" stroke="black" stroke-width="0.798826" stroke-miterlimit="10"/>
<path d="M114.083 76.361L115.328 81.0135" stroke="black" stroke-width="0.798826" stroke-miterlimit="10"/>
<path d="M138.222 83.0847L133.543 87.7704" stroke="black" stroke-width="0.798826" stroke-miterlimit="10"/>
<path d="M144.686 100.734H138.071" stroke="black" stroke-width="0.798826" stroke-miterlimit="10"/>
<path d="M138.222 118.383L133.543 113.694" stroke="black" stroke-width="0.798826" stroke-miterlimit="10"/>
<path d="M120.614 126.336V119.705" stroke="black" stroke-width="0.798826" stroke-miterlimit="10"/>
<path d="M103.373 118.383L108.051 113.694" stroke="black" stroke-width="0.798826" stroke-miterlimit="10"/>
<path d="M96.5405 100.734H103.156" stroke="black" stroke-width="0.798826" stroke-miterlimit="10"/>
<path d="M103.005 83.0847L107.684 87.7704" stroke="black" stroke-width="0.798826" stroke-miterlimit="10"/>
<path d="M105.905 94.8318L114.409 90.8974C123.712 88.6281 132.316 98.2358 125.204 108.93C124.55 109.914 119.867 113.193 113.428 115.16C107.004 106.307 105.905 94.8318 105.905 94.8318Z" fill="url(#paint5_linear)" stroke="black" stroke-width="0.798826" stroke-miterlimit="10"/>
<path d="M112.37 94.0133L118.61 90.6538" stroke="black" stroke-width="0.798826" stroke-miterlimit="10"/>
<path d="M115.652 95.3916L122.285 91.7595" stroke="black" stroke-width="0.798826" stroke-miterlimit="10"/>
<path d="M118.592 97.6014L125.225 93.9692" stroke="black" stroke-width="0.798826" stroke-miterlimit="10"/>
<path d="M120.43 100.55L127.063 96.9175" stroke="black" stroke-width="0.798826" stroke-miterlimit="10"/>
<path d="M121.165 103.496L127.799 99.8643" stroke="black" stroke-width="0.798826" stroke-miterlimit="10"/>
<path d="M120.43 107.918L127.412 103.866" stroke="black" stroke-width="0.798826" stroke-miterlimit="10"/>
<path d="M118.225 112.339L125.575 108.287" stroke="black" stroke-width="0.798826" stroke-miterlimit="10"/>
<path d="M110.484 115.487C116.446 115.487 121.279 110.643 121.279 104.668C121.279 98.6921 116.446 93.8479 110.484 93.8479C104.523 93.8479 99.6899 98.6921 99.6899 104.668C99.6899 110.643 104.523 115.487 110.484 115.487Z" fill="#FEFEEB" stroke="black" stroke-width="0.798826" stroke-miterlimit="10"/>
<path d="M120.613 195.043C130.763 195.043 138.99 186.797 138.99 176.624C138.99 166.451 130.763 158.204 120.613 158.204C110.464 158.204 102.237 166.451 102.237 176.624C102.237 186.797 110.464 195.043 120.613 195.043Z" fill="url(#paint6_linear)" stroke="black" stroke-width="0.798826" stroke-miterlimit="10"/>
<path d="M113.105 174.983L72.8049 155.278C69.1186 154.98 68.887 159.496 70.4049 161.091L110.348 181.213L113.105 174.983Z" fill="url(#paint7_linear)" stroke="black" stroke-width="0.798826" stroke-miterlimit="10"/>
<path d="M114.439 184.3L125.792 228.754C128.019 231.764 131.746 228.762 131.992 226.489L121.213 182.009L114.439 184.3Z" fill="url(#paint8_linear)" stroke="black" stroke-width="0.798826" stroke-miterlimit="10"/>
<path d="M108.812 176.945L120.981 168.151C120.981 168.151 125.759 167.414 128.7 171.098C131.64 174.782 130.17 179.571 130.17 179.571L114.366 188.044L108.812 176.945Z" fill="url(#paint9_linear)" stroke="black" stroke-width="0.798826" stroke-miterlimit="10"/>
<path d="M111.609 188.779C114.958 188.779 117.673 185.975 117.673 182.517C117.673 179.058 114.958 176.254 111.609 176.254C108.26 176.254 105.545 179.058 105.545 182.517C105.545 185.975 108.26 188.779 111.609 188.779Z" fill="#FEFEEB" stroke="black" stroke-width="0.798826" stroke-miterlimit="10"/>
<path d="M119.515 174.265L149.211 145.077L154.438 149.914L124.451 178.83C120.272 178.833 119.132 176.17 119.515 174.265Z" fill="url(#paint10_linear)" stroke="black" stroke-width="0.798826" stroke-miterlimit="10"/>
<path d="M154.572 149.778C155.404 148.832 154.883 147.007 153.407 145.701C151.931 144.395 150.059 144.103 149.226 145.049C148.394 145.995 148.915 147.82 150.391 149.125C151.867 150.431 153.739 150.723 154.572 149.778Z" fill="#FEFEEB" stroke="black" stroke-width="0.798826" stroke-miterlimit="10"/>
<path d="M201.471 119.522L183.829 118.048V108.47L201.471 109.944V119.522Z" fill="url(#paint11_linear)" stroke="black" stroke-width="0.798826" stroke-miterlimit="10"/>
<path d="M201.471 163.729L183.829 162.256V152.677L201.471 154.151V163.729Z" fill="url(#paint12_linear)" stroke="black" stroke-width="0.798826" stroke-miterlimit="10"/>
<path d="M201.471 207.937L183.829 206.463V196.885L201.471 198.358V207.937Z" fill="url(#paint13_linear)" stroke="black" stroke-width="0.798826" stroke-miterlimit="10"/>
<path d="M63.646 76.4198V192.095" stroke="black" stroke-width="0.798826" stroke-miterlimit="10"/>
<path d="M71.7319 90.7866V132.047" stroke="black" stroke-width="0.798826" stroke-miterlimit="10"/>
<path d="M144.871 230.041L180.889 234.83" stroke="black" stroke-width="0.798826" stroke-miterlimit="10"/>
<path d="M138.99 223.409L165.636 226.908" stroke="black" stroke-width="0.798826" stroke-miterlimit="10"/>
<path d="M212.129 61.6839L247.78 39.9487" stroke="black" stroke-width="0.798826" stroke-miterlimit="10"/>
<path d="M245.207 155.255V205.254C245.207 205.788 244.976 206.296 244.571 206.646L223.155 225.25" stroke="black" stroke-width="0.798826" stroke-miterlimit="10" stroke-linejoin="round"/>
<path d="M238.224 110.681V184.728" stroke="black" stroke-width="0.798826" stroke-miterlimit="10"/>
<path d="M94.8862 35.5287L118.298 24.3369C118.61 24.1896 118.956 24.1306 119.298 24.1712L169.863 30.0028" stroke="black" stroke-width="0.798826" stroke-miterlimit="10" stroke-linejoin="round"/>
<path d="M137.52 49.1589L199.633 57.2636" stroke="black" stroke-width="0.798826" stroke-miterlimit="10"/>
<defs>
<linearGradient id="paint0_linear" x1="133.758" y1="16.9073" x2="273.33" y2="266.969" gradientUnits="userSpaceOnUse">
<stop stop-color="#FBF8B6"/>
<stop offset="1" stop-color="#FAB86B"/>
</linearGradient>
<linearGradient id="paint1_linear" x1="256.077" y1="316.082" x2="-16.677" y2="-39.5531" gradientUnits="userSpaceOnUse">
<stop stop-color="#FDFBCE"/>
<stop offset="1" stop-color="white"/>
</linearGradient>
<linearGradient id="paint2_linear" x1="112.857" y1="61.8289" x2="233.171" y2="274.287" gradientUnits="userSpaceOnUse">
<stop stop-color="#FBF8B6"/>
<stop offset="1" stop-color="#FAB86B"/>
</linearGradient>
<linearGradient id="paint3_linear" x1="116.258" y1="73.4731" x2="128.021" y2="133.699" gradientUnits="userSpaceOnUse">
<stop stop-color="#F9F486"/>
<stop offset="1" stop-color="#F79422"/>
</linearGradient>
<linearGradient id="paint4_linear" x1="117.679" y1="84.3411" x2="124.753" y2="120.558" gradientUnits="userSpaceOnUse">
<stop stop-color="#F9F486"/>
<stop offset="1" stop-color="#F79422"/>
</linearGradient>
<linearGradient id="paint5_linear" x1="115.011" y1="90.5621" x2="120.605" y2="117.613" gradientUnits="userSpaceOnUse">
<stop stop-color="#F9F486"/>
<stop offset="1" stop-color="#F79422"/>
</linearGradient>
<linearGradient id="paint6_linear" x1="109.603" y1="150.888" x2="125.481" y2="198.553" gradientUnits="userSpaceOnUse">
<stop stop-color="#F9F486"/>
<stop offset="1" stop-color="#F79422"/>
</linearGradient>
<linearGradient id="paint7_linear" x1="87.6262" y1="155.264" x2="90.8533" y2="184.667" gradientUnits="userSpaceOnUse">
<stop stop-color="#F9F486"/>
<stop offset="1" stop-color="#F79422"/>
</linearGradient>
<linearGradient id="paint8_linear" x1="121.73" y1="182.009" x2="143.863" y2="225.909" gradientUnits="userSpaceOnUse">
<stop stop-color="#F9F486"/>
<stop offset="1" stop-color="#F79422"/>
</linearGradient>
<linearGradient id="paint9_linear" x1="117.836" y1="168.091" x2="121.602" y2="190.335" gradientUnits="userSpaceOnUse">
<stop stop-color="#F9F486"/>
<stop offset="1" stop-color="#F79422"/>
</linearGradient>
<linearGradient id="paint10_linear" x1="133.98" y1="145.077" x2="140.65" y2="182.597" gradientUnits="userSpaceOnUse">
<stop stop-color="#F9F486"/>
<stop offset="1" stop-color="#F79422"/>
</linearGradient>
<linearGradient id="paint11_linear" x1="191.157" y1="108.47" x2="192.601" y2="120.977" gradientUnits="userSpaceOnUse">
<stop stop-color="#F9F486"/>
<stop offset="1" stop-color="#F79422"/>
</linearGradient>
<linearGradient id="paint12_linear" x1="191.157" y1="152.677" x2="192.601" y2="165.184" gradientUnits="userSpaceOnUse">
<stop stop-color="#F9F486"/>
<stop offset="1" stop-color="#F79422"/>
</linearGradient>
<linearGradient id="paint13_linear" x1="191.157" y1="196.885" x2="192.601" y2="209.392" gradientUnits="userSpaceOnUse">
<stop stop-color="#F9F486"/>
<stop offset="1" stop-color="#F79422"/>
</linearGradient>
</defs>
</svg>
