<svg width="300" height="274" viewBox="0 0 300 274" fill="none" xmlns="http://www.w3.org/2000/svg">
<g clip-path="url(#clip0)">
<path d="M247.979 260.845H243.824C241.63 260.845 239.848 259.063 239.848 256.861V244.871C239.848 242.673 241.627 240.887 243.824 240.887H247.979C250.173 240.887 251.955 242.67 251.955 244.871V256.861C251.955 259.063 250.173 260.845 247.979 260.845Z" fill="#262626"/>
<path d="M193.301 260.845H189.146C186.952 260.845 185.17 259.063 185.17 256.861V244.871C185.17 242.673 186.949 240.887 189.146 240.887H193.301C195.495 240.887 197.277 242.67 197.277 244.871V256.861C197.277 259.063 195.498 260.845 193.301 260.845Z" fill="#262626"/>
<path d="M206.846 102.761L207.041 14.3286" stroke="#441E6B" stroke-width="6.28391" stroke-miterlimit="10" stroke-linecap="round"/>
<path d="M230.279 102.761L230.474 14.3286" stroke="#441E6B" stroke-width="6.28391" stroke-miterlimit="10" stroke-linecap="round"/>
<path d="M251.806 252.626H185.316C177.687 252.626 171.501 246.429 171.501 238.785V116.605C171.501 108.961 177.687 102.764 185.316 102.764H251.806C259.436 102.764 265.621 108.961 265.621 116.605V238.785C265.624 246.429 259.439 252.626 251.806 252.626Z" fill="url(#paint0_linear)" stroke="#441E6B" stroke-width="1.57098" stroke-miterlimit="10"/>
<path d="M234.379 14.3286H203.137" stroke="#441E6B" stroke-width="11.7823" stroke-miterlimit="10" stroke-linecap="round"/>
<path d="M201.491 139.347C201.547 141.784 201.575 144.222 201.612 146.659L201.68 153.97C201.696 158.845 201.727 163.719 201.718 168.594C201.696 173.468 201.711 178.343 201.659 183.217C201.625 188.092 201.578 192.966 201.491 197.84C201.488 198.011 201.346 198.148 201.175 198.145C201.008 198.142 200.875 198.005 200.872 197.84C200.785 192.966 200.738 188.092 200.704 183.217C200.655 178.343 200.667 173.468 200.645 168.594C200.633 163.719 200.664 158.845 200.68 153.97L200.748 146.659C200.785 144.222 200.813 141.784 200.869 139.347C200.872 139.176 201.014 139.04 201.185 139.043C201.355 139.049 201.488 139.183 201.491 139.347Z" fill="#441E6B"/>
<path d="M235.274 122.522L235.327 126.704L235.345 130.887L235.33 139.251C235.299 142.039 235.29 144.827 235.243 147.615C235.203 150.403 235.156 153.191 235.079 155.979C235.073 156.15 234.93 156.286 234.76 156.28C234.592 156.274 234.462 156.141 234.459 155.976C234.413 153.188 234.4 150.4 234.391 147.612C234.379 144.824 234.4 142.036 234.403 139.248L234.484 130.883L234.552 126.701L234.654 122.519C234.657 122.349 234.8 122.212 234.97 122.215C235.138 122.221 235.271 122.358 235.274 122.522Z" fill="#441E6B"/>
<path d="M235.079 164.585C235.132 165.694 235.166 166.802 235.185 167.911C235.216 169.019 235.216 170.127 235.225 171.236C235.234 172.344 235.234 173.453 235.213 174.561C235.185 175.669 235.154 176.778 235.079 177.886C235.067 178.057 234.918 178.187 234.748 178.175C234.59 178.166 234.469 178.038 234.46 177.886C234.385 176.778 234.354 175.669 234.326 174.561C234.305 173.453 234.301 172.344 234.314 171.236C234.323 170.127 234.323 169.019 234.354 167.911C234.376 166.802 234.407 165.694 234.46 164.585C234.469 164.415 234.614 164.281 234.785 164.29C234.946 164.297 235.073 164.427 235.079 164.585Z" fill="#441E6B"/>
<path d="M235.079 186.499C235.141 188.529 235.172 190.557 235.219 192.587L235.309 198.676L235.408 210.855C235.405 214.916 235.426 218.974 235.402 223.035L235.361 229.124C235.333 231.154 235.318 233.185 235.275 235.215C235.271 235.386 235.129 235.523 234.959 235.519C234.794 235.516 234.661 235.383 234.655 235.218C234.596 233.188 234.565 231.16 234.518 229.13L234.429 223.042C234.37 218.981 234.36 214.923 234.323 210.862V198.682L234.364 192.593C234.395 190.563 234.41 188.532 234.456 186.502C234.46 186.331 234.602 186.194 234.773 186.198C234.943 186.201 235.073 186.334 235.079 186.499Z" fill="#441E6B"/>
<path d="M251.09 109.805L251.171 119.93L251.217 130.055C251.221 136.804 251.258 143.554 251.233 150.304L251.186 170.553L251.155 180.677L251.087 190.802C251.087 190.973 250.948 191.112 250.774 191.109C250.604 191.109 250.468 190.97 250.468 190.802L250.399 180.677L250.368 170.553L250.322 150.304C250.297 143.554 250.331 136.804 250.337 130.055L250.384 119.93L250.464 109.805C250.464 109.635 250.607 109.495 250.777 109.498C250.954 109.498 251.09 109.635 251.09 109.805Z" fill="#441E6B"/>
<path d="M185.48 108.436L185.555 114.916L185.598 121.395L185.635 134.358L185.601 147.32L185.558 153.8L185.48 160.279C185.477 160.45 185.338 160.587 185.167 160.587C185 160.583 184.864 160.447 184.861 160.279L184.783 153.8L184.74 147.32L184.706 134.358L184.743 121.395L184.786 114.916L184.861 108.436C184.864 108.266 185.003 108.129 185.173 108.129C185.344 108.129 185.477 108.269 185.48 108.436Z" fill="#441E6B"/>
<path d="M185.79 171.239L185.694 173.782L185.613 176.324L185.48 181.41C185.477 181.581 185.334 181.717 185.161 181.711C184.996 181.708 184.863 181.571 184.86 181.41L184.727 176.324L184.646 173.782L184.55 171.239C184.538 170.897 184.804 170.609 185.145 170.593C185.486 170.581 185.774 170.848 185.79 171.189C185.79 171.208 185.79 171.223 185.79 171.239Z" fill="#441E6B"/>
<path d="M185.48 192.758C185.557 195.627 185.595 198.495 185.616 201.367L185.635 205.671L185.626 209.974C185.619 212.842 185.613 215.711 185.585 218.583C185.57 221.452 185.523 224.321 185.483 227.193C185.48 227.363 185.34 227.5 185.17 227.5C185.003 227.497 184.866 227.36 184.863 227.193C184.823 224.324 184.777 221.455 184.761 218.583C184.733 215.714 184.727 212.846 184.721 209.974L184.711 205.671L184.73 201.367C184.749 198.499 184.786 195.63 184.866 192.758C184.873 192.587 185.012 192.451 185.186 192.457C185.344 192.463 185.477 192.596 185.48 192.758Z" fill="#441E6B"/>
<path d="M217.896 164.585C217.952 166.917 217.98 169.249 218.017 171.58L218.088 178.575L218.113 185.57C218.122 187.902 218.132 190.234 218.119 192.565L218.101 199.56C218.097 201.892 218.085 204.224 218.063 206.555C218.029 211.219 217.983 215.882 217.896 220.545C217.893 220.716 217.75 220.853 217.58 220.849C217.413 220.846 217.279 220.71 217.276 220.545C217.189 215.882 217.143 211.219 217.109 206.555C217.084 204.224 217.072 201.892 217.072 199.56L217.053 192.565C217.041 190.234 217.053 187.902 217.059 185.57L217.084 178.575L217.155 171.58C217.193 169.249 217.22 166.917 217.276 164.585C217.279 164.415 217.422 164.278 217.592 164.281C217.76 164.287 217.89 164.421 217.896 164.585Z" fill="#441E6B"/>
<path d="M218.091 126.043C218.128 126.661 218.144 127.279 218.172 127.897L218.218 129.75C218.234 130.986 218.246 132.222 218.246 133.457C218.234 134.693 218.24 135.929 218.209 137.164C218.184 138.4 218.153 139.636 218.094 140.872C218.085 141.042 217.939 141.176 217.769 141.166C217.608 141.157 217.481 141.03 217.475 140.872C217.416 139.636 217.385 138.4 217.36 137.164C217.329 135.929 217.335 134.693 217.323 133.457C217.323 132.222 217.335 130.986 217.351 129.75L217.397 127.897C217.422 127.279 217.441 126.661 217.478 126.043C217.487 125.873 217.636 125.742 217.806 125.751C217.958 125.761 218.082 125.888 218.091 126.043Z" fill="#441E6B"/>
<path d="M254.038 115.031C254.778 115.527 255.457 116.139 255.99 116.89C256.256 117.266 256.483 117.679 256.634 118.129C256.789 118.57 256.861 119.076 256.861 119.526C256.888 121.253 256.895 122.979 256.901 124.705C256.926 128.158 256.895 131.61 256.895 135.062L256.851 145.42C256.839 148.872 256.789 152.325 256.755 155.777C256.752 155.948 256.613 156.088 256.442 156.085C256.272 156.082 256.139 155.945 256.135 155.777C256.101 152.325 256.052 148.872 256.039 145.42L255.996 135.062C255.996 131.61 255.968 128.158 255.99 124.705C255.996 122.979 256.002 121.253 256.03 119.526C256.039 119.113 255.996 118.753 255.878 118.375C255.761 118.002 255.584 117.645 255.37 117.306C254.933 116.627 254.335 116.04 253.675 115.534H253.672C253.536 115.428 253.511 115.236 253.613 115.099C253.718 114.969 253.901 114.941 254.038 115.031Z" fill="#E5D6FC"/>
<path d="M233.04 113.211C233.771 113.159 234.503 113.124 235.234 113.106C235.965 113.078 236.697 113.065 237.428 113.062C238.89 113.05 240.353 113.065 241.816 113.214C241.986 113.233 242.11 113.385 242.095 113.556C242.079 113.705 241.961 113.82 241.816 113.835C240.353 113.984 238.89 113.997 237.428 113.988C236.697 113.984 235.965 113.969 235.234 113.944C234.503 113.922 233.771 113.891 233.04 113.839C232.87 113.826 232.739 113.677 232.752 113.506C232.764 113.345 232.888 113.221 233.04 113.211Z" fill="#E5D6FC"/>
<path d="M195.91 113.211C196.474 113.174 197.038 113.159 197.605 113.134L199.3 113.09C200.428 113.065 201.559 113.056 202.687 113.059C203.815 113.072 204.946 113.068 206.074 113.096C207.202 113.121 208.333 113.152 209.461 113.211C209.632 113.221 209.765 113.367 209.756 113.537C209.746 113.696 209.619 113.823 209.461 113.832C208.333 113.894 207.202 113.925 206.074 113.947C204.946 113.975 203.815 113.972 202.687 113.984C201.559 113.987 200.428 113.978 199.3 113.953L197.605 113.91C197.041 113.885 196.477 113.869 195.91 113.832C195.74 113.82 195.61 113.674 195.619 113.503C195.632 113.345 195.755 113.221 195.91 113.211Z" fill="#E5D6FC"/>
<path d="M256.755 206.766C256.792 207.347 256.808 207.931 256.833 208.511L256.876 210.256C256.901 211.42 256.91 212.585 256.907 213.749C256.895 214.913 256.898 216.078 256.87 217.242C256.845 218.406 256.814 219.57 256.755 220.735C256.746 220.905 256.6 221.039 256.43 221.03C256.269 221.02 256.145 220.893 256.135 220.735C256.073 219.57 256.042 218.406 256.021 217.242C255.993 216.078 255.996 214.913 255.983 213.749C255.98 212.585 255.99 211.42 256.014 210.256L256.058 208.511C256.083 207.931 256.101 207.347 256.135 206.766C256.145 206.596 256.293 206.465 256.464 206.475C256.622 206.484 256.746 206.611 256.755 206.766Z" fill="#E5D6FC"/>
<path d="M256.755 179.65C256.889 181.134 256.913 182.618 256.907 184.102C256.904 184.844 256.898 185.586 256.867 186.328C256.845 187.07 256.814 187.812 256.755 188.554C256.743 188.725 256.591 188.852 256.421 188.84C256.266 188.827 256.148 188.703 256.136 188.554C256.077 187.812 256.046 187.07 256.024 186.328C255.993 185.586 255.987 184.844 255.984 184.102C255.981 182.618 256.002 181.134 256.136 179.65C256.151 179.479 256.303 179.352 256.473 179.367C256.625 179.383 256.743 179.504 256.755 179.65Z" fill="#E5D6FC"/>
<path d="M256.677 230.912C256.727 232.21 256.751 233.508 256.789 234.805C256.795 235.134 256.804 235.445 256.801 235.786C256.801 236.128 256.773 236.463 256.736 236.799C256.668 237.469 256.504 238.127 256.302 238.773C255.874 240.055 255.156 241.285 254.096 242.185C253.052 243.101 251.741 243.666 250.408 243.912C249.742 244.061 249.063 244.061 248.394 244.095L246.451 244.101L242.568 244.11L234.8 244.129C229.622 244.151 224.44 244.132 219.262 244.129C214.084 244.132 208.903 244.082 203.725 244.061C203.598 244.061 203.493 243.955 203.493 243.828C203.493 243.7 203.595 243.598 203.722 243.595C208.9 243.53 214.081 243.43 219.259 243.39C224.437 243.343 229.619 243.278 234.797 243.253L242.565 243.204L246.451 243.179L248.394 243.166C249.017 243.132 249.64 243.123 250.241 242.996C251.449 242.788 252.599 242.3 253.519 241.512C254.455 240.739 255.097 239.652 255.534 238.5C255.738 237.916 255.909 237.314 255.992 236.693C256.036 236.386 256.073 236.075 256.082 235.765C256.098 235.457 256.095 235.119 256.104 234.799C256.141 233.501 256.163 232.204 256.215 230.906C256.222 230.779 256.33 230.676 256.457 230.682C256.575 230.692 256.671 230.791 256.677 230.912Z" fill="#E5D6FC"/>
<path d="M234.726 66.0349L240.586 70.9528C242.169 69.683 247.239 69.8413 248.506 70.9528C250.564 67.6214 255.001 66.0349 255.001 66.0349C255.001 66.0349 255.476 76.0322 255.634 76.827C255.792 77.6218 259.594 89.6806 246.765 89.9973C233.936 90.314 233.143 82.5397 233.62 78.7302C234.094 74.9238 234.726 66.0349 234.726 66.0349Z" fill="#E89DEA" stroke="#CC7002" stroke-width="0.785489" stroke-miterlimit="10"/>
<path d="M194.724 111.243C193.816 111.321 192.901 111.345 191.987 111.321C191.532 111.305 191.073 111.286 190.618 111.243C190.165 111.203 189.704 111.159 189.239 111.06C188.321 110.87 187.41 110.485 186.67 109.861C185.923 109.247 185.375 108.393 185.099 107.471C184.804 106.552 184.77 105.583 184.863 104.655C184.95 103.72 185.179 102.817 185.468 101.941C186.056 100.193 186.902 98.557 187.881 97.0201C187.088 98.6594 186.379 100.339 185.892 102.072C185.647 102.935 185.474 103.816 185.412 104.701C185.378 105.142 185.381 105.583 185.424 106.018C185.461 106.452 185.542 106.881 185.675 107.288C185.929 108.11 186.419 108.84 187.063 109.396C187.714 109.945 188.511 110.33 189.36 110.538C189.781 110.647 190.221 110.724 190.67 110.793C191.117 110.858 191.563 110.923 192.012 110.976C192.911 111.085 193.816 111.162 194.724 111.243Z" fill="#CC7002"/>
<path d="M189.285 102.205C188.988 103.112 188.74 104.043 188.672 104.987C188.644 105.456 188.665 105.937 188.833 106.359C188.975 106.8 189.375 107.045 189.809 107.179C190.243 107.319 190.717 107.343 191.191 107.399C191.662 107.443 192.136 107.48 192.61 107.502C193.558 107.545 194.507 107.545 195.458 107.52C199.257 107.406 203.035 106.847 206.849 106.508C208.755 106.337 210.679 106.226 212.613 106.341L212.975 106.365C213.096 106.375 213.248 106.393 213.381 106.431C213.651 106.499 213.908 106.626 214.128 106.8C214.568 107.145 214.85 107.679 214.894 108.234C214.94 108.787 214.745 109.358 214.37 109.762C213.998 110.172 213.456 110.417 212.904 110.414C212.762 110.411 212.641 110.402 212.526 110.392L212.173 110.367C211.937 110.355 211.702 110.343 211.466 110.336C210.995 110.321 210.521 110.321 210.044 110.33C209.096 110.349 208.144 110.392 207.193 110.457C205.29 110.572 203.388 110.749 201.479 110.861C202.424 110.728 203.372 110.603 204.317 110.482C205.266 110.358 206.211 110.234 207.162 110.131C208.113 110.032 209.068 109.942 210.025 109.896C210.506 109.874 210.986 109.858 211.466 109.861C211.708 109.861 211.95 109.864 212.191 109.874L212.554 109.889L212.734 109.899L212.889 109.902C213.295 109.892 213.691 109.706 213.958 109.402C214.227 109.101 214.358 108.688 214.32 108.287C214.283 107.89 214.076 107.511 213.756 107.272C213.598 107.151 213.419 107.064 213.226 107.014C213.127 106.989 213.041 106.977 212.926 106.971L212.573 106.949C210.692 106.85 208.792 106.971 206.896 107.123C203.106 107.446 199.304 107.964 195.461 107.983C194.501 107.989 193.54 107.961 192.582 107.884C192.102 107.846 191.625 107.794 191.148 107.735L190.435 107.629C190.193 107.586 189.951 107.53 189.716 107.446C189.48 107.359 189.251 107.247 189.053 107.08C188.851 106.918 188.7 106.676 188.628 106.44C188.464 105.959 188.47 105.459 188.517 104.981C188.628 104.009 188.932 103.09 189.285 102.205Z" fill="#CC7002"/>
<path d="M255.634 76.827C255.476 76.0322 255.001 66.0349 255.001 66.0349C255.001 66.0349 250.567 67.6214 248.506 70.9528C247.239 69.8413 241.853 69.683 240.586 70.9528L234.726 66.0349C234.726 66.0349 234.509 69.0869 234.233 72.381C222.408 68.8602 206.189 69.1179 198.455 76.9853C194.011 81.5058 190.838 86.6442 189.53 91.2081C189.109 92.6798 188.883 94.0893 188.867 95.3995C188.83 95.4461 188.796 95.4927 188.762 95.5455C188.712 95.6231 187.504 97.4735 186.494 99.8114C185.015 103.236 184.712 105.968 185.592 107.933C186.106 109.082 187.284 110.535 189.967 110.926C191.517 111.153 193.113 111.24 194.724 111.24C197.81 111.24 200.934 110.914 203.806 110.616C207.1 110.274 210.212 109.951 212.734 110.144C213.695 110.215 214.531 109.498 214.606 108.539C214.68 107.576 213.961 106.738 213.004 106.664C210.165 106.446 206.902 106.785 203.45 107.142C199.081 107.595 194.563 108.067 190.472 107.468C189.121 107.269 188.87 106.71 188.774 106.499C188.182 105.179 189 102.562 190.135 100.212C191.188 101.808 192.93 102.963 195.449 103.481C206.22 105.704 217.915 102.497 221.085 102.497C224.255 102.497 246.926 106.179 251.202 102.211C253.579 100.004 254.165 94.465 252.343 88.7368C258.302 85.573 255.764 77.4728 255.634 76.827Z" fill="url(#paint1_linear)"/>
<path d="M246.765 89.9973L245.733 90.0563C245.389 90.0687 245.045 90.0625 244.698 90.0687C244.007 90.0594 243.316 90.0314 242.628 89.9507C241.249 89.8048 239.879 89.4726 238.584 88.9168C237.945 88.625 237.316 88.2928 236.746 87.8674C236.173 87.4452 235.652 86.9515 235.2 86.3989C234.286 85.2967 233.709 83.9399 233.44 82.549C233.161 81.1612 233.183 79.7175 233.39 78.3452C233.558 76.9853 233.716 75.6161 233.861 74.2501C234.146 71.5117 234.425 68.7733 234.732 66.0349C234.639 68.7888 234.49 71.5396 234.289 74.2904C234.19 75.6658 234.091 77.0412 233.939 78.4135C233.762 79.7672 233.771 81.1177 234.035 82.431C234.298 83.7412 234.85 84.9831 235.677 86.017C236.508 87.0509 237.598 87.8581 238.81 88.4325C240.025 89.0069 241.339 89.3825 242.68 89.6123C244.019 89.8483 245.389 89.9507 246.765 89.9973Z" fill="#C16806"/>
<path d="M231.574 71.6731C229.606 71.2974 227.633 70.9745 225.64 70.7944C223.654 70.5988 221.661 70.484 219.669 70.5026C215.69 70.5398 211.702 70.9714 207.906 72.0922C206.957 72.3716 206.028 72.7132 205.114 73.0795C204.203 73.4583 203.319 73.8961 202.461 74.3804C201.612 74.8772 200.794 75.4236 200.022 76.0321C199.251 76.6407 198.566 77.3423 197.866 78.0564C196.477 79.4846 195.191 81.0121 194.017 82.6266C192.827 84.2286 191.767 85.93 190.844 87.7122C191.222 86.7807 191.659 85.8742 192.142 84.9924C192.622 84.1076 193.137 83.2413 193.692 82.4C194.813 80.7265 196.056 79.1307 197.407 77.6311C198.076 76.8828 198.792 76.147 199.582 75.4919C200.373 74.8461 201.206 74.25 202.086 73.7346C202.969 73.2254 203.88 72.7722 204.819 72.3748C205.758 71.9867 206.716 71.6389 207.689 71.3626C208.662 71.0832 209.647 70.8348 210.639 70.6454C211.63 70.4436 212.631 70.3008 213.635 70.1859C214.639 70.071 215.646 70.0027 216.654 69.9531C217.661 69.9158 218.671 69.9096 219.675 69.9375C221.689 69.9903 223.697 70.1549 225.683 70.4436C227.673 70.7355 229.644 71.1391 231.574 71.6731Z" fill="#C16806"/>
<path d="M220.945 102.522C222.811 102.562 224.67 102.742 226.529 102.891C228.389 103.053 230.245 103.227 232.101 103.413C235.807 103.782 239.538 104.006 243.253 103.891C245.107 103.816 246.972 103.667 248.748 103.189C249.621 102.938 250.505 102.606 251.131 101.991C251.766 101.364 252.203 100.547 252.51 99.6933C253.114 97.9671 253.238 96.0887 253.129 94.2538C253.015 92.4127 252.643 90.5871 252.085 88.8267L252.017 88.6156L252.212 88.51C253.074 88.0505 253.842 87.4296 254.431 86.6565C255.023 85.8897 255.435 84.9862 255.68 84.0423C256.166 82.1391 256.045 80.1024 255.652 78.162C255.602 77.9198 255.546 77.6745 255.487 77.4323L255.394 77.066C255.379 77.0039 255.36 76.9449 255.348 76.8673L255.32 76.6593C255.264 76.1377 255.233 75.6409 255.196 75.1317L255.013 72.1046L254.694 66.0504L255.1 66.3236C254.483 66.5595 253.861 66.8576 253.269 67.1774C252.674 67.5003 252.097 67.8604 251.552 68.2547C251.004 68.6459 250.48 69.0775 250.006 69.5494C249.525 70.0182 249.092 70.5336 248.729 71.0925L248.559 71.3533L248.332 71.1515C248.047 70.8969 247.607 70.7261 247.18 70.5988C246.746 70.4746 246.296 70.3753 245.841 70.307C245.385 70.2387 244.924 70.1828 244.462 70.1548C243.997 70.1269 243.532 70.1207 243.064 70.13C243.526 70.0431 243.994 69.9934 244.462 69.9717C244.933 69.9499 245.404 69.9437 245.878 69.9779C246.349 70.012 246.823 70.0648 247.294 70.1735C247.762 70.2914 248.236 70.4156 248.679 70.7603L248.283 70.8192C248.652 70.2076 249.088 69.6426 249.584 69.1334C250.08 68.6273 250.622 68.1678 251.189 67.7549C251.76 67.3419 252.361 66.9725 252.977 66.6403C253.597 66.3081 254.223 66.0069 254.896 65.7554L255.28 65.6095L255.302 66.0255L255.602 72.0767L255.776 75.0976C255.807 75.5974 255.841 76.1066 255.89 76.591L255.912 76.7586C255.918 76.8052 255.937 76.8673 255.952 76.9263L256.045 77.2957C256.104 77.5441 256.163 77.7956 256.213 78.044C256.612 80.0465 256.739 82.1546 256.216 84.1789C255.952 85.1849 255.509 86.1567 254.862 86.9887C254.22 87.8239 253.383 88.4914 252.463 88.9789L252.593 88.6622C253.16 90.4629 253.532 92.332 253.628 94.2228C253.721 96.1073 253.582 98.0354 252.931 99.8423C252.602 100.737 252.128 101.606 251.425 102.292C251.069 102.64 250.638 102.897 250.204 103.096C249.764 103.295 249.312 103.45 248.853 103.571C247.015 104.049 245.134 104.177 243.266 104.236C239.523 104.329 235.788 104.024 232.082 103.599C230.229 103.385 228.376 103.177 226.523 102.984C224.664 102.801 222.811 102.593 220.945 102.522Z" fill="#C16806"/>
<path d="M238.615 97.0668C239.879 97.073 241.15 97.2189 242.38 97.5511C243.604 97.8895 244.818 98.3459 245.878 99.1159C246.405 99.4978 246.904 99.9573 247.248 100.575C247.409 100.889 247.527 101.255 247.505 101.643C247.493 102.034 247.304 102.398 247.074 102.668C246.594 103.217 245.965 103.487 245.355 103.671C244.738 103.851 244.106 103.925 243.477 103.947C243.446 103.947 243.421 103.925 243.421 103.894C243.421 103.869 243.436 103.848 243.458 103.841H243.461C244.056 103.646 244.639 103.453 245.193 103.217C245.739 102.975 246.272 102.68 246.597 102.27C246.755 102.069 246.867 101.845 246.867 101.606C246.873 101.37 246.796 101.125 246.668 100.889C246.396 100.423 245.959 100.016 245.475 99.6872C244.496 99.0259 243.362 98.5602 242.197 98.2404C241.614 98.0789 241.016 97.964 240.418 97.8647C239.817 97.7684 239.213 97.7219 238.605 97.6846H238.596C238.426 97.6722 238.296 97.5263 238.308 97.3555C238.314 97.1941 238.45 97.0668 238.615 97.0668Z" fill="#C16806"/>
<path d="M247.397 81.5865C248.506 80.475 250.248 80.1583 250.248 80.1583" stroke="#874600" stroke-width="1.17823" stroke-miterlimit="10" stroke-linecap="round"/>
<path d="M241.695 81.5865C240.586 80.475 238.844 80.1583 238.844 80.1583" stroke="#874600" stroke-width="1.17823" stroke-miterlimit="10" stroke-linecap="round"/>
<path d="M244.943 82.7787C245.575 82.7787 246.052 82.462 246.21 82.6204C246.368 82.7787 245.417 83.7319 244.943 83.7319C244.469 83.7319 243.201 82.7787 243.517 82.6204C243.833 82.4589 244.469 82.7787 244.943 82.7787Z" fill="#874600"/>
<path d="M244.942 83.2538V85.3153C244.942 85.3153 246.21 86.4268 246.842 86.4268" stroke="#874600" stroke-width="1.17823" stroke-miterlimit="10" stroke-linecap="round"/>
<path d="M244.942 85.3153C244.784 85.4737 243.675 86.4268 243.201 86.4268" stroke="#874600" stroke-width="1.17823" stroke-miterlimit="10" stroke-linecap="round"/>
<path d="M249.219 83.412C255.395 81.9838 262.048 84.2068 262.048 84.2068" stroke="#874600" stroke-width="1.17823" stroke-miterlimit="10" stroke-linecap="round"/>
<path d="M249.851 85.157C253.018 84.0455 261.57 86.1101 261.57 86.1101" stroke="#874600" stroke-width="1.17823" stroke-miterlimit="10" stroke-linecap="round"/>
<path d="M250.486 85.7934C253.337 85.6351 259.197 88.0165 259.197 88.0165" stroke="#874600" stroke-width="1.17823" stroke-miterlimit="10" stroke-linecap="round"/>
<path d="M238.925 85.1569C235.122 85.3152 230.214 87.6965 230.214 87.6965" stroke="#874600" stroke-width="1.17823" stroke-miterlimit="10" stroke-linecap="round"/>
<path d="M237.499 84.2069C232.271 83.7319 228.311 86.1101 228.311 86.1101" stroke="#874600" stroke-width="1.17823" stroke-miterlimit="10" stroke-linecap="round"/>
<path d="M237.499 83.2538C233.697 82.459 227.521 83.7288 227.521 83.7288" stroke="#874600" stroke-width="1.17823" stroke-miterlimit="10" stroke-linecap="round"/>
<path d="M100.248 115.233C100.229 91.947 131.186 91.6365 131.512 115.233" stroke="#A83692" stroke-width="7.85489" stroke-miterlimit="10"/>
<path d="M161.22 202.476H65.8886C60.5525 202.476 56.2266 198.141 56.2266 192.795V124.913C56.2266 119.567 60.5525 115.233 65.8886 115.233H161.22C166.556 115.233 170.882 119.567 170.882 124.913V192.795C170.882 198.141 166.556 202.476 161.22 202.476Z" fill="url(#paint2_linear)"/>
<path d="M76.9422 115.233C74.1998 127.652 63.6639 132.405 56.2268 132.824C56.2268 132.945 55.2166 127.661 56.2268 123.305C56.9891 120.017 59.8431 117.362 59.8431 117.362L63.0441 115.543L76.9422 115.233Z" fill="#C13AC1"/>
<path d="M150.12 115.233C152.862 127.651 163.398 132.405 170.835 132.824C170.835 132.951 171.607 127.142 170.572 122.684C169.856 119.598 167.219 117.362 167.219 117.362L164.064 115.543L150.12 115.233Z" fill="#C13AC1"/>
<path d="M150.12 202.681C152.862 190.262 163.398 185.508 170.835 185.089C170.835 184.977 171.83 189.389 170.881 193.469C170.026 197.157 168.402 199.368 168.402 199.368L164.064 202.473L150.12 202.681Z" fill="#C13AC1"/>
<path d="M76.9422 202.681C74.1998 190.262 63.6639 185.508 56.2268 185.089C56.2268 184.981 55.3034 190.106 56.2268 194.09C57.1069 197.887 60.875 201.231 60.875 201.231L65.833 202.473L76.9422 202.681Z" fill="#C13AC1"/>
<path d="M128.488 156.169L112.165 168.515L117.206 175.205L133.529 162.859L128.488 156.169Z" fill="#FCBC5E"/>
<path d="M117.211 175.204L112.045 168.606L111.949 168.482L112.076 168.389L128.491 156.165L112.262 168.637L112.293 168.42L117.211 175.204Z" fill="#D68236"/>
<path d="M91.0352 147.881L77.3491 139.964L69.4472 153.676L83.1333 161.593L91.0352 147.881Z" fill="#FCBC5E"/>
<path d="M85.4422 157.594L83.27 161.673L83.1956 161.813L83.0561 161.732L73.4282 155.982L83.2111 161.462L83.0004 161.518L85.4422 157.594Z" fill="#D68236"/>
<path d="M71.1191 150.782L77.1897 139.875L77.2795 139.707L77.4438 139.807L88.5033 146.42L77.2578 140.129L77.5119 140.061L71.1191 150.782Z" fill="#D68236"/>
<path d="M148.373 133.792L134.047 124.542L128.004 133.938L142.33 143.188L148.373 133.792Z" fill="#FCBC5E"/>
<path d="M136.076 139.145L127.92 134.063L127.787 133.982L127.874 133.848L134.047 124.537L128.134 134.019L128.088 133.802L136.076 139.145Z" fill="#D68236"/>
<path d="M95.5814 115.233H86.9048V202.476H95.5814V115.233Z" fill="#A83692"/>
<path d="M95.5814 115.233H86.9048V202.476H95.5814V115.233Z" stroke="#77295D" stroke-width="0.785489" stroke-miterlimit="10"/>
<path d="M148.261 115.233H139.584V202.476H148.261V115.233Z" fill="#A83692"/>
<path d="M148.261 115.233H139.584V202.476H148.261V115.233Z" stroke="#77295D" stroke-width="0.785489" stroke-miterlimit="10"/>
<path d="M161.22 202.476H65.8886C60.5525 202.476 56.2266 198.141 56.2266 192.795V124.913C56.2266 119.567 60.5525 115.233 65.8886 115.233H161.22C166.556 115.233 170.882 119.567 170.882 124.913V192.795C170.882 198.141 166.556 202.476 161.22 202.476Z" stroke="#A83692" stroke-width="1.57098" stroke-miterlimit="10" stroke-linecap="round"/>
<path d="M163.887 260.69H42.4585C38.5106 260.69 35.3096 257.482 35.3096 253.527V209.173C35.3096 205.217 38.5106 202.01 42.4585 202.01H163.884C167.832 202.01 171.033 205.217 171.033 209.173V253.524C171.036 257.482 167.835 260.69 163.887 260.69Z" fill="url(#paint3_linear)" stroke="#9337AA" stroke-width="1.57098" stroke-miterlimit="10"/>
<path d="M171.036 228.4H35.3096V233.368H171.036V228.4Z" fill="#9337AA"/>
<path d="M71.584 233.368L171.036 233.213V233.523L71.584 233.368Z" fill="#6C297C"/>
<path d="M128.902 228.4L35.3096 228.555V228.245L128.902 228.4Z" fill="#6C297C"/>
<path d="M60.255 240.664H55.6068C54.5811 240.664 53.7476 239.829 53.7476 238.801V223.278C53.7476 222.25 54.5811 221.415 55.6068 221.415H60.255C61.2807 221.415 62.1143 222.25 62.1143 223.278V238.801C62.1143 239.829 61.2807 240.664 60.255 240.664Z" fill="#FFD488"/>
<path d="M153.219 240.664H148.571C147.545 240.664 146.711 239.829 146.711 238.801V223.278C146.711 222.25 147.545 221.415 148.571 221.415H153.219C154.245 221.415 155.078 222.25 155.078 223.278V238.801C155.078 239.829 154.245 240.664 153.219 240.664Z" fill="#FFD488"/>
<path d="M153.426 240.664H148.366C147.451 240.664 146.714 239.922 146.714 239.009V227.109C146.714 226.193 147.454 225.454 148.366 225.454H153.426C154.34 225.454 155.077 226.196 155.077 227.109V239.009C155.077 239.922 154.337 240.664 153.426 240.664Z" fill="#FCBC5E"/>
<path d="M60.4626 240.664H55.3992C54.4851 240.664 53.7476 239.922 53.7476 239.009V227.109C53.7476 226.193 54.4882 225.454 55.3992 225.454H60.4595C61.3737 225.454 62.1112 226.196 62.1112 227.109V239.009C62.1143 239.922 61.3737 240.664 60.4626 240.664Z" fill="#FCBC5E"/>
<path d="M60.4626 240.664C58.9318 240.751 57.3979 240.791 55.8671 240.81C55.6719 240.81 55.4953 240.819 55.2815 240.81C55.0739 240.797 54.8662 240.748 54.6741 240.664C54.2868 240.499 53.9707 240.189 53.7848 239.813C53.6918 239.624 53.6298 239.422 53.6112 239.214C53.5926 238.997 53.6019 238.817 53.6019 238.621L53.6081 237.469L53.6205 235.165L53.6515 232.862C53.6701 231.328 53.7042 229.791 53.7507 228.257C53.7972 229.791 53.8312 231.328 53.8498 232.862L53.8808 235.165L53.8932 237.469L53.8994 238.621C53.9025 238.81 53.8963 239.012 53.9118 239.18C53.9304 239.354 53.9831 239.521 54.0606 239.677C54.2186 239.987 54.482 240.242 54.8012 240.384C54.9592 240.456 55.1296 240.496 55.3032 240.509C55.4736 240.521 55.6812 240.512 55.8671 240.518C57.3979 240.537 58.9287 240.577 60.4626 240.664Z" fill="#D68236"/>
<path d="M153.426 240.664C151.895 240.751 150.361 240.791 148.831 240.81C148.635 240.81 148.459 240.819 148.245 240.81C148.037 240.797 147.83 240.748 147.637 240.664C147.25 240.499 146.934 240.189 146.748 239.813C146.655 239.624 146.593 239.422 146.575 239.214C146.556 238.997 146.565 238.817 146.565 238.621L146.572 237.469L146.584 235.165L146.615 232.862C146.633 231.328 146.668 229.791 146.714 228.257C146.761 229.791 146.795 231.328 146.813 232.862L146.844 235.165L146.857 237.469L146.863 238.621C146.866 238.81 146.86 239.012 146.875 239.18C146.894 239.354 146.946 239.521 147.024 239.677C147.182 239.987 147.445 240.242 147.765 240.384C147.923 240.456 148.093 240.496 148.267 240.509C148.437 240.521 148.645 240.512 148.831 240.518C150.361 240.537 151.892 240.577 153.426 240.664Z" fill="#D68236"/>
<path d="M101.819 248.581C85.2528 248.581 83.5671 247.134 83.0155 246.659C81.5715 245.417 81.0447 242.955 82.8885 234.532C83.8615 230.083 85.0824 225.938 85.1351 225.764C85.4759 224.613 86.6814 223.957 87.831 224.299C88.9807 224.64 89.6345 225.848 89.2936 227C87.4251 233.321 85.7765 241.018 86.0492 243.337C87.7845 243.75 93.2787 244.244 101.949 244.234C110.734 244.228 116.247 243.719 117.911 243.297C118.301 240.987 116.575 232.797 114.574 226.072C114.233 224.923 114.883 223.712 116.033 223.367C117.18 223.023 118.388 223.678 118.732 224.83C118.788 225.013 120.083 229.388 121.096 234.073C123.018 242.965 122.386 245.514 120.743 246.749C120.068 247.255 118.89 247.83 113.387 248.227C110.21 248.454 106.105 248.581 101.819 248.581Z" fill="#87359B"/>
<path d="M101.819 248.581C85.2528 248.581 83.5671 247.134 83.0155 246.659C81.5715 245.417 81.0447 242.955 82.8885 234.532C83.8615 230.083 85.0824 225.938 85.1351 225.764C85.4759 224.613 86.6814 223.957 87.831 224.299C88.9807 224.64 89.6345 225.848 89.2936 227C87.4251 233.321 85.7765 241.018 86.0492 243.337C87.7845 243.75 93.2787 244.244 101.949 244.234C110.734 244.228 116.247 243.719 117.911 243.297C118.301 240.987 116.575 232.797 114.574 226.072C114.233 224.923 114.883 223.712 116.033 223.367C117.18 223.023 118.388 223.678 118.732 224.83C118.788 225.013 120.083 229.388 121.096 234.073C123.018 242.965 122.386 245.514 120.743 246.749C120.068 247.255 118.89 247.83 113.387 248.227C110.21 248.454 106.105 248.581 101.819 248.581Z" stroke="#6C297C" stroke-width="0.785489" stroke-miterlimit="10"/>
<path d="M102.088 221.725C103.971 221.725 105.497 220.196 105.497 218.31C105.497 216.424 103.971 214.895 102.088 214.895C100.206 214.895 98.6797 216.424 98.6797 218.31C98.6797 220.196 100.206 221.725 102.088 221.725Z" fill="#9337AA"/>
<path d="M105.497 218.31C105.522 218.893 105.392 219.49 105.116 220.017C104.837 220.545 104.419 221.002 103.911 221.321C102.9 221.992 101.521 222.029 100.443 221.47C99.3491 220.924 98.6116 219.75 98.5589 218.54C98.528 217.934 98.6674 217.326 98.9432 216.795C99.2221 216.267 99.6373 215.817 100.136 215.509C99.2221 216.233 98.7015 217.397 98.8192 218.521C98.8533 219.083 99.0485 219.626 99.3553 220.092C99.5134 220.322 99.69 220.539 99.9038 220.719C100.105 220.912 100.338 221.067 100.582 221.203C101.568 221.737 102.823 221.7 103.799 221.132C104.784 220.576 105.441 219.48 105.497 218.31Z" fill="#6C297C"/>
<path d="M44.4512 242.527L44.5069 245.355L44.5317 246.771L44.5379 247.479L44.5441 247.83L44.5689 248.153C44.6402 249.019 44.9594 249.866 45.4149 250.63C45.8704 251.394 46.4499 252.089 47.1347 252.654C47.8102 253.223 48.6097 253.642 49.4309 253.8C49.5332 253.828 49.6354 253.837 49.7377 253.84L50.0476 253.862L50.7541 253.859H52.1671L57.8131 253.868L63.4591 253.878L69.1051 253.909C72.8701 253.924 76.6351 253.971 80.4001 254.008C80.5706 254.011 80.71 254.151 80.7069 254.322C80.7038 254.492 80.5675 254.626 80.4001 254.629C76.6351 254.666 72.8701 254.713 69.1051 254.728L63.4591 254.759L57.8131 254.769L52.1671 254.778H50.7541L50.0476 254.775L49.654 254.747C49.5208 254.741 49.3906 254.725 49.2636 254.691C48.2348 254.483 47.3237 253.977 46.5645 253.334C45.8022 252.689 45.1546 251.922 44.665 251.056C44.1754 250.192 43.8283 249.227 43.7632 248.205L43.7446 247.824L43.7477 247.466L43.7539 246.759L43.7787 245.343L43.8345 242.514C43.8376 242.344 43.9801 242.207 44.1506 242.21C44.3148 242.226 44.4481 242.362 44.4512 242.527Z" fill="#9337AA"/>
<path d="M101.934 254.17C105.522 254.104 109.114 254.076 112.702 254.052L123.47 254.014L134.239 254.049L139.624 254.092L145.007 254.17C145.177 254.173 145.314 254.312 145.314 254.483C145.311 254.651 145.174 254.787 145.007 254.791L139.621 254.868L134.236 254.912L123.467 254.946L112.699 254.909C109.111 254.884 105.519 254.853 101.931 254.791C101.76 254.787 101.624 254.645 101.627 254.474C101.633 254.306 101.766 254.173 101.934 254.17Z" fill="#9337AA"/>
<path d="M162.36 218.155C162.317 216.621 162.279 215.087 162.264 213.553L162.248 212.405C162.251 212.206 162.227 212.041 162.22 211.861C162.217 211.681 162.183 211.51 162.149 211.337C162.025 210.647 161.74 210.011 161.291 209.505C160.829 209.014 160.228 208.645 159.559 208.443C159.227 208.334 158.88 208.272 158.536 208.238C158.211 208.207 157.811 208.219 157.43 208.216L152.837 208.207L148.245 208.195L143.653 208.164C140.591 208.151 137.529 208.101 134.471 208.064C134.3 208.061 134.164 207.921 134.164 207.751C134.167 207.583 134.304 207.446 134.471 207.443C137.532 207.409 140.594 207.359 143.653 207.344L148.245 207.313L152.837 207.3L157.43 207.291C157.814 207.294 158.18 207.276 158.62 207.313C159.038 207.35 159.444 207.434 159.841 207.564C160.634 207.813 161.384 208.269 161.963 208.903C162.533 209.548 162.884 210.365 163.017 211.184C163.051 211.389 163.082 211.594 163.082 211.799C163.088 212.001 163.107 212.218 163.097 212.405L163.082 213.553C163.063 215.087 163.029 216.621 162.986 218.155C162.98 218.325 162.837 218.462 162.667 218.456C162.496 218.453 162.366 218.316 162.36 218.155Z" fill="#9337AA"/>
<path d="M120.217 207.909C119.495 207.971 118.769 208.002 118.047 208.027C117.325 208.055 116.6 208.061 115.878 208.064C115.156 208.061 114.431 208.058 113.709 208.03L112.625 207.987C112.262 207.962 111.903 207.946 111.54 207.909C111.37 207.893 111.242 207.738 111.261 207.567C111.277 207.415 111.394 207.3 111.54 207.288C111.903 207.251 112.262 207.238 112.625 207.21L113.709 207.167C114.431 207.139 115.156 207.136 115.878 207.133C116.6 207.136 117.325 207.142 118.047 207.17C118.769 207.195 119.495 207.226 120.217 207.288C120.387 207.304 120.514 207.453 120.499 207.626C120.486 207.779 120.365 207.897 120.217 207.909Z" fill="#9337AA"/>
<path d="M98.5249 207.909C97.6851 207.943 96.8454 207.959 96.0056 207.987L93.4863 208.03C91.8068 208.055 90.1303 208.055 88.4508 208.064C86.7712 208.052 85.0948 208.055 83.4152 208.027C81.7357 208.002 80.0593 207.971 78.3797 207.909C78.2093 207.903 78.076 207.757 78.0822 207.586C78.0884 207.422 78.2217 207.294 78.3797 207.288C80.0593 207.223 81.7357 207.195 83.4152 207.17C85.0948 207.145 86.7712 207.148 88.4508 207.133C90.1303 207.145 91.8068 207.145 93.4863 207.167L96.0056 207.21C96.8454 207.235 97.6851 207.251 98.5249 207.288C98.6953 207.294 98.8286 207.44 98.8224 207.611C98.8162 207.772 98.683 207.903 98.5249 207.909Z" fill="#9337AA"/>
</g>
<defs>
<linearGradient id="paint0_linear" x1="218.562" y1="95.701" x2="218.562" y2="279.329" gradientUnits="userSpaceOnUse">
<stop stop-color="#5B287C"/>
<stop offset="1" stop-color="#6D2C7E"/>
</linearGradient>
<linearGradient id="paint1_linear" x1="233.325" y1="110.772" x2="198.963" y2="48.3118" gradientUnits="userSpaceOnUse">
<stop stop-color="#F79422"/>
<stop offset="1" stop-color="#F9A71D"/>
</linearGradient>
<linearGradient id="paint2_linear" x1="105.253" y1="86.3733" x2="118.128" y2="198.361" gradientUnits="userSpaceOnUse">
<stop stop-color="#FF79BD"/>
<stop offset="1" stop-color="#E65AC3"/>
</linearGradient>
<linearGradient id="paint3_linear" x1="88.0353" y1="199.082" x2="145.953" y2="322.067" gradientUnits="userSpaceOnUse">
<stop stop-color="#CC33CC"/>
<stop offset="1" stop-color="#C85CCC"/>
</linearGradient>
<clipPath id="clip0">
<rect width="230.934" height="249" fill="white" transform="translate(35 12)"/>
</clipPath>
</defs>
</svg>
