<svg width="300" height="274" viewBox="0 0 300 274" fill="none" xmlns="http://www.w3.org/2000/svg">
<g clip-path="url(#clip0)">
<path d="M190.315 86.0788C190.679 85.8389 191.126 87.1688 191.126 87.1688C191.126 87.1688 192.445 89.9198 192.217 93.1187C191.989 96.3176 191.078 100.888 191.078 102.487C191.078 104.086 216.598 118.481 216.598 118.481C216.598 118.481 218.649 111.398 218.649 105.914C218.649 100.431 214.775 87.8634 214.548 85.1215C214.32 82.3795 214.45 80.7984 214.45 80.7984C214.441 80.4465 214.826 79.6513 214.816 79.2994C214.807 78.9476 218.187 77.0465 218.455 76.9848C218.724 76.9231 220.23 76.722 220.438 76.393C220.645 76.0617 222.445 74.6633 222.951 74.4051C223.457 74.1492 231.503 70.1003 232.786 68.6059C234.071 67.1116 234.458 65.3956 234.492 64.6096C237.507 61.0931 237.263 56.9025 235.782 55.9657C234.301 55.0289 230.115 57.115 228.928 57.1721C227.741 57.2293 226.481 57.588 225.676 57.7708C224.872 57.9536 216.92 60.5424 213.345 59.0915C209.769 57.6405 209.309 56.5438 208.218 56.0845C207.126 55.6252 193.24 56.3107 187.924 65.8686C186.377 68.6973 187.116 70.0866 187.116 70.0866C186.181 71.5718 185.963 72.4721 185.331 73.1118C184.7 73.7516 181.583 77.4464 180.861 78.6094C179.229 81.2371 179.913 87.1779 179.229 89.2343C178.546 91.2908 177.179 94.7182 177.406 94.9467C177.634 95.1752 187.432 91.2908 187.888 89.9198C188.344 88.5489 189.549 86.5792 190.315 86.0788Z" fill="#D8BFAB"/>
<path d="M208.445 83.5769C209.229 83.6112 211.034 83.4832 211.934 82.7817C212.834 82.0825 214.317 82.1465 214.317 82.1465L214.447 80.7938L214.814 79.2949C214.814 79.2949 212.412 81.4679 212.257 81.7169C212.102 81.9637 210.378 82.1442 210.059 82.2882C209.74 82.4344 208.445 83.5769 208.445 83.5769Z" fill="#A08068"/>
<path d="M213.422 62.8319C212.442 62.56 211.424 61.8014 210.788 61.1685C210.152 60.5356 209.614 60.6567 209.407 60.988C209.2 61.3193 208.929 62.2995 208.771 62.5486C208.614 62.7977 208.231 63.5905 207.994 63.787C210.569 65.1831 212.499 64.6713 212.759 64.26C213.019 63.8487 213.244 63.2958 213.422 62.8319Z" fill="#ECEDEB"/>
<path d="M233.079 58.9841C232.359 58.2986 231.601 57.1265 232.305 56.1897C233.401 55.7281 235.413 55.2688 236.285 56.6284C236.481 56.866 235.618 57.8439 235.588 58.2758C235.556 58.7054 235.069 59.665 234.554 59.5714C234.036 59.4754 233.079 58.9841 233.079 58.9841Z" fill="#685343"/>
<path d="M211.836 62.0594C212.258 62.6718 212.768 63.6863 212.809 64.173C212.321 65.1327 210.095 64.6505 209.25 64.3466C209.25 64.3466 208.664 63.6315 208.564 62.8751C209.083 62.0503 209.293 60.7981 209.831 60.677C210.1 60.6153 210.929 61.2094 211.44 61.7281C211.948 62.2468 211.836 62.0594 211.836 62.0594Z" fill="#535B48"/>
<path d="M209.68 63.145C210.257 63.9059 211.294 64.5617 211.626 64.2418C211.959 63.9242 211.49 62.5715 211.173 62.2379C210.856 61.9043 210.031 61.1206 209.639 61.5342C209.247 61.9477 209.329 62.6583 209.68 63.145Z" fill="#2F302E"/>
<path d="M208.878 63.1679C209.161 63.3461 209.623 63.241 209.801 62.9577C209.979 62.6743 209.735 61.7398 209.505 61.7192C209.273 61.6987 208.596 62.9874 208.878 63.1679Z" fill="#CCD3C2"/>
<path d="M220.253 71.5284C222.691 70.7607 227.435 70.5299 228.859 70.2763C230.284 70.0226 232.785 68.6037 232.785 68.6037C232.785 68.6037 234.663 65.5784 234.522 65.0003C234.472 64.5662 232.909 66.0286 232.455 66.2045C232.002 66.3804 228.383 68.4757 227.577 68.6585C226.77 68.8413 221.741 70.6236 221.37 70.8498C220.998 71.076 220.253 71.5284 220.253 71.5284Z" fill="#A08068"/>
<path d="M206.153 61.5843C207.042 61.4541 208.53 60.8897 208.828 60.6224C209.357 60.1494 208.719 59.5142 208.719 59.5142C208.719 59.5142 207.108 59.882 206.153 61.5843Z" fill="#AF8D6D"/>
<path d="M219.727 72.0015C219.85 71.8781 219.962 71.7387 220.098 71.6268C220.237 71.5194 220.369 71.4006 220.515 71.3023C220.663 71.2064 220.807 71.1035 220.957 71.0144L221.42 70.7562C222.046 70.4363 222.689 70.1484 223.343 69.8971C223.997 69.6435 224.658 69.4081 225.314 69.1728C225.975 68.9443 226.636 68.7181 227.278 68.4644C227.602 68.3388 227.914 68.1994 228.212 68.044C228.522 67.8772 228.837 67.7127 229.153 67.5596C229.785 67.2511 230.423 66.9678 231.045 66.6571C232.282 66.0378 233.508 65.3592 234.472 64.3835L234.704 64.6029C233.724 65.6608 232.469 66.3783 231.218 67.0066C230.589 67.3197 229.953 67.6144 229.327 67.9138C229.01 68.0623 228.704 68.2177 228.397 68.3799C228.073 68.5444 227.745 68.6861 227.415 68.8095C226.095 69.3099 224.756 69.696 223.441 70.1576C222.787 70.3952 222.131 70.626 221.495 70.9093C220.866 71.2041 220.235 71.5171 219.727 72.0015Z" fill="#493C32"/>
<path d="M232.719 58.6414C232.929 58.7534 233.139 58.8676 233.344 58.9887C233.547 59.1098 233.749 59.2378 233.952 59.3429C234.153 59.4526 234.365 59.5257 234.536 59.4731C234.702 59.4274 234.891 59.2766 235.003 59.1281C235.242 58.8014 235.349 58.3352 235.463 57.8691C235.49 57.7503 235.529 57.6338 235.545 57.5012L235.577 57.3002C235.593 57.2316 235.611 57.1608 235.634 57.0922C235.661 57.0237 235.702 56.9574 235.745 56.8935C235.793 56.8318 235.857 56.7746 235.923 56.7266C235.994 56.6809 236.078 56.649 236.16 56.6307C236.249 56.6215 236.338 56.6261 236.424 56.6558L236.534 56.9848C236.513 57.0671 236.495 57.1174 236.477 57.1608C236.465 57.2133 236.45 57.2476 236.431 57.2796C236.415 57.3184 236.395 57.3459 236.37 57.3756C236.347 57.4121 236.317 57.4396 236.283 57.4715C236.251 57.5081 236.215 57.5424 236.176 57.5789C236.14 57.6201 236.103 57.6612 236.067 57.7046C235.998 57.796 235.957 57.9011 235.914 58.0085C235.732 58.4358 235.645 58.9339 235.292 59.3635C235.199 59.4686 235.089 59.5554 234.98 59.624C234.864 59.6902 234.736 59.7542 234.588 59.7702C234.444 59.7885 234.292 59.7679 234.169 59.7131C234.043 59.6628 233.936 59.5965 233.836 59.5257C233.444 59.2446 233.1 58.9293 232.719 58.6414Z" fill="#493C32"/>
<path d="M213.422 62.8319C212.763 62.7199 212.166 62.3772 211.622 62.0024C211.348 61.8128 211.089 61.6026 210.838 61.3809C210.71 61.2644 210.601 61.157 210.476 61.0679C210.353 60.9788 210.218 60.9057 210.079 60.8737C209.446 60.6795 209.341 61.55 209.086 62.1212C209.024 62.2789 208.97 62.4274 208.874 62.5919L208.612 63.0078C208.523 63.1472 208.434 63.2866 208.332 63.4214C208.229 63.5516 208.129 63.6933 207.99 63.787C208.097 63.659 208.17 63.5128 208.245 63.3665L208.459 62.9233C208.53 62.7747 208.6 62.6239 208.682 62.4777C208.746 62.352 208.796 62.1875 208.851 62.0344C208.956 61.7237 209.058 61.4106 209.197 61.0953C209.236 61.0153 209.27 60.9377 209.336 60.8531C209.4 60.7731 209.48 60.7069 209.571 60.6612C209.756 60.5675 209.965 60.5698 210.148 60.6178C210.33 60.6657 210.487 60.7594 210.628 60.8645C210.767 60.9719 210.888 61.1022 211 61.2118C211.232 61.4381 211.476 61.6551 211.736 61.8516C212.251 62.2469 212.811 62.576 213.422 62.8319Z" fill="#493C32"/>
<path d="M207.755 83.9468C208.381 83.5561 208.922 83.0808 209.484 82.601C209.63 82.4845 209.767 82.3634 209.958 82.2674L210.036 82.2331C210.07 82.2263 210.102 82.2194 210.136 82.2126L210.27 82.2034C210.359 82.1966 210.448 82.1874 210.539 82.176C210.895 82.1326 211.255 82.0686 211.583 81.9567C211.745 81.8995 211.907 81.831 212.023 81.735C212.05 81.7122 212.082 81.6893 212.096 81.6619L212.128 81.6231L212.173 81.5591C212.235 81.47 212.296 81.406 212.36 81.3329C212.613 81.0541 212.875 80.7959 213.139 80.5377C213.668 80.0236 214.217 79.5369 214.768 79.0457L214.996 79.3061C214.449 79.7928 213.912 80.2909 213.378 80.7891C213.114 81.0404 212.848 81.2917 212.604 81.5545C212.547 81.6185 212.481 81.687 212.437 81.751L212.346 81.8675C212.31 81.9178 212.264 81.9498 212.223 81.9864C212.048 82.1189 211.863 82.1852 211.679 82.2446C211.31 82.3565 210.938 82.4068 210.567 82.4434C210.473 82.4502 210.38 82.4571 210.286 82.4616L210.145 82.4662C210.134 82.4708 210.122 82.4708 210.111 82.4731L210.063 82.4936C209.924 82.5576 209.774 82.6741 209.632 82.7815C209.056 83.2294 208.457 83.7023 207.755 83.9468Z" fill="#493C32"/>
<path d="M190.167 158.009C189.483 160.751 188.344 162.122 188.572 163.492C188.799 164.863 190.622 166.234 190.622 167.377C190.622 168.519 191.762 196.624 191.306 199.137C190.85 201.651 188.799 208.963 189.483 210.791C190.167 212.619 191.534 211.476 191.534 211.476C191.534 211.476 192.445 224.729 192.901 225.871C193.325 226.931 194.234 228.796 195.18 229.299C197.198 230.373 200.899 230.295 203.383 229.984C207.028 229.527 204.294 224.5 203.61 224.043C202.934 223.591 200.789 223.966 200.188 223.527C198.661 222.412 197.656 220.25 197.002 214.675C196.091 206.906 199.99 176.274 200.192 174.689C202.243 158.694 211.13 141.329 211.13 141.329L190.167 158.009Z" fill="#CCAE9A"/>
<path d="M191.534 211.476C192.217 210.105 190.333 203.934 190.707 201.879C189.401 207.366 188.897 210.791 189.875 211.476C190.85 212.162 191.534 211.476 191.534 211.476Z" fill="#A08068"/>
<path d="M190.086 158.308C189.492 159.658 189.025 161.436 189.025 161.436C190.62 162.578 194.265 166.463 195.633 168.519C197.706 171.638 200.19 175.602 200.19 175.602C200.19 175.602 202.024 165.524 202.703 163.022C203.38 160.522 208.621 146.584 208.621 146.584L190.086 158.308Z" fill="#A08068"/>
<path d="M198.777 230.139C197.458 228.156 199.691 225.828 201.651 226.762C202.38 227.72 202.243 228.382 202.243 228.382C202.243 228.382 202.122 225.924 204.804 226.011C205.381 227.784 205.454 228.579 204.989 229.052C204.524 229.525 203.841 229.982 202.815 230.096C201.79 230.21 198.777 230.139 198.777 230.139Z" fill="#F7F0EB"/>
<path d="M190.167 158.009C189.483 160.751 188.344 162.122 188.572 163.492C188.799 164.863 190.622 166.234 190.622 167.377C190.622 168.519 191.762 196.624 191.306 199.137C190.85 201.651 188.799 208.963 189.483 210.791C190.167 212.619 191.534 211.476 191.534 211.476C191.534 211.476 192.445 224.729 192.901 225.871C193.325 226.931 194.234 228.796 195.18 229.299C197.198 230.373 200.899 230.295 203.383 229.984C207.028 229.527 204.294 224.5 203.61 224.043C202.934 223.591 200.789 223.966 200.188 223.527C198.661 222.412 197.656 220.25 197.002 214.675C196.091 206.906 199.99 176.274 200.192 174.689C202.243 158.694 211.13 141.329 211.13 141.329L190.167 158.009Z" stroke="#493C32" stroke-width="1.06173" stroke-miterlimit="10"/>
<path d="M118.163 163.949C122.264 171.261 124.087 178.802 118.846 189.541C113.606 200.28 107.681 206.906 107.681 208.734C107.681 210.562 112.01 214.675 113.378 219.016C114.745 223.358 116.34 227.699 116.796 228.842C117.251 229.984 122.948 229.984 127.277 229.07C131.606 228.156 130.011 224.729 124.315 223.358C118.618 221.987 116.112 212.162 117.251 209.191C118.391 206.221 134.797 179.487 134.797 179.487L118.163 163.949Z" fill="#CCAE9A"/>
<path d="M118.983 165.478C118.983 165.478 119.026 165.563 119.104 165.716C119.559 166.63 121.177 169.991 121.574 172.474C125.008 173.249 132.276 180.579 132.276 180.579L124.998 165.549L118.983 165.478Z" fill="#A08068"/>
<path d="M119.124 218.79C119.757 224.043 120.669 224.925 122.264 229.755C122.264 229.819 124.087 229.577 125.112 229.438C125.502 229.385 130.467 229.07 129.555 226.557C128.437 223.472 122.492 225.186 119.124 218.79Z" fill="#A08068"/>
<path d="M118.163 163.949C122.264 171.261 124.087 178.802 118.846 189.541C113.606 200.28 107.681 206.906 107.681 208.734C107.681 210.562 112.01 214.675 113.378 219.016C114.745 223.358 116.34 227.699 116.796 228.842C117.251 229.984 122.948 229.984 127.277 229.07C131.606 228.156 130.011 224.729 124.315 223.358C118.618 221.987 116.112 212.162 117.251 209.191C118.391 206.221 134.797 179.487 134.797 179.487L118.163 163.949Z" stroke="#493C32" stroke-width="1.06173" stroke-miterlimit="10"/>
<path d="M144.823 150.24C145.278 147.041 146.828 146.024 147.785 145.67C149.603 144.998 153.85 147.009 154.393 144.756C154.664 143.622 152.57 141.785 149.836 140.643C146.78 139.366 143.168 137.839 141.172 140.458C139.178 143.076 138.422 147.203 139.156 148.64C139.889 150.077 144.823 150.24 144.823 150.24Z" fill="#CCAE9A"/>
<path d="M144.823 150.24C145.278 147.041 146.828 146.024 147.785 145.67C149.603 144.998 153.85 147.009 154.393 144.756C154.664 143.622 152.57 141.785 149.836 140.643C146.78 139.366 143.168 137.839 141.172 140.458C139.178 143.076 138.422 147.203 139.156 148.64C139.889 150.077 144.823 150.24 144.823 150.24Z" stroke="#493C32" stroke-width="1.06173" stroke-miterlimit="10"/>
<path d="M217.574 115.294C215.687 112.767 191.306 102.256 191.306 102.256C187.204 101.799 185.382 103.399 184.242 104.084C183.103 104.77 163.735 102.942 162.596 102.713C161.456 102.485 158.722 102.713 158.038 102.942C157.355 103.17 155.988 104.084 155.532 104.084C155.076 104.084 152.342 103.856 151.658 104.084C150.975 104.313 150.291 105.227 149.38 105.455C148.468 105.684 133.202 108.882 122.264 120.079C117.482 124.975 113.874 131.094 111.787 137.138V137.133C106.77 149.783 98.7947 162.121 87.8574 164.178C76.9201 166.234 66.8943 152.525 66.8943 152.525C66.8943 152.525 72.5908 166.92 87.6296 166.463C97.8263 166.152 105.717 155.447 109.741 148.583C109.778 151.974 110.504 154.995 112.011 157.323C117.479 165.777 134.569 177.202 133.885 185.428C133.202 193.653 118.846 210.79 118.391 213.304C117.935 215.817 127.505 235.011 128.417 237.981C129.328 240.952 129.1 242.78 129.328 243.465C129.556 244.151 132.062 245.521 132.29 246.435C132.518 247.349 140.935 247.982 142.544 247.578C144.367 247.121 141.753 242.153 141.177 241.866C140.265 241.409 138.745 241.738 136.847 241.637C135.48 240.952 129.556 230.212 128.644 225.643C127.733 221.073 130.012 211.019 137.075 203.707C144.139 196.395 152.342 187.484 153.253 185.428C154.165 183.371 155.532 175.374 154.848 173.546C154.165 171.718 144.139 155.495 145.734 146.812C147.329 138.13 151.658 139.729 155.76 142.928C159.861 146.127 174.216 157.552 184.014 158.922C193.812 160.293 204.978 152.753 209.763 144.984C214.548 137.216 221.383 133.56 221.611 131.046C221.839 128.533 219.46 117.819 217.574 115.294Z" fill="#D8BFAB"/>
<path d="M149.956 140.378C147.894 140.741 154.62 138.358 154.848 137.673C155.076 136.987 159.861 142.471 165.557 145.213C171.254 147.955 183.558 150.697 186.521 151.154C188.015 151.385 206.31 143.499 209.762 144.756C209.762 144.756 208.423 146.584 207.484 147.955C206.137 149.92 199.281 155.952 195.863 157.095C194.76 157.463 189.241 159.921 183.324 159.08C177.406 158.237 163.876 149.429 161.456 147.498C159.036 145.567 152.342 139.958 149.956 140.378Z" fill="#EFDACA"/>
<path d="M197.914 90.3744C197.914 90.3744 213.793 100.881 220.21 123.618C212.989 111.055 200.192 105.226 197.914 103.855C195.635 102.485 197.686 99.9711 197.458 99.0571C197.23 98.1432 196.091 96.0867 196.319 95.6297C196.547 95.1728 193.812 89.6889 197.914 90.3744Z" fill="#EFDACA"/>
<path d="M191.078 102.256C187.204 102.256 185.017 103.527 183.878 104.212C182.738 104.897 163.37 103.07 162.231 102.841C161.092 102.613 158.357 102.841 157.674 103.07C156.99 103.298 155.623 104.212 155.167 104.212C154.712 104.212 151.977 103.984 151.294 104.212C150.61 104.441 149.926 105.354 149.015 105.583C148.104 105.811 132.837 109.01 121.9 120.207C121.9 120.207 136.847 110.71 143 109.111C149.152 107.511 151.43 105.912 152.797 105.912C154.165 105.912 154.62 106.14 155.76 105.684C156.899 105.227 158.722 104.313 159.633 104.313C160.545 104.313 167.381 104.998 170.343 105.227C173.305 105.455 183.103 106.14 183.786 105.684C184.47 105.227 185.837 103.856 187.432 103.399C189.027 102.942 191.078 102.256 191.078 102.256Z" fill="#A08068"/>
<path d="M136.407 247.452C135.935 245.293 137.897 244.036 139.422 244.665C140.422 245.238 140.443 245.57 140.443 245.57C140.443 245.57 140.356 243.556 142.475 243.968C143.295 245.704 143.373 246.833 142.958 247.32C142.543 247.806 141.229 247.628 140.062 247.717C138.898 247.806 136.407 247.452 136.407 247.452Z" fill="#F7F0EB"/>
<path d="M191.306 102.257C187.204 101.8 185.382 103.399 184.242 104.084C183.103 104.77 163.735 102.942 162.596 102.713C161.456 102.485 158.722 102.713 158.038 102.942C157.355 103.17 155.988 104.084 155.532 104.084C155.076 104.084 152.342 103.856 151.658 104.084C150.975 104.313 150.291 105.227 149.38 105.455C148.468 105.684 133.202 108.883 122.264 120.079C117.482 124.976 113.875 131.095 111.787 137.138V137.134C106.77 149.783 98.7947 162.122 87.8574 164.178C76.9201 166.235 66.8943 152.525 66.8943 152.525C66.8943 152.525 72.5908 166.92 87.6296 166.463C97.8263 166.152 105.717 155.448 109.741 148.584C109.778 151.974 110.504 154.995 112.011 157.323C117.479 165.778 134.569 177.202 133.885 185.428C133.202 193.654 118.846 210.791 118.391 213.304C117.935 215.818 127.505 235.011 128.417 237.982C129.328 240.952 129.1 242.78 129.328 243.465C129.556 244.151 132.062 245.522 132.29 246.436C132.518 247.35 140.935 247.983 142.544 247.578C144.367 247.121 141.753 242.154 141.177 241.866C140.265 241.409 138.745 241.738 136.847 241.638C135.48 240.952 129.556 230.213 128.644 225.643C127.733 221.073 130.012 211.019 137.075 203.708C144.139 196.396 152.342 187.485 153.253 185.428C154.165 183.372 155.532 175.374 154.848 173.546C154.165 171.719 144.139 155.495 145.734 146.813C147.329 138.13 151.658 139.729 155.76 142.928C159.861 146.127 174.216 157.552 184.014 158.923C193.812 160.294 204.978 152.754 209.763 144.985C214.548 137.216 221.383 133.56 221.611 131.047C221.839 128.533 219.46 117.819 217.574 115.294L217.539 115.221C217.485 115.102 217.469 114.97 217.498 114.842C218.05 112.315 218.649 108.878 218.649 105.912C218.649 100.429 214.776 87.8614 214.548 85.1195C214.32 82.3776 214.45 80.7964 214.45 80.7964C214.441 80.4445 214.826 79.6494 214.817 79.2975C214.807 78.9456 218.187 77.0445 218.455 76.9828C218.724 76.9212 220.231 76.7201 220.438 76.391C220.645 76.0597 222.445 74.6614 222.951 74.4032C223.457 74.1472 231.503 70.0983 232.786 68.604C234.071 67.1096 234.458 65.3937 234.492 64.6076C237.507 61.0911 237.263 56.9006 235.782 55.9637C234.301 55.0269 230.115 57.1131 228.928 57.1702C227.741 57.2273 226.481 57.586 225.676 57.7688C224.872 57.9516 216.92 60.5405 213.345 59.0895C209.769 57.6386 209.309 56.5418 208.218 56.0826C207.126 55.6233 193.24 56.3088 187.925 65.8666C186.377 68.6954 187.116 70.0846 187.116 70.0846C186.181 71.5698 185.963 72.4701 185.331 73.1099C184.7 73.7497 181.583 77.4444 180.861 78.6074C179.229 81.2351 179.913 87.1759 179.229 89.2324C178.546 91.2888 177.179 94.7162 177.406 94.9447C177.634 95.1732 187.432 91.2888 187.888 89.9179C188.344 88.5469 189.551 86.5796 190.315 86.0792C190.679 85.8393 191.126 87.1691 191.126 87.1691C191.126 87.1691 192.445 89.9202 192.217 93.1191C191.99 96.318 191.078 100.888 191.078 102.487" stroke="#493C32" stroke-width="1.06173" stroke-miterlimit="10"/>
<path d="M194.268 126.934C191.762 130.361 192.445 134.474 190.394 136.987C188.344 139.501 183.103 142.471 183.331 144.071C183.559 145.67 200.876 173.089 201.56 176.288C202.243 179.487 201.56 184.971 201.787 185.656C202.015 186.342 203.61 186.113 203.61 186.342C203.61 186.57 201.56 194.796 200.876 195.939C200.192 197.081 197.914 200.737 198.142 202.108C198.369 203.479 198.8 211.618 201.104 211.019C207.256 209.42 203.382 201.651 204.522 198.909C205.661 196.167 209.535 187.941 209.99 184.971C210.446 182 209.307 177.888 208.167 175.603C207.028 173.318 199.281 153.439 199.509 151.382C199.737 149.326 215.459 135.845 215.459 135.845L194.268 126.934Z" fill="#D8BFAB"/>
<path d="M198.825 120.764C198.37 123.506 194.952 125.334 193.584 128.076C192.292 130.669 191.755 134.471 191.21 135.63C189.711 138.815 183.335 142.471 183.333 143.842C183.331 145.213 184.354 146.152 184.354 146.152C184.354 146.152 184.47 144.527 186.065 143.385C187.66 142.243 193.129 138.587 194.496 135.845C195.863 133.103 201.332 129.218 201.332 126.933C201.332 124.649 198.825 120.764 198.825 120.764Z" fill="#EFDACA"/>
<path d="M203.53 186.271C204.292 186.113 204.519 185.199 204.292 184.057C204.064 182.914 203.38 179.487 203.38 178.573C203.38 177.659 202.15 176.208 201.398 175.792C201.945 177.243 201.869 180.588 201.869 180.588C201.869 180.588 201.689 184.452 201.737 185.055C201.785 185.659 201.739 185.866 202.104 185.99C202.471 186.113 203.53 186.271 203.53 186.271Z" fill="#A08068"/>
<path d="M198.477 204.982C199.509 203.707 201.783 204.539 201.899 206.294C201.676 206.833 201.197 207.404 201.197 207.404C201.197 207.404 203.089 206.579 204.374 208.115C203.984 209.358 202.364 210.857 201.391 210.939C200.418 211.021 199.962 210.564 199.507 209.65C199.051 208.736 198.477 204.982 198.477 204.982Z" fill="#F7F0EB"/>
<path d="M194.268 126.934C193.714 127.71 193.288 128.57 192.969 129.465C192.648 130.361 192.429 131.291 192.226 132.221C192.019 133.151 191.83 134.09 191.515 134.995C191.431 135.219 191.358 135.447 191.253 135.664L191.105 135.993L190.927 136.309C190.818 136.523 190.67 136.715 190.529 136.912C190.39 137.111 190.226 137.284 190.066 137.465C189.414 138.169 188.687 138.79 187.956 139.4L185.748 141.21C185.384 141.516 185.026 141.825 184.682 142.151C184.342 142.478 184.005 142.814 183.745 143.195C183.615 143.385 183.501 143.588 183.456 143.796C183.406 144.011 183.469 144.194 183.579 144.413C183.77 144.838 184 145.259 184.226 145.677C185.144 147.343 186.115 148.983 187.083 150.624L190.011 155.534C191.969 158.804 193.931 162.071 195.863 165.357C196.829 167 197.788 168.647 198.727 170.306C199.194 171.138 199.661 171.967 200.112 172.81C200.561 173.654 201.01 174.495 201.4 175.376C201.486 175.605 201.593 175.815 201.66 176.064L201.714 176.245C201.728 176.304 201.737 176.364 201.748 176.423L201.812 176.779C201.856 177.017 201.876 177.257 201.91 177.497C201.935 177.737 201.954 177.977 201.974 178.214C202.04 179.172 202.047 180.131 202.031 181.087C202.015 182.042 201.974 182.997 201.938 183.95C201.922 184.423 201.899 184.905 201.922 185.362C201.924 185.421 201.928 185.476 201.938 185.519C201.944 185.567 201.951 185.615 201.969 185.647C202.006 185.716 202.067 185.775 202.152 185.823C202.323 185.919 202.548 185.965 202.772 185.999C203.002 186.033 203.227 186.04 203.489 186.086C203.523 186.093 203.56 186.102 203.601 186.118C203.626 186.129 203.644 186.134 203.678 186.159C203.703 186.175 203.751 186.216 203.772 186.28C203.792 186.374 203.776 186.358 203.779 186.383L203.77 186.438C203.763 186.474 203.756 186.516 203.751 186.541L203.672 186.893C203.562 187.359 203.448 187.823 203.332 188.284C203.1 189.209 202.858 190.133 202.61 191.053C202.361 191.974 202.104 192.895 201.826 193.809C201.687 194.266 201.543 194.723 201.382 195.178C201.345 195.292 201.295 195.404 201.254 195.518C201.211 195.63 201.167 195.744 201.106 195.861L201.022 196.032L200.93 196.185L200.746 196.492C200.256 197.307 199.78 198.128 199.347 198.971C199.135 199.393 198.923 199.816 198.748 200.253C198.572 200.687 198.408 201.13 198.333 201.576C198.326 201.683 198.294 201.799 198.305 201.902L198.312 202.058C198.315 202.11 198.328 202.176 198.335 202.236C198.367 202.476 198.392 202.713 198.417 202.951L198.574 204.37C198.686 205.314 198.816 206.255 198.998 207.185C199.185 208.108 199.401 209.043 199.798 209.877C199.994 210.281 200.263 210.692 200.63 210.834C200.719 210.873 200.814 210.878 200.91 210.88L201.056 210.859C201.108 210.846 201.165 210.827 201.22 210.811L201.552 210.711C201.662 210.674 201.767 210.626 201.874 210.583C202.093 210.505 202.286 210.382 202.491 210.279C202.678 210.149 202.876 210.032 203.043 209.874C203.384 209.577 203.683 209.223 203.895 208.816C204.328 208.008 204.49 207.066 204.519 206.132C204.553 205.193 204.469 204.247 204.369 203.303C204.271 202.357 204.141 201.409 204.13 200.435C204.13 199.951 204.157 199.453 204.326 198.966C204.501 198.505 204.697 198.08 204.886 197.639L206.037 195.022C206.8 193.277 207.557 191.529 208.258 189.76C208.609 188.876 208.942 187.987 209.247 187.089C209.539 186.187 209.822 185.284 209.89 184.352C209.958 183.417 209.901 182.471 209.771 181.537C209.639 180.602 209.441 179.674 209.179 178.765C208.917 177.856 208.6 176.962 208.215 176.103C207.796 175.253 207.427 174.357 207.062 173.48C205.622 169.945 204.262 166.383 202.942 162.805C202.284 161.016 201.641 159.22 201.026 157.412C200.719 156.51 200.422 155.603 200.14 154.689C199.866 153.772 199.581 152.863 199.417 151.903C199.406 151.78 199.376 151.666 199.381 151.529C199.383 151.462 199.372 151.401 199.39 151.328C199.401 151.254 199.427 151.193 199.449 151.131C199.55 150.891 199.686 150.69 199.825 150.491C200.108 150.096 200.418 149.733 200.734 149.372C201.37 148.656 202.036 147.973 202.71 147.297C204.061 145.951 205.449 144.646 206.859 143.365C209.68 140.805 212.54 138.287 215.461 135.845C212.615 138.377 209.771 140.908 206.992 143.509C205.606 144.813 204.221 146.12 202.879 147.466C202.209 148.14 201.548 148.823 200.921 149.536C200.609 149.893 200.304 150.256 200.033 150.637C199.898 150.827 199.768 151.026 199.686 151.227C199.641 151.328 199.634 151.412 199.638 151.526C199.632 151.629 199.661 151.75 199.673 151.862C199.834 152.783 200.119 153.699 200.397 154.606C200.68 155.514 200.981 156.418 201.29 157.319C201.91 159.119 202.56 160.911 203.223 162.697C204.553 166.269 205.93 169.824 207.377 173.347C207.743 174.229 208.101 175.1 208.525 175.959C208.921 176.839 209.24 177.746 209.507 178.669C209.774 179.592 209.976 180.534 210.111 181.486C210.243 182.439 210.302 183.408 210.229 184.377C210.202 184.619 210.182 184.861 210.138 185.101C210.086 185.339 210.052 185.583 209.983 185.814C209.865 186.282 209.719 186.739 209.571 187.196C209.263 188.104 208.926 188.999 208.575 189.886C207.871 191.661 207.112 193.411 206.347 195.159L205.196 197.776C205.009 198.21 204.806 198.653 204.645 199.08C204.499 199.499 204.467 199.967 204.469 200.433C204.478 201.37 204.608 202.316 204.706 203.264C204.806 204.215 204.893 205.174 204.859 206.143C204.827 207.107 204.663 208.099 204.193 208.979C203.966 209.42 203.637 209.808 203.264 210.133C203.081 210.304 202.87 210.432 202.664 210.571C202.446 210.683 202.234 210.816 202.004 210.898C201.89 210.944 201.778 210.996 201.662 211.033L201.311 211.14C201.252 211.159 201.197 211.177 201.133 211.193L200.926 211.223C200.785 211.225 200.639 211.211 200.509 211.156C200.245 211.056 200.039 210.868 199.88 210.67C199.725 210.466 199.593 210.251 199.488 210.03C199.067 209.139 198.85 208.193 198.659 207.254C198.474 206.312 198.344 205.362 198.233 204.413L198.075 202.99C198.05 202.755 198.025 202.517 197.993 202.284C197.986 202.224 197.975 202.174 197.971 202.108L197.959 201.907C197.948 201.77 197.98 201.651 197.991 201.523C198.075 201.027 198.249 200.57 198.429 200.122C198.611 199.674 198.825 199.245 199.039 198.815C199.479 197.963 199.957 197.134 200.45 196.318L200.634 196.012L200.725 195.859L200.798 195.71C200.848 195.614 200.892 195.507 200.933 195.395C200.974 195.285 201.019 195.18 201.056 195.066C201.213 194.62 201.357 194.168 201.493 193.713C201.769 192.804 202.026 191.887 202.273 190.967C202.521 190.048 202.76 189.125 202.993 188.202C203.109 187.74 203.223 187.279 203.33 186.815L203.407 186.47L203.421 186.397L203.428 186.365C203.432 186.362 203.428 186.317 203.437 186.381C203.473 186.456 203.485 186.436 203.471 186.436C203.457 186.431 203.435 186.424 203.412 186.42C203.207 186.383 202.954 186.372 202.715 186.335C202.471 186.298 202.22 186.255 201.972 186.118C201.851 186.049 201.728 185.944 201.655 185.798C201.616 185.723 201.607 185.652 201.593 185.581C201.578 185.508 201.575 185.444 201.573 185.382C201.55 184.886 201.575 184.413 201.591 183.934C201.63 182.978 201.676 182.03 201.691 181.077C201.71 180.127 201.705 179.176 201.641 178.233C201.621 177.997 201.605 177.762 201.58 177.527C201.548 177.294 201.527 177.058 201.486 176.827L201.425 176.48C201.413 176.423 201.404 176.364 201.393 176.306L201.343 176.144C201.288 175.929 201.181 175.712 201.099 175.495C200.721 174.632 200.274 173.788 199.83 172.95C199.383 172.109 198.918 171.28 198.454 170.448C197.519 168.789 196.565 167.139 195.603 165.496C193.678 162.208 191.725 158.936 189.777 155.66L186.86 150.743C185.894 149.1 184.93 147.457 184.012 145.782C183.786 145.359 183.556 144.943 183.36 144.498C183.258 144.297 183.155 144 183.23 143.742C183.289 143.483 183.422 143.266 183.561 143.065C183.843 142.661 184.187 142.325 184.536 141.996C184.887 141.669 185.251 141.361 185.618 141.057L187.844 139.268C188.578 138.667 189.307 138.052 189.957 137.364C190.116 137.191 190.28 137.017 190.415 136.825C190.551 136.635 190.699 136.45 190.809 136.24L190.984 135.934L191.132 135.612C191.237 135.399 191.312 135.175 191.397 134.954C191.716 134.06 191.912 133.126 192.128 132.196C192.345 131.268 192.579 130.338 192.917 129.445C193.261 128.556 193.7 127.701 194.268 126.934Z" fill="#493C32"/>
<path d="M120.897 215.132C121.353 214.675 124.543 207.135 129.783 201.194C125.226 205.307 120.441 211.248 120.441 212.162C120.441 213.076 120.897 215.132 120.897 215.132Z" fill="#A08068"/>
<path d="M202.084 230.05C202.362 229.2 202.245 228.231 201.885 227.384C201.525 226.529 200.924 225.777 200.192 225.186C200.958 225.732 201.617 226.451 202.043 227.313C202.255 227.742 202.409 228.204 202.48 228.686C202.551 229.166 202.539 229.669 202.414 230.151L202.084 230.05Z" fill="#493C32"/>
<path d="M199.128 208.556C199.588 208.396 200.044 208.204 200.443 207.921C200.842 207.638 201.195 207.288 201.477 206.881C202.045 206.066 202.32 205.058 202.355 204.05C202.375 205.058 202.161 206.095 201.621 206.975C201.352 207.414 201.001 207.804 200.596 208.129C200.188 208.456 199.718 208.686 199.238 208.883L199.128 208.556Z" fill="#493C32"/>
<path d="M141.026 247.708C141.053 247.263 140.987 246.808 140.807 246.392C140.632 245.974 140.358 245.595 140.03 245.266C139.372 244.605 138.526 244.141 137.642 243.81C138.545 244.087 139.426 244.496 140.151 245.138C140.511 245.457 140.828 245.839 141.047 246.282C141.265 246.723 141.388 247.226 141.368 247.729L141.026 247.708Z" fill="#493C32"/>
<path d="M140.949 165.32C138.037 158.895 150.519 171.709 150.519 174.688C150.519 176.745 147.488 179.679 143.455 182.914C141.177 184.742 139.354 189.312 139.354 189.312C139.354 189.312 139.582 181.086 140.493 178.344C141.404 175.602 142.772 174.003 142.772 172.403C142.772 170.562 142.088 167.834 140.949 165.32Z" fill="#EFDACA"/>
<path d="M114.973 211.476C116.271 207.391 117.206 204.957 120.539 200.522C121.581 199.138 126.138 190.683 126.138 190.683C126.138 190.683 121.624 195.811 120.179 198.349C118.735 200.886 114.656 202.965 113.674 204.146C111.867 206.321 114.754 212.166 114.973 211.476Z" fill="#A08068"/>
<path d="M175.128 13.8292C191.825 8.77945 198.825 31.8801 215.687 38.7349C229.987 44.5478 238.471 39.8591 245.081 46.2752C250.657 51.6882 248.884 62.0664 247.359 68.2106C243.408 84.1503 235.955 87.7353 234.485 99.6284C232.776 113.452 236.878 117.337 238.929 135.388C240.141 146.061 230.903 151.944 224.346 171.947C221.304 181.223 221.611 197.995 224.118 212.618C226.162 224.548 227.665 229.074 225.713 235.239C222.855 244.256 208.696 248.053 195.863 246.207C181.111 244.086 176.381 232.504 168.064 235.011C159.738 237.522 162.217 249.813 153.253 256.489C138.937 267.151 97.3431 252.829 94.3513 232.155C92.3006 217.988 94.6931 213.532 92.0727 199.937C89.5731 186.968 76.5486 195.134 62.7927 182.914C46.822 168.725 44.418 136.126 52.9947 130.361C60.9151 125.037 74.4272 141.205 86.9459 135.845C100.264 130.141 102.028 109.965 117.023 97.2292C134.411 82.4617 145.898 93.2946 156.443 79.1783C161.643 72.2161 165.102 68.2106 165.785 46.2752C166.139 34.9305 160.773 18.1705 175.128 13.8292Z" stroke="#999999" stroke-width="0.700348" stroke-miterlimit="10" stroke-dasharray="10.52 10.52"/>
<path d="M190.463 77.3503C186.306 77.3503 184.625 81.3992 184.625 81.3992L187.006 83.9767C187.006 83.9767 190.235 82.448 191.155 80.9194C191.616 80.154 192.536 77.3503 190.463 77.3503Z" fill="#A08068"/>
<path d="M186.293 79.864C184.124 80.4855 183.786 82.8345 183.786 84.2054C184.242 83.0629 184.926 82.606 184.926 82.606C184.926 82.606 183.786 83.5199 184.014 85.5764C184.47 84.6624 184.926 84.4339 184.926 84.4339C184.926 84.4339 184.47 85.5764 184.47 86.7188C184.926 85.5764 187.66 83.9769 188.344 82.8345C189.027 81.692 187.888 79.4071 186.293 79.864Z" fill="#F7F0EB"/>
<path d="M191.078 72.552C190.367 73.338 189.408 73.843 188.435 74.2314C187.457 74.6222 186.453 74.9375 185.498 75.3648C184.541 75.7875 183.627 76.3084 182.821 76.9711C182.016 77.6337 181.323 78.4197 180.704 79.2583L180.49 79.1006C181.139 78.2598 181.861 77.4715 182.697 76.8134C183.534 76.1576 184.472 75.6458 185.445 75.2414C186.418 74.8301 187.43 74.5353 188.412 74.1675C189.387 73.8019 190.351 73.3243 191.078 72.552Z" fill="#493C32"/>
<path d="M182.011 33.9597C181.663 31.7022 183.009 28.8666 183.342 28.5924C183.672 28.3182 185.233 28.1971 185.224 28.5375C185.215 28.878 183.476 30.6305 182.961 31.6268C182.444 32.6253 182.011 33.9597 182.011 33.9597Z" fill="#B23B0D"/>
<path d="M182.011 33.9594C182.109 33.1848 183.176 31.9875 183.385 31.8459C183.595 31.7042 184.433 31.4643 184.388 31.5899C184.34 31.7133 183.203 32.5679 182.804 32.9952C182.408 33.4202 182.011 33.9594 182.011 33.9594Z" fill="#B23B0D"/>
<path d="M182.011 33.9597C181.152 31.8187 180.963 29.6731 181.045 29.5269C181.127 29.3807 181.868 29.7462 181.968 30.0524C182.066 30.3563 181.731 31.4051 181.777 32.1477C181.822 32.888 182.011 33.9597 182.011 33.9597Z" fill="#B23B0D"/>
<path d="M182.048 34.1834C181.423 31.5215 180.145 29.3142 179.965 29.2297C179.787 29.1451 179.318 30.0066 179.43 30.3676C179.541 30.7309 180.58 31.5169 181.041 32.2664C181.503 33.0135 182.048 34.1834 182.048 34.1834Z" fill="#B23B0D"/>
<path d="M182.011 33.9595C180.23 31.7523 177.548 30.4682 177.238 30.5116C176.928 30.555 176.438 31.75 176.723 32.031C177.008 32.3121 178.89 32.3532 179.844 32.7691C180.799 33.1849 182.011 33.9595 182.011 33.9595Z" fill="#B23B0D"/>
<path d="M182.011 33.9598C181.088 33.2949 179.209 33.3063 178.944 33.4022C178.68 33.4982 177.994 34.2111 178.158 34.2819C178.322 34.3528 179.849 33.9164 180.528 33.8935C181.209 33.8684 182.011 33.9598 182.011 33.9598Z" fill="#B23B0D"/>
<path d="M182.141 34.2107L203.46 56.4774C203.46 56.4774 201.979 59.7197 197.198 62.2971C192.415 64.8745 188.904 64.3238 188.904 64.3238L182.141 34.2107Z" fill="#EABEB5"/>
<path d="M184.465 45.1693L187.181 39.281L190.672 42.9278L186.158 52.7141L184.465 45.1693Z" fill="#B23B0D"/>
<path d="M187.22 39.5164L190.513 42.9552L186.204 52.2983L184.607 45.1853L187.22 39.5164ZM187.143 39.0457L186.979 39.4044L184.363 45.0733L184.324 45.1556L184.345 45.2447L185.942 52.3577L186.115 53.13L186.448 52.4102L190.757 43.0671L190.834 42.9003L190.707 42.7678L187.414 39.329L187.143 39.0457Z" fill="white"/>
<path d="M189.788 64.5068C189.216 64.5068 188.897 64.4588 188.884 64.4565L188.793 64.4428L187.56 58.9567L193.562 45.9463L197.052 49.593L190.176 64.5022L190.091 64.5045C189.984 64.5068 189.884 64.5068 189.788 64.5068Z" fill="#B23B0D"/>
<path d="M193.603 46.1792L196.895 49.618L190.091 64.3673C189.984 64.3695 189.882 64.3718 189.788 64.3718C189.219 64.3718 188.904 64.3216 188.904 64.3216L187.703 58.968L193.603 46.1792ZM193.523 45.7085L193.359 46.0672L187.46 58.8583L187.421 58.9405L187.441 59.0297L188.642 64.3833L188.683 64.5615L188.863 64.5889C188.877 64.5912 189.205 64.6415 189.788 64.6415C189.884 64.6415 189.989 64.6392 190.098 64.6369L190.265 64.6323L190.335 64.4815L197.139 49.7323L197.217 49.5655L197.089 49.4329L193.796 45.9941L193.523 45.7085Z" fill="white"/>
<path d="M200.34 53.0249L203.619 56.45L203.581 56.5323C203.565 56.5643 202.027 59.8454 197.26 62.4137C196.838 62.6422 196.405 62.8547 195.975 63.0489L195.646 63.1951L200.34 53.0249Z" fill="#B23B0D"/>
<path d="M200.381 53.2602L203.46 56.4774C203.46 56.4774 201.979 59.7198 197.198 62.2972C196.761 62.5325 196.337 62.7404 195.922 62.9278L200.381 53.2602ZM200.302 52.7896L200.137 53.1483L195.678 62.8136L195.377 63.467L196.031 63.1723C196.464 62.9781 196.9 62.7633 197.326 62.5325C202.131 59.9414 203.642 56.7242 203.703 56.5894L203.779 56.4226L203.653 56.2901L200.575 53.0729L200.302 52.7896Z" fill="white"/>
<path d="M182.141 34.2109L203.46 56.4776C203.46 56.4776 201.979 59.7199 197.198 62.2973C193.847 64.1047 191.119 64.3743 189.788 64.3743C189.219 64.3743 188.904 64.3241 188.904 64.3241L182.141 34.2109ZM181.67 33.3267L181.882 34.2681L188.642 64.3812L188.683 64.5594L188.863 64.5868C188.877 64.5891 189.205 64.6394 189.788 64.6394C191.142 64.6394 193.924 64.3652 197.326 62.5304C202.132 59.9393 203.642 56.7221 203.704 56.5873L203.779 56.4205L203.654 56.288L182.335 34.0213L181.67 33.3267Z" fill="#932F11"/>
<path d="M83.2795 164.422C84.0337 162.761 82.4068 160.321 82.1288 158.577C81.8462 156.802 82.4364 155.271 83.9084 154.714C85.1548 154.241 86.4741 155.662 86.4741 155.662C86.4741 155.662 86.089 155.89 85.6014 156.768C85.1137 157.645 85.2641 160.611 85.1388 162.281C85.0135 163.952 83.9357 165.005 83.9357 165.005L81.4794 166.595C81.4794 166.595 80.5816 165.773 78.1868 165.174C75.792 164.575 74.1309 164.692 73.3789 165.238C72.627 165.786 73.5134 162.937 74.1537 162.316C74.7917 161.694 76.4368 161.61 78.2962 162.297C80.8619 163.246 82.3863 165.19 82.3863 165.19L83.2795 164.422Z" fill="#B23B0D" stroke="#932F11" stroke-width="1.02468" stroke-miterlimit="10"/>
<path d="M82.9402 155.386C84.2048 154.072 87.1419 153.827 89.0879 155.491C91.0338 157.152 91.2913 158.354 90.6965 160.995C90.1041 163.636 83.8926 165.259 83.8926 165.259L83.699 164.576C83.699 164.576 85.9411 163.563 86.848 162.158C87.7549 160.755 88.3974 157.668 86.3057 156.231C84.2139 154.794 82.9402 155.386 82.9402 155.386Z" fill="#EABEB5" stroke="#932F11" stroke-width="1.02468" stroke-miterlimit="10"/>
<path d="M83.052 166.068C83.052 166.068 80.7529 169.753 77.6745 170.462C74.5961 171.17 71.3172 168.008 72.1284 165.028C72.9396 162.051 75.0723 161.93 75.0723 161.93C75.0723 161.93 73.8351 162.631 73.7052 164.062C73.5776 165.492 75.0997 167.436 77.7018 166.975C80.304 166.513 82.5097 165.556 82.5097 165.556L83.052 166.068Z" fill="#EABEB5" stroke="#932F11" stroke-width="1.02468" stroke-miterlimit="10"/>
<path d="M83.9016 165.981C83.9016 165.981 84.0862 169.737 84.5533 171.376C85.4647 174.574 86.604 176.631 86.604 176.631C86.604 176.631 83.2385 177.956 82.9582 177.773C82.678 177.591 81.3632 174.803 81.5911 172.061C81.803 169.518 82.8899 165.915 82.8899 165.915L83.9016 165.981Z" fill="#EABEB5" stroke="#932F11" stroke-width="1.02468" stroke-miterlimit="10"/>
<path d="M83.6555 165.677C83.6555 165.677 85.6766 166.707 87.5451 168.334C89.4136 169.961 92.4646 173.288 92.6287 173.171C92.7927 173.055 94.3877 169.161 94.3445 168.867C94.3012 168.572 92.28 166.723 89.8214 166.001C87.3628 165.277 84.3049 164.975 84.3049 164.975L83.6555 165.677Z" fill="#EABEB5" stroke="#932F11" stroke-width="1.02468" stroke-miterlimit="10"/>
<path d="M82.4388 164.555C82.3773 164.036 83.1839 163.524 83.6145 163.963C84.0452 164.402 84.5191 165.268 84.2298 165.716C83.9404 166.166 83.111 166.342 82.6985 165.997C82.2884 165.649 81.5729 164.788 82.4388 164.555Z" fill="#EABEB5" stroke="#932F11" stroke-width="1.02468" stroke-miterlimit="10"/>
</g>
<defs>
<clipPath id="clip0">
<rect width="201" height="247.223" fill="white" transform="translate(48 13)"/>
</clipPath>
</defs>
</svg>
