<svg width="300" height="274" viewBox="0 0 300 274" fill="none" xmlns="http://www.w3.org/2000/svg">
<g clip-path="url(#clip0)">
<path d="M92.4258 88.0591C111.215 65.7834 142.24 38.2664 175.886 54.8639C209.532 71.4615 218.708 98.5418 208.658 146.587C155.786 158.817 115.585 147.024 92.4258 88.0591Z" fill="#F2E1D1"/>
<path d="M108.484 118.162C108.37 125.845 107.497 135.017 101.379 150.741C95.2616 166.465 84.7744 190.051 85.2114 199.224C85.6484 208.396 91.3289 221.499 100.942 225.867C86.5223 229.361 83.4636 237.66 84.3375 239.844C85.2114 242.028 90.455 251.2 104.875 248.58C108.807 246.832 118.421 241.154 120.605 235.476L121.916 232.856V239.844C121.916 239.844 114.925 241.154 114.925 243.775C114.925 246.396 114.488 253.821 124.975 253.384C135.462 252.947 137.647 249.453 138.084 242.465C138.521 235.476 138.958 234.603 138.958 234.603H146.823C146.823 234.603 145.949 240.281 146.386 241.591C146.823 242.901 151.63 251.637 161.68 251.637C171.73 251.637 170.856 246.396 169.545 243.338C168.235 240.281 164.302 238.97 164.302 238.97L166.05 233.292C166.05 233.292 171.73 238.097 175.226 239.844C178.722 241.591 190.957 246.832 193.578 246.396C196.2 245.959 201.444 245.085 202.318 240.281C203.192 235.476 198.385 232.856 192.704 230.672C187.024 228.488 183.091 228.925 183.091 228.925C183.091 228.925 191.394 225.867 193.141 221.936C194.889 218.005 198.385 217.568 192.268 193.109C187.898 176.948 187.024 164.718 187.461 161.224C187.898 157.73 190.083 150.304 190.083 150.304L159.495 145.063L108.484 118.162Z" fill="#F2E1D1"/>
<path d="M92.4256 173.244C91.9886 166.242 92.8625 158.817 94.1734 153.139C95.4843 147.461 98.98 133.047 97.2322 121.254C95.4843 109.461 88.4929 99.4153 78.8797 100.726C69.2665 102.036 69.7035 113.392 69.7035 115.139C69.7035 116.886 78.4427 135.231 78.4427 135.668C78.4427 136.105 80.6276 147.024 79.7536 152.702C78.8797 158.38 78.4427 178.472 79.3167 183.714C80.1906 188.955 82.8124 197.254 84.9972 198.564C87.182 199.874 92.4256 190.702 92.4256 190.702V173.244Z" fill="#F2E1D1"/>
<path d="M190.782 64.3463C201.666 64.0406 218.708 62.7303 222.204 63.6038C225.699 64.4774 230.069 66.2245 230.069 68.8452C230.069 71.4658 230.069 77.1439 224.389 88.0634C218.708 98.9829 212.154 109.466 212.154 109.466L190.782 64.3463Z" fill="#F2E1D1"/>
<path d="M161.466 50.4961C161.029 44.8179 150.542 31.2778 145.298 28.2204C140.055 25.1629 133.5 18.1744 129.567 19.4848C125.635 20.7951 121.702 30.4042 120.828 34.3353C119.954 38.2663 115.148 61.8523 115.585 64.9098C116.022 67.9672 161.466 50.4961 161.466 50.4961Z" fill="#F2E1D1"/>
<path d="M168.239 107.933C170.861 96.5764 179.259 91.1909 183.532 89.5879C190.524 86.9672 204.507 90.4615 207.129 103.128C209.75 115.795 202.759 128.024 187.465 126.277C172.171 124.53 168.239 107.933 168.239 107.933Z" fill="#FFFCF8"/>
<path d="M146.828 100.944C156.878 92.6453 158.626 79.9787 151.197 69.4961C143.769 59.0134 126.29 61.634 120.173 72.9903C114.055 84.3465 118.425 91.7718 124.98 97.4499C131.534 103.128 146.828 100.944 146.828 100.944Z" fill="#FFFCF8"/>
<path d="M173.819 118.743C176.428 121.106 179.447 123.001 183.799 122.962C191.975 122.892 198.608 116.336 198.608 108.16C198.608 99.9831 191.979 93.3572 183.799 93.3572C177.708 93.3572 173.15 96.716 170.498 101.678C169.991 102.669 169.532 103.731 169.13 104.862C169.117 104.901 169.104 104.941 169.091 104.98C169.069 105.045 169.047 105.111 169.026 105.172C168.807 105.858 168.615 106.557 168.457 107.273C168.388 107.596 168.348 107.915 168.322 108.238C168.663 109.492 170.175 114.353 173.819 118.743Z" fill="#9CA542"/>
<path d="M146.828 100.944C150.607 97.8253 153.212 94.0865 154.597 90.0769C154.737 89.116 154.815 88.1419 154.815 87.1723C154.815 78.9958 148.187 72.3699 140.007 72.3699C131.827 72.3699 125.198 78.9958 125.198 87.1723C125.198 93.5449 129.227 98.9741 134.872 101.057C140.916 101.787 146.828 100.944 146.828 100.944Z" fill="#9CA542"/>
<path d="M152.508 120.162C155.737 120.97 164.743 120.599 165.617 118.852C166.491 117.105 158.189 116.231 155.567 114.921C153.614 113.943 147.265 106.185 145.954 107.933C144.643 109.68 150.76 119.726 152.508 120.162Z" fill="#473727" stroke="#473727" stroke-width="2.31148" stroke-miterlimit="10"/>
<path d="M166.709 50.9329C163.742 50.1904 167.583 55.7375 167.146 59.6685C166.333 66.9933 171.625 73.4314 178.07 71.8983C187.247 69.7144 192.49 71.4615 195.986 73.6454C199.481 75.8293 205.485 82.4989 208.601 88.7754C211.716 95.052 212.59 109.461 212.59 109.461C212.59 109.461 210.471 84.3946 201.701 75.5236C215.182 69.579 229.365 70.7015 229.064 76.5413C232.826 66.8186 227.889 65.3466 224.393 64.4731C220.897 63.5995 203.165 63.4772 198.267 63.9752C193.368 64.4731 190.013 63.7262 190.013 63.7262C190.013 63.7262 175.448 53.1168 166.709 50.9329Z" fill="#DDA676"/>
<path d="M147.763 50.3127C153.601 48.749 161.466 50.4961 161.466 50.4961C160.592 36.0824 133.985 18.5108 129.152 19.6552C124.324 20.7952 119.963 38.4498 119.963 38.4498C125.635 25.6041 128.257 25.1673 129.568 25.1673C130.878 25.1673 137.433 28.2248 142.677 38.2707C147.92 48.3166 147.763 50.3127 147.763 50.3127Z" fill="#684F36"/>
<path d="M125.451 136.052C126.505 142.22 136.555 155.76 129.563 158.817C122.572 161.875 109.9 156.633 105.093 162.311C100.287 167.99 103.782 176.288 98.5388 178.035C93.2953 179.783 89.7996 180.656 89.7996 180.656C94.1692 166.679 102.681 147.57 103.887 143.805C105.093 140.036 109.559 125.565 108.637 120.573C108.537 118.45 113.693 124.705 113.693 124.705L125.451 136.052Z" fill="#684F36"/>
<path d="M185.936 183.277C175.449 182.403 168.894 185.461 168.894 192.449C168.894 199.438 170.642 206.426 168.894 210.357C167.146 214.288 161.029 215.162 158.844 219.966C156.659 224.771 166.272 233.069 166.272 233.069C166.272 233.069 168.457 223.897 171.516 219.093C174.575 214.288 180.255 203.369 182.003 197.254C183.751 191.139 185.936 183.277 185.936 183.277Z" fill="#DDA676"/>
<path d="M146.177 146.67C146.168 151.833 152.285 157.948 158.403 158.385C164.52 158.822 173.26 170.178 180.688 171.051C188.116 171.925 188.553 171.925 188.553 171.925C188.553 171.925 187.5 167.557 187.373 162.534C187.242 157.511 189.864 150.523 189.864 150.523C189.864 150.523 180.111 151.785 171.005 150.938C161.898 150.09 146.177 146.67 146.177 146.67Z" fill="#DDA676"/>
<path d="M122.139 233.506C123.45 228.702 131.315 227.392 133.063 233.506C134.811 239.621 137.879 244.085 137.879 244.085C137.879 244.085 138.176 247.571 136.275 249.493C134.374 251.414 124.324 255.782 119.08 252.288C113.837 248.794 115.148 246.173 115.585 243.989C116.022 241.805 119.517 240.058 120.828 239.621C122.139 239.185 122.139 233.506 122.139 233.506Z" fill="#DDA676"/>
<path d="M139.181 192.886C132.189 197.69 127.383 199.874 128.257 205.116C129.13 210.357 131.752 209.92 133.937 213.414C134.894 214.943 139.181 221.713 139.181 221.713V192.886Z" fill="#684F36"/>
<path d="M74.9472 102.473C81.5016 101.163 88.0561 106.404 87.6191 109.461C87.1822 112.519 80.1907 117.323 81.0647 121.691C81.9386 126.059 87.6191 135.231 84.9973 139.162C82.3756 143.093 79.7669 143.665 79.7669 143.665C79.7669 143.665 79.6533 135.921 76.4285 131.645C73.2037 127.369 69.6992 119.555 69.7036 113.414C69.7036 107.277 74.9472 102.473 74.9472 102.473Z" fill="#DDA676"/>
<path d="M185.936 229.575C185.062 232.633 192.053 233.069 192.053 236.127C192.053 239.184 192.49 241.368 193.364 242.242C194.238 243.115 199.062 245.05 199.062 245.05C199.062 245.05 203.183 241.268 202.422 238.914C201.662 236.559 198.944 232.938 194.186 231.257C189.431 229.575 185.936 229.575 185.936 229.575Z" fill="#684F36"/>
<path d="M175.449 133.484C175.305 135.851 183.205 139.25 190.742 138.725C197.205 138.28 204.127 134.899 203.851 132.611C203.541 130.029 194.09 128.797 186.81 129.553C186.32 129.605 175.61 130.772 175.449 133.484Z" fill="#F7CDA9"/>
<path d="M108.156 94.1739C110.249 92.0424 117.612 95.6677 122.139 99.4153C125.879 102.508 131.049 108.47 129.567 110.771C127.876 113.397 117.284 111.628 111.652 105.093C108.628 101.59 106.386 95.9734 108.156 94.1739Z" fill="#F7CDA9"/>
<path d="M141.226 96.4017C146.004 96.4017 149.877 92.5297 149.877 87.7534C149.877 82.9772 146.004 79.1052 141.226 79.1052C136.447 79.1052 132.574 82.9772 132.574 87.7534C132.574 92.5297 136.447 96.4017 141.226 96.4017Z" fill="#382E26"/>
<path d="M182.794 116.017C187.572 116.017 191.446 112.145 191.446 107.369C191.446 102.593 187.572 98.7209 182.794 98.7209C178.016 98.7209 174.142 102.593 174.142 107.369C174.142 112.145 178.016 116.017 182.794 116.017Z" fill="#382E26"/>
<path d="M186.373 105.093C186.115 105.53 186.399 106.268 186.81 106.404C187.404 106.596 188.308 105.539 188.121 105.093C187.946 104.687 186.722 104.499 186.373 105.093Z" fill="white"/>
<path d="M181.247 100.027C180.588 100.647 181.108 103.137 182.724 103.774C183.624 104.128 184.887 103.914 185.219 103.25C185.661 102.363 184.407 100.782 183.043 100.188C182.742 100.053 181.702 99.5986 181.247 100.027Z" fill="white"/>
<path d="M145.735 85.8752C145.477 86.3119 145.761 87.0501 146.172 87.1855C146.766 87.3777 147.671 86.3207 147.483 85.8752C147.308 85.469 146.085 85.2811 145.735 85.8752Z" fill="white"/>
<path d="M140.378 81.0748C139.661 81.6252 139.932 84.1585 141.475 84.9491C142.335 85.3902 143.611 85.3029 144.009 84.6739C144.538 83.8353 143.445 82.1406 142.148 81.4112C141.864 81.2496 140.876 80.6948 140.378 81.0748Z" fill="white"/>
<path d="M157.752 116.231C157.577 116.581 158.473 117.537 159.5 117.978C161.221 118.721 163.402 118.053 163.432 117.542C163.467 116.9 160.089 116.332 159.5 116.231C158.608 116.083 157.883 115.969 157.752 116.231Z" fill="#725941"/>
<path d="M171.009 150.933C170.393 150.877 169.746 150.807 169.078 150.728C164.577 150.514 154.431 149.243 146.181 146.828C146.26 150.379 149.187 154.345 152.989 156.594C172.359 161.237 186.377 161.233 187.395 161.224C187.496 159.429 187.859 157.494 188.282 155.768C188.326 155.581 188.37 155.397 188.418 155.227C188.418 155.223 188.422 155.218 188.422 155.209C188.575 154.611 188.732 154.048 188.885 153.528C189.204 152.37 189.519 151.213 189.707 150.536C188.427 150.697 179.443 151.72 171.009 150.933Z" fill="#AF8A71"/>
<path d="M187.4 161.224C187.439 161.224 187.465 161.224 187.465 161.224C187.465 161.224 187.789 157.922 188.287 155.769C187.863 157.494 187.5 159.424 187.4 161.224Z" fill="#C4AF9D"/>
<path d="M146.181 146.823C143.384 146.002 140.806 145.054 138.739 143.967C133.408 141.163 126.644 136.38 122.017 132.737L125.447 136.052C125.814 138.201 127.278 141.25 128.729 144.434C134.344 149.269 141.335 153.593 149.664 155.76C150.791 156.052 151.896 156.327 152.989 156.59C149.187 154.34 146.264 150.379 146.181 146.823Z" fill="#C4AF9D"/>
<path d="M171.009 150.933C179.442 151.719 188.426 150.697 189.707 150.54C189.807 150.178 189.868 149.95 189.868 149.95C189.868 149.95 175.16 150.964 169.405 150.741C169.3 150.737 169.187 150.732 169.078 150.728C169.746 150.807 170.393 150.876 171.009 150.933Z" fill="#C4AF9D"/>
<path d="M188.422 155.214C188.562 154.698 188.724 154.117 188.885 153.532C188.732 154.047 188.575 154.615 188.422 155.214Z" fill="#C4AF9D"/>
<path d="M128.925 144.858C127.413 141.521 125.836 138.297 125.456 136.052L123.419 134.087L116.459 128.243C114.711 126.059 112.526 123.875 112.526 123.875C114.178 127.452 119.644 136.922 128.925 144.858Z" fill="#6D5F56"/>
<path d="M100.291 226.081C101.165 232.633 117.333 239.184 117.333 239.184C117.333 239.184 121.265 236.127 121.702 233.07C118.207 232.196 108.593 230.012 106.409 228.702C104.224 227.391 100.291 226.081 100.291 226.081Z" fill="#C4AF9D"/>
<path d="M92.4257 173.668V166.242C84.9973 171.921 80.1907 188.955 80.1907 188.955C80.1907 188.955 83.6864 198.564 84.5603 198.564C85.8712 187.645 92.4257 173.668 92.4257 173.668Z" fill="#C4AF9D"/>
<path d="M89.8039 199.875C89.8039 194.926 91.4863 188.435 93.8196 179.529C91.3115 180.281 89.8039 180.656 89.8039 180.656C90.0574 179.848 90.3239 179.023 90.5992 178.188C89.4063 181.268 88.3183 184.102 87.4968 186.278C83.8787 195.83 85.8713 206.426 87.1822 209.92C88.4931 213.415 93.2997 224.334 111.652 230.449C111.652 230.449 104.224 226.081 99.4171 221.713C94.6105 217.346 89.8039 208.61 89.8039 199.875Z" fill="#C4AF9D"/>
<path d="M185.936 229.138C182.003 233.506 172.39 238.311 172.39 238.311L165.835 233.069C165.835 233.069 172.39 232.633 176.323 231.759C180.255 230.886 184.188 228.702 184.188 228.702L185.936 229.138Z" fill="#C4AF9D"/>
<path d="M90.3239 179.023C90.1448 179.573 89.97 180.119 89.7996 180.656C89.7996 180.656 91.4163 180.25 94.0993 179.442C95.9739 172.641 98.2111 164.443 100.287 154.449C100.291 154.449 94.5188 168.461 90.3239 179.023Z" fill="#6D5F56"/>
<path d="M154.038 195.07C149.231 207.3 144.424 232.196 144.424 234.38H146.609L154.038 195.07Z" fill="#C4AF9D"/>
<path d="M205.818 82.298C211.28 78.8867 221.767 76.2661 223.952 77.1396C226.137 78.0132 227.447 80.6338 227.447 80.6338C227.447 80.6338 229.632 75.0824 227.447 73.4881C225.263 71.8939 217.397 71.0247 209.095 73.6454C200.793 76.2661 201.667 75.3925 201.667 75.3925L205.818 82.298Z" fill="#C4AF9D"/>
<path d="M122.576 34.7722C126.509 29.9677 130.878 27.347 135.685 34.7722C140.492 42.1975 142.021 51.5227 142.021 51.5227L147.92 50.4962C147.92 50.4962 141.366 33.4619 136.559 29.0941C131.752 24.7263 129.078 24.2328 126.701 26.6612C124.324 29.0897 122.576 34.7722 122.576 34.7722Z" fill="#C4AF9D"/>
<path d="M189.694 102.167C190.41 102.01 191 101.652 191.179 101.167C191.559 100.14 190.205 98.3015 188.558 98.1093C187.631 98.0001 186.338 98.3845 185.975 99.3323C187.461 99.9176 188.745 100.909 189.694 102.167Z" fill="#EDECC3"/>
<path d="M185.975 99.3323C185.962 99.3628 185.945 99.3891 185.936 99.4196C185.678 100.271 186.272 101.162 186.81 101.604C187.583 102.241 188.754 102.377 189.694 102.167C188.746 100.909 187.461 99.9176 185.975 99.3323Z" fill="white"/>
<path d="M148.576 83.2064C149.017 83.0579 149.415 82.7871 149.668 82.3853C150.389 81.2366 149.677 79.4589 148.357 78.8911C147.287 78.4324 145.836 78.7819 145.298 79.7646C145.246 79.8607 145.207 79.9655 145.172 80.066C146.57 80.7823 147.745 81.8743 148.576 83.2064Z" fill="#EDECC3"/>
<path d="M148.576 83.2064C147.75 81.8742 146.574 80.7866 145.172 80.0659C144.778 81.2889 145.727 82.8788 147.046 83.2588C147.522 83.3942 148.077 83.3767 148.576 83.2064Z" fill="white"/>
<path d="M91.7791 87.9541C92.133 87.4824 92.5 87.0107 92.8758 86.539L93.4483 85.8401L93.7366 85.4995L93.9988 85.1981C94.7023 84.3944 95.3927 83.582 96.1094 82.7914C97.5339 81.1972 98.9715 79.6248 100.457 78.083C103.411 74.9993 106.487 72.0205 109.703 69.1945C116.149 63.5732 123.179 58.524 130.94 54.7764C134.82 52.9158 138.884 51.4045 143.087 50.3868C147.287 49.3691 151.626 48.8581 155.96 48.9629C160.295 49.0634 164.612 49.7884 168.75 51.0769C172.897 52.3523 176.821 54.2436 180.566 56.3139C188.068 60.4677 195.06 65.8007 200.496 72.549C203.209 75.9122 205.538 79.5986 207.347 83.5252C209.169 87.4475 210.515 91.5707 211.45 95.7725C213.316 104.194 213.583 112.859 213.045 121.39C212.748 125.661 212.25 129.907 211.621 134.13C210.978 138.354 210.174 142.547 209.3 146.723L209.217 147.133L208.807 147.229C196.961 149.942 184.822 151.737 172.609 151.562C166.513 151.466 160.404 150.876 154.422 149.592C148.449 148.304 142.611 146.334 137.11 143.648C131.608 140.97 126.456 137.581 121.79 133.628C117.132 129.662 112.967 125.146 109.258 120.298C105.539 115.454 102.301 110.265 99.439 104.888C98.6831 103.565 98.0451 102.18 97.3547 100.822L96.3366 98.7775L95.3927 96.6985L94.4489 94.6194C94.2916 94.27 94.1343 93.938 93.977 93.5711L93.5182 92.453C92.9239 90.9548 92.3384 89.4479 91.7791 87.9541ZM93.0725 88.1682C93.6667 89.4785 94.2392 90.7714 94.7854 92.0817L95.1961 93.0645C95.3359 93.3964 95.502 93.7502 95.6549 94.0909L96.59 96.1525L97.5251 98.2141L98.5301 100.241C99.2162 101.586 99.8454 102.957 100.593 104.268C103.429 109.592 106.631 114.72 110.298 119.503C113.955 124.285 118.058 128.727 122.637 132.628C127.221 136.515 132.281 139.843 137.682 142.469C143.083 145.102 148.816 147.037 154.693 148.308C160.579 149.571 166.6 150.151 172.626 150.252C184.695 150.427 196.733 148.653 208.505 145.954L208.011 146.456C208.837 142.294 209.598 138.123 210.192 133.925C210.773 129.728 211.227 125.517 211.481 121.293C211.983 112.864 211.686 104.342 209.838 96.135C208.912 92.038 207.588 88.0371 205.813 84.2415C204.052 80.4416 201.785 76.8862 199.145 73.6409C196.506 70.3913 193.478 67.4605 190.192 64.8486C186.906 62.2323 183.362 59.9479 179.683 57.8907C175.991 55.8334 172.211 54.0033 168.221 52.7585C164.236 51.505 160.085 50.793 155.912 50.6838C151.739 50.5659 147.553 51.0463 143.481 52.0204C139.404 52.99 135.445 54.4489 131.648 56.2571C124.049 59.8955 117.114 64.8442 110.717 70.3651C107.514 73.1255 104.442 76.0432 101.48 79.0788C99.994 80.5901 98.5476 82.1406 97.1231 83.7087C96.4021 84.4861 95.7117 85.2898 95.0038 86.0804L94.5101 86.6438L94.0469 87.1592C93.7323 87.4955 93.4089 87.8275 93.0725 88.1682Z" fill="#473727"/>
<path d="M190.524 64.2546C198.499 64.7306 222.422 60.7603 228.977 66.8752C235.531 72.9901 212.433 110.138 212.433 110.138" stroke="#473727" stroke-width="2.31148" stroke-miterlimit="10"/>
<path d="M161.684 50.2778C160.81 41.1054 141.147 21.4504 130.66 19.7033C119.849 17.9038 115.641 65.3161 115.641 65.3161" stroke="#473727" stroke-width="2.31148" stroke-miterlimit="10"/>
<path d="M166.098 233.235C190.541 229.829 194.015 222.368 195.326 215.38C196.777 207.64 186.587 171.702 187.461 162.093C188.335 152.484 190.476 149.872 190.476 149.872" stroke="#473727" stroke-width="2.31148" stroke-miterlimit="10"/>
<path d="M138.945 234.533C140.509 234.576 142.113 234.598 143.765 234.598C144.822 234.598 145.862 234.589 146.884 234.576" stroke="#473727" stroke-width="2.31148" stroke-miterlimit="10"/>
<path d="M108.384 118.035C111.871 139.385 82.5939 184.373 85.2157 201.844C87.3306 215.926 95.9694 228.588 121.89 232.973" stroke="#473727" stroke-width="2.31148" stroke-miterlimit="10"/>
<path d="M101.139 225.963C89.5854 227.61 76.9135 239.403 90.0224 245.954C103.131 252.506 114.261 246.317 121.921 233.725" stroke="#473727" stroke-width="2.31148" stroke-miterlimit="10"/>
<path d="M183.533 228.92C195.138 228.444 208.877 237.656 199.263 244.644C189.65 251.633 165.617 233.725 165.617 233.725" stroke="#473727" stroke-width="2.31148" stroke-miterlimit="10"/>
<path d="M107.938 180.438C107.772 183.015 107.881 185.583 108.244 188.108C108.615 190.632 109.188 193.122 109.926 195.563C110.669 198.005 111.512 200.416 112.469 202.792C113.404 205.173 114.431 207.527 115.484 209.872C116.529 212.222 117.595 214.572 118.613 216.957C119.124 218.149 119.6 219.363 120.046 220.591C120.492 221.814 120.907 223.089 121.213 224.351C121.864 226.88 122.366 229.462 122.589 232.082C122.69 233.393 122.742 234.712 122.694 236.035C122.664 236.699 122.624 237.359 122.528 238.023C122.436 238.695 122.331 239.324 122.109 240.049L120.863 239.634C120.999 239.119 121.095 238.468 121.147 237.865C121.208 237.25 121.235 236.625 121.248 236C121.265 234.747 121.182 233.489 121.056 232.235C120.763 229.728 120.269 227.234 119.605 224.784C118.997 222.334 118.045 219.984 117.066 217.612C116.083 215.249 115.025 212.899 114.003 210.527C111.971 205.784 109.996 200.958 108.738 195.9C108.091 193.38 107.658 190.794 107.479 188.195C107.291 185.596 107.435 182.971 107.938 180.438Z" fill="#473727"/>
<path d="M139.399 189.173C139.994 193.397 140.09 197.634 140.116 201.866C140.142 206.099 140.151 210.335 140.12 214.572C140.09 218.809 140.029 223.046 139.884 227.282C139.736 231.519 139.552 235.756 139.172 240.001C138.975 242.124 138.74 244.242 138.285 246.378C138.185 246.911 138.023 247.453 137.861 247.994C137.769 248.27 137.634 248.553 137.516 248.833C137.385 249.108 137.206 249.353 137.048 249.615C136.336 250.593 135.401 251.323 134.422 251.89C132.447 253.026 130.271 253.568 128.099 253.843C125.919 254.105 123.708 254.035 121.541 253.594C120.461 253.362 119.386 253.026 118.368 252.532C117.355 252.039 116.376 251.375 115.611 250.462C114.842 249.558 114.335 248.379 114.265 247.182C114.261 246.885 114.252 246.588 114.261 246.295C114.287 246.011 114.309 245.732 114.348 245.448C114.44 244.884 114.562 244.321 114.768 243.775L114.925 243.369C114.982 243.233 115.056 243.107 115.117 242.976C115.24 242.709 115.41 242.465 115.567 242.22C115.917 241.748 116.301 241.294 116.765 240.932C117.219 240.56 117.713 240.246 118.233 240.001C118.748 239.748 119.286 239.551 119.832 239.416C120.92 239.128 122.039 239.053 123.131 239.128C124.219 239.215 125.299 239.416 126.304 239.84C124.154 239.949 122.087 240.084 120.173 240.635C119.22 240.905 118.325 241.325 117.604 241.936C116.874 242.539 116.345 243.338 116.031 244.238C115.864 244.684 115.768 245.16 115.694 245.64C115.663 245.885 115.65 246.129 115.629 246.374C115.624 246.61 115.637 246.841 115.642 247.073C115.707 247.999 116.092 248.855 116.695 249.554C117.298 250.257 118.11 250.812 118.998 251.231C119.889 251.65 120.855 251.943 121.842 252.144C123.826 252.528 125.897 252.567 127.92 252.323C129.93 252.065 131.949 251.541 133.649 250.549C134.492 250.056 135.253 249.44 135.786 248.702C135.895 248.505 136.035 248.326 136.131 248.121C136.214 247.907 136.31 247.715 136.384 247.492C136.52 247.02 136.664 246.549 136.76 246.038C137.18 244.033 137.398 241.932 137.612 239.848C138.014 235.664 138.22 231.44 138.39 227.221C138.547 223.002 138.661 218.774 138.744 214.546C138.827 210.318 138.866 206.09 138.888 201.862C138.888 197.642 138.927 193.414 139.399 189.173Z" fill="#473727"/>
<path d="M186.154 181.748C186.167 183.058 186.146 184.382 186.019 185.692C185.936 186.343 185.853 186.998 185.752 187.649C185.647 188.3 185.569 188.959 185.407 189.593C185.263 190.235 185.106 190.872 184.953 191.514L184.712 192.471C184.634 192.79 184.52 193.1 184.424 193.414L183.821 195.293L183.515 196.227L183.174 197.149C182.715 198.376 182.283 199.621 181.767 200.822C181.273 202.036 180.78 203.251 180.238 204.443L179.434 206.234L178.59 208.003C178.036 209.186 177.446 210.353 176.86 211.519C174.531 216.188 171.883 220.717 169.607 225.295L169.196 226.155L168.851 227.011L168.676 227.439L168.527 227.898L168.23 228.82L167.05 232.51C166.64 233.733 166.299 234.983 165.945 236.227C165.6 237.472 165.254 238.726 164.944 239.971L163.664 239.695C164.166 237.118 164.734 234.572 165.447 232.052L166.53 228.278L166.801 227.335L166.941 226.863L167.125 226.382L167.492 225.422L167.907 224.513C169.017 222.102 170.244 219.809 171.464 217.511C172.678 215.214 173.884 212.917 175.06 210.615C175.645 209.462 176.231 208.309 176.786 207.138L177.629 205.391L178.433 203.631C178.988 202.464 179.491 201.276 179.993 200.088C180.517 198.909 180.959 197.699 181.431 196.502C183.218 191.667 184.721 186.802 186.154 181.748Z" fill="#473727"/>
<path d="M155.567 188.3C155.418 190.453 155.095 192.576 154.758 194.694C154.422 196.813 154.02 198.914 153.6 201.014C152.748 205.212 151.883 209.401 151.066 213.602C150.24 217.8 149.462 222.006 148.728 226.212C148.366 228.317 148.02 230.423 147.723 232.532C147.43 234.638 147.16 236.756 147.05 238.839C147.024 239.359 147.011 239.879 147.024 240.381C147.037 240.875 147.081 241.39 147.181 241.74C147.474 242.631 147.968 243.513 148.567 244.312C149.773 245.915 151.368 247.265 153.12 248.326C156.633 250.445 160.858 251.458 164.922 250.908C165.932 250.768 166.932 250.549 167.815 250.152C168.697 249.763 169.484 249.204 169.925 248.44C170.38 247.689 170.498 246.754 170.332 245.819C170.17 244.889 169.764 243.963 169.204 243.168C168.925 242.77 168.601 242.404 168.256 242.115C167.863 241.801 167.448 241.504 167.015 241.233C166.15 240.691 165.224 240.242 164.271 239.883C162.366 239.171 160.303 238.87 158.184 239.407C159.084 238.791 160.19 238.446 161.308 238.355C162.431 238.272 163.576 238.407 164.651 238.73C165.731 239.049 166.753 239.525 167.706 240.111C168.186 240.403 168.645 240.722 169.091 241.071C169.571 241.465 169.965 241.906 170.31 242.377C170.987 243.325 171.485 244.4 171.708 245.575C171.931 246.736 171.813 248.069 171.162 249.169C170.524 250.279 169.471 251.017 168.413 251.497C167.347 251.987 166.229 252.235 165.123 252.406C160.679 253.07 156.091 251.987 152.272 249.711C150.362 248.567 148.61 247.116 147.229 245.299C146.543 244.387 145.958 243.386 145.573 242.246C145.377 241.561 145.355 240.997 145.337 240.425C145.324 239.857 145.342 239.302 145.372 238.756C145.495 236.568 145.783 234.432 146.089 232.301C146.404 230.169 146.758 228.051 147.129 225.937C147.872 221.709 148.733 217.507 149.598 213.31C151.394 204.924 153.037 196.52 155.567 188.3Z" fill="#473727"/>
<path d="M85.0495 199.285C71.2327 179.569 85.6525 148.557 76.9133 132.397C68.174 116.236 67.737 109.247 73.4176 103.569C79.0981 97.8911 93.9549 100.512 97.0136 119.293C100.072 138.075 93.1421 151.628 92.644 162.098C92.207 171.27 92.207 173.454 92.207 173.454" stroke="#473727" stroke-width="2.31148" stroke-miterlimit="10"/>
<path d="M168.239 107.932C168.606 105.32 169.427 102.757 170.625 100.354C170.939 99.7646 171.276 99.1837 171.608 98.5985C171.984 98.0437 172.333 97.4628 172.735 96.9212C173.15 96.3883 173.544 95.838 174.002 95.3401L174.675 94.5801L175.387 93.8594C175.855 93.3658 176.375 92.9334 176.882 92.4792C177.14 92.2608 177.415 92.0555 177.682 91.8459C177.944 91.6318 178.219 91.4265 178.499 91.2344C179.6 90.4351 180.784 89.7406 182.029 89.1466C182.654 88.8539 183.301 88.5919 183.991 88.3735C184.677 88.1725 185.368 88.0109 186.063 87.9192C187.452 87.7183 188.846 87.6965 190.222 87.8188C192.975 88.059 195.667 88.8321 198.114 90.1031C200.561 91.361 202.755 93.1562 204.397 95.3707C206.058 97.572 207.12 100.175 207.57 102.831C208.007 105.473 208.042 108.177 207.544 110.767C207.6 108.133 207.286 105.53 206.604 103.04C205.953 100.564 204.765 98.2709 203.157 96.3534C199.914 92.5185 195.007 90.2997 190.052 89.8803C188.811 89.7843 187.561 89.7799 186.351 89.9546C185.744 90.0332 185.149 90.1599 184.568 90.3171C184.004 90.4831 183.423 90.7015 182.855 90.9592C181.715 91.4571 180.6 92.0686 179.547 92.7675C178.486 93.4576 177.472 94.2263 176.515 95.0649L175.803 95.6982L175.125 96.3752C174.658 96.812 174.264 97.3143 173.828 97.786C173.404 98.2665 173.024 98.7819 172.622 99.2798C172.259 99.8083 171.887 100.332 171.533 100.874C170.131 103.04 169.069 105.434 168.239 107.932Z" fill="#473727"/>
<path d="M205.822 117.092C205.167 118.83 204.17 120.464 202.899 121.866C201.632 123.272 200.072 124.43 198.359 125.273C196.637 126.102 194.771 126.635 192.879 126.854C190.987 127.085 189.073 127.05 187.194 126.814C183.415 126.347 179.762 124.779 176.869 122.337C173.959 119.905 171.787 116.729 170.314 113.327C172.176 116.533 174.492 119.477 177.398 121.673C178.844 122.774 180.43 123.674 182.104 124.351L182.729 124.604L183.375 124.81C183.808 124.941 184.232 125.093 184.673 125.185C185.114 125.281 185.547 125.404 185.993 125.482L187.33 125.683C189.13 125.88 190.952 125.923 192.744 125.731C194.531 125.526 196.301 125.115 197.944 124.382C199.595 123.674 201.12 122.665 202.449 121.425C203.786 120.188 204.904 118.708 205.822 117.092Z" fill="#473727"/>
<path d="M146.828 100.944C148.803 99.044 150.555 96.9431 151.901 94.6151C153.26 92.3001 154.199 89.7668 154.662 87.1593C155.112 84.5517 155.073 81.8786 154.553 79.3016C154.02 76.729 153.063 74.2393 151.722 71.9637L150.638 70.304C150.275 69.7536 149.886 69.2513 149.463 68.7665C148.615 67.8012 147.636 66.9451 146.557 66.2463C145.473 65.5518 144.306 64.9709 143.078 64.5472C141.851 64.1192 140.562 63.8571 139.259 63.7042C134.02 63.1495 128.528 64.7001 124.158 67.9978C126.067 66.0235 128.475 64.5123 131.088 63.5164C132.399 63.0272 133.758 62.6603 135.152 62.4332C136.546 62.2192 137.966 62.1406 139.386 62.2279C142.218 62.407 145.062 63.2282 147.514 64.7744C148.737 65.5475 149.847 66.4996 150.817 67.5741C151.293 68.1113 151.761 68.6835 152.145 69.2775L153.286 71.064C154.689 73.5187 155.733 76.2005 156.205 79.0002C156.371 79.6903 156.388 80.4067 156.467 81.1099C156.563 81.8131 156.524 82.525 156.528 83.2326C156.554 83.9402 156.445 84.6434 156.371 85.3466C156.318 86.0542 156.152 86.7399 156.004 87.4301C155.392 90.1861 154.199 92.7806 152.617 95.0693C151.018 97.3537 149.039 99.3323 146.828 100.944Z" fill="#473727"/>
<path d="M120.173 72.99L119.613 74.2479C119.434 74.6672 119.216 75.0734 119.076 75.5102L118.608 76.7987L118.49 77.1219L118.403 77.4539L118.228 78.1134C117.962 78.987 117.831 79.8867 117.669 80.7778C117.595 81.6775 117.485 82.5816 117.555 83.4814C117.621 85.2809 118.005 87.0543 118.678 88.7184C119.373 90.3738 120.348 91.9069 121.479 93.3089C122.615 94.7066 123.904 95.9951 125.268 97.1919C125.945 97.7553 126.688 98.2533 127.479 98.6682C128.274 99.0744 129.104 99.4326 129.965 99.7034C131.674 100.289 133.47 100.642 135.274 100.896C137.083 101.162 138.914 101.276 140.749 101.359C138.914 101.468 137.07 101.459 135.231 101.315C133.391 101.167 131.551 100.874 129.764 100.332C127.986 99.7951 126.238 98.9958 124.774 97.7684C123.367 96.5586 122.043 95.2482 120.881 93.7894C119.718 92.3349 118.713 90.7319 118.023 88.9805C117.337 87.2333 116.992 85.3552 117 83.4901C116.965 82.5554 117.11 81.6295 117.219 80.7079C117.424 79.8037 117.573 78.8821 117.905 78.0173C118.438 76.244 119.277 74.593 120.173 72.99Z" fill="#473727"/>
<path d="M153.041 120.512C151.66 122.093 150.734 124.119 150.437 126.242C150.297 127.299 150.306 128.387 150.533 129.422C150.756 130.453 151.202 131.444 151.923 132.2C152.281 132.575 152.705 132.89 153.177 133.117C153.644 133.349 154.173 133.484 154.71 133.576C155.777 133.759 156.891 133.637 157.891 133.183C158.897 132.733 159.77 131.995 160.526 131.169C161.287 130.339 161.947 129.418 162.554 128.465C161.995 129.448 161.383 130.409 160.662 131.287C159.936 132.161 159.089 132.964 158.058 133.519C157.031 134.074 155.807 134.292 154.636 134.165C154.055 134.104 153.465 133.995 152.897 133.759C152.333 133.532 151.809 133.196 151.359 132.781C150.454 131.947 149.873 130.828 149.545 129.675C149.213 128.518 149.126 127.308 149.209 126.12C149.371 123.735 150.21 121.42 151.534 119.385L153.041 120.512Z" fill="#473727"/>
<path d="M137.214 116.668C136.987 117.655 136.79 118.651 136.686 119.651C136.585 120.647 136.576 121.661 136.79 122.617C136.991 123.578 137.49 124.439 138.202 125.067C138.905 125.696 139.81 126.155 140.706 126.417C141.593 126.657 142.558 126.587 143.489 126.373C144.42 126.159 145.333 125.797 146.19 125.338C147.046 124.88 147.863 124.351 148.606 123.748C148.977 123.447 149.327 123.124 149.633 122.783C149.952 122.447 150.197 122.084 150.367 121.752L151.722 122.351C151.569 122.622 151.424 122.919 151.241 123.128C151.153 123.242 151.066 123.36 150.974 123.469L150.686 123.77C150.297 124.168 149.882 124.513 149.454 124.832C148.597 125.469 147.68 125.998 146.714 126.426C145.753 126.858 144.739 127.19 143.686 127.365C142.637 127.535 141.518 127.553 140.461 127.195C140.33 127.147 140.194 127.112 140.072 127.055L139.718 126.88L139.364 126.705C139.251 126.64 139.137 126.566 139.023 126.5L138.687 126.29C138.578 126.216 138.473 126.129 138.368 126.046L138.053 125.797L137.769 125.509C137.009 124.744 136.52 123.731 136.375 122.691C136.209 121.652 136.301 120.617 136.471 119.612C136.646 118.616 136.917 117.638 137.214 116.668Z" fill="#473727"/>
<path d="M201.697 75.5278C210.838 72.335 223.947 70.1511 227.006 73.2085C229.361 75.5628 228.972 76.4844 227.303 81.5641" stroke="#473727" stroke-width="2.31148" stroke-miterlimit="10"/>
<path d="M147.763 50.3127C147.26 45.4732 137.267 25.3813 130.219 25.3813C126.723 25.3813 123.551 29.8321 119.238 41.1491" stroke="#473727" stroke-width="2.31148" stroke-miterlimit="10"/>
<path d="M139.836 131.082C140.173 132.148 140.714 132.986 141.379 133.694C142.038 134.397 142.821 134.96 143.664 135.38C144.512 135.795 145.425 136.065 146.386 136.153C147.352 136.245 148.353 136.14 149.449 135.886C148.698 136.716 147.597 137.258 146.426 137.406C145.25 137.564 144.022 137.336 142.96 136.799C141.894 136.271 140.977 135.441 140.374 134.419C139.775 133.414 139.508 132.165 139.836 131.082Z" fill="#473727"/>
<path d="M186.591 73.4269C189.038 73.6322 191.472 74.1083 193.762 75.0255C196.043 75.9602 198.11 77.3492 199.827 79.0264C201.544 80.7036 202.907 82.6692 203.943 84.7439C204.987 86.8186 205.687 89.0287 206.11 91.265C206.141 91.4309 206.036 91.5882 205.87 91.6187C205.722 91.6493 205.573 91.562 205.529 91.4178L205.525 91.4091C204.813 89.3126 203.847 87.3077 202.606 85.5213C201.374 83.7349 199.892 82.1494 198.206 80.9133C196.519 79.6729 194.636 78.7775 192.661 78.2752C190.677 77.7903 188.628 77.6942 186.591 77.7991L186.521 77.8034C185.311 77.869 184.28 76.9386 184.214 75.7287C184.149 74.5189 185.079 73.4881 186.29 73.4225C186.386 73.4182 186.495 73.4182 186.591 73.4269Z" fill="#473727"/>
<path d="M160.522 66.7749C159.22 64.888 157.642 63.1758 155.803 61.7344C153.968 60.2887 151.879 59.1181 149.628 58.2795C147.378 57.4409 144.97 56.9299 142.519 56.7945C140.068 56.6591 137.56 56.8906 135.139 57.5632H135.134C134.968 57.6112 134.794 57.5108 134.745 57.3448C134.702 57.1919 134.78 57.0347 134.92 56.9735C137.28 55.9165 139.849 55.2701 142.475 55.0168C145.102 54.7678 147.789 54.9119 150.428 55.4623C153.067 56.0126 155.65 56.9735 158.053 58.3319C160.456 59.6859 162.667 61.4374 164.59 63.4859L164.594 63.4903C165.586 64.5473 165.534 66.207 164.481 67.1985C163.423 68.19 161.763 68.1376 160.771 67.085C160.684 66.9889 160.592 66.8797 160.522 66.7749Z" fill="#473727"/>
<path d="M114.484 248.016C114.584 247.344 114.772 246.68 115.056 246.055C115.34 245.43 115.725 244.836 116.21 244.33C116.69 243.823 117.285 243.413 117.94 243.168C118.595 242.928 119.316 242.893 119.95 243.12C119.316 243.343 118.77 243.574 118.281 243.889C117.787 244.19 117.372 244.587 117.031 245.042C116.69 245.496 116.424 246.011 116.214 246.549C116.004 247.09 115.851 247.654 115.738 248.23L114.484 248.016Z" fill="#473727"/>
<path d="M117.359 251.091C117.402 250.458 117.52 249.82 117.699 249.191C117.883 248.562 118.136 247.937 118.49 247.352C118.857 246.776 119.321 246.221 119.937 245.858C120.544 245.496 121.269 245.365 121.921 245.518C121.352 245.876 120.898 246.221 120.531 246.627C120.168 247.029 119.867 247.475 119.64 247.981C119.404 248.479 119.224 249.025 119.067 249.58C118.905 250.139 118.774 250.715 118.613 251.301L117.359 251.091Z" fill="#473727"/>
<path d="M170.03 248.475C170.126 247.872 170.113 247.278 169.974 246.697C169.829 246.12 169.558 245.557 169.174 245.046C168.794 244.531 168.317 244.059 167.789 243.631C167.256 243.207 166.679 242.818 166.058 242.465C166.766 242.556 167.474 242.757 168.134 243.076C168.798 243.386 169.427 243.81 169.974 244.351C170.515 244.893 170.965 245.57 171.21 246.348C171.459 247.121 171.472 247.968 171.284 248.737L170.03 248.475Z" fill="#473727"/>
<path d="M166.718 250.68C166.749 250.165 166.792 249.654 166.766 249.169C166.736 248.684 166.653 248.217 166.46 247.785C166.277 247.348 165.962 246.955 165.582 246.588C165.198 246.221 164.743 245.889 164.306 245.526C164.861 245.658 165.399 245.828 165.927 246.094C166.456 246.352 166.963 246.745 167.334 247.274C167.706 247.802 167.924 248.427 168.012 249.038C168.108 249.654 168.068 250.261 167.985 250.846L166.718 250.68Z" fill="#473727"/>
<path d="M201.684 240.276C201.623 239.752 201.291 239.123 200.845 238.564C200.404 238.001 199.862 237.477 199.281 236.996C198.704 236.511 198.07 236.088 197.415 235.686C196.759 235.284 196.082 234.921 195.331 234.594C196.152 234.498 196.987 234.659 197.769 234.926C198.555 235.192 199.285 235.59 199.984 236.048C200.675 236.516 201.326 237.057 201.885 237.721C202.156 238.062 202.423 238.42 202.615 238.844L202.759 239.163C202.798 239.276 202.829 239.398 202.864 239.516C202.947 239.743 202.938 240.023 202.96 240.276H201.684Z" fill="#473727"/>
<path d="M199.062 244.207C198.966 243.002 197.979 241.906 196.795 241.106C196.205 240.696 195.545 240.368 194.872 240.084C194.19 239.8 193.513 239.538 192.709 239.403C193.447 239.014 194.339 239.019 195.143 239.158C195.956 239.316 196.729 239.621 197.463 240.019C198.193 240.425 198.883 240.94 199.434 241.639C199.98 242.321 200.395 243.242 200.338 244.207H199.062Z" fill="#473727"/>
<path d="M85.4558 242.827C85.5694 241.587 86.1331 240.447 86.8585 239.53C87.5882 238.604 88.4752 237.852 89.4191 237.219C90.3629 236.59 91.3723 236.07 92.4166 235.668C93.4654 235.28 94.5752 235.018 95.7026 235.035C94.6976 235.537 93.7363 236 92.7968 236.503C91.853 236.996 90.9484 237.56 90.1182 238.193C89.288 238.831 88.5277 239.543 87.9203 240.342C87.3129 241.141 86.8672 242.028 86.7274 242.963L85.4558 242.827Z" fill="#473727"/>
<path d="M92.0193 247.046C92.1242 245.889 92.5699 244.775 93.2122 243.854C93.8502 242.919 94.6542 242.141 95.5325 241.495C97.2803 240.207 99.2773 239.298 101.379 238.966C100.444 239.468 99.5351 239.975 98.6568 240.517C97.7828 241.058 96.9308 241.626 96.1748 242.294C95.4232 242.967 94.7503 243.705 94.2347 244.522C93.7278 245.343 93.3826 246.238 93.2821 247.173L92.0193 247.046Z" fill="#473727"/>
</g>
<defs>
<clipPath id="clip0">
<rect width="161.803" height="235" fill="white" transform="translate(69 19)"/>
</clipPath>
</defs>
</svg>
