<svg width="300" height="274" viewBox="0 0 300 274" fill="none" xmlns="http://www.w3.org/2000/svg">
<g clip-path="url(#clip0)">
<path d="M91.5162 87.8566C104.908 73.7068 127.603 78.1491 135.622 80.6815C143.641 83.2139 156.092 89.9669 160.313 95.6648C164.534 101.363 170.021 114.869 169.81 118.456C169.599 122.044 167.699 124.365 168.121 125.209C168.543 126.054 174.452 134.073 174.874 134.706C175.296 135.339 179.306 139.138 178.462 142.092C177.618 145.047 171.709 145.469 171.498 146.524C171.287 147.579 172.342 153.066 171.92 154.121C171.498 155.176 170.021 156.864 170.021 156.864C170.021 156.864 170.865 157.498 171.287 158.131C171.709 158.764 174.241 174.802 172.131 178.179C170.021 181.555 158.625 187.675 146.385 184.932C146.596 187.675 146.596 195.484 147.018 197.594C147.44 199.704 149.55 202.448 149.55 202.448L132.457 233.892L90.4611 194.217C90.4611 194.217 96.7921 188.308 97.0031 176.491C97.2141 164.673 86.2404 143.147 84.1301 129.219C82.0197 115.291 80.3315 99.6745 91.5162 87.8566Z" fill="#F9D6C2"/>
<path d="M91.5162 87.8566C104.908 73.7068 127.603 78.1491 135.622 80.6815C143.641 83.2139 156.092 89.9669 160.313 95.6648C164.534 101.363 170.021 114.869 169.81 118.456C169.599 122.044 167.699 124.365 168.121 125.209C168.543 126.054 174.452 134.073 174.874 134.706C175.296 135.339 179.306 139.138 178.462 142.092C177.618 145.047 171.709 145.469 171.498 146.524C171.287 147.579 172.342 153.066 171.92 154.121C171.498 155.176 170.021 156.864 170.021 156.864C170.021 156.864 170.865 157.498 171.287 158.131C171.709 158.764 174.241 174.802 172.131 178.179C170.021 181.555 158.625 187.675 146.385 184.932C146.596 187.675 146.596 195.484 147.018 197.594C147.44 199.704 149.55 202.448 149.55 202.448L136.255 241.278L90.4611 194.217C90.4611 194.217 96.7921 188.308 97.0031 176.491C97.2141 164.673 86.2404 143.147 84.1301 129.219C82.0197 115.291 80.3315 99.6745 91.5162 87.8566Z" stroke="#CE8E6E" stroke-width="1.02408" stroke-miterlimit="10"/>
<path d="M131.752 137.298C136.677 143.148 139.843 146.313 144.274 147.579C148.706 148.846 154.615 157.709 156.303 157.709C157.992 157.709 157.148 151.378 159.047 149.479C160.946 147.579 164.956 149.901 166.222 149.057C167.488 148.212 169.176 145.891 171.498 146.735C171.92 151.8 172.553 152.644 166.644 153.699C160.735 154.754 160.313 157.498 162.634 159.186C164.956 160.874 171.709 160.663 171.709 160.663C171.709 160.663 176.352 162.985 177.618 164.884C178.884 166.783 179.095 168.261 179.095 168.261C179.095 168.261 178.673 167.627 177.829 166.994C180.15 171.637 178.884 175.436 178.673 175.014C178.462 172.692 177.618 171.848 177.618 171.848C177.618 171.848 179.095 177.546 175.718 180.501C172.342 183.455 165.127 189.398 146.469 186.532C127.812 183.666 125.07 182.611 123.804 180.923C122.538 179.234 114.308 162.985 116.84 157.498C119.373 152.011 117.144 153.777 118.997 145.19C120.85 136.606 131.752 137.298 131.752 137.298Z" fill="#3F3529"/>
<path opacity="0.46" d="M91.9379 131.541C94.4703 122.677 104.421 121.846 108.61 123.522C111.775 124.788 115.363 128.164 116.629 133.229C117.895 138.294 119.161 146.735 119.161 146.735L132.245 138.083C132.245 138.083 127.392 130.908 127.603 123.944C127.814 116.98 126.969 115.713 130.135 110.438C133.3 105.162 136.844 101.76 134.018 96.3912C131.19 91.0225 91.5159 107.061 91.5159 107.061V131.752L91.9379 131.541Z" fill="#3F3529"/>
<path d="M163.478 100.519C172.342 95.4538 174.452 87.6456 172.764 75.6167C172.553 78.1491 171.287 79.2043 171.287 79.2043C171.287 79.2043 171.709 75.1946 169.809 71.8181C170.02 74.1395 169.809 74.7726 169.809 74.7726C169.809 74.7726 168.121 67.3864 161.368 63.7988C162.634 65.065 163.689 68.0195 163.689 68.0195C163.689 68.0195 160.524 62.3216 153.56 60.2113C155.881 62.1106 156.092 64.4319 156.092 64.4319C156.092 64.4319 149.972 58.523 135.622 58.1009C121.272 57.6789 109.876 58.1009 98.2691 66.5423C86.6623 74.9836 73.7892 94.3987 82.6526 129.852C88.3505 151.378 90.4377 149.008 94.1413 161.798C95.8528 148.763 90.2498 123.943 93.2043 115.502C96.1588 107.061 134.356 97.1421 134.356 97.1421C132.668 92.7104 132.457 87.8566 135.2 85.9573C137.943 84.058 143.964 84.2522 150.133 87.4261C156.303 90.6001 159.047 93.9766 160.524 95.8759C162.001 97.7752 163.478 100.519 163.478 100.519Z" fill="#3F3529"/>
<path d="M106.711 123.521C100.802 117.401 96.37 118.879 93.8376 120.778C91.3052 122.677 89.4059 126.054 90.039 129.641C90.6721 133.229 93.8376 142.937 96.37 144.836C98.9024 146.735 104.6 152.644 108.399 151.8C112.197 150.956 114.308 150.956 112.62 145.258C110.931 139.56 106.711 123.521 106.711 123.521Z" fill="url(#paint0_linear)"/>
<path d="M106.711 123.521C105.63 122.462 104.478 121.47 103.186 120.692C101.903 119.911 100.466 119.354 98.9741 119.248C98.2292 119.216 97.4821 119.288 96.7604 119.468C96.0407 119.662 95.357 119.968 94.7197 120.354C93.4471 121.13 92.3561 122.205 91.5563 123.462C90.7522 124.714 90.2225 126.151 90.1107 127.632C90.0558 128.373 90.117 129.114 90.2542 129.846C90.3977 130.583 90.5834 131.313 90.7797 132.041C91.1764 133.495 91.6344 134.936 92.1366 136.359C92.6452 137.779 93.1833 139.191 93.8101 140.56C94.1246 141.244 94.4559 141.919 94.8294 142.569C95.0193 142.892 95.2093 143.215 95.4245 143.517C95.6334 143.825 95.8635 144.116 96.1167 144.376C96.2433 144.511 96.3763 144.618 96.5219 144.737C96.6738 144.853 96.8237 144.971 96.9714 145.091C97.2668 145.332 97.556 145.577 97.8451 145.821L99.5713 147.294C100.728 148.263 101.91 149.206 103.167 150.029C103.796 150.441 104.448 150.814 105.13 151.123C105.809 151.433 106.525 151.667 107.259 151.741C107.626 151.77 107.996 151.762 108.352 151.688L109.462 151.456C110.199 151.298 110.944 151.148 111.626 150.857C111.961 150.707 112.284 150.517 112.529 150.251C112.776 149.987 112.947 149.656 113.027 149.297C113.196 148.577 113.115 147.814 112.989 147.077C112.858 146.336 112.649 145.61 112.446 144.882L111.851 142.69L110.667 138.306L111.936 142.666L112.569 144.846C112.778 145.572 112.997 146.303 113.137 147.052C113.272 147.797 113.367 148.573 113.198 149.339C113.115 149.719 112.932 150.086 112.666 150.38C112.4 150.675 112.056 150.88 111.706 151.04C110.997 151.353 110.245 151.509 109.509 151.678L108.401 151.922C108.017 152.005 107.624 152.017 107.236 151.99C106.462 151.918 105.717 151.682 105.018 151.374C104.315 151.066 103.648 150.69 103.007 150.281C101.722 149.462 100.525 148.518 99.3603 147.548L97.6256 146.081C97.3365 145.836 97.0474 145.596 96.7561 145.357C96.6105 145.239 96.4628 145.123 96.313 145.011C96.1631 144.891 96.0006 144.762 95.8698 144.621C95.5933 144.34 95.3549 144.034 95.1354 143.717C94.9117 143.403 94.7154 143.076 94.5213 142.747C94.1393 142.084 93.7996 141.402 93.4788 140.712C92.8436 139.33 92.2865 137.916 91.7863 136.483C91.2862 135.05 90.8303 133.603 90.4378 132.136C90.2437 131.401 90.0579 130.665 89.9144 129.914C89.7752 129.158 89.714 128.379 89.7752 127.609C89.8997 126.067 90.4526 124.581 91.2883 123.294C92.1282 122.006 93.2614 120.913 94.5804 120.128C95.2409 119.738 95.9521 119.43 96.6992 119.235C97.4483 119.054 98.2228 118.995 98.9889 119.043C100.523 119.181 101.975 119.776 103.254 120.59C104.533 121.407 105.662 122.433 106.711 123.521Z" fill="#CE8E6E"/>
<path d="M106.289 134.284C106.208 133.385 106.168 132.484 106.105 131.585C106.037 130.686 105.966 129.789 105.837 128.901C105.706 128.015 105.522 127.132 105.225 126.293C104.929 125.457 104.516 124.653 103.898 124.028C103.283 123.41 102.477 122.988 101.648 122.692C100.812 122.401 99.9301 122.241 99.0438 122.196C98.1595 122.158 97.2626 122.243 96.4312 122.526C96.0175 122.669 95.6229 122.863 95.281 123.127C94.9434 123.395 94.669 123.733 94.4981 124.123C94.458 124.222 94.4242 124.321 94.3905 124.425L94.3124 124.748C94.2533 124.961 94.2259 125.183 94.19 125.4C94.1246 125.839 94.095 126.284 94.0824 126.731C94.0613 127.624 94.1225 128.521 94.2301 129.412C94.3377 130.302 94.4918 131.188 94.6923 132.062C94.7936 132.501 94.9075 132.927 95.0447 133.36C95.1713 133.799 95.2726 134.238 95.3802 134.677C95.5934 135.553 95.8171 136.424 96.0872 137.281C96.3636 138.134 96.657 138.99 97.1001 139.769C97.3154 140.164 97.5855 140.518 97.9105 140.824C98.2461 141.124 98.5964 141.407 98.9551 141.679C99.6748 142.221 100.428 142.719 101.222 143.148C100.418 142.738 99.6515 142.255 98.9192 141.727C98.5542 141.462 98.1954 141.185 97.8514 140.892C97.5117 140.586 97.2247 140.223 96.9989 139.828C96.5304 139.045 96.2117 138.191 95.9268 137.334C95.644 136.473 95.4098 135.599 95.184 134.725C95.07 134.289 94.9624 133.85 94.8358 133.423C94.6965 132.997 94.5699 132.554 94.4643 132.115C94.2533 131.233 94.0845 130.342 93.9663 129.443C93.8545 128.544 93.7869 127.635 93.8059 126.725C93.8186 126.269 93.846 125.813 93.9114 125.36C93.9494 125.134 93.9747 124.906 94.0359 124.682L94.1161 124.347C94.152 124.235 94.1879 124.121 94.2343 124.011C94.4221 123.572 94.7324 123.19 95.1017 122.897C95.4731 122.606 95.8973 122.397 96.3341 122.243C97.212 121.939 98.1426 121.85 99.0585 121.886C99.9744 121.924 100.886 122.091 101.751 122.403C102.61 122.718 103.446 123.157 104.104 123.828C104.754 124.499 105.183 125.343 105.472 126.206C105.759 127.075 105.921 127.974 106.033 128.871C106.253 130.674 106.227 132.482 106.289 134.284Z" fill="#CE8E6E"/>
<path d="M106.039 129.825C106.039 129.825 105.444 130.697 104.6 131.33C103.756 131.963 101.224 132.174 99.7464 133.862C98.2692 135.551 99.3244 138.505 100.168 139.771C101.013 141.037 104.389 140.404 105.233 140.404C106.077 140.404 109.454 144.414 110.509 142.937C111.564 141.459 108.188 138.927 107.555 138.294C106.922 137.661 106.288 135.339 107.766 133.44C107.766 133.44 106.394 135.234 106.183 135.234C105.972 135.234 106.383 134.858 106.284 134.202C106.183 133.546 106.039 129.825 106.039 129.825Z" fill="#EAB89D"/>
<path d="M107.766 133.44C106.827 134.645 106.601 136.365 107.225 137.756C107.312 137.922 107.401 138.093 107.529 138.23C107.654 138.37 107.806 138.49 107.947 138.617C108.234 138.868 108.523 139.117 108.802 139.376C109.357 139.898 109.901 140.444 110.321 141.09C110.526 141.413 110.703 141.767 110.75 142.16C110.792 142.548 110.642 142.977 110.296 143.2C110.119 143.306 109.906 143.329 109.711 143.302C109.515 143.274 109.329 143.211 109.15 143.137C108.796 142.979 108.468 142.776 108.154 142.557C107.525 142.118 106.941 141.624 106.345 141.153C106.046 140.923 105.744 140.678 105.417 140.524C105.377 140.505 105.335 140.495 105.297 140.484L105.24 140.476L105.172 140.478C105.079 140.482 104.984 140.489 104.891 140.497L104.324 140.55C103.564 140.621 102.798 140.678 102.026 140.624C101.642 140.594 101.253 140.535 100.882 140.398C100.698 140.328 100.517 140.235 100.358 140.107C100.196 139.982 100.074 139.803 99.9786 139.642C99.5755 138.98 99.2864 138.258 99.0944 137.509C99.0036 137.133 98.9319 136.751 98.9129 136.361C98.8833 135.972 98.9087 135.578 98.9846 135.194C99.0522 134.805 99.2189 134.436 99.4215 134.096C99.6494 133.765 99.9216 133.484 100.223 133.233C100.831 132.737 101.536 132.389 102.254 132.113C102.612 131.973 102.975 131.851 103.336 131.726C103.693 131.602 104.056 131.48 104.366 131.304C104.509 131.218 104.659 131.098 104.799 130.977C104.938 130.855 105.073 130.726 105.202 130.591C105.459 130.323 105.704 130.032 105.913 129.732L106.175 129.912C105.945 130.234 105.693 130.526 105.421 130.806C105.14 131.083 104.868 131.344 104.514 131.564C104.157 131.76 103.79 131.874 103.427 131.999C103.064 132.119 102.705 132.237 102.351 132.372C101.646 132.636 100.964 132.967 100.384 133.434C100.097 133.666 99.833 133.936 99.6262 134.234C99.4384 134.544 99.2801 134.879 99.2147 135.244C99.1408 135.605 99.1113 135.979 99.1387 136.35C99.1535 136.724 99.2189 137.093 99.3054 137.458C99.4827 138.186 99.7634 138.897 100.147 139.541C100.245 139.706 100.339 139.849 100.481 139.959C100.618 140.071 100.781 140.157 100.949 140.223C101.293 140.353 101.667 140.415 102.04 140.446C102.792 140.508 103.551 140.457 104.309 140.394L104.879 140.345C104.974 140.339 105.071 140.332 105.168 140.328H105.242L105.326 140.339C105.379 140.351 105.43 140.368 105.476 140.389C105.839 140.562 106.13 140.811 106.432 141.046C107.027 141.525 107.605 142.021 108.224 142.46C108.534 142.677 108.855 142.882 109.197 143.036C109.37 143.11 109.545 143.171 109.728 143.196C109.91 143.224 110.096 143.202 110.25 143.112C110.553 142.92 110.705 142.527 110.665 142.164C110.625 141.795 110.459 141.447 110.258 141.128C109.851 140.489 109.315 139.94 108.766 139.416C108.49 139.155 108.205 138.902 107.92 138.65C107.778 138.522 107.631 138.401 107.502 138.256C107.369 138.112 107.282 137.939 107.196 137.768C106.571 136.361 106.818 134.637 107.766 133.44Z" fill="#CE8E6E"/>
<path d="M158.203 125.421C158.203 126.265 157.527 127.495 157.232 127.512C156.937 127.529 152.112 125.442 151.675 125.22C151.239 124.999 150.34 124.365 150.34 124.365C150.34 124.365 156.099 125.288 156.517 125.248C156.937 125.21 158.203 125.421 158.203 125.421Z" fill="#FCEDE8"/>
<path d="M157.466 125.313C157.109 125.269 156.717 125.228 156.518 125.247C156.337 125.264 155.143 125.1 153.853 124.908C153.67 125.212 153.56 125.566 153.56 125.946C153.56 125.982 153.564 126.018 153.566 126.054C154.794 126.581 156.272 127.197 156.917 127.423C157.318 127.056 157.569 126.533 157.569 125.946C157.569 125.727 157.531 125.513 157.466 125.313Z" fill="#46473D"/>
<path d="M155.67 125.21C155.088 125.21 154.615 125.682 154.615 126.265C154.615 126.351 154.628 126.436 154.649 126.516C155.214 126.754 155.769 126.982 156.221 127.162C156.523 126.976 156.727 126.645 156.727 126.265C156.725 125.682 156.253 125.21 155.67 125.21Z" fill="#2D2725"/>
<path d="M148.812 123.627C148.812 123.627 155.354 122.783 156.62 122.994C157.886 123.205 158.52 123.416 158.52 124.893C158.52 125.526 156.62 125.315 155.776 125.104C154.932 124.893 151.344 124.471 147.757 124.049" fill="url(#paint1_linear)"/>
<path d="M148.812 123.627C150.621 123.353 152.438 123.125 154.261 122.96C154.717 122.922 155.175 122.89 155.635 122.876C155.865 122.865 156.095 122.867 156.327 122.871C156.445 122.884 156.566 122.888 156.68 122.907C156.794 122.926 156.905 122.945 157.019 122.968C157.247 123.015 157.475 123.066 157.699 123.156C157.92 123.245 158.138 123.382 158.292 123.583C158.446 123.781 158.528 124.019 158.57 124.254C158.596 124.372 158.602 124.488 158.613 124.606C158.617 124.665 158.617 124.722 158.619 124.781C158.619 124.84 158.627 124.891 158.613 124.975C158.577 125.138 158.442 125.235 158.328 125.286C158.21 125.338 158.089 125.364 157.971 125.383C157.735 125.416 157.5 125.419 157.268 125.41C156.804 125.389 156.346 125.328 155.892 125.229C155.451 125.117 155.002 125.053 154.55 124.984L153.193 124.785L147.757 124.049C149.578 124.224 151.397 124.414 153.214 124.631C154.122 124.745 155.033 124.838 155.932 125.043C156.374 125.136 156.825 125.195 157.275 125.212C157.498 125.218 157.724 125.216 157.939 125.182C158.047 125.165 158.153 125.14 158.243 125.1C158.334 125.058 158.399 124.999 158.412 124.931C158.418 124.904 158.414 124.838 158.412 124.783C158.41 124.728 158.41 124.671 158.406 124.617C158.395 124.507 158.387 124.395 158.364 124.29C158.321 124.076 158.254 123.87 158.127 123.705C157.874 123.369 157.416 123.249 156.981 123.158C156.872 123.135 156.76 123.116 156.648 123.095C156.536 123.078 156.428 123.072 156.319 123.059C156.093 123.055 155.867 123.049 155.639 123.059C155.185 123.07 154.73 123.104 154.274 123.129C153.362 123.188 152.453 123.27 151.543 123.357L148.812 123.627Z" fill="#CE8F74"/>
<path d="M150.158 124.296C150.682 124.661 151.256 124.952 151.832 125.233C152.408 125.511 152.997 125.773 153.587 126.022C154.771 126.527 155.968 126.97 157.183 127.419C157.335 127.493 157.473 127.599 157.576 127.736C157.627 127.805 157.669 127.883 157.692 127.97C157.713 128.057 157.709 128.16 157.658 128.242C157.557 128.411 157.376 128.464 157.217 128.498C157.053 128.527 156.89 128.536 156.723 128.523C156.394 128.485 156.086 128.375 155.786 128.259C155.487 128.141 155.193 128.006 154.902 127.867C153.746 127.301 152.638 126.64 151.555 125.95C152.657 126.613 153.777 127.246 154.934 127.801C155.223 127.938 155.518 128.067 155.816 128.181C156.114 128.293 156.422 128.396 156.732 128.428C156.884 128.441 157.046 128.428 157.198 128.398C157.346 128.369 157.502 128.31 157.568 128.189C157.635 128.071 157.58 127.917 157.489 127.801C157.399 127.683 157.272 127.588 157.135 127.523C155.93 127.105 154.723 126.632 153.541 126.132C152.363 125.619 151.171 125.11 150.11 124.361L150.158 124.296Z" fill="#CE8E6E"/>
<path d="M163.901 138.294C163.54 138.86 163.312 139.501 163.185 140.155C163.061 140.812 163.025 141.485 163.105 142.147C163.185 142.802 163.352 143.477 163.763 143.986L163.936 144.152L164.133 144.308L164.525 144.621C164.789 144.825 165.059 145.02 165.346 145.178C165.633 145.338 165.939 145.463 166.256 145.524C166.574 145.585 166.901 145.57 167.216 145.499C167.535 145.435 167.828 145.29 168.115 145.136L168.991 144.642C169.577 144.315 170.168 143.994 170.78 143.707C171.088 143.566 171.401 143.433 171.73 143.327C172.059 143.228 172.405 143.131 172.8 143.205L172.724 143.513C172.454 143.456 172.125 143.521 171.819 143.612C171.506 143.705 171.2 143.827 170.896 143.96C170.291 144.23 169.696 144.536 169.105 144.851L168.22 145.328C167.916 145.482 167.6 145.634 167.256 145.695C166.916 145.765 166.562 145.773 166.22 145.701C165.88 145.629 165.561 145.49 165.266 145.317C164.97 145.146 164.698 144.942 164.437 144.73L164.048 144.41L163.856 144.249L163.671 144.064C163.24 143.511 163.094 142.823 163.023 142.158C162.955 141.487 163.006 140.807 163.143 140.151C163.286 139.493 163.527 138.853 163.901 138.294Z" fill="#CE8E6E"/>
<path d="M170.211 144.133C171.709 143.359 172.975 142.937 173.186 143.359C173.397 143.781 172.553 144.414 171.498 144.625C170.443 144.836 168.993 144.777 168.993 144.777L170.211 144.133Z" fill="#CE8E6E"/>
<path d="M159.066 125.836C159.813 126.337 160.461 126.59 160.735 126.702C159.18 125.775 158.427 125.02 158.361 125.043C158.361 125.043 156.726 125.21 154.404 124.788C152.935 124.522 150.853 124.365 150.853 124.365C153.579 125.758 158.275 126.653 158.275 126.653C158.275 126.653 157.234 125.756 157.245 125.731C157.823 126.275 158.576 126.653 158.576 126.653C158.576 126.653 157.914 126.263 157.384 125.642C157.386 125.642 157.39 125.64 157.392 125.64C157.979 126.267 158.878 126.716 158.878 126.716C158.878 126.716 158.152 126.288 157.612 125.615C157.614 125.615 157.616 125.615 157.618 125.615C158.277 126.296 159.37 126.78 159.37 126.78C159.37 126.78 158.517 126.334 157.895 125.621C157.905 125.621 157.916 125.623 157.926 125.623C158.61 126.328 159.762 126.832 159.762 126.832C159.762 126.832 158.99 126.434 158.359 125.784C159.091 126.402 160.163 126.809 160.163 126.809C160.163 126.809 159.252 126.394 158.555 125.697C159.328 126.318 160.512 126.733 160.512 126.733C160.512 126.733 159.75 126.375 159.066 125.836Z" fill="#3F3529"/>
<path d="M163.373 155.493C164.428 157.392 165.8 159.186 168.543 159.608C171.287 160.03 171.92 159.186 171.498 158.342C171.076 157.498 169.81 156.443 169.81 156.443L164.85 155.071L163.373 155.493Z" fill="#E5A493" stroke="#AA5F4B" stroke-width="1.02408" stroke-miterlimit="10"/>
<path d="M163.373 155.493C166.116 154.438 171.485 152.819 172.019 153.364C172.553 153.91 170.337 156.759 170.337 156.759C170.337 156.759 169.282 156.126 167.805 156.126C166.574 156.126 164.639 156.126 163.373 155.493Z" fill="#E5A493" stroke="#AA5F4B" stroke-width="1.02408" stroke-miterlimit="10"/>
<path d="M164.344 120.685C167.427 118.837 166.332 115.386 165.228 114.724C164.124 114.061 157.5 110.528 155.071 110.307C152.642 110.085 142.926 114.061 140.056 117.372C147.784 115.384 153.085 114.722 155.071 115.384C157.057 116.049 163.24 121.348 164.344 120.685Z" fill="#3F3529"/>
<path d="M163.118 119.97C164.753 119.75 165.616 116.612 165.83 114.922C164.912 117.786 162.54 120.048 163.118 119.97Z" fill="#3F3529"/>
<path d="M163.434 119.864C165.07 119.645 165.933 116.507 166.146 114.816C165.228 117.68 162.856 119.942 163.434 119.864Z" fill="#3F3529"/>
<path d="M163.751 119.864C165.386 119.645 166.249 116.507 166.463 114.816C165.545 117.68 163.173 119.942 163.751 119.864Z" fill="#3F3529"/>
<path d="M163.981 120.189C165.72 119.993 166.579 116.733 166.771 114.97C165.85 117.944 163.365 120.259 163.981 120.189Z" fill="#3F3529"/>
<path d="M164.247 120.75C166.262 120.719 166.937 117.349 166.982 115.498C166.207 118.558 163.531 120.761 164.247 120.75Z" fill="#3F3529"/>
<path d="M164.152 120.74C165.899 120.818 167.258 117.731 167.725 116.021C166.351 118.813 163.534 120.713 164.152 120.74Z" fill="#3F3529"/>
<path d="M156.685 111.087C155.584 111.55 153.805 109.927 153.001 108.96C154.708 110.395 157.076 110.925 156.685 111.087Z" fill="#3F3529"/>
<path d="M157.766 111.349C156.679 111.843 154.853 110.271 154.022 109.327C155.767 110.712 158.15 111.176 157.766 111.349Z" fill="#3F3529"/>
<path d="M156.172 111.792C155.079 112.273 153.271 110.682 152.452 109.73C154.182 111.134 156.559 111.623 156.172 111.792Z" fill="#3F3529"/>
<path d="M155.824 111.858C154.59 112.624 152.876 110.843 152.131 109.739C153.786 111.292 156.261 111.588 155.824 111.858Z" fill="#3F3529"/>
<path d="M154.717 111.577C153.78 112.269 152.646 110.927 152.174 110.077C153.277 111.239 155.048 111.332 154.717 111.577Z" fill="#3F3529"/>
<path d="M154.079 111.486C153.248 112.098 152.241 110.908 151.819 110.155C152.8 111.183 154.373 111.269 154.079 111.486Z" fill="#3F3529"/>
<path d="M153.946 111.056C153.364 111.908 152.02 111.115 151.374 110.541C152.64 111.191 154.153 110.754 153.946 111.056Z" fill="#3F3529"/>
<path d="M156.685 111.511C155.584 111.974 153.805 110.351 153.001 109.384C154.708 110.817 157.076 111.347 156.685 111.511Z" fill="#3F3529"/>
<path d="M155.947 111.301C154.845 111.763 153.066 110.14 152.262 109.173C153.968 110.606 156.338 111.136 155.947 111.301Z" fill="#3F3529"/>
<path d="M154.723 111.972C154.277 110.765 151.846 110.79 150.58 110.997C152.821 111.073 154.881 112.4 154.723 111.972Z" fill="#3F3529"/>
<path d="M148.525 200.945C143.008 210.467 140.687 214.266 129.08 215.321C120.508 216.1 93.9875 200.656 93.9411 189.043C90.3556 193.69 86.1349 196.855 80.226 201.92C76.8811 204.788 69.6807 211.172 63.2209 219.273C85.141 242.38 116.138 256.789 150.5 256.789C159.275 256.789 167.83 255.848 176.073 254.064C180.201 241.362 179.201 228.932 179.201 228.932C179.201 228.932 164.715 215.768 148.525 200.945Z" fill="#38312E" stroke="#111111" stroke-width="0.68272" stroke-miterlimit="10"/>
<path d="M210.222 183.983C210.222 183.772 212.544 180.184 212.544 180.184L220.669 178.812L223.518 186.304L211.489 189.469L210.222 183.983Z" fill="#F9D6C2"/>
<path d="M212.86 180.078C218.286 178.977 222.275 178.609 225.451 178.787" stroke="#CE8E6E" stroke-width="1.02408" stroke-miterlimit="10"/>
<path d="M202.737 136.46C203.578 135.199 203.788 133.863 203.206 133.475C202.624 133.087 201.471 133.794 200.63 135.054C199.789 136.315 199.579 137.651 200.161 138.039C200.743 138.428 201.896 137.72 202.737 136.46Z" fill="#535B48"/>
<path d="M201.827 135.977C202.177 135.371 202.296 134.786 202.095 134.669C201.893 134.553 201.446 134.949 201.096 135.555C200.746 136.16 200.627 136.746 200.828 136.862C201.03 136.979 201.477 136.583 201.827 135.977Z" fill="#2F302E"/>
<path d="M160.102 182.982C152.927 190.208 154.615 196.539 146.174 200.971C137.733 205.402 95.4523 201.186 92.7827 201.815C89.1952 202.659 81.8364 202.783 79.0656 206.035C74.2118 211.733 74.0008 222.707 83.9193 220.597C89.4041 219.43 95.1041 214.477 98.6917 214.477C102.279 214.477 160.313 223.762 160.313 223.762L160.102 182.982Z" fill="#D8BFAB"/>
<path d="M81.3358 204.368C79.2762 206.035 80.5424 208.568 80.5424 208.568C80.5424 208.568 79.2762 210.045 80.9644 211.522C82.0301 212.455 80.5424 212.788 80.5424 212.788C80.5424 212.788 79.0651 214.477 80.7534 215.743C81.9816 216.665 80.7534 216.165 80.7534 216.165C80.7534 216.165 80.7428 218.275 83.0748 218.275C82.0196 219.33 81.9563 220.854 81.9563 220.854C78.432 220.808 76.978 219.103 76.5454 218.056C76.1128 217.009 75.2982 214.38 76.3386 211.157C77.3769 207.935 79.2171 205.71 79.7742 205.345C80.3313 204.98 81.3358 204.368 81.3358 204.368Z" fill="#F7F0EB"/>
<path d="M157.101 186.61C155.037 190.419 152.486 195.591 151.23 196.91C149.972 198.227 156.538 215.445 156.538 215.445L162.848 212.578L158.882 184.489L157.101 186.61Z" fill="#BCA08E"/>
<path d="M160.102 182.982C152.927 190.208 154.615 196.539 146.174 200.971C137.733 205.402 95.4523 201.186 92.7827 201.815C89.1952 202.659 81.8364 202.783 79.0656 206.035C74.2118 211.733 74.0008 222.707 83.9193 220.597C89.4041 219.43 95.1041 214.477 98.6917 214.477C102.279 214.477 160.313 223.762 160.313 223.762L160.102 182.982Z" stroke="#493C32" stroke-width="1.02408" stroke-miterlimit="10"/>
<path d="M246.415 164.884C246.626 162.774 247.259 153.066 245.148 150.956C243.038 148.845 238.817 148.423 238.395 146.524C237.973 144.625 238.184 135.339 231.853 132.174C216.401 124.448 209.273 132.385 207.162 132.174C205.052 131.963 202.098 133.651 202.098 133.651C202.098 133.651 202.098 135.339 200.831 136.816C199.565 138.294 197.877 141.037 196.189 141.881C194.5 142.725 176.352 146.313 175.929 147.157C175.507 148.001 175.296 155.809 180.783 159.186C183.7 160.98 187.806 161.701 191.459 162.048C189.189 164.707 185.791 168.246 182.683 169.738C177.407 172.27 161.79 180.5 159.258 183.877C156.725 187.253 156.514 200.76 157.147 205.613C157.781 210.467 159.469 231.148 159.469 231.148L214.971 194.217C214.971 194.217 211.805 183.666 213.071 179.656C214.264 175.879 229.443 165.918 233.02 161.073C233.331 160.653 233.561 160.178 233.704 159.676L233.964 158.764C233.964 158.764 239.138 160.089 239.661 160.874C240.506 162.14 238.395 165.728 238.817 166.994C239.239 168.26 247.048 173.325 247.681 173.114C248.314 172.903 246.204 166.994 246.415 164.884Z" fill="#D8BFAB"/>
<path d="M230.165 163.407C224.56 166.357 208.007 168.471 202.942 169.315C197.877 170.16 195.556 171.426 195.767 171.637C195.978 171.848 202.098 173.958 203.997 175.857C205.896 177.757 208.64 182.188 209.906 181.977C211.172 181.766 211.018 181.61 214.281 177.814C218.136 173.325 234.175 161.296 230.165 163.407Z" fill="#A08068"/>
<path d="M181.129 170.5C186.692 172.059 201.887 168.472 203.153 165.095C204.419 161.719 198.67 164.538 190.888 162.706C188.195 166.218 183.738 169.316 182.683 169.738C181.627 170.16 181.129 170.5 181.129 170.5Z" fill="#BCA08E"/>
<path d="M144.908 239.168C159.011 227.567 165.165 216.467 167.488 214.477C169.812 212.487 190.702 201.393 193.234 199.283C195.767 197.172 212.649 183.244 212.649 183.244L213.705 191.474L143.466 239.795" fill="#BCA08E"/>
<path d="M246.415 164.884C246.626 162.774 247.259 153.066 245.148 150.956C243.038 148.845 238.817 148.423 238.395 146.524C237.973 144.625 238.184 135.339 231.853 132.174C216.401 124.448 209.273 132.385 207.162 132.174C205.052 131.963 202.098 133.651 202.098 133.651C202.098 133.651 202.098 135.339 200.831 136.816C199.565 138.294 197.877 141.037 196.189 141.881C194.5 142.725 176.352 146.313 175.929 147.157C175.507 148.001 175.296 155.809 180.783 159.186C183.7 160.98 187.806 161.701 191.459 162.048C189.189 164.707 185.791 168.246 182.683 169.738C177.407 172.27 161.79 180.5 159.258 183.877C156.725 187.253 156.514 200.76 157.147 205.613C157.781 210.467 159.469 231.148 159.469 231.148L214.971 194.217C214.971 194.217 211.805 183.666 213.071 179.656C214.264 175.879 229.443 165.918 233.02 161.073C233.331 160.653 233.561 160.178 233.704 159.676L233.964 158.764C233.964 158.764 239.138 160.089 239.661 160.874C240.506 162.14 238.395 165.728 238.817 166.994C239.239 168.26 247.048 173.325 247.681 173.114C248.314 172.903 246.204 166.994 246.415 164.884Z" stroke="#493C32" stroke-width="1.02408" stroke-miterlimit="10"/>
<path d="M162.213 211.522C158.414 215.321 141.911 225.934 111.987 229.882C96.8365 231.881 88.2432 233.985 83.1721 235.907C89.9252 240.518 97.1721 244.458 104.816 247.634C106.428 247.105 108.123 246.611 110.087 246.132C117.896 244.232 169.599 234.947 169.599 234.947L178.04 180.078C168.121 189.364 166.011 207.724 162.213 211.522Z" fill="#D8BFAB"/>
<path d="M144.23 239.558C144.346 239.537 144.46 239.516 144.576 239.495L145.329 239.168C146.121 238.515 146.887 237.868 147.628 237.22L144.23 239.558Z" fill="#BCA08E"/>
<path d="M173.26 211.153C170.588 212.698 168.55 213.93 167.91 214.477C165.717 216.355 160.11 226.349 147.628 237.22L171.806 220.586L173.26 211.153Z" fill="#BCA08E"/>
<path d="M175.09 182.796C174.322 183.767 173.587 184.767 172.927 185.816C172.264 186.863 171.639 187.935 171.072 189.037C170.776 189.581 170.517 190.145 170.24 190.7C169.983 191.263 169.713 191.822 169.47 192.392C168.47 194.661 167.598 196.982 166.773 199.316C165.944 201.65 165.18 204.005 164.325 206.324C163.892 207.481 163.437 208.631 162.863 209.716C162.58 210.258 162.255 210.782 161.858 211.231L161.708 211.4C161.658 211.455 161.596 211.503 161.541 211.556L161.202 211.866L160.862 212.176C160.746 212.276 160.621 212.368 160.503 212.466C158.587 214.012 156.485 215.327 154.349 216.562C150.04 218.978 145.509 220.991 140.869 222.694C136.226 224.397 131.473 225.784 126.668 226.947L123.047 227.746L122.142 227.947L121.23 228.116L119.407 228.453C116.982 228.941 114.527 229.257 112.084 229.633C107.181 230.323 102.271 231.003 97.4043 231.935C92.5399 232.868 87.682 233.936 83.0055 235.631C82.8598 235.679 82.7163 235.732 82.575 235.787C82.6931 235.867 82.8113 235.949 82.9295 236.03C82.9949 236.006 83.0603 235.979 83.1279 235.958C87.7685 234.274 92.6159 233.206 97.4697 232.271C102.328 231.338 107.23 230.657 112.13 229.967C114.58 229.591 117.039 229.27 119.468 228.783L121.295 228.443L122.209 228.272L123.117 228.071L126.746 227.267C131.562 226.098 136.327 224.705 140.983 222.996C145.634 221.287 150.182 219.267 154.506 216.834C156.648 215.585 158.754 214.259 160.687 212.687C160.807 212.588 160.932 212.495 161.05 212.392L161.396 212.075L161.74 211.759C161.797 211.704 161.856 211.655 161.911 211.598L162.069 211.419C162.491 210.94 162.818 210.4 163.107 209.845C163.688 208.737 164.141 207.578 164.572 206.415C165.424 204.085 166.176 201.728 166.984 199.39C167.792 197.052 168.643 194.728 169.624 192.457C169.863 191.888 170.126 191.328 170.38 190.765C170.65 190.21 170.907 189.647 171.194 189.1C171.747 187.994 172.357 186.918 173.005 185.865C173.648 184.81 174.37 183.803 175.126 182.824C175.892 181.853 176.73 180.939 177.618 180.076C176.719 180.931 175.871 181.834 175.09 182.796Z" fill="#493C32"/>
<path d="M169.149 234.791C159.403 236.54 149.66 238.304 139.921 240.094C135.052 240.989 130.184 241.892 125.317 242.81L118.022 244.207L114.379 244.931L112.56 245.307C111.953 245.429 111.347 245.558 110.743 245.697C108.511 246.189 106.305 246.803 104.138 247.525C104.313 247.598 104.486 247.67 104.661 247.742C106.687 247.083 108.745 246.518 110.826 246.062C111.427 245.923 112.031 245.796 112.638 245.674L114.455 245.298L118.096 244.576L125.387 243.175C130.251 242.251 135.116 241.341 139.984 240.44C149.719 238.636 159.46 236.861 169.204 235.099L169.149 234.791Z" fill="#493C32"/>
<path d="M236.842 151.935C240.78 150.903 243.471 154.664 243.471 154.664L241.913 157.913C241.913 157.913 238.442 157.137 237.152 155.788C236.509 155.113 234.875 152.45 236.842 151.935Z" fill="#A08068"/>
<path d="M241.474 153.493C243.696 153.596 244.652 155.936 245.024 157.35C244.283 156.285 243.511 155.983 243.511 155.983C243.511 155.983 244.838 156.643 245.178 158.821C244.498 157.992 244.004 157.869 244.004 157.869C244.004 157.869 244.745 158.935 245.055 160.115C244.315 159.049 241.29 158.078 240.334 157.067C239.376 156.059 239.839 153.417 241.474 153.493Z" fill="#EFDECE"/>
<path d="M203.575 144.836C205.422 145.452 206.951 143.359 208.429 140.826C209.906 138.294 208.429 139.771 206.74 141.037C205.052 142.304 202.942 144.625 203.575 144.836Z" fill="#EFDECE"/>
<path d="M234.386 154.543C231.387 154.543 233.753 151.378 234.808 150.745C235.863 150.112 238.184 148.423 238.395 148.845C238.606 149.268 235.23 151.589 235.23 152.011C235.23 152.433 235.441 154.543 234.386 154.543Z" fill="#EFDECE"/>
<path d="M206.318 164.04C209.176 165.946 217.081 164.884 220.035 164.673C222.99 164.462 227.211 160.452 227.844 159.608C228.477 158.764 224.678 161.719 221.513 161.719C218.347 161.719 214.549 159.608 212.649 160.03C210.75 160.452 205.685 163.618 206.318 164.04Z" fill="#EFDECE"/>
<path d="M182.894 150.956C183.419 149.204 183.822 146.321 181.839 145.469C179.665 145.735 174.452 146.102 175.822 150.006C175.727 150.565 178 151.335 178.443 151.994C178.886 152.652 180.68 153.691 181.419 153.066C182.157 152.441 182.894 150.956 182.894 150.956Z" fill="#685343"/>
<path d="M183.21 150.006C182.976 150.846 182.805 151.69 182.412 152.517C182.307 152.72 182.18 152.925 182.005 153.104C181.832 153.285 181.6 153.433 181.353 153.511C181.104 153.591 180.847 153.615 180.606 153.602C180.374 153.594 180.108 153.551 179.874 153.461C179.401 153.283 179.025 152.994 178.673 152.714C178.325 152.427 178.004 152.129 177.668 151.867C177.502 151.736 177.341 151.604 177.149 151.525C176.959 151.443 176.759 151.401 176.594 151.354C176.428 151.306 176.301 151.257 176.185 151.181C176.067 151.103 175.965 150.996 175.754 150.808L175.63 150.183C175.843 149.911 176.185 149.816 176.489 149.833C176.797 149.854 177.071 149.979 177.282 150.143C177.495 150.31 177.647 150.523 177.797 150.711C177.945 150.903 178.107 151.057 178.261 151.219C178.565 151.544 178.863 151.855 179.171 152.135C179.477 152.416 179.8 152.661 180.133 152.811C180.3 152.884 180.465 152.929 180.663 152.958C180.853 152.986 181.037 152.994 181.205 152.96C181.545 152.906 181.836 152.65 182.064 152.308C182.296 151.971 182.486 151.578 182.668 151.188L183.21 150.006Z" fill="#493C32"/>
<path d="M181.454 159.558C183.738 160.874 188.803 161.93 191.546 161.93C194.289 161.93 196.189 160.663 196.189 160.663C196.189 160.663 191.806 161.292 189.037 160.978C186.27 160.663 181.454 159.558 181.454 159.558Z" fill="#A08068"/>
<path d="M181.174 159.239C183.617 159.982 186.114 160.579 188.657 160.859C191.193 161.14 193.785 161.104 196.294 160.558C193.798 161.155 191.198 161.246 188.642 161.016C186.082 160.786 183.558 160.237 181.085 159.543L181.174 159.239Z" fill="#493C32"/>
<path d="M207.268 145.575C208.03 144.053 208.956 143.464 210.222 143.886C211.489 144.308 213.388 147.685 214.232 147.896C212.333 150.006 210.433 149.795 209.378 149.373C208.323 148.951 207.268 147.896 207.268 145.575Z" fill="#ECEDEB"/>
<path d="M212.212 149.373C212.615 148.645 212.86 147.685 212.86 146.63C212.86 146.606 212.858 146.585 212.858 146.562C211.999 145.496 210.993 144.144 210.222 143.886C209.471 143.635 208.842 143.743 208.294 144.188C207.981 144.872 207.584 145.397 207.584 146.313C207.584 146.914 207.876 147.801 208.019 148.316C208.403 148.845 208.891 149.179 209.378 149.373C210.051 149.643 211.069 149.825 212.212 149.373Z" fill="#535B48"/>
<path d="M207.268 145.575C208.03 144.053 208.956 143.464 210.222 143.886C211.489 144.308 213.388 147.685 214.232 147.896C212.333 150.006 210.433 149.795 209.378 149.373C208.323 148.951 207.268 147.896 207.268 145.575Z" stroke="#493C32" stroke-width="0.68272" stroke-miterlimit="10"/>
<path d="M209.906 147.79C210.605 147.79 211.172 147.176 211.172 146.418C211.172 145.661 210.605 145.047 209.906 145.047C209.207 145.047 208.64 145.661 208.64 146.418C208.64 147.176 209.207 147.79 209.906 147.79Z" fill="#2F302E"/>
<path d="M210.539 145.047C209.967 145.097 209.674 146.024 209.906 146.313C210.167 146.638 211.29 146.387 211.383 145.891C211.448 145.534 210.99 145.007 210.539 145.047Z" fill="#ECEDEB"/>
<path d="M216.86 142.339C215.372 142.405 212.77 141.959 212.2 141.618C211.191 141.014 212.031 139.784 212.031 139.784C212.031 139.784 214.768 139.872 216.86 142.339Z" fill="#AF8D6D"/>
<path d="M195.857 171.464C197.081 170.793 198.421 170.358 199.759 169.976C201.102 169.596 202.467 169.297 203.834 169.02C205.204 168.75 206.578 168.512 207.96 168.317C209.336 168.121 210.712 167.898 212.084 167.665C214.825 167.186 217.579 166.745 220.312 166.226C221.679 165.971 223.045 165.696 224.4 165.38C225.075 165.215 225.755 165.061 226.421 164.867C226.755 164.77 227.088 164.673 227.415 164.553C227.745 164.441 228.065 164.308 228.371 164.141C227.776 164.508 227.107 164.734 226.449 164.958C225.786 165.175 225.115 165.367 224.44 165.544C223.089 165.893 221.73 166.205 220.365 166.49C218.997 166.766 217.626 167.009 216.254 167.258C214.884 167.509 213.51 167.741 212.134 167.965C210.758 168.189 209.383 168.404 208 168.592C206.622 168.782 205.248 168.995 203.879 169.238C202.509 169.482 201.148 169.769 199.8 170.107C198.449 170.449 197.109 170.85 195.857 171.464Z" fill="#493C32"/>
<path d="M232.803 150.85C232.457 151.133 232.121 151.431 231.832 151.768C231.547 152.104 231.3 152.499 231.26 152.935C231.237 153.374 231.473 153.779 231.792 154.073C232.111 154.375 232.495 154.6 232.883 154.814C233.28 155.025 233.672 155.244 234.05 155.493C234.426 155.744 234.793 156.029 235.067 156.413L235.169 156.559C235.198 156.609 235.223 156.664 235.251 156.717C235.312 156.82 235.342 156.937 235.382 157.05C235.413 157.164 235.432 157.283 235.449 157.401C235.451 157.519 235.47 157.637 235.46 157.753C235.441 158.224 235.323 158.671 235.181 159.104L234.882 158.998C235.029 158.587 235.152 158.165 235.181 157.741C235.219 157.316 235.112 156.899 234.873 156.548C234.637 156.196 234.295 155.909 233.938 155.656C233.577 155.402 233.195 155.172 232.809 154.951C232.421 154.723 232.035 154.48 231.712 154.157C231.556 153.993 231.406 153.813 231.311 153.602L231.241 153.444L231.203 153.275L231.184 153.191L231.182 153.104V152.931C231.239 152.469 231.507 152.076 231.803 151.745C232.104 151.41 232.448 151.123 232.803 150.85Z" fill="#493C32"/>
<path d="M239.389 167.724C241.877 166.044 244.621 164.989 244.41 163.934C244.199 162.879 242.627 160.785 239.085 160.46" stroke="#493C32" stroke-width="1.02408" stroke-miterlimit="10"/>
<path d="M158.49 190.01C159.741 186.217 161.79 184.088 162.846 185.565C163.901 187.043 160.524 194.007 160.102 195.906C159.68 197.805 158.414 202.659 158.414 202.659C158.414 202.659 157.513 192.979 158.49 190.01Z" fill="#EFDACA"/>
<path d="M202.138 133.746C201.88 133.672 201.623 133.598 201.359 133.546C201.627 133.514 201.899 133.503 202.169 133.495L202.138 133.746Z" fill="#493C32"/>
<path d="M89.4059 216.798C86.9093 217.952 84.3411 214.899 83.919 213C83.5813 211.48 84.3411 208.99 86.3311 207.397C88.0996 205.981 90.039 207.302 89.8279 208.99C89.6844 210.144 88.5533 211.341 88.7728 212.155C88.9922 212.97 90.5433 216.273 89.4059 216.798Z" fill="#77594B"/>
<path d="M80.9646 207.302C79.7089 207.238 78.7171 208.365 78.8543 208.779C79.2763 210.045 82.522 209.087 82.6529 208.357C82.7246 207.96 81.8362 207.346 80.9646 207.302Z" fill="#77594B"/>
<path d="M79.0652 211.311C78.6791 211.658 77.9721 212.481 78.2211 213C78.5651 213.715 80.7704 213.932 81.5976 212.789C82.0471 212.166 82.1062 211.119 81.5976 210.678C80.9667 210.132 79.711 210.731 79.0652 211.311Z" fill="#77594B"/>
<path d="M79.08 215.614C78.7613 216.117 78.7022 216.982 79.08 217.292C79.8376 217.915 82.3721 216.311 82.2244 215.614C82.0956 215.011 79.8207 214.445 79.08 215.614Z" fill="#77594B"/>
<path d="M81.6016 218.851C81.6206 220.403 84.9739 218.064 84.7587 217.256C84.6911 217.007 83.5368 216.971 82.6546 217.522C82.0194 217.919 81.5974 218.486 81.6016 218.851Z" fill="#77594B"/>
<path d="M237.551 183.455C232.974 180.349 229.408 178.255 221.262 178.844C218.894 179.015 219.191 182.4 218.769 182.611C213.158 185.418 201.676 197.172 196.189 200.971C190.702 204.769 172.342 213.633 168.965 215.532C165.589 217.431 153.349 231.148 150.395 233.892C147.503 236.576 129.859 249.57 127.922 254.672C135.236 256.061 142.783 256.789 150.5 256.789C163.723 256.789 176.447 254.653 188.347 250.711C188.473 248.865 188.765 247.265 189.436 246.132C190.727 243.946 199.935 242.367 209.841 241.154C227.05 231.374 241.609 217.474 252.18 200.793C247.651 193.312 241.069 185.842 237.551 183.455Z" fill="#F9D6C2"/>
<path d="M201.224 242.175C199.375 242.483 197.531 242.819 195.703 243.247C194.79 243.462 193.88 243.697 192.981 243.981C192.534 244.127 192.084 244.277 191.645 244.456C191.206 244.634 190.769 244.828 190.356 245.077C190.149 245.201 189.944 245.334 189.756 245.497C189.657 245.571 189.575 245.67 189.484 245.758C189.4 245.851 189.322 245.967 189.258 246.071C189.149 246.286 189.024 246.497 188.942 246.723C188.898 246.835 188.849 246.944 188.807 247.058L188.697 247.4C188.414 248.316 188.286 249.259 188.201 250.196C188.184 250.388 188.172 250.583 188.159 250.775C188.286 250.732 188.414 250.69 188.541 250.648C188.551 250.509 188.56 250.369 188.573 250.23C188.655 249.306 188.784 248.386 189.054 247.51L189.157 247.183C189.195 247.075 189.242 246.972 189.284 246.866C189.362 246.651 189.478 246.459 189.579 246.256C189.788 245.898 190.162 245.628 190.546 245.395C190.934 245.161 191.356 244.973 191.784 244.802C192.211 244.627 192.652 244.482 193.093 244.338C193.979 244.06 194.88 243.825 195.788 243.612C197.603 243.188 199.443 242.852 201.285 242.546C203.984 242.105 206.694 241.734 209.41 241.401C209.697 241.24 209.982 241.078 210.267 240.915C207.247 241.278 204.229 241.681 201.224 242.175Z" fill="#CE8E6E"/>
<path d="M244.463 189.929C243.239 188.509 241.97 187.125 240.615 185.823C239.94 185.171 239.242 184.54 238.501 183.955L238.224 183.736L237.935 183.529C237.743 183.387 237.551 183.252 237.355 183.126C236.967 182.864 236.576 182.604 236.182 182.349C235.791 182.089 235.386 181.849 234.987 181.6C234.578 181.368 234.179 181.121 233.757 180.908C232.93 180.456 232.062 180.076 231.178 179.751C229.401 179.11 227.527 178.751 225.649 178.645C223.769 178.529 221.886 178.616 220.019 178.793L220.05 179.108C221.905 178.932 223.773 178.848 225.63 178.964C227.487 179.07 229.325 179.424 231.068 180.055C231.938 180.376 232.788 180.752 233.605 181.197C234.018 181.406 234.415 181.653 234.82 181.883C235.215 182.13 235.616 182.368 236.004 182.625C236.397 182.879 236.785 183.136 237.171 183.4C237.368 183.529 237.558 183.662 237.743 183.799L238.024 184.001L238.296 184.217C239.024 184.791 239.714 185.417 240.383 186.065C241.725 187.359 242.99 188.735 244.205 190.151C245.421 191.567 246.59 193.025 247.708 194.519C249.261 196.598 250.732 198.744 252.07 200.966C252.14 200.857 252.21 200.745 252.279 200.635C250.956 198.455 249.508 196.353 247.983 194.313C246.858 192.814 245.687 191.35 244.463 189.929Z" fill="#CE8E6E"/>
<path d="M128.097 254.704C128.112 254.66 128.126 254.613 128.145 254.569L128.221 254.417L128.373 254.113C128.814 253.313 129.401 252.583 130.002 251.876C130.606 251.169 131.248 250.492 131.906 249.831C133.221 248.508 134.599 247.244 136 246.009C138.805 243.538 141.702 241.173 144.619 238.828C146.075 237.655 147.541 236.492 148.993 235.308C149.715 234.715 150.447 234.111 151.108 233.44C151.775 232.78 152.423 232.102 153.07 231.427C155.656 228.719 158.209 225.984 160.813 223.3C162.115 221.958 163.428 220.624 164.768 219.324C165.439 218.674 166.117 218.033 166.815 217.414C167.514 216.802 168.223 216.18 168.997 215.707C170.624 214.81 172.306 213.975 173.971 213.124L178.977 210.583C182.311 208.884 185.641 207.173 188.936 205.394C190.586 204.51 192.221 203.594 193.836 202.642L195.037 201.91L196.216 201.137C196.598 200.863 196.982 200.591 197.354 200.304C197.721 200.013 198.099 199.732 198.457 199.43C201.363 197.06 204.115 194.521 206.903 192.025C208.294 190.774 209.695 189.535 211.109 188.309C212.525 187.087 213.958 185.884 215.446 184.749C213.926 185.842 212.472 187.023 211.033 188.22C209.594 189.417 208.18 190.645 206.774 191.879L202.556 195.581C201.148 196.813 199.734 198.037 198.28 199.209C197.921 199.506 197.546 199.783 197.179 200.072C196.807 200.354 196.427 200.622 196.05 200.893L194.878 201.652L193.68 202.376C192.067 203.317 190.438 204.235 188.788 205.115C185.496 206.892 182.168 208.602 178.833 210.298L173.828 212.837C172.161 213.69 170.487 214.517 168.839 215.426C168.014 215.931 167.311 216.551 166.604 217.17C165.901 217.792 165.22 218.438 164.546 219.09C163.2 220.394 161.885 221.728 160.583 223.072C157.975 225.759 155.419 228.494 152.836 231.199C152.188 231.874 151.54 232.548 150.88 233.206C150.228 233.871 149.512 234.457 148.789 235.053C147.341 236.234 145.874 237.397 144.416 238.57C141.497 240.915 138.598 243.283 135.785 245.76C134.379 246.999 132.997 248.267 131.674 249.597C131.011 250.262 130.365 250.943 129.753 251.659C129.144 252.376 128.548 253.113 128.084 253.953L127.924 254.276L127.844 254.438C127.82 254.493 127.801 254.554 127.78 254.611L127.768 254.647C127.871 254.664 127.983 254.683 128.097 254.704Z" fill="#CE8E6E"/>
<path d="M150.5 256.789C216.934 256.789 270.789 202.934 270.789 136.5C270.789 70.0661 216.934 16.2109 150.5 16.2109C84.0661 16.2109 30.2109 70.0661 30.2109 136.5C30.2109 202.934 84.0661 256.789 150.5 256.789Z" stroke="#111111" stroke-width="1.36544" stroke-miterlimit="10"/>
<path d="M196.748 90.828C195.621 85.8476 198.029 78.9257 203.269 79.4702C209.079 80.0737 208.454 86.4343 208.454 86.4343C208.454 86.4343 213.671 82.7159 217.115 87.4325C220.221 91.689 215.452 97.1548 210.581 98.6869C205.711 100.219 199.778 101.521 199.778 101.521C199.778 101.521 197.873 95.8084 196.748 90.828Z" fill="#CE0000"/>
<path d="M205.672 105.826C206.325 103.796 208.659 101.819 210.427 103.125C212.388 104.575 210.815 106.73 210.815 106.73C210.815 106.73 213.481 106.5 213.717 108.926C213.932 111.115 211.056 112.071 208.979 111.588C206.903 111.104 204.495 110.315 204.495 110.315C204.495 110.315 205.02 107.854 205.672 105.826Z" fill="#CE0000"/>
<path d="M184.472 102.505C182.469 101.777 180.58 99.3686 181.954 97.6508C183.478 95.7473 185.571 97.3997 185.571 97.3997C185.571 97.3997 185.443 94.728 187.876 94.5824C190.073 94.4515 190.917 97.3596 190.356 99.4172C189.794 101.475 188.914 103.851 188.914 103.851C188.914 103.851 186.477 103.233 184.472 102.505Z" fill="#CE0000"/>
</g>
<defs>
<linearGradient id="paint0_linear" x1="70.9525" y1="127.494" x2="108.998" y2="136.936" gradientUnits="userSpaceOnUse">
<stop stop-color="#EAB89D"/>
<stop offset="0.6517" stop-color="#F3CBB4"/>
<stop offset="0.9944" stop-color="#F9D6C2"/>
</linearGradient>
<linearGradient id="paint1_linear" x1="167.347" y1="122.51" x2="149.359" y2="125.015" gradientUnits="userSpaceOnUse">
<stop stop-color="#EAB89D"/>
<stop offset="0.6517" stop-color="#F3CBB4"/>
<stop offset="0.9944" stop-color="#F9D6C2"/>
</linearGradient>
<clipPath id="clip0">
<rect width="241" height="241" fill="white" transform="translate(30 16)"/>
</clipPath>
</defs>
</svg>
